<?xml version="1.0" encoding="utf-8"?>
<!-- Generator: Adobe Illustrator 26.0.1, SVG Export Plug-In . SVG Version: 6.00 Build 0)  -->
<svg version="1.1" xmlns="http://www.w3.org/2000/svg" xmlns:xlink="http://www.w3.org/1999/xlink" x="0px" y="0px"
	 viewBox="0 0 600 400" style="enable-background:new 0 0 600 400;" xml:space="preserve">
<style type="text/css">
	.st0{fill:#DDE0B6;}
	.st1{fill:#AF7C84;}
	.st2{fill:#CFD6F6;}
	.st3{fill:#5361A3;}
	.st4{fill:#FCD8AE;}
	.st5{clip-path:url(#SVGID_00000103963590453774656160000000101326527270166915_);fill:#D48648;}
	.st6{fill:#FFDDA3;}
	.st7{fill:#331338;}
	.st8{fill:#D48648;}
	.st9{fill:#AD5F1F;}
	.st10{fill:#FF9A75;}
	.st11{fill:#EF7959;}
	.st12{fill:#A19623;}
	.st13{fill:#F2AE72;}
	.st14{fill:#702831;}
	.st15{fill:#E5EBFF;}
	.st16{fill:#8D9FED;}
	.st17{clip-path:url(#SVGID_00000136372024587624590870000014737260078583615653_);}
	.st18{fill:#3D4778;}
	.st19{fill:#FFFFFF;}
	.st20{opacity:0.44;}
	.st21{opacity:0.22;fill:#FFFFFF;}
	.st22{fill:#F2D75E;}
	.st23{clip-path:url(#SVGID_00000091698827697758662980000015000449453114128016_);}
	.st24{clip-path:url(#SVGID_00000162354667496280412570000005068417933754710666_);}
	.st25{fill:#C25638;}
	.st26{fill:#D9415D;}
	.st27{fill:#86303A;}
	.st28{fill:#F29E57;}
	.st29{fill:#F6DF8A;}
	.st30{fill:#D4C962;}
	.st31{fill:#968E34;}
	.st32{fill:#6B8262;}
	.st33{fill:#AFBCF6;}
	.st34{fill:#DBD372;}
</style>
<g>
	<path class="st0" d="M493.53,333.47c21.95,4.81,30.63,11.02,30.39,17.86c-0.28,8.23-22.85,15.6-53.17,15.44
		c-13.83-0.07-67.06-0.41-83.34-0.52c-85.99-0.58-226.73,2.08-269.63,0.52c-42.38-1.54-53.41-10.29-50.05-20.86
		c3.83-12.02,32.23-15.05,77.38-16.66c65.64-2.34,241.58-3.16,275.51-2.2C445.53,327.75,472.92,328.95,493.53,333.47z"/>
</g>
<g>
	<g>
		<rect x="169.91" y="97.96" class="st1" width="6.94" height="242.67"/>
	</g>
	<g>
		<polygon class="st1" points="176.78,98.65 173.57,114.28 169.91,132.07 127.04,340.62 119.96,340.62 169.98,97.26 173.38,97.96 
			173.39,97.96 		"/>
	</g>
	<g>
		<polygon class="st1" points="232.72,340.62 225.6,340.62 176.85,128.55 173.57,114.28 170,98.73 173.37,97.96 173.38,97.96 
			176.77,97.18 		"/>
	</g>
	<polygon class="st2" points="196.03,43.98 150.73,43.98 138.2,114.34 208.56,114.34 	"/>
	<g>
		<g>
			<g>
				<path class="st3" d="M200.53,110.32c-0.24,0-0.45-0.18-0.49-0.42l-9.88-62.15c-0.04-0.27,0.14-0.53,0.42-0.57
					c0.28-0.05,0.53,0.14,0.57,0.42l9.88,62.15c0.04,0.27-0.14,0.53-0.42,0.57C200.58,110.32,200.55,110.32,200.53,110.32z"/>
			</g>
		</g>
		<g>
			<g>
				<path class="st3" d="M191.14,110.32c-0.25,0-0.47-0.19-0.5-0.45l-6.52-62.15c-0.03-0.27,0.17-0.52,0.44-0.55
					c0.27-0.03,0.52,0.17,0.55,0.44l6.52,62.15c0.03,0.27-0.17,0.52-0.44,0.55C191.17,110.32,191.15,110.32,191.14,110.32z"/>
			</g>
		</g>
		<g>
			<g>
				<path class="st3" d="M182.27,110.32c-0.26,0-0.48-0.21-0.5-0.47l-3.21-62.15c-0.01-0.28,0.2-0.51,0.47-0.53
					c0.27-0.02,0.51,0.2,0.53,0.47l3.21,62.15c0.01,0.28-0.2,0.51-0.47,0.53C182.29,110.32,182.28,110.32,182.27,110.32z"/>
			</g>
		</g>
		<g>
			<g>
				<path class="st3" d="M173.3,110.32L173.3,110.32c-0.28,0-0.5-0.22-0.5-0.5l0.05-62.15c0-0.28,0.22-0.5,0.5-0.5h0
					c0.28,0,0.5,0.22,0.5,0.5l-0.05,62.15C173.8,110.1,173.57,110.32,173.3,110.32z"/>
			</g>
		</g>
		<g>
			<g>
				<path class="st3" d="M164.41,110.32c-0.01,0-0.02,0-0.03,0c-0.28-0.02-0.49-0.25-0.47-0.53l3.31-62.15
					c0.02-0.28,0.26-0.49,0.53-0.47c0.28,0.02,0.49,0.25,0.47,0.53l-3.31,62.15C164.9,110.12,164.68,110.32,164.41,110.32z"/>
			</g>
		</g>
		<g>
			<g>
				<path class="st3" d="M155.43,110.32c-0.02,0-0.04,0-0.05,0c-0.27-0.03-0.47-0.28-0.44-0.55l6.6-62.15
					c0.03-0.27,0.27-0.47,0.55-0.44c0.27,0.03,0.47,0.28,0.44,0.55l-6.6,62.15C155.9,110.13,155.68,110.32,155.43,110.32z"/>
			</g>
		</g>
		<g>
			<g>
				<path class="st3" d="M146.27,110.32c-0.03,0-0.05,0-0.08-0.01c-0.27-0.04-0.46-0.3-0.41-0.57l9.95-62.15
					c0.04-0.27,0.3-0.46,0.57-0.41c0.27,0.04,0.46,0.3,0.41,0.57l-9.95,62.15C146.72,110.15,146.51,110.32,146.27,110.32z"/>
			</g>
		</g>
	</g>
</g>
<g>
	<path class="st4" d="M389.1,138.31l-64.66,1.31l-0.77-1.39c-5.5-4.95-4.06-14.44,0.96-19.87c0.05-0.05,0.1-0.11,0.15-0.16
		c10.64-11.35,30.03-18.88,41.71-18.62c22.69,0.5,22.61,16.9,22.61,29.99V138.31z"/>
	<g>
		<defs>
			<path id="SVGID_1_" d="M389.1,138.23h-62.37l-1.2-1.08c-5.5-4.95-5.92-13.44-0.9-18.87c0.05-0.05,0.1-0.11,0.15-0.16
				c10.64-11.35,30.03-18.88,41.71-18.62c22.69,0.5,22.61,16.9,22.61,29.99V138.23z"/>
		</defs>
		<clipPath id="SVGID_00000115490712899475860770000008970253313258561711_">
			<use xlink:href="#SVGID_1_"  style="overflow:visible;"/>
		</clipPath>
		<path style="clip-path:url(#SVGID_00000115490712899475860770000008970253313258561711_);fill:#D48648;" d="M337.24,97.27
			c0.55-0.16,1.02-0.25,1.53-0.32c0.5-0.07,1-0.1,1.5-0.11c1-0.01,2.01,0.08,3,0.28c1.99,0.39,3.95,1.18,5.68,2.41
			c1.74,1.2,3.24,2.84,4.23,4.73c0.99,1.89,1.46,3.99,1.31,6.01c-0.05,0.63-0.6,1.11-1.23,1.06c-0.37-0.03-0.68-0.22-0.87-0.51
			l-0.04-0.06c-1-1.51-1.9-2.83-2.96-3.95c-1.04-1.13-2.17-2.08-3.43-2.93c-1.26-0.85-2.64-1.58-4.11-2.29
			c-0.74-0.35-1.5-0.7-2.28-1.05l-1.19-0.53l-0.6-0.27c-0.2-0.1-0.42-0.18-0.58-0.28l-0.22-0.13c-0.54-0.32-0.72-1.02-0.39-1.56
			C336.74,97.52,336.98,97.35,337.24,97.27z"/>
		<path style="clip-path:url(#SVGID_00000115490712899475860770000008970253313258561711_);fill:#D48648;" d="M349.88,95.59
			c0.55-0.16,1.02-0.25,1.53-0.32c0.5-0.07,1-0.1,1.5-0.11c1-0.01,2.01,0.08,3,0.28c1.99,0.39,3.95,1.18,5.68,2.41
			c1.74,1.2,3.24,2.84,4.23,4.73c0.99,1.89,1.46,3.99,1.31,6.01c-0.05,0.63-0.6,1.11-1.23,1.06c-0.37-0.03-0.68-0.22-0.87-0.51
			l-0.04-0.06c-1-1.51-1.9-2.83-2.96-3.95c-1.04-1.13-2.17-2.08-3.43-2.93c-1.26-0.85-2.64-1.58-4.11-2.29
			c-0.74-0.35-1.5-0.7-2.28-1.05l-1.19-0.53l-0.6-0.27c-0.2-0.1-0.42-0.18-0.58-0.28l-0.22-0.13c-0.54-0.32-0.72-1.02-0.39-1.56
			C349.38,95.85,349.62,95.67,349.88,95.59z"/>
		<path style="clip-path:url(#SVGID_00000115490712899475860770000008970253313258561711_);fill:#D48648;" d="M362.51,92.83
			c0.57-0.03,1.05,0,1.56,0.05c0.5,0.05,1,0.14,1.49,0.25c0.98,0.22,1.93,0.55,2.85,0.98c1.84,0.84,3.56,2.08,4.96,3.67
			c1.41,1.58,2.49,3.52,3.01,5.59c0.52,2.07,0.48,4.23-0.14,6.15c-0.2,0.6-0.84,0.94-1.45,0.74c-0.35-0.11-0.61-0.38-0.73-0.7
			l-0.02-0.07c-0.62-1.7-1.19-3.2-1.95-4.54c-0.74-1.34-1.62-2.54-2.65-3.65c-1.02-1.12-2.2-2.15-3.46-3.19
			c-0.63-0.52-1.29-1.03-1.97-1.55l-1.03-0.79l-0.52-0.4c-0.17-0.14-0.36-0.28-0.5-0.41l-0.18-0.18c-0.45-0.44-0.46-1.16-0.01-1.61
			C361.96,92.96,362.23,92.84,362.51,92.83z"/>
	</g>
	<path class="st6" d="M336.04,123.4c-1.15,2.02-3.22,3.53-4.64,3.54c-1.41-0.01-3.49-1.53-4.64-3.54c-1.15-2.01,0.92-3.98,4.64-3.98
		C335.11,119.43,337.19,121.39,336.04,123.4z"/>
	<ellipse class="st7" cx="331.11" cy="119.42" rx="1.73" ry="0.95"/>
	<g>
		<path class="st7" d="M333.35,122.37c-0.04,0-0.08-0.01-0.12-0.02c-1.14-0.34-1.76-0.92-2.1-1.46c-0.35,0.52-0.98,1.06-2.15,1.37
			c-0.22,0.06-0.45-0.07-0.51-0.3c-0.06-0.22,0.07-0.45,0.3-0.51c1.86-0.49,1.94-1.67,1.94-1.84c0-0.02,0-0.04,0-0.04
			c0-0.22,0.19-0.4,0.41-0.41c0,0,0.01,0,0.01,0c0.22,0,0.4,0.17,0.42,0.39c0,0.01,0,0.02,0,0.05c0.01,0.17,0.12,1.39,1.93,1.94
			c0.22,0.07,0.35,0.3,0.28,0.52C333.7,122.25,333.53,122.37,333.35,122.37z"/>
	</g>
	<path class="st7" d="M325.88,116.26c0,1.06-0.72,1.91-1.6,1.91c-0.88,0-1.6-0.86-1.6-1.91c0-1.06,0.71-1.91,1.6-1.91
		C325.17,114.35,325.88,115.2,325.88,116.26z"/>
	<path class="st7" d="M339.42,116.26c0,1.06-0.71,1.91-1.6,1.91c-0.88,0-1.6-0.86-1.6-1.91c0-1.06,0.72-1.91,1.6-1.91
		C338.71,114.35,339.42,115.2,339.42,116.26z"/>
	<path class="st4" d="M347.56,120c0,6.37-5.87,12.15-13.81,13.26c-8.54,1.19-16.31-3.19-17.55-10.08
		c-1.34-7.49,5.51-13.82,14.05-15.01c1.25-0.18,2.48-0.22,3.67-0.16c1.17,0.06,2.3,0.23,3.38,0.5c1.62,0.4,3.12,1.03,4.45,1.84
		c3.09,1.88,5.23,4.76,5.71,8.2C347.53,119.04,347.56,119.53,347.56,120z"/>
	<path class="st4" d="M342.21,111.47l-6.28,0.46l-2.84,0.21c0,0,0.29-1.99,0.82-4.13c0.64-2.59,1.63-5.4,2.88-5.09
		c0.94,0.23,2.02,1.72,2.96,3.39c0.82,1.44,1.54,3.02,1.99,4.05C342.04,111.04,342.21,111.47,342.21,111.47z"/>
	<path class="st8" d="M347.56,120c-0.86,0.24-1.78,0.37-2.73,0.37c-4.93,0-8.93-3.46-8.93-7.71c0-0.25,0.01-0.49,0.04-0.73
		c0.14-1.25,0.62-2.41,1.36-3.42c0.64-0.87,1.48-1.62,2.46-2.2c0.82,1.44,1.54,3.02,1.99,4.05c3.09,1.88,5.23,4.76,5.71,8.2
		C347.53,119.04,347.56,119.53,347.56,120z"/>
	<path class="st4" d="M326.75,113.56c0,0-4.69-7.18-7.03-7.28c-2.34-0.1-1.76,9.78-1.76,9.78L326.75,113.56z"/>
	<g>
		<path class="st9" d="M347.17,117.69c-0.24,0-0.45-0.17-0.49-0.42c-0.86-5.28-5.28-7.01-5.32-7.03c-0.26-0.1-0.39-0.39-0.29-0.65
			c0.1-0.26,0.39-0.39,0.64-0.29c0.2,0.08,5,1.96,5.95,7.81c0.04,0.27-0.14,0.53-0.41,0.57
			C347.22,117.68,347.2,117.69,347.17,117.69z"/>
	</g>
	<g>
		<path class="st9" d="M341.99,111.47c-0.18,0-0.34-0.09-0.42-0.28c0,0-0.03-0.08-0.03-0.09c-1.26-3.28-3.31-7.29-4.95-7.77
			c-0.26-0.08-0.42-0.36-0.34-0.62c0.08-0.26,0.36-0.42,0.62-0.34c2.44,0.72,4.73,6.1,5.6,8.38c0.1,0.25-0.01,0.58-0.27,0.68
			C342.13,111.46,342.05,111.47,341.99,111.47z"/>
	</g>
	<g>
		<path class="st9" d="M325.43,112.21c-0.14,0-0.27-0.06-0.36-0.18c-0.01-0.01-0.04-0.06-0.08-0.13c-1.94-3.11-3.93-5.02-5.3-5.12
			c-0.28-0.02-0.48-0.26-0.46-0.53c0.02-0.28,0.29-0.48,0.53-0.46c2.36,0.17,4.82,3.57,6.08,5.59c0.16,0.22,0.14,0.57-0.09,0.73
			C325.65,112.17,325.54,112.21,325.43,112.21z"/>
	</g>
	<path class="st8" d="M374.21,116.25c-1.71,1.78-3.12,4.19-3.86,7.44c-0.23,1-0.39,2.09-0.48,3.26c0,0-5.84,1.33-8.86,4.19
		c-0.52-1.17-0.79-2.44-0.79-3.75c0-6.15,6.1-11.14,13.63-11.14C373.98,116.24,374.1,116.24,374.21,116.25z"/>
	<g>
		<path class="st9" d="M369.8,132.49c-0.25,0-0.46-0.18-0.49-0.43c-0.38-2.84-0.14-6.42,0.57-8.53c1.1-3.24,2.2-5.78,3.97-7.62
			c4.49-4.69,10.99-5.19,12.88-5.23c0,0,0.01,0,0.01,0c0.27,0,0.54,0.21,0.55,0.48c0.01,0.27-0.16,0.5-0.43,0.52c0,0-0.1,0-0.11,0
			c-1.79,0.04-7.95,0.51-12.17,4.93c-1.64,1.71-2.69,4.14-3.75,7.25c-0.67,1.97-0.9,5.37-0.53,8.07c0.04,0.27-0.15,0.53-0.43,0.56
			C369.85,132.48,369.82,132.49,369.8,132.49z"/>
	</g>
	<g>
		<path class="st9" d="M360.32,139.3c-0.23,0-0.43-0.16-0.49-0.39c-0.02-0.1-0.49-2.39,2.12-4.76c1.69-1.73,4.09-2.07,6.01-2.35
			c1.75-0.25,2.83-0.45,3.01-1.22c0.06-0.27,0.33-0.44,0.6-0.38c0.27,0.06,0.44,0.33,0.38,0.6c-0.33,1.49-2.03,1.74-3.84,2
			c-1.87,0.27-3.99,0.57-5.46,2.08c-2.18,1.98-1.85,3.75-1.84,3.83c0.05,0.27-0.12,0.53-0.39,0.59
			C360.39,139.3,360.36,139.3,360.32,139.3z"/>
	</g>
	<path class="st7" d="M325.48,119.18c0,0.9-0.81,1.63-1.81,1.63c-1,0-1.81-0.73-1.81-1.63c0-0.9,0.81-1.63,1.81-1.63
		C324.67,117.55,325.48,118.28,325.48,119.18z"/>
	<path class="st7" d="M338.34,118.47c0,0.9-0.81,1.63-1.81,1.63c-1,0-1.81-0.73-1.81-1.63c0-0.9,0.81-1.63,1.81-1.63
		C337.53,116.84,338.34,117.57,338.34,118.47z"/>
</g>
<g>
	<path class="st10" d="M187.7,280.37c1.08,0.36-15.62,14-26.35,34.8c-0.71,1.38-2.2,2.19-3.75,2.01
		c-4.98-0.58-16.54-1.87-29.63-2.86c-7.32-0.55-24.63-2.23-24.63-2.23s-5.57-4.35,9.95-6.24c25.35-3.09,31.77-10.23,31.77-10.23
		c10.48-12.87,20-29.96,20-29.96S186.86,280.09,187.7,280.37z"/>
	<path class="st11" d="M218.77,272.36c-6.15,17.39-6.93,22.67-9.03,37.81c-0.16,1.15-0.97,2.11-2.07,2.47
		c-3.6,1.15-11.84,3.96-23.17,8.97c-3.96,1.75-14.32,5.33-20.72,7.51c-2.14,0.73-3.9-1.76-2.53-3.55c1.39-1.82,3.45-4,6.49-6.38
		c20.01-15.65,20.01-20.31,20.01-20.31c2.03-8.29,6.68-29.31,7.99-33.98C195.74,264.88,219.03,271.63,218.77,272.36z"/>
	<path class="st7" d="M282.91,184.84l-15.27-13.11c-5.3-3.77-12.38-3.05-16.57,1.64l-76.97,86.31c-0.24,0.16-0.45,0.36-0.62,0.58
		c-0.08,0.11-0.14,0.22-0.2,0.33l-0.29,0.33l0.13,0.09c-1.19,4.02,6.23,13.27,17.46,21.48c10.79,7.89,21.42,12.14,25.32,10.37
		l0.1,0.07l0.11-0.18c0.34-0.19,0.62-0.42,0.84-0.71c0.29-0.39,0.44-0.87,0.48-1.41L282.91,184.84z"/>
	<path class="st12" d="M242.97,172.86c-5.05-3.76-12.13-3.04-16.31,1.66c0,0-78.46,87.89-78.6,88.09
		c-2.56,3.5,5.09,13.46,17.09,22.24c12,8.78,23.81,13.05,26.37,9.55c0.16-0.22,14.33-11.36,16.01-26.74l1.97-7.52
		c2.47-6.45,7.08-6.72,11.64-11.92L233,234.71c3.76-5.39,8.8-12.07,8.8-21.72c0-10.08,11.04-12.82,14.73-22.22l2.37-6.04
		L242.97,172.86z"/>
	<polygon class="st7" points="227.72,354.93 221.42,354.93 218.14,330.62 232.03,330.38 	"/>
	<polygon class="st7" points="334.97,354.93 341.28,354.93 344.55,330.62 330.66,330.38 	"/>
	<polygon class="st7" points="291.52,354.93 285.22,354.93 281.94,330.62 295.83,330.38 	"/>
	<polygon class="st7" points="402.83,354.93 408.63,354.93 412.81,330.62 398.52,330.38 	"/>
	<path class="st13" d="M422.3,138.86l-8.99,57.82c-3.42,19.46-20.34,33.64-40.1,33.62l-15.16-0.01
		c-7.95-0.01-14.56,6.11-15.18,14.03l-2.6,33.24l-107.66-0.09l-11.96-47.49l35.89,0.13c19.82,0.09,36.82-14.12,40.25-33.63
		l6.15-33.76c2.45-13.94,14.56-24.1,28.71-24.08l88.11,0.08C420.61,138.72,421.46,138.77,422.3,138.86z"/>
	<path class="st7" d="M247.64,228.72c0,0,12.43,13.93,19.09,56.22l38.46,5.37l10.18-18.1l-59.39-45.82L247.64,228.72z"/>
	<g>
		<path class="st14" d="M369.63,116.86c-0.56-0.03-6.04,1.05-6.64,4.53c-0.61,3.54,3.51,8.09,12.88,8.79
			c9.37,0.7,0.69-12.76,0.69-12.76L369.63,116.86z"/>
		<path class="st7" d="M367.57,256.7c0,0-11.74,1.54-32.84,17.29c-10.66,7.95-22.09,3.11-31.36-7.67l-52.74-61.26l26.27-25.46
			L367.57,256.7z"/>
		<path class="st12" d="M351.03,253.62l-10.7,12.25c-13.78,15.77-38.07,16.48-52.74,1.52l-56.61-57.7l24.15-27.64L351.03,253.62z"/>
		<g>
			<path class="st7" d="M320.41,200.76l-0.42,1.21l-19.15-17.55h0l-11.76-41.12l-55.61,0.28c-1.3,0.01-2.79,1.28-2.43,3.78
				l8.74,39.1c0.18,0.81,0.57,1.56,1.13,2.17l18.34,20.01c1.27,1.13,3.01,1.26,3.93,1.17l55.37-5.73c0.94-0.09,1.83-0.69,1.86-1.52
				V200.76z"/>
			<path class="st3" d="M301.02,182.63l-59.22,3.66l-9.55-40.33c-0.32-1.37,0.49-2.46,1.85-2.47l54.98-0.19
				c1.43,0,2.91,1.19,3.25,2.64L301.02,182.63z"/>
			<path class="st15" d="M296.92,181.1l-3.32,0.2l-32.29,1.91l-15.57,0.93c-1.01,0.06-2.09-0.64-2.55-1.58
				c-0.02-0.04-0.04-0.08-0.07-0.13c-0.05-0.12-0.09-0.25-0.12-0.38l-0.02-0.06l-2.19-9.27l-1.16-4.91l-0.03-0.12l-4.81-20.31
				c-0.27-1.15,0.43-2.06,1.6-2.06l17.8-0.05l34.07-0.08c1.16,0,2.35,0.95,2.63,2.09l7.5,31.67l0.02,0.09
				C298.67,180.14,298.03,181.03,296.92,181.1z"/>
			<path class="st3" d="M319.31,202.19l-55.67,5.26c-1.64,0.16-3.27-0.42-4.32-1.53l-17.52-19.62l59.22-3.66l19.06,17.76
				C320.77,201.03,320.33,202.09,319.31,202.19z"/>
			<polygon class="st16" points="256.31,199.09 244.78,186.94 300.09,183.59 311.57,194.03 			"/>
			<g>
				<defs>
					<polygon id="SVGID_00000157284198075856548310000002486271153031965825_" points="256.31,199.09 244.78,186.94 300.35,183.58 
						311.57,194.03 					"/>
				</defs>
				<clipPath id="SVGID_00000049911235494728460140000013995336178289483154_">
					<use xlink:href="#SVGID_00000157284198075856548310000002486271153031965825_"  style="overflow:visible;"/>
				</clipPath>
				<g style="clip-path:url(#SVGID_00000049911235494728460140000013995336178289483154_);">
					<g>
						<g>
							<path class="st7" d="M266.18,204.55c-0.13,0-0.27-0.05-0.37-0.16l-19.24-20.71c-0.19-0.2-0.18-0.52,0.03-0.71
								c0.2-0.19,0.52-0.18,0.71,0.03l19.24,20.71c0.19,0.2,0.18,0.52-0.03,0.71C266.42,204.5,266.3,204.55,266.18,204.55z"/>
						</g>
						<g>
							<path class="st7" d="M271.64,203.33c-0.13,0-0.27-0.05-0.37-0.16l-19.24-20.71c-0.19-0.2-0.18-0.52,0.03-0.71
								c0.2-0.19,0.52-0.18,0.71,0.03l19.24,20.71c0.19,0.2,0.18,0.52-0.03,0.71C271.89,203.29,271.76,203.33,271.64,203.33z"/>
						</g>
						<g>
							<path class="st7" d="M277.1,202.36c-0.13,0-0.27-0.05-0.37-0.16l-19.24-20.71c-0.19-0.2-0.18-0.52,0.03-0.71
								c0.2-0.19,0.52-0.18,0.71,0.03l19.24,20.71c0.19,0.2,0.18,0.52-0.03,0.71C277.35,202.32,277.22,202.36,277.1,202.36z"/>
						</g>
						<g>
							<path class="st7" d="M282.55,202.32c-0.13,0-0.27-0.05-0.37-0.16l-19.24-20.71c-0.19-0.2-0.18-0.52,0.03-0.71
								c0.2-0.19,0.52-0.18,0.71,0.03l19.24,20.71c0.19,0.2,0.18,0.52-0.03,0.71C282.8,202.28,282.67,202.32,282.55,202.32z"/>
						</g>
						<g>
							<path class="st7" d="M288.01,201.11c-0.13,0-0.27-0.05-0.37-0.16l-19.24-20.71c-0.19-0.2-0.18-0.52,0.03-0.71
								c0.2-0.19,0.52-0.18,0.71,0.03l19.24,20.71c0.19,0.2,0.18,0.52-0.03,0.71C288.26,201.06,288.14,201.11,288.01,201.11z"/>
						</g>
						<g>
							<path class="st7" d="M293.47,200.14c-0.13,0-0.27-0.05-0.37-0.16l-19.24-20.71c-0.19-0.2-0.18-0.52,0.03-0.71
								c0.2-0.19,0.52-0.18,0.71,0.03l19.24,20.71c0.19,0.2,0.18,0.52-0.03,0.71C293.72,200.09,293.6,200.14,293.47,200.14z"/>
						</g>
						<g>
							<path class="st7" d="M298.93,199.93c-0.13,0-0.27-0.05-0.37-0.16l-19.24-20.71c-0.19-0.2-0.18-0.52,0.03-0.71
								c0.2-0.19,0.52-0.18,0.71,0.03l19.24,20.71c0.19,0.2,0.18,0.52-0.03,0.71C299.17,199.88,299.05,199.93,298.93,199.93z"/>
						</g>
						<g>
							<path class="st7" d="M304.39,198.71c-0.13,0-0.27-0.05-0.37-0.16l-19.24-20.71c-0.19-0.2-0.18-0.52,0.03-0.71
								c0.2-0.19,0.52-0.18,0.71,0.03l19.24,20.71c0.19,0.2,0.18,0.52-0.03,0.71C304.63,198.67,304.51,198.71,304.39,198.71z"/>
						</g>
						<g>
							<path class="st7" d="M309.85,197.74c-0.13,0-0.27-0.05-0.37-0.16l-19.24-20.71c-0.19-0.2-0.18-0.52,0.03-0.71
								c0.2-0.19,0.52-0.18,0.71,0.03l19.24,20.71c0.19,0.2,0.18,0.52-0.03,0.71C310.09,197.7,309.97,197.74,309.85,197.74z"/>
						</g>
					</g>
				</g>
				<g style="clip-path:url(#SVGID_00000049911235494728460140000013995336178289483154_);">
					<path class="st7" d="M240.49,192.11c-0.26,0-0.48-0.2-0.5-0.46c-0.02-0.28,0.19-0.52,0.46-0.54l75.45-5.62
						c0.27-0.02,0.52,0.19,0.54,0.46c0.02,0.28-0.19,0.52-0.46,0.54l-75.45,5.62C240.51,192.11,240.5,192.11,240.49,192.11z"/>
				</g>
				<g style="clip-path:url(#SVGID_00000049911235494728460140000013995336178289483154_);">
					<path class="st7" d="M241.42,196.71c-0.26,0-0.48-0.2-0.5-0.46c-0.02-0.28,0.18-0.52,0.46-0.54l75.4-6.1
						c0.28-0.01,0.52,0.18,0.54,0.46c0.02,0.28-0.18,0.52-0.46,0.54l-75.39,6.1C241.44,196.71,241.43,196.71,241.42,196.71z"/>
				</g>
			</g>
			<path class="st18" d="M296.92,181.1l-3.32,0.2l-32.29,1.91l-15.57,0.93c-1.01,0.06-2.09-0.64-2.55-1.58
				c-0.02-0.04-0.04-0.08-0.07-0.13c-0.06-0.14-0.12-0.29-0.16-0.44h0.02l18.14-1l37.27-2.04l0.02,0.09
				C298.67,180.14,298.03,181.03,296.92,181.1z"/>
			<g>
				<g>
					<path class="st16" d="M281.62,176.19l-32.64,1.65c-0.82,0.05-1.55-0.51-1.72-1.33l-5.98-25.28l-0.46-2.08
						c-0.12-0.6,0.32-1.17,0.92-1.18l32.64-0.24c0.77,0,1.44,0.52,1.63,1.28l0.45,1.8l6.03,24.18
						C282.62,175.58,282.21,176.15,281.62,176.19z"/>
					<path class="st3" d="M248.88,178.2c-0.95,0-1.77-0.66-1.97-1.62l-6.44-27.36c-0.08-0.4,0.02-0.81,0.27-1.13
						c0.25-0.31,0.61-0.49,1-0.49l32.64-0.24c0.95,0,1.76,0.64,1.98,1.56l6.48,25.97c0.09,0.39,0.01,0.79-0.22,1.11
						c-0.23,0.31-0.58,0.51-0.97,0.53l-0.01,0L249,178.2C248.96,178.2,248.92,178.2,248.88,178.2z M274.38,148.09l-32.64,0.24
						c-0.17,0-0.33,0.08-0.45,0.22c-0.12,0.15-0.16,0.34-0.13,0.53l0.46,2.08l5.98,25.27c0.14,0.65,0.71,1.1,1.35,1.05l32.64-1.65
						c0.17-0.01,0.33-0.1,0.43-0.24c0.11-0.15,0.15-0.34,0.1-0.52l-6.48-25.98C275.51,148.5,274.99,148.09,274.38,148.09z"/>
				</g>
				<path class="st3" d="M276.45,150.81l-35.18,0.43l-0.46-2.08c-0.12-0.6,0.32-1.17,0.92-1.18l32.64-0.24
					c0.77,0,1.44,0.52,1.63,1.28L276.45,150.81z"/>
				<g>
					<g>
						<g>
							<path class="st3" d="M247.62,168.72c-0.19,0-0.35-0.15-0.36-0.35c-0.01-0.2,0.15-0.37,0.35-0.37l31.32-1.22
								c0.22-0.02,0.37,0.15,0.37,0.35c0.01,0.2-0.15,0.37-0.35,0.37l-31.32,1.22C247.63,168.72,247.62,168.72,247.62,168.72z"/>
						</g>
					</g>
					<g>
						<g>
							<path class="st3" d="M246.8,165.74c-0.19,0-0.35-0.15-0.36-0.35c-0.01-0.2,0.15-0.37,0.35-0.37l31.33-1.05
								c0.22-0.01,0.37,0.15,0.37,0.35c0.01,0.2-0.15,0.37-0.35,0.37l-31.33,1.05C246.8,165.74,246.8,165.74,246.8,165.74z"/>
						</g>
					</g>
					<g>
						<g>
							<path class="st3" d="M245.99,162.77c-0.19,0-0.35-0.15-0.36-0.35c-0.01-0.2,0.15-0.36,0.35-0.37l31.33-0.89
								c0.22,0.02,0.36,0.15,0.37,0.35c0.01,0.2-0.15,0.36-0.35,0.37L246,162.77C246,162.77,245.99,162.77,245.99,162.77z"/>
						</g>
					</g>
					<g>
						<g>
							<path class="st3" d="M245.2,159.78c-0.19,0-0.36-0.16-0.36-0.35c0-0.2,0.15-0.36,0.35-0.37l31.34-0.72c0,0,0.01,0,0.01,0
								c0.19,0,0.36,0.16,0.36,0.35c0,0.2-0.15,0.36-0.35,0.37L245.2,159.78C245.2,159.78,245.2,159.78,245.2,159.78z"/>
						</g>
					</g>
					<g>
						<g>
							<path class="st3" d="M244.42,156.8c-0.2,0-0.36-0.16-0.36-0.35c0-0.2,0.15-0.36,0.35-0.37l31.34-0.55
								c0.18,0,0.36,0.15,0.37,0.35c0,0.2-0.15,0.36-0.35,0.37L244.42,156.8C244.42,156.8,244.42,156.8,244.42,156.8z"/>
						</g>
					</g>
					<g>
						<g>
							<path class="st3" d="M243.66,153.81c-0.2,0-0.36-0.16-0.36-0.36c0-0.2,0.16-0.36,0.36-0.36L275,152.7c0,0,0,0,0,0
								c0.2,0,0.36,0.16,0.36,0.36c0,0.2-0.16,0.36-0.36,0.36L243.66,153.81C243.66,153.81,243.66,153.81,243.66,153.81z"/>
						</g>
					</g>
				</g>
				<path class="st3" d="M294.53,177.9l-19.73,0.97c-1.1,0.06-1.72-0.84-2.1-1.93l-0.79-2.77c-0.36-1.52,0.44-2.18,1.89-2.14
					l17.53-0.61c1.1-0.06,1.89,0.7,2.1,1.93L294.53,177.9z"/>
				<ellipse class="st19" cx="242.95" cy="149.54" rx="0.55" ry="0.56"/>
				<path class="st19" d="M245.3,149.54c0,0.31-0.25,0.56-0.55,0.56c-0.31,0-0.55-0.25-0.55-0.56c0-0.31,0.25-0.56,0.55-0.56
					C245.06,148.97,245.3,149.23,245.3,149.54z"/>
				<path class="st19" d="M247.13,149.54c0,0.31-0.25,0.56-0.55,0.56c-0.31,0-0.55-0.25-0.55-0.56c0-0.31,0.25-0.56,0.55-0.56
					C246.88,148.97,247.13,149.23,247.13,149.54z"/>
				<g class="st20">
					<g>
						<path class="st19" d="M273.74,174.05c-0.13,0-0.24-0.1-0.24-0.23c0-0.13,0.1-0.24,0.23-0.25l17.88-0.64
							c0.13,0.01,0.24,0.1,0.25,0.23c0,0.13-0.1,0.24-0.23,0.25L273.74,174.05C273.75,174.05,273.74,174.05,273.74,174.05z"/>
					</g>
					<g>
						<path class="st19" d="M274.15,175.76c-0.13,0-0.24-0.1-0.24-0.23c0-0.13,0.1-0.24,0.23-0.25l17.92-0.64
							c0.11,0.01,0.24,0.1,0.25,0.23c0,0.13-0.1,0.24-0.23,0.25L274.15,175.76C274.15,175.76,274.15,175.76,274.15,175.76z"/>
					</g>
					<g>
						<path class="st19" d="M274.68,177.51c-0.13,0-0.23-0.1-0.24-0.23c-0.01-0.13,0.1-0.24,0.23-0.25l17.93-0.81
							c0.14,0,0.24,0.1,0.25,0.23c0.01,0.13-0.1,0.24-0.23,0.25l-17.93,0.81C274.69,177.51,274.68,177.51,274.68,177.51z"/>
					</g>
				</g>
			</g>
			<path class="st21" d="M290.68,147.34l7.52,31.76c0.26,1.1-0.38,1.99-1.48,2.06l-3.32,0.2c-6.24-1.91-12.09-7.6-16.99-16.32
				c-4.66-8.31-13.99-15.02-22.42-19.71l34.07-0.08C289.21,145.24,290.41,146.19,290.68,147.34z"/>
			<path class="st21" d="M261.26,183.11l-15.56,0.92c-0.97,0.06-2.01-0.58-2.51-1.47c-0.02-0.04-0.04-0.08-0.07-0.13
				c-0.06-0.14-0.12-0.29-0.16-0.44c0-0.02-0.01-0.03-0.01-0.05l-2.21-9.32l-1.16-4.91c0.01-0.01,0.01-0.01,0.02-0.02
				c0.4-0.35,0.87-0.66,1.37-0.92c4.9-2.51,12.55,0.63,17.08,7.01c1.7,2.38,2.71,4.88,3.07,7.21
				C261.23,181.71,261.28,182.43,261.26,183.11z"/>
		</g>
		<g>
			<path class="st7" d="M236.52,230.51c-0.09,0-0.19-0.03-0.27-0.08c-0.23-0.15-0.3-0.46-0.15-0.69
				c9.11-14.04,4.98-27.98,4.93-28.12c-0.08-0.26,0.07-0.54,0.33-0.63c0.26-0.08,0.54,0.07,0.62,0.33
				c0.04,0.14,4.31,14.53-5.05,28.96C236.85,230.43,236.69,230.51,236.52,230.51z"/>
		</g>
		<g>
			<path class="st10" d="M303.95,207.35l-3.68,5.28c-1.36,1.88-4.11,2.79-6.35,2.19c-2.75-0.72-8.8-8.48-8.8-8.48l4.59-7.22
				L303.95,207.35z"/>
			<path class="st10" d="M278.25,203.95c4.72-2.18,9.18-1.46,13.48,1.28c0.75,0.48,1.47,0.98,2.17,1.5c0.35,0.26,0.7,0.53,1.04,0.8
				c0.35,0.28,0.67,0.54,1.05,0.87l0.03,0.03c1.16,1.02,1.26,2.79,0.24,3.94c-1.46,1.65-3.3,0.79-4.7-0.43
				c-1.74-1.52-3.12-3.21-5.21-4.32c-2.56-1.37-5.4-0.93-8,0.13c-1.12,0.45-4.1,0.68-4.63-0.97
				C273.49,206.04,276.69,204.66,278.25,203.95z"/>
			<path class="st10" d="M271.03,201.6c2.42-1.13,4.48-1.88,6.79-2.49c2.42-0.64,4.73-1.1,7.21-0.47c2.83,0.72,5.55,2.07,8.16,3.34
				c2.17,1.06,4.28,2.14,6.41,3.31c1.35,0.74,1.85,2.44,1.11,3.79c-0.74,1.35-2.44,1.85-3.79,1.11c-0.06-0.03-0.12-0.07-0.18-0.11
				l-0.02-0.01c-1.91-1.25-3.91-2.48-5.9-3.64c-2.57-1.49-5.64-3.71-8.67-3.95c-2.53-0.2-5.08,0.37-7.45,1.22
				c-1.29,0.46-4.66,1.78-5.82,0.18C268.29,203.06,269.56,202.28,271.03,201.6z"/>
			<path class="st10" d="M275.61,196.23c2.36-0.38,4.74-0.41,7.17,0.06c1.59,0.31,3.12,0.98,4.57,1.66
				c1.16,0.54,2.27,1.13,3.37,1.73c2.2,1.22,4.28,2.49,6.4,3.89c1.28,0.85,1.63,2.58,0.78,3.87c-0.85,1.28-2.58,1.63-3.87,0.78
				c-0.06-0.04-0.12-0.08-0.17-0.12l-0.03-0.02c-1.81-1.41-3.75-2.82-5.69-4.1c-2.62-1.73-5.6-3.6-8.84-3.89
				c-2.22-0.19-4.46-0.1-6.67,0.23c-1.33,0.2-5.48,1.71-6.22-0.73c-0.34-1.12,5.44-2.5,6.13-2.69
				C273.56,196.62,274.58,196.39,275.61,196.23z"/>
			<path class="st10" d="M271.72,192.39c2.49,0.51,4.93,1.23,7.31,2.08c2.38,0.85,4.71,1.82,6.97,2.93c2.27,1.1,4.48,2.29,6.64,3.56
				c1.09,0.63,2.16,1.28,3.22,1.95c1.07,0.68,2.1,1.34,3.19,2.09c1.27,0.88,1.58,2.61,0.71,3.88c-0.88,1.27-2.61,1.58-3.88,0.71
				c-0.05-0.04-0.1-0.07-0.15-0.11l-0.02-0.02c-0.88-0.7-1.87-1.44-2.82-2.14c-0.97-0.7-1.95-1.39-2.94-2.06
				c-1.98-1.35-4.01-2.62-6.08-3.81c-2.07-1.17-4.18-2.3-6.34-3.3c-2.16-0.99-5.97-2.31-5.97-2.31c-1.61-0.58-2.98-1.9-2.71-2.77
				C269.1,192.23,270.89,192.22,271.72,192.39z"/>
			<path class="st10" d="M296.61,213.57c0.28,0.26,8.56,6.21,11.15,9.07l6.45-8.31c0,0-8.79-6.59-17.22-10.98L296.61,213.57z"/>
		</g>
		<path class="st22" d="M380.5,222.81l-62.28-9.97l2.26-21.15c0,0,2.55,1.05,3.52,1.22c1.97,0.36,3.13-2.72,5.93-3.01
			c2.9-0.3,4.5,1.15,5.61,1.4c3.11,0.7,5.65-0.8,7.46-1.4c4.41-1.48,14.89-0.9,26.26-1.08c10.21-0.16,20.43-0.32,30.65-0.48
			c0.5-0.01,7.71-2.3,7.8-2.64l-5.71,24.81C398.6,219.16,389.66,224.28,380.5,222.81z"/>
		<path class="st7" d="M322.02,201.45c-0.14,1.51-0.36,2.93-0.64,4.19c-0.07,0.33-0.15,0.66-0.23,0.97
			c-0.67,2.57-1.58,4.23-2.43,4.15c-1-0.09-1.65-2.59-1.69-6.06c0-0.28,0-0.57,0-0.86c0.01-0.9,0.06-1.85,0.15-2.84
			c0.25-2.74,0.78-5.19,1.41-6.88c0.04-0.12,0.09-0.22,0.13-0.33c0.55-1.36,1.17-2.15,1.76-2.1c0.77,0.07,1.33,1.56,1.56,3.82
			c0.02,0.24,0.05,0.48,0.07,0.73C322.21,197.75,322.19,199.55,322.02,201.45z"/>
		<path class="st22" d="M407.54,172.99c-1.84-11.57-9.2-19.19-22.35-18.4c-8.9,0.53-14.38,4.92-21.38,13.87
			c-3.85,4.92-8.85,4.94-11.77,12.77c-2.3,6.17,2.31,12.77,2.3,13.11c-0.12,5.91,0.2,6.71-2.87,17.06
			c-1.3,4.38-9.18,17.06-9.18,17.06c-4.37,18.89-16.45,32.16-1.9,42.95c6.28,4.66,23.84,9.15,30.33,1.24
			c9.27-14.16,23.45-37.75,30.72-61.42C405.42,199.21,408.95,181.85,407.54,172.99z"/>
		<path class="st22" d="M353.61,257.18c0,0-25.75-14.54-33.56-18.91c-4-2.24-6.31-1.15-10.04-3.07c-4.38-2.25-4.39-3.42-5.89-6.73
			c-1.05-2.32-4.44-2.49-5.96-3.28l7.27-18.32c2.54,1.31,3.27,2.15,4.86,2.93c3.06,1.49,4.93-0.12,7.93,0.15
			c38.21,3.42,72.72,15.16,72.72,15.16l-11.21,23.15C374.2,257.02,363.33,260.73,353.61,257.18z"/>
		<path class="st22" d="M401.99,210.53c-7.79,25.62-23.08,46.32-31.86,44.44c-8.78-1.88-6.31-26.2,4.98-52.5
			c9.94-23.16,16.66-43.1,25.44-41.23C409.32,163.12,411.39,179.61,401.99,210.53z"/>
		<path class="st10" d="M398.15,155.33c1.58,3.46,6.4,7.09-1.07,10.5c-7.47,3.41-23.93,8.32-26.42,4.81
			c-2.2-3.1,2.79-8.96,9.79-13.26C386.46,153.69,396.56,151.87,398.15,155.33z"/>
		<g>
			<defs>
				<path id="SVGID_00000170244969942008479150000008869558975632139137_" d="M375.67,139.78c0,0,3.46,4.37-2.19,6.56
					c-5.65,2.19-11.84,8.01-8.92,13.84c2.91,5.83,16.79,1.29,20.5-5.27c3.72-6.56,2.26-16.4,2.26-16.4L375.67,139.78z"/>
			</defs>
			<use xlink:href="#SVGID_00000170244969942008479150000008869558975632139137_"  style="overflow:visible;fill:#702831;"/>
			<clipPath id="SVGID_00000063633318475069735140000015603621585112233114_">
				<use xlink:href="#SVGID_00000170244969942008479150000008869558975632139137_"  style="overflow:visible;"/>
			</clipPath>
			<g style="clip-path:url(#SVGID_00000063633318475069735140000015603621585112233114_);">
				<path class="st7" d="M370.41,165.7c-2.53,0-4.53-1.73-5.2-4.52c-0.76-3.14,0.34-7.29,3.91-9.13c5.62-2.9,7.4-5.13,7.42-5.16
					c0.17-0.22,0.48-0.26,0.7-0.09c0.22,0.17,0.26,0.48,0.09,0.7c-0.08,0.1-1.9,2.42-7.76,5.43c-3.12,1.61-4.07,5.24-3.4,8.01
					c0.57,2.35,2.15,3.76,4.23,3.76c0.28,0,0.5,0.22,0.5,0.5C370.91,165.48,370.68,165.7,370.41,165.7z"/>
			</g>
			<g style="clip-path:url(#SVGID_00000063633318475069735140000015603621585112233114_);">
				<path class="st7" d="M373.58,165.35c-0.14,0-0.28-0.06-0.38-0.18c-1.28-1.52-1.85-3.21-1.69-5.04c0.36-4.08,4.23-7.36,4.4-7.49
					c0.21-0.18,0.53-0.15,0.7,0.06c0.18,0.21,0.15,0.53-0.06,0.7c-0.04,0.03-3.72,3.15-4.04,6.82c-0.13,1.55,0.36,2.99,1.46,4.3
					c0.18,0.21,0.15,0.53-0.06,0.7C373.81,165.31,373.7,165.35,373.58,165.35z"/>
			</g>
		</g>
		<g>
			<path class="st10" d="M396.54,164.66l-17.74-4.2c1.57-2.18,2.72-4.49,3.54-6.82c0.41-1.15,0.74-2.29,1.01-3.43
				c0.16-0.71,0.3-1.41,0.41-2.1c0.33-1.98,0.48-3.91,0.52-5.7c0.12-6.02-1.09-10.54-1.1-10.64l17.91-5.88
				C401.21,126.8,403.86,148.5,396.54,164.66z"/>
		</g>
		<path class="st7" d="M392,145.57c-0.12,0.21-3.42,5.95-9.66,8.07c0.41-1.15,0.74-2.29,1.01-3.43c0.16-0.71,0.3-1.41,0.41-2.1
			C389.19,146.87,391.87,145.63,392,145.57z"/>
		<path class="st10" d="M400.89,140.31l-5.74,5.02c-5.97,5.22-15.23,4.44-19.96-1.92c-0.58-0.78-1.07-1.62-1.47-2.51l-3.43-11
			c-1.69-6.99,1.55-12,5.98-13.47l14.93-4.93L400.89,140.31z"/>
		<g>
			<defs>
				<path id="SVGID_00000018955032640963408040000002833615121602913186_" d="M415.19,113.61c-4.74,3.78-14.21,4.61-16.39,2.53
					c-1.01-0.97,0.87-12.25,5.61-16.03c4.74-3.78,10.99-3.83,13.97-0.1C421.35,103.74,419.93,109.83,415.19,113.61z"/>
			</defs>
			<use xlink:href="#SVGID_00000018955032640963408040000002833615121602913186_"  style="overflow:visible;fill:#86303A;"/>
			<clipPath id="SVGID_00000020399645417452555110000017204988916239776434_">
				<use xlink:href="#SVGID_00000018955032640963408040000002833615121602913186_"  style="overflow:visible;"/>
			</clipPath>
			<g style="clip-path:url(#SVGID_00000020399645417452555110000017204988916239776434_);">
				<path class="st7" d="M403.58,113.93c-0.23,0-0.44-0.16-0.49-0.4c-0.06-0.27,0.12-0.54,0.39-0.59
					c0.11-0.02,10.74-2.33,15.68-10.76c2.98-5.09,3.33-11.39,1.02-18.71c-0.08-0.26,0.06-0.54,0.33-0.63
					c0.26-0.08,0.54,0.06,0.63,0.33c2.4,7.61,2.03,14.18-1.11,19.53c-5.17,8.82-15.88,11.13-16.34,11.23
					C403.65,113.93,403.62,113.93,403.58,113.93z"/>
			</g>
			<g style="clip-path:url(#SVGID_00000020399645417452555110000017204988916239776434_);">
				<path class="st7" d="M404.92,105.3c-0.05,0-0.09-0.01-0.14-0.02c-0.26-0.08-0.42-0.36-0.34-0.62c1.41-4.83,5.92-8.33,12.7-9.86
					c0.14-0.03,0.24-0.05,0.29-0.07c0.26-0.08,0.54,0.06,0.63,0.32c0.08,0.26-0.05,0.54-0.31,0.63c-0.06,0.02-0.19,0.05-0.38,0.09
					c-6.5,1.47-10.63,4.64-11.96,9.16C405.34,105.16,405.14,105.3,404.92,105.3z"/>
			</g>
		</g>
		<g>
			<path class="st7" d="M365.17,213.89c-0.04,0-0.09-0.01-0.13-0.02c-9.38-2.57-14.81-23.92-14.08-30.17
				c0.03-0.27,0.28-0.47,0.55-0.44c0.27,0.03,0.47,0.28,0.44,0.55c-0.78,6.71,5.01,26.81,13.35,29.09c0.27,0.07,0.42,0.35,0.35,0.61
				C365.59,213.74,365.39,213.89,365.17,213.89z"/>
		</g>
		<g>
			<path class="st7" d="M350.44,214.76c-0.28,0-0.5-0.25-0.5-0.53c0-0.17,0.07-0.36,0.28-0.91c0.73-1.94,2.94-7.83,2.74-16.86
				c-0.01-0.28,0.21-0.5,0.49-0.51c0.3,0,0.5,0.21,0.51,0.49c0.21,9.22-2.05,15.25-2.8,17.24c-0.12,0.31-0.2,0.51-0.22,0.61
				C350.94,214.56,350.72,214.76,350.44,214.76z"/>
		</g>
		<g>
			<path class="st7" d="M328.93,213.91c-0.99,0-3.49-0.23-6.46-2.22c-3.44-2.31-8.56-0.99-8.61-0.98c-0.27,0.07-0.54-0.09-0.61-0.36
				c-0.07-0.27,0.09-0.54,0.36-0.61c0.23-0.06,5.61-1.44,9.42,1.12c3.45,2.31,6.22,2.04,6.25,2.04c0.26-0.03,0.52,0.17,0.55,0.44
				c0.03,0.27-0.17,0.52-0.44,0.55C329.36,213.89,329.2,213.91,328.93,213.91z"/>
		</g>
		<g>
			<path class="st7" d="M372.35,222.96c-0.1,0-0.19-0.03-0.28-0.09c-0.16-0.11-0.91-0.49-2.63-1.18c-1.08-0.43-2.29-0.89-3.6-1.35
				c-3.39-1.21-7.25-2.4-11.15-3.44c-0.03-0.01-0.07-0.01-0.1-0.03c-0.5-0.13-1-0.26-1.51-0.4l-0.39-0.1
				c-11.08-2.85-21.56-5.54-27.77-3.56c-0.27,0.08-0.54-0.06-0.63-0.32c-0.08-0.26,0.06-0.54,0.32-0.63
				c6.5-2.07,17.1,0.66,28.32,3.54l0.39,0.1c0.53,0.14,1.05,0.27,1.56,0.41c0,0,0.01,0,0.01,0c0,0,0.01,0,0.02,0
				c3.93,1.06,7.83,2.26,11.25,3.47c1.32,0.47,2.55,0.93,3.64,1.37c1.4,0.56,2.48,1.05,2.82,1.28c0.23,0.15,0.29,0.46,0.13,0.69
				C372.67,222.89,372.51,222.96,372.35,222.96z"/>
		</g>
		<g>
			<path class="st7" d="M311.22,236.25c-0.06,0-0.13-0.01-0.19-0.04c-6.28-2.56-8.02-8.99-8.02-9.64c0-0.28,0.22-0.5,0.5-0.5
				c0.27,0,0.49,0.21,0.5,0.48c0.03,0.16,1.48,6.32,7.4,8.74c0.25,0.1,0.38,0.4,0.27,0.65
				C311.61,236.13,311.42,236.25,311.22,236.25z M304.01,226.57L304.01,226.57L304.01,226.57z"/>
		</g>
		<g>
			<path class="st7" d="M344.15,250.5c-0.06,0-0.12-0.01-0.19-0.04l-1.45-0.58c-6.5-2.6-14.59-5.83-20.01-10.77
				c-4.07-3.7-6.82-3.97-6.85-3.97c-0.27-0.02-0.48-0.26-0.46-0.54c0.02-0.28,0.28-0.48,0.53-0.46c0.12,0.01,3.09,0.26,7.45,4.23
				c5.29,4.82,13.29,8.01,19.71,10.58l1.45,0.58c0.26,0.1,0.38,0.39,0.28,0.65C344.54,250.38,344.35,250.5,344.15,250.5z"/>
		</g>
		<g>
			<path class="st7" d="M366.01,220.37c-0.17,0-0.33-0.08-0.43-0.24c-0.15-0.23-0.07-0.54,0.16-0.69c0.07-0.04,7.05-4.45,8.59-12.17
				c0.13-0.67,0.31-1.36,0.53-2.06c0-0.01,0.01-0.02,0.01-0.04c0.84-2.69,2.17-5.21,3.44-7.65c2.15-4.1,4.01-7.65,2.94-10.66
				c-0.09-0.26,0.04-0.55,0.3-0.64c0.26-0.09,0.54,0.04,0.64,0.3c1.21,3.43-0.83,7.33-3,11.46c-1.26,2.41-2.57,4.9-3.38,7.51h0
				c0,0.01-0.01,0.02-0.01,0.03c-0.2,0.66-0.37,1.31-0.5,1.94c-1.63,8.16-8.74,12.63-9.04,12.82
				C366.19,220.35,366.1,220.37,366.01,220.37z M375.34,205.37h0.01H375.34z"/>
		</g>
		<g>
			<path class="st7" d="M394.84,229.27c-0.04,0-0.09-0.01-0.14-0.02c-0.27-0.08-0.42-0.35-0.35-0.62
				c2.69-9.58-0.96-16.72-0.99-16.79c-0.13-0.24-0.03-0.55,0.21-0.67c0.24-0.13,0.55-0.03,0.67,0.21c0.16,0.3,3.87,7.57,1.07,17.53
				C395.26,229.13,395.06,229.27,394.84,229.27z"/>
		</g>
		<g>
			<path class="st25" d="M290.88,204.7c-0.15,0-0.29-0.06-0.39-0.19c-0.04-0.04-1.62-1.8-7.5-1.47c-0.27,0.03-0.51-0.19-0.53-0.47
				c-0.02-0.28,0.19-0.51,0.47-0.53c6.55-0.38,8.27,1.76,8.34,1.85c0.17,0.22,0.13,0.53-0.09,0.7
				C291.1,204.66,290.99,204.7,290.88,204.7z"/>
		</g>
		<g>
			<path class="st25" d="M292.66,201.46c-0.11,0-0.23-0.04-0.32-0.12c-0.02-0.01-1.87-1.47-7.05-2.17
				c-5.25-0.71-10.77,1.16-10.82,1.17c-0.26,0.09-0.54-0.05-0.64-0.31c-0.09-0.26,0.05-0.55,0.31-0.64
				c0.23-0.08,5.79-1.97,11.28-1.22c5.51,0.75,7.47,2.33,7.55,2.4c0.21,0.18,0.24,0.49,0.07,0.7
				C292.94,201.4,292.8,201.46,292.66,201.46z"/>
		</g>
		<g>
			<path class="st25" d="M285,197.33c-0.07,0-0.14-0.01-0.2-0.04c-5.35-2.38-11.18-0.28-11.24-0.26c-0.26,0.1-0.55-0.04-0.64-0.3
				c-0.1-0.26,0.04-0.55,0.3-0.64c0.25-0.09,6.27-2.25,11.99,0.29c0.25,0.11,0.37,0.41,0.25,0.66
				C285.38,197.22,285.2,197.33,285,197.33z"/>
		</g>
		<path class="st7" d="M381.79,131.3c0.15,0.92-0.19,1.74-0.76,1.84c-0.57,0.1-1.16-0.57-1.31-1.49c-0.15-0.92,0.19-1.74,0.76-1.84
			C381.04,129.71,381.63,130.38,381.79,131.3z"/>
		<path class="st7" d="M373.51,133.03c0.15,0.92-0.19,1.74-0.76,1.84c-0.57,0.1-1.16-0.57-1.31-1.49c-0.15-0.92,0.19-1.74,0.76-1.84
			C372.77,131.44,373.35,132.11,373.51,133.03z"/>
		<g>
			<path class="st26" d="M379.61,141.39c-0.21,0-0.4-0.13-0.47-0.34c-0.09-0.26,0.05-0.54,0.31-0.63c0.13-0.04,3.14-1.12,2.63-4.59
				c-0.04-0.27,0.15-0.53,0.42-0.57c0.27-0.04,0.53,0.15,0.57,0.42c0.64,4.31-3.26,5.67-3.3,5.68
				C379.72,141.39,379.67,141.39,379.61,141.39z"/>
		</g>
		<g>
			<path class="st7" d="M189.48,296.24c-0.15,0-0.3-0.07-0.4-0.19c-0.17-0.22-0.13-0.53,0.09-0.7c0.1-0.08,10.29-8.02,14.2-14.6
				c1.97-3.32,2.79-8.07,3.59-12.66c0.79-4.58,1.54-8.9,3.39-11.39c0.16-0.22,0.48-0.27,0.7-0.11c0.22,0.16,0.27,0.48,0.1,0.7
				c-1.71,2.31-2.44,6.52-3.21,10.97c-0.81,4.68-1.65,9.52-3.72,13c-4,6.75-14.02,14.56-14.45,14.89
				C189.7,296.21,189.59,296.24,189.48,296.24z"/>
		</g>
		<g>
			<path class="st7" d="M323.43,211.77c-0.12,0-0.24-0.04-0.34-0.13c-0.2-0.19-0.22-0.5-0.03-0.71c0.02-0.02,1.91-2.21,2.42-8.48
				c0.58-7.12-1.77-9.13-1.79-9.15c-0.21-0.17-0.25-0.49-0.08-0.7c0.17-0.21,0.48-0.25,0.7-0.09c0.11,0.09,2.8,2.27,2.17,10.01
				c-0.54,6.66-2.59,8.98-2.68,9.07C323.7,211.71,323.56,211.77,323.43,211.77z"/>
		</g>
		<g>
			<path class="st7" d="M303.08,228.15c-0.06,0-0.12-0.01-0.19-0.04c-0.26-0.1-0.38-0.39-0.28-0.65c3.28-8.18,7.22-17.84,7.22-17.84
				l0.93,0.38c0,0-3.94,9.66-7.22,17.83C303.46,228.04,303.28,228.15,303.08,228.15z"/>
		</g>
	</g>
	<path class="st14" d="M375.27,127.31c0.37-0.66,0.9-1.04,1.47-1.35c0.58-0.29,1.2-0.47,1.83-0.51c0.63-0.06,1.25-0.04,1.86,0.09
		c0.61,0.13,1.19,0.34,1.72,0.68c0.21,0.14,0.27,0.41,0.13,0.62c-0.06,0.09-0.15,0.16-0.25,0.19l-0.02,0.01
		c-0.59,0.18-1.13,0.26-1.65,0.35c-0.53,0.09-1.03,0.15-1.53,0.23c-0.49,0.1-0.99,0.14-1.48,0.21c-0.49,0.05-1.02,0.12-1.57,0.13
		l-0.14,0c-0.24,0-0.43-0.19-0.44-0.43C375.22,127.45,375.24,127.37,375.27,127.31z"/>
	<path class="st14" d="M372.33,129.07c-0.13,0.16-0.36,0.31-0.52,0.43l-0.49,0.37c-0.15,0.13-0.32,0.26-0.48,0.46
		c-0.19,0.19-0.34,0.45-0.58,0.79c-0.61-0.52-0.7-1.5-0.25-2.23c0.21-0.37,0.51-0.67,0.85-0.87c0.35-0.21,0.68-0.33,1.14-0.33
		c0.38,0,0.7,0.31,0.7,0.69c0,0.17-0.06,0.32-0.15,0.44L372.33,129.07z"/>
	<path class="st13" d="M422.3,138.86l-8.99,57.82c-3.42,19.46-20.34,33.64-40.1,33.62l-29.29-0.03
		c-7.95-0.01-14.56,6.11-15.18,14.03l-2.6,33.24l-93.54-0.08l-2.91-38.21c-0.4-5.24-4.75-9.29-10-9.31l-0.61,0
		c-7.66-0.04-13.59,6.98-12.54,14.78l12.98,96.29l17.93,0.02l83.72,0.1l0,0.01l89.75,0.11l31.14-175.94
		C444.36,152.3,435.1,140.29,422.3,138.86z"/>
	<path class="st4" d="M394.37,118.38c8.08,2.3,16.27,5.07,23.15,10c1.99,1.42,3.92,3.05,5.71,4.96c5,5.35,7.81,12.16,8.83,19.34
		l0.11,1.01l0.23,2.05l0.15,1.29c0.64,5.69-3.45,10.83-9.14,11.47s-10.83-3.45-11.47-9.14c-0.22-1.93,0.13-3.83,0.87-5.47
		c1.16-2.55,1.48-5.15,0.87-7.64c-0.32-1.24-0.85-2.49-1.62-3.67c-0.77-1.19-1.8-2.31-2.97-3.35c-5.6-5.02-2.74-6.4-9.54-8.49
		c1.78-1.23-3.55-2.77-1.55-3.67c-1.91,0.96-1.56-2.38-3.67-2.26c0.86-1.95-1.62,2.92,0.08,1.86c-1.65-1.01-11.18-1.55-9.44-5.04
		c1.6-3.22,5.01-4.26,8.32-3.54C393.64,118.17,394,118.27,394.37,118.38z"/>
	<path class="st27" d="M365.98,117.01c4.12,4.59,11.9,11.44,27.22,13.43c0,0,5.55-1.07,4.77,3.22c-0.77,4.29-12.79,21.24-9.83,36.56
		c2.96,15.32,22.11,3.36,19.27,18.46c-2.2,11.72-7.1,26.7-7.1,26.7c25.89,7.94,38.72-32.21,31.82-49.91
		c-2.74-7.04-5.94-13.76-11.33-18.95c-6.54-6.3-9.07-13.02-11.46-21.5c-1.91-6.77-5.1-13.91-11.42-17.59
		c-6.08-3.54-15.57-2.26-21.95-0.8C368.97,108.22,360.99,111.45,365.98,117.01z"/>
	<path class="st4" d="M329.64,130.66c-0.16,0.3-0.37,0.6-0.57,0.86c-0.45,0.56-0.96,1.3-1.42,2.04c-0.47,0.74-0.92,1.51-1.36,2.3
		c-0.86,1.58-1.66,3.22-2.34,4.9c-0.4,0.98-0.77,1.97-1.1,2.98c-0.25,0.72-0.47,1.45-0.69,2.19c-0.49,1.76-0.86,3.54-1.15,5.35
		l-0.02,0.15c-0.35,2.2-2.42,3.7-4.63,3.35c-1.98-0.32-3.4-2.03-3.4-3.98c0-2.18,0.09-4.37,0.34-6.55c0.07-0.63,0.16-1.27,0.26-1.9
		c0.23-1.53,0.52-3.06,0.87-4.57c0.49-2.13,1.12-4.24,1.86-6.33c0.38-1.04,0.77-2.08,1.22-3.12c0.45-1.04,0.91-2.06,1.53-3.19
		l0.1-0.19c1.57-2.89,5.2-3.97,8.1-2.39C330.15,124.14,331.22,127.76,329.64,130.66z"/>
	<g>
		<path class="st7" d="M408.9,124.39c-0.21,0-0.41-0.14-0.48-0.36c-4.57-15.2-12.71-17.03-12.79-17.05
			c-0.27-0.06-0.45-0.32-0.39-0.59c0.05-0.27,0.31-0.45,0.59-0.39c0.36,0.07,8.79,1.9,13.55,17.74c0.08,0.26-0.07,0.54-0.34,0.62
			C409,124.38,408.95,124.39,408.9,124.39z"/>
	</g>
	
		<ellipse transform="matrix(0.3673 -0.9301 0.9301 0.3673 128.5228 451.1584)" class="st10" cx="395.88" cy="131.11" rx="5.47" ry="3.56"/>
	<g>
		<path class="st7" d="M321.27,341.69c-0.01,0-0.03,0-0.04,0c-0.28-0.02-0.48-0.26-0.46-0.54l7.8-97.93
			c0.59-7.47,6.93-13.32,14.42-13.32c0.28,0,0.5,0.22,0.5,0.5c0,0.28-0.22,0.5-0.5,0.5c-6.97,0-12.87,5.45-13.42,12.4l-7.8,97.93
			C321.75,341.49,321.53,341.69,321.27,341.69z"/>
	</g>
	<path class="st10" d="M322.02,201.45c-0.14,1.51-0.36,2.93-0.64,4.19c-0.05-0.01-0.1-0.01-0.15-0.02c-1.26-0.1-2.84-0.41-4.2-0.92
		c-1.04-0.39-1.95-0.9-2.48-1.51c-2.03-2.34-1.82-6.62-6.09-10.51c-3.42-3.12-6.96-8.99-4.64-8.35c0,0,4.29,2.55,10.18,6.21
		c1.73,1.08,3.28,2.2,4.71,3.25c1.2,0.89,2.31,1.73,3.39,2.45C322.21,197.75,322.19,199.55,322.02,201.45z"/>
	<g>
		<path class="st25" d="M376.2,139.12c-0.42,0-0.76-0.21-0.9-0.57c-0.26-0.66-0.8-6.06-0.96-7.7c-0.03-0.27,0.17-0.52,0.45-0.55
			c0.26-0.02,0.52,0.17,0.55,0.45c0.32,3.29,0.74,7.01,0.9,7.43c0.28,0.04,1.73-0.89,1.94-1.57c0.08-0.26,0.37-0.41,0.63-0.33
			c0.26,0.08,0.41,0.36,0.33,0.63c-0.3,0.95-1.88,2.17-2.87,2.21C376.23,139.12,376.21,139.12,376.2,139.12z"/>
	</g>
	<g>
		<path class="st7" d="M415.85,180.22c-0.02,0-0.04,0-0.05,0c-0.27-0.03-0.47-0.28-0.44-0.55c0.27-2.48-0.12-4.33-1.18-5.64
			c-1.9-2.35-5.76-2.75-9.85-3.18c-3.59-0.38-7.3-0.76-10.03-2.52c-11-7.07,1.77-31.46,2.32-32.5c0.13-0.25,0.43-0.34,0.68-0.21
			c0.24,0.13,0.34,0.43,0.21,0.68c-0.13,0.25-12.9,24.61-2.66,31.19c2.53,1.62,6.12,2,9.59,2.36c4.3,0.45,8.37,0.88,10.53,3.55
			c1.24,1.53,1.69,3.61,1.4,6.38C416.32,180.03,416.11,180.22,415.85,180.22z"/>
	</g>
	<g>
		<path class="st7" d="M404.92,208.41c-1.17,0-1.89-0.09-1.92-0.1c-0.27-0.04-0.46-0.29-0.42-0.57c0.04-0.27,0.3-0.46,0.57-0.42
			c0.62,0.09,15.09,1.96,21.28-13.14c0.11-0.26,0.4-0.38,0.65-0.27c0.26,0.1,0.38,0.4,0.27,0.65
			C420.21,207.07,409.34,208.41,404.92,208.41z"/>
	</g>
	<g>
		<path class="st7" d="M411.26,215.63c-5.76,0-9.51-4.55-9.56-4.61c-0.17-0.21-0.14-0.53,0.08-0.7c0.21-0.17,0.53-0.14,0.7,0.07
			c0.24,0.29,5.95,7.18,14.14,2.8c0.24-0.13,0.55-0.04,0.68,0.2c0.13,0.24,0.04,0.55-0.2,0.68
			C414.99,215.2,413.03,215.63,411.26,215.63z"/>
	</g>
	<g>
		<path class="st7" d="M400.01,129c-0.03,0-0.06,0-0.08-0.01c-0.27-0.05-0.46-0.3-0.41-0.58c0.36-2.17,0.09-3.64-0.85-4.62
			c-1.86-1.93-6.56-2.29-15.26-1.17c-15.89,2.03-19.37-9.07-19.41-9.18c-0.08-0.26,0.07-0.54,0.34-0.62
			c0.27-0.08,0.54,0.07,0.62,0.34c0.13,0.43,3.31,10.4,18.32,8.48c9.16-1.18,13.98-0.73,16.1,1.47c1.18,1.22,1.53,2.96,1.12,5.48
			C400.46,128.83,400.25,129,400.01,129z"/>
	</g>
	<g>
		<path class="st7" d="M235.44,341.73c-0.26,0-0.48-0.21-0.5-0.47l-5.44-100.86c-0.25-3.18-1.87-6.01-4.45-7.77
			c-2.93-2-6.72-2.44-10.7-1.24c-0.26,0.08-0.54-0.07-0.62-0.33c-0.08-0.26,0.07-0.54,0.33-0.62c4.27-1.29,8.37-0.81,11.55,1.37
			c2.83,1.93,4.61,5.04,4.88,8.53l5.44,100.87c0.01,0.28-0.2,0.51-0.47,0.53C235.46,341.73,235.45,341.73,235.44,341.73z"/>
	</g>
	<g>
		<path class="st7" d="M324.7,194.31c-0.18,0-0.35-0.1-0.44-0.26c-0.13-0.24-0.04-0.55,0.2-0.68c0.46-0.25,1.13-0.74,1.68-1.71
			c0.61-1.06,1.71-1.81,3.11-2.13c1.83-0.41,3.92-0.06,5.33,0.91c1.8,1.24,4.84,2.17,5.93,1.81c0.26-0.09,0.55,0.05,0.63,0.32
			c0.09,0.26-0.05,0.54-0.32,0.63c-1.65,0.55-5.14-0.78-6.82-1.94c-1.17-0.81-2.99-1.11-4.54-0.76c-0.8,0.18-1.87,0.61-2.47,1.65
			c-0.67,1.17-1.5,1.78-2.08,2.09C324.86,194.29,324.78,194.31,324.7,194.31z"/>
	</g>
	<g>
		<path class="st7" d="M337.45,192.71c-0.14,0-0.27-0.01-0.41-0.02c-0.27-0.03-0.47-0.28-0.44-0.55c0.03-0.27,0.29-0.47,0.55-0.44
			c0.98,0.11,1.77-0.34,2.87-0.97c2.01-1.14,5.04-2.87,11.72-2.36c0.28,0.02,0.48,0.26,0.46,0.54c-0.02,0.28-0.28,0.49-0.54,0.46
			c-6.38-0.49-9.14,1.08-11.15,2.23C339.47,192.19,338.55,192.71,337.45,192.71z"/>
	</g>
	<path class="st4" d="M353.49,134.69c-1.45,2.4-5.93,2.67-8.08,7.18c-0.42,0.88-0.76,1.79-1.09,2.7c-0.29,0.79-0.55,1.59-0.79,2.4
		c-0.56,1.74-0.91,3.51-1.24,5.31l-0.04,0.24c-0.39,2.15-2.45,3.57-4.6,3.18c-1.9-0.35-3.23-1.99-3.25-3.85
		c-0.03-2.19,0-4.41,0.26-6.58c0.05-0.5,0.11-1,0.18-1.5c0.22-1.68,0.52-3.35,0.91-5c0.49-2.14,1.09-4.26,1.81-6.35
		c0.37-1.04,0.75-2.08,1.16-3.1c0.21-0.51,0.43-1.02,0.65-1.53l0.33-0.75l0.14-0.33c0.07-0.14,0.02-0.07-0.04,0.03
		c1.39-3.01,4.72-3.66,8.02-3.09C355.11,124.9,354.99,132.2,353.49,134.69z"/>
	<g>
		<path class="st9" d="M335.28,142.54c-0.02,0-0.03,0-0.05,0c-0.27-0.03-0.47-0.27-0.45-0.55c0.95-9.33,6.01-14.12,9.37-17.29
			c1.69-1.6,3.03-2.86,2.89-3.91c-0.04-0.27,0.16-0.53,0.43-0.56c0.27-0.04,0.52,0.16,0.56,0.43c0.21,1.55-1.22,2.9-3.19,4.77
			c-3.25,3.07-8.15,7.71-9.06,16.67C335.75,142.35,335.53,142.54,335.28,142.54z"/>
	</g>
	<path class="st8" d="M335.63,124.99c0.02,1.74-2.66,4.19-5.04,4.21c-2.38,0.02-5.48-1.84-5.5-3.57c-0.02-1.74,1.98-3.44,4.96-3.66
		C333.17,121.73,335.61,123.25,335.63,124.99z"/>
	<g>
		<path class="st9" d="M328.31,133.05c-0.01,0-0.03,0-0.04,0c-3.47-0.28-9.66-1.7-12.11-8.07c-1.87-4.86,0.96-9.25,2.03-10.9
			c0.16-0.24,0.27-0.41,0.31-0.51c0.05-0.27,0.31-0.42,0.58-0.37c0.27,0.05,0.44,0.34,0.39,0.61c-0.04,0.18-0.15,0.37-0.44,0.81
			c-0.99,1.53-3.62,5.61-1.93,10c2.25,5.86,8.02,7.17,11.25,7.43c0.28,0.02,0.48,0.26,0.46,0.54
			C328.79,132.85,328.57,133.05,328.31,133.05z"/>
	</g>
	<path class="st8" d="M344.32,144.57c-0.29,0.79-0.55,1.59-0.79,2.4c-0.56,1.74-0.91,3.51-1.24,5.31l-0.04,0.24
		c-0.39,2.15-2.45,3.57-4.6,3.18c-1.9-0.35-3.23-1.99-3.25-3.85c-0.03-2.19,0-4.41,0.26-6.58c0.05-0.5,0.11-1,0.18-1.5
		c0.96-0.13,1.96-0.2,2.99-0.2C340.16,143.57,342.37,143.93,344.32,144.57z"/>
	<g>
		<g>
			<path class="st4" d="M425.26,168.71c-6.18,2.62-13.34-0.24-17.77-4.82c-0.7-0.73-1.34-1.49-1.92-2.25
				c-0.78-1.03-1.47-2.09-2.08-3.16c-0.24-0.42-0.45-0.88-0.63-1.36c-0.19-0.49-0.34-1-0.47-1.53c0-0.02-0.01-0.03-0.01-0.05
				c0-0.03-0.01-0.07-0.02-0.1c-0.04-0.17-0.07-0.34-0.1-0.51l-0.05,0.07c-0.93-3.07-0.45-6.18,0.21-8.44
				c0.59-2.01,1.33-3.34,1.33-3.34l0.52,1.68c0.67-1.83,1.76-3.27,1.76-3.27s1.69,0.95,3.08,2.41c0.28-0.59,0.61-1.01,0.67-0.97
				c1.2,0.97,3.25,1.47,5.92,5.15h0c0.7,0.83,1.32,1.72,1.87,2.66c0.29,0.49,0.71,1.7,1.27,2.58c0.45,0.7,0.99,1.18,1.63,0.93
				c1.39-0.55-0.02-4.06-0.31-4.97c-0.85-2.67-4.73-8.68-5.84-11.27l1-3.3c-0.96-2.25,2.49,1.69,4.74,0.73
				c1.82-0.78,4.33-0.8,5.55,0.63c2.46,2.86,4.33,6.25,5.83,10.53c0.7,2,1.44,4.09,1.72,6.49
				C433.91,159.42,431.28,166.16,425.26,168.71z"/>
			<path class="st4" d="M402.91,157.27c0,0.01,0.01,0.03,0.01,0.04C402.91,157.3,402.91,157.28,402.91,157.27z"/>
			<path class="st4" d="M402.92,157.31C402.94,157.39,402.94,157.38,402.92,157.31L402.92,157.31z"/>
			<path class="st4" d="M402.35,155.42C402.35,155.42,402.35,155.43,402.35,155.42C402.35,155.43,402.35,155.43,402.35,155.42
				L402.35,155.42z"/>
			<path class="st4" d="M402.27,155.17c-0.02-0.06-0.03-0.11-0.05-0.17C402.23,155.03,402.24,155.08,402.27,155.17z"/>
		</g>
	</g>
	<path class="st8" d="M402.34,155.42L402.34,155.42C402.35,155.42,402.35,155.43,402.34,155.42
		C402.35,155.43,402.35,155.43,402.34,155.42z"/>
	<path class="st8" d="M414.64,146.51c-1.6-1.73-3.23-2.52-4.9-3.6c-0.07-0.04-0.39,0.48-0.67,1.07c-1.39-1.45-2.95-2.51-2.95-2.51
		s-1.21,1.25-1.88,3.08l-0.48-1.34c0,0-1.15,0.94-2.06,3.89c-1.01,3.27-0.43,6.61,0.65,9.56c0.54,1.47,1.56,3.2,2.5,4.46
		c1.06,1.41,3.82,2.41,5.46,1.54c1.89-0.99,3.19-4.22,3.67-6.75c2.56,0.45,4.47-0.49,4.87-2.46
		C418.85,153.45,417.5,149.61,414.64,146.51z"/>
	<g>
		<path class="st9" d="M327.44,124.88c-0.24,0-0.46-0.18-0.49-0.42c-0.04-0.27,0.15-0.53,0.42-0.57c0.97-0.15,1.65-0.49,2.02-1.01
			c0.22-0.3,0.29-0.62,0.31-0.84c-0.02-0.24-0.01-0.41-0.01-0.43c0.02-0.25,0.22-0.45,0.47-0.47c0.26-0.02,0.48,0.17,0.52,0.42
			c0,0.02,0.03,0.2,0.02,0.47c0.03,0.37,0.15,0.94,0.54,1.3c0.34,0.31,0.85,0.41,1.52,0.3c0.27-0.04,0.53,0.14,0.57,0.41
			c0.04,0.27-0.14,0.53-0.41,0.57c-0.99,0.16-1.79-0.02-2.36-0.55c-0.17-0.16-0.31-0.34-0.42-0.52c-0.54,0.7-1.42,1.15-2.62,1.33
			C327.49,124.88,327.47,124.88,327.44,124.88z"/>
	</g>
	<path class="st8" d="M322.86,143.73c-0.25,0.72-0.47,1.45-0.69,2.19c-0.49,1.76-0.86,3.54-1.15,5.35l-0.02,0.15
		c-0.35,2.2-2.42,3.7-4.63,3.35c-1.98-0.32-3.4-2.03-3.4-3.98c0-2.18,0.09-4.37,0.34-6.55c0.07-0.63,0.16-1.27,0.26-1.9
		c0.52-0.04,1.05-0.06,1.59-0.06C317.99,142.29,320.63,142.81,322.86,143.73z"/>
	<path class="st7" d="M331.52,121.59c0.02,0.51-0.55,0.95-1.28,0.98c-0.73,0.03-1.34-0.36-1.36-0.87c-0.02-0.51,0.55-0.95,1.28-0.98
		C330.88,120.69,331.49,121.08,331.52,121.59z"/>
	<g>
		<path class="st9" d="M315.35,155.04c-0.19,0-0.38-0.11-0.46-0.3c-0.44-1.03-0.66-2.26-0.64-3.65c0-0.27,0.23-0.5,0.5-0.5
			c0,0,0,0,0,0c0.28,0,0.5,0.23,0.5,0.5c-0.01,1.25,0.18,2.35,0.56,3.25c0.11,0.25-0.01,0.55-0.26,0.66
			C315.48,155.03,315.41,155.04,315.35,155.04z"/>
	</g>
	<g>
		<path class="st9" d="M320.3,127.14c-0.19,0-0.37-0.11-0.45-0.29c-0.12-0.25-0.01-0.55,0.24-0.66l3.76-1.74
			c0.25-0.12,0.55-0.01,0.66,0.24c0.12,0.25,0.01,0.55-0.24,0.66l-3.76,1.74C320.44,127.12,320.37,127.14,320.3,127.14z"/>
	</g>
	<g>
		<path class="st9" d="M324,123.56c-0.01,0-0.03,0-0.04,0l-4.67-0.37c-0.28-0.02-0.48-0.26-0.46-0.54c0.02-0.28,0.27-0.48,0.54-0.46
			l4.67,0.37c0.28,0.02,0.48,0.26,0.46,0.54C324.48,123.36,324.26,123.56,324,123.56z"/>
	</g>
	<g>
		<path class="st9" d="M337.11,122.64c-0.23,0-0.44-0.16-0.49-0.4c-0.05-0.27,0.12-0.53,0.39-0.59l4.48-0.89
			c0.26-0.06,0.53,0.12,0.59,0.39c0.05,0.27-0.12,0.53-0.39,0.59l-4.48,0.89C337.18,122.64,337.15,122.64,337.11,122.64z"/>
	</g>
	<g>
		<path class="st9" d="M340.6,125.48c-0.05,0-0.11-0.01-0.16-0.03l-3.44-1.19c-0.26-0.09-0.4-0.38-0.31-0.64
			c0.09-0.26,0.38-0.4,0.64-0.31l3.44,1.19c0.26,0.09,0.4,0.38,0.31,0.64C341,125.35,340.81,125.48,340.6,125.48z"/>
	</g>
	<g>
		<path class="st9" d="M318.27,155.04c-0.19,0-0.38-0.11-0.46-0.3c-0.47-1.11-0.69-2.45-0.64-3.97c0.01-0.27,0.2-0.51,0.52-0.48
			c0.28,0.01,0.49,0.24,0.48,0.52c-0.05,1.38,0.14,2.57,0.56,3.55c0.11,0.25-0.01,0.55-0.26,0.66
			C318.41,155.03,318.34,155.04,318.27,155.04z"/>
	</g>
	<g>
		<path class="st9" d="M336.72,155.86c-0.21,0-0.4-0.13-0.47-0.34c-0.37-1.06-0.49-2.3-0.38-3.68c0.02-0.28,0.28-0.48,0.54-0.46
			c0.28,0.02,0.48,0.26,0.46,0.54c-0.1,1.25,0.01,2.35,0.33,3.28c0.09,0.26-0.05,0.55-0.31,0.64
			C336.83,155.85,336.78,155.86,336.72,155.86z"/>
	</g>
	<g>
		<path class="st9" d="M339.64,156.06c-0.21,0-0.4-0.13-0.47-0.34c-0.39-1.14-0.51-2.49-0.36-4.01c0.03-0.27,0.28-0.47,0.55-0.45
			c0.27,0.03,0.47,0.27,0.45,0.55c-0.14,1.37-0.04,2.58,0.31,3.58c0.09,0.26-0.05,0.55-0.31,0.64
			C339.75,156.05,339.7,156.06,339.64,156.06z"/>
	</g>
	<g>
		<path class="st7" d="M409.21,149.17c-0.2,0-0.39-0.12-0.47-0.32c-1.54-4.13,0.57-6.21,0.66-6.3c0.2-0.19,0.52-0.18,0.71,0.02
			c0.19,0.2,0.18,0.51-0.01,0.7c-0.08,0.08-1.71,1.75-0.41,5.23c0.1,0.26-0.04,0.55-0.29,0.64
			C409.33,149.16,409.27,149.17,409.21,149.17z"/>
	</g>
	<g>
		<path class="st7" d="M405,147.59c-0.01,0-0.02,0-0.03,0c-0.28-0.02-0.49-0.25-0.47-0.53c0.1-1.62-1.14-3.56-1.16-3.58
			c-0.15-0.23-0.08-0.54,0.15-0.69c0.23-0.15,0.54-0.08,0.69,0.15c0.06,0.09,1.43,2.23,1.32,4.18
			C405.48,147.39,405.26,147.59,405,147.59z"/>
	</g>
	<path class="st7" d="M354.77,216.4c0.01,0,0.02,0,0.03,0.01C354.79,216.41,354.78,216.41,354.77,216.4L354.77,216.4z"/>
	<path class="st7" d="M375.6,203.85c-0.21,0.66-0.56,2.87-0.77,3.53c-2.88,9.02-8.82,12.49-8.82,12.49
		c-2.9-1.03-2.68-1.33-7.19-2.54c0.35,0.07-3.52-12.32-4.59-18.2c0,0,4.83,12.61,10.94,13.91
		C369.14,213.88,373.63,210.09,375.6,203.85z"/>
	<g>
		<path class="st9" d="M335.27,110.15c-0.25,0-0.46-0.18-0.5-0.44c-0.18-1.42,0.98-4.16,1.12-4.47c0.11-0.25,0.4-0.37,0.66-0.26
			c0.25,0.11,0.37,0.4,0.26,0.66c-0.33,0.77-1.17,2.96-1.04,3.94c0.03,0.27-0.16,0.52-0.43,0.56
			C335.32,110.15,335.29,110.15,335.27,110.15z"/>
	</g>
	<g>
		<path class="st9" d="M319.82,115c-0.22,0-0.42-0.15-0.48-0.37c-0.6-2.2-0.15-4.91,0.06-5.24c0.15-0.23,0.46-0.3,0.69-0.16
			c0.22,0.14,0.29,0.41,0.18,0.64c-0.11,0.33-0.47,2.64,0.03,4.5c0.07,0.27-0.08,0.54-0.35,0.61
			C319.91,114.99,319.87,115,319.82,115z"/>
	</g>
	<g>
		<path class="st25" d="M162.89,329.74c-0.08,0-0.16-0.02-0.24-0.06c-1.7-0.92-2.46-2.02-2.26-3.25c0.51-3.07,6.91-5.37,7.34-5.44
			c0.27-0.05,0.53,0.14,0.57,0.41c0.05,0.27-0.14,0.53-0.41,0.58c-0.77,0.13-6.16,2.43-6.52,4.63c-0.13,0.77,0.46,1.51,1.75,2.21
			c0.24,0.13,0.33,0.43,0.2,0.68C163.24,329.65,163.07,329.74,162.89,329.74z"/>
	</g>
</g>
<g>
	<path class="st28" d="M465.26,233.74c0,29.52-3.24,53.45-7.24,53.45c-4,0-2.99-24.24-7.24-53.45c-5.39-37.05-4.41-55.12,1.89-57
		C461.28,174.16,465.26,204.22,465.26,233.74z"/>
	<path class="st13" d="M472.56,205.43c-1.32,29.49-8.16,53.14-12.13,52.6c-3.96-0.54,0.32-24.42,0.07-53.94
		c-0.32-37.44,7.39-69.14,13.89-70.15C483.28,132.55,473.82,177.36,472.56,205.43z"/>
	<g>
		<path class="st29" d="M460.28,265.43c-0.95-55.73,14.81-76.76,14.96-76.97l0.79,0.61c-0.16,0.2-15.69,21.02-14.76,76.34
			L460.28,265.43z"/>
	</g>
	<path class="st30" d="M498.82,246.02c-13.3,15.2-34.82,33.67-38.15,30.15c-3.22-3.4,4-17.98,14.57-35.81
		c11.13-18.77,20.61-25.79,26.3-25.6C510.77,215.06,512.12,230.83,498.82,246.02z"/>
	<g>
		<path class="st9" d="M458.97,257.75c-0.22,0-0.43-0.16-0.49-0.39c-0.33-1.22,0.51-56.9,3.17-84.91c2.74-28.84,9.21-38.09,12.61-39
			c0.26-0.07,0.54,0.09,0.61,0.35c0.07,0.27-0.09,0.54-0.35,0.61c-2.93,0.79-9.18,9.78-11.87,38.13
			c-2.62,27.56-3.44,82.89-3.19,84.59c0.07,0.27-0.09,0.53-0.36,0.6C459.06,257.74,459.01,257.75,458.97,257.75z"/>
	</g>
	<g>
		<path class="st29" d="M460.54,291.46c-1.75-53.51-23-86.95-23.22-87.29l0.84-0.54c0.22,0.33,21.61,34.01,23.38,87.8L460.54,291.46
			z"/>
	</g>
	<path class="st30" d="M468.5,222.25c-8.68,23.37-12.63,59.67-6.72,60.57c5.71,0.87,10.66-16.34,24.6-40.23
		c13.57-23.26,28.59-53.24,24.58-59.01C503.36,172.65,480.57,189.79,468.5,222.25z"/>
	<g>
		<path class="st31" d="M501.29,245.2c-0.11,0-0.21-0.03-0.31-0.1c-0.22-0.17-0.26-0.48-0.09-0.7c3.05-3.96,9.21-16.93,7.27-24.09
			c-0.55-2.04-1.75-3.44-3.55-4.17c-9.15-3.7-17.78,8.35-17.87,8.47c-0.16,0.23-0.47,0.28-0.7,0.12c-0.23-0.16-0.28-0.47-0.12-0.7
			c0.37-0.53,9.18-12.81,19.06-8.82c2.11,0.85,3.5,2.48,4.14,4.84c2.13,7.85-4.55,21.21-7.44,24.96
			C501.59,245.14,501.44,245.2,501.29,245.2z"/>
	</g>
	<path class="st32" d="M453.8,236.96c6.24,17.82,11.35,43.82,6.95,44.91c-4.25,1.05-12.78-11.54-22.41-28.35
		c-10.14-17.7-11.48-28.64-8.71-33.18C434.12,212.99,447.57,219.15,453.8,236.96z"/>
	<path class="st30" d="M442.27,250.78c10.12,7.08,17.16,24.75,15.12,29.29c-2.04,4.54-9.96-5.74-21.22-10.81
		c-11.27-5.07-17.55-12.49-16.7-17.4C420.48,245.97,426.51,239.76,442.27,250.78z"/>
	<g>
		<path class="st31" d="M453.27,281c-0.25,0-0.46-0.18-0.49-0.43c-0.95-6.92-5.17-16.51-19.87-22.88c-8.38-3.63-11-6.66-11.73-8.56
			c-0.46-1.2-0.16-1.93-0.12-2.01c0.12-0.25,0.41-0.36,0.66-0.25c0.25,0.11,0.36,0.4,0.25,0.65c-0.03,0.08-1.21,3.8,11.34,9.25
			c15.12,6.56,19.47,16.49,20.46,23.66c0.04,0.27-0.15,0.53-0.43,0.56C453.31,281,453.29,281,453.27,281z"/>
	</g>
	<path class="st28" d="M468.83,254.88c-7.5,12.98-11.26,24.84-8.41,26.49c2.85,1.65,8.83-7.23,16.32-20.22
		c6.64-11.52,19.51-19.39,19.39-25.77C495.97,226.9,476.33,241.89,468.83,254.88z"/>
	<path class="st29" d="M461.09,281.56l0.01-0.84c0.01-0.25,0.02-0.5,0.04-0.74c0.03-0.49,0.1-0.96,0.17-1.43
		c1-6.72,5.25-12.98,9.96-17.68c7.49-7.49,16.44-13.31,25.62-18.5c4.53-2.56,9.15-4.97,13.76-7.39c3.84-2.01,7.84-4.98,12.16-5.59
		c4.33-0.6,4.18,4.09,2.62,6.6c-14.08,22.75-45.62,22.56-58.55,45.56c-0.38,0.67-2.17,1.56-2.8,2
		C462.5,284.68,461.07,283.13,461.09,281.56z"/>
	<g>
		<path class="st31" d="M461.09,276.45c-0.08,0-0.16-0.02-0.24-0.06c-0.24-0.13-0.34-0.43-0.21-0.68c0.03-0.05,0.07-0.15,0.14-0.3
			c3.27-7.32,14.46-25.86,47.47-39.74c0.25-0.11,0.55,0.01,0.65,0.27c0.11,0.25-0.01,0.55-0.27,0.65
			c-32.68,13.74-43.71,32.01-46.94,39.22c-0.08,0.18-0.14,0.3-0.17,0.36C461.44,276.36,461.27,276.45,461.09,276.45z"/>
	</g>
	<path class="st33" d="M483.36,348.54c-0.3-5.49-1.94-11.25-2.9-16.65c-1.62-9.12-3.25-18.24-4.87-27.37
		c-1.4-7.87-2.8-15.74-4.2-23.61c-0.05-0.27-0.74-4.97-0.88-4.97c0,0-23.61,0-23.61,0s-12.32,69.24-12.32,69.27
		c-0.76,4.26-0.72,8.13,1.27,12.07c1.89,3.74,5.03,6.74,8.63,8.81c0,0,28.44,0,28.45,0c1.21,0,3.54-2.43,4.38-3.22
		c1.37-1.28,2.58-2.73,3.55-4.34C482.65,355.59,483.55,352.02,483.36,348.54z"/>
	<g>
		<path class="st3" d="M458.75,352.11c-9.41,0-18.42-0.69-24.73-1.9c-0.27-0.05-0.45-0.31-0.4-0.59c0.05-0.27,0.31-0.45,0.59-0.4
			c6.24,1.2,15.19,1.89,24.54,1.89c9.35,0,18.29-0.69,24.53-1.89c0.28-0.05,0.53,0.12,0.59,0.4c0.05,0.27-0.13,0.53-0.4,0.58
			C477.17,351.42,468.16,352.11,458.75,352.11z"/>
	</g>
	<g>
		<path class="st3" d="M458.75,346.4c-9.18,0-17.73-0.63-24.07-1.78c-0.27-0.05-0.45-0.31-0.4-0.58c0.05-0.27,0.31-0.45,0.58-0.4
			c6.28,1.14,14.77,1.77,23.89,1.77c9.06,0,17.82-0.65,24.03-1.79c0.27-0.04,0.53,0.13,0.58,0.4c0.05,0.27-0.13,0.53-0.4,0.58
			C476.6,345.76,468.01,346.4,458.75,346.4z"/>
	</g>
	<rect x="252.31" y="75.66" class="st32" width="56.55" height="4.19"/>
	
		<ellipse transform="matrix(0.4686 -0.8834 0.8834 0.4686 89.4461 520.2299)" class="st29" cx="477.12" cy="185.77" rx="9.19" ry="5.18"/>
	<path class="st29" d="M434.52,205.51c1.57,3.16,4.29,5,6.07,4.11c1.78-0.89,1.95-4.16,0.38-7.32c-1.57-3.16-4.29-5-6.07-4.11
		C433.12,199.07,432.95,202.35,434.52,205.51z"/>
	<path class="st34" d="M282.29,50.33c-2.84,4.92-8.15,7.16-11.86,5.02c-3.71-2.14-4.42-7.87-1.58-12.78
		c2.84-4.92,8.15-7.16,11.86-5.02C284.41,39.69,285.12,45.41,282.29,50.33z"/>
	<ellipse transform="matrix(0.5 -0.866 0.866 0.5 95.464 272.9516)" class="st34" cx="284.12" cy="53.8" rx="10.28" ry="9.43"/>
	<path class="st34" d="M273.48,48.6c3.49,3.49,4.06,8.57,1.28,11.34c-2.78,2.78-7.86,2.21-11.34-1.28
		c-3.49-3.49-4.06-8.56-1.28-11.34C264.92,44.54,270,45.12,273.48,48.6z"/>
	<path class="st34" d="M288.24,44.83c0,1.86-1.23,3.36-2.76,3.36s-2.76-1.51-2.76-3.36c0-1.86,1.23-3.36,2.76-3.36
		S288.24,42.97,288.24,44.83z"/>
	<polygon class="st29" points="283.49,75.66 265.44,75.66 262.95,58.13 285.98,58.13 	"/>
	<path class="st34" d="M275.99,58.13c0,0,4.36-0.22,5.5,2.75c0.81,2.13,2.35,3.5,4.91,2.51c3.58-1.39,1.84-8.7,1.84-8.7
		L275.99,58.13z"/>
	<g>
		<path class="st31" d="M282.73,44.47c-0.02,0-0.05,0-0.07,0c-0.27-0.04-0.46-0.29-0.43-0.56c0.15-1.11,1.15-3.14,3.79-2.93
			c0.27,0.02,0.48,0.26,0.46,0.54c-0.02,0.28-0.25,0.48-0.54,0.46c-2.38-0.21-2.7,1.98-2.72,2.07
			C283.19,44.29,282.97,44.47,282.73,44.47z"/>
	</g>
	<g>
		<path class="st31" d="M274.27,49.98c-0.18,0-0.36-0.1-0.45-0.27c-0.11-0.22-2.8-5.35-10.07-2.97c-0.26,0.09-0.54-0.06-0.63-0.32
			c-0.09-0.26,0.06-0.54,0.32-0.63c8.11-2.65,11.25,3.41,11.28,3.47c0.12,0.25,0.02,0.55-0.22,0.67
			C274.42,49.96,274.35,49.98,274.27,49.98z"/>
	</g>
</g>
</svg>
