<svg xmlns="http://www.w3.org/2000/svg" xmlns:xlink="http://www.w3.org/1999/xlink" viewBox="0 0 998.5 998.5"><defs><style>.cls-1{isolation:isolate;}.cls-2{mix-blend-mode:multiply;opacity:0.1;}.cls-3{fill:#fff;}.cls-4{fill:#fcfcfc;}.cls-5{fill:#fafafa;}.cls-6{fill:#f7f7f7;}.cls-7{fill:#f5f5f5;}.cls-8{fill:#f2f2f2;}.cls-9{fill:#f0f0f0;}.cls-10{fill:#ededed;}.cls-11{fill:#ebebeb;}.cls-12{fill:#e8e8e8;}.cls-13{fill:#e6e6e6;}.cls-14{fill:#e3e3e3;}.cls-15{fill:#e1e1e1;}.cls-16{fill:#dedede;}.cls-17{fill:#dcdcdc;}.cls-18{fill:#d9d9d9;}.cls-19{fill:#d7d7d7;}.cls-20{fill:#d4d4d4;}.cls-21{fill:#d2d2d2;}.cls-22{fill:#cfcfcf;}.cls-23{fill:#cdcdcd;}.cls-24{fill:#cacaca;}.cls-25{fill:#c7c7c7;}.cls-26{fill:#c5c5c5;}.cls-27{fill:#c2c2c2;}.cls-28{fill:silver;}.cls-29{fill:#bdbdbd;}.cls-30{fill:#bbb;}.cls-31{fill:#b8b8b8;}.cls-32{fill:#b6b6b6;}.cls-33{fill:#b3b3b3;}.cls-34{fill:#b1b1b1;}.cls-35{fill:#aeaeae;}.cls-36{fill:#acacac;}.cls-37{fill:#a9a9a9;}.cls-38{fill:#a7a7a7;}.cls-39{fill:#a4a4a4;}.cls-40{fill:#a2a2a2;}.cls-41{fill:#9f9f9f;}.cls-42{fill:#9d9d9d;}.cls-43{fill:#9a9a9a;}.cls-44{fill:#979797;}.cls-45{fill:#959595;}.cls-46{fill:#929292;}.cls-47{fill:#909090;}.cls-48{fill:#8d8d8d;}.cls-49{fill:#8b8b8b;}.cls-50{fill:#888;}.cls-51{fill:#868686;}.cls-52{fill:#838383;}.cls-53{fill:#818181;}.cls-54{fill:#7e7e7e;}.cls-55{fill:#7c7c7c;}.cls-56{fill:#797979;}.cls-57{fill:#777;}.cls-58{fill:#747474;}.cls-59{fill:#727272;}.cls-60{fill:#6f6f6f;}.cls-61{fill:#6d6d6d;}.cls-62{fill:#6a6a6a;}.cls-63{fill:#686868;}.cls-64{fill:#656565;}.cls-65{fill:#626262;}.cls-66{fill:#606060;}.cls-67{fill:#5d5d5d;}.cls-68{fill:#5b5b5b;}.cls-69{fill:#585858;}.cls-70{fill:#565656;}.cls-71{fill:#535353;}.cls-72{fill:#515151;}.cls-73{fill:#4e4e4e;}.cls-74{fill:#4c4c4c;}.cls-75{fill:#494949;}.cls-76{fill:#474747;}.cls-77{fill:#444;}.cls-78{fill:#424242;}.cls-79{fill:#3f3f3f;}.cls-80{fill:#3d3d3d;}.cls-81{fill:#3a3a3a;}.cls-82{fill:#383838;}.cls-83{fill:#353535;}.cls-84{fill:#323232;}.cls-85{fill:#303030;}.cls-86{fill:#2d2d2d;}.cls-87{fill:#2b2b2b;}.cls-88{fill:#282828;}.cls-89{fill:#262626;}.cls-90{fill:#232323;}.cls-91{fill:#212121;}.cls-92{fill:#1e1e1e;}.cls-93{fill:#1c1c1c;}.cls-94{fill:#191919;}.cls-95{fill:#171717;}.cls-96{fill:#141414;}.cls-97{fill:#121212;}.cls-98{fill:#0f0f0f;}.cls-99{fill:#0d0d0d;}.cls-100{fill:#0a0a0a;}.cls-101{fill:#080808;}.cls-102{fill:#050505;}.cls-103{fill:#030303;}.cls-104{fill:url(#linear-gradient);}</style><linearGradient id="linear-gradient" y1="970" x2="970" gradientUnits="userSpaceOnUse"><stop offset="0.21" stop-color="#5c3231"/><stop offset="0.38" stop-color="#613530"/><stop offset="0.6" stop-color="#713d2f"/><stop offset="0.72" stop-color="#7d442d"/><stop offset="0.82" stop-color="#79422d"/><stop offset="0.91" stop-color="#6f3c2f"/><stop offset="1" stop-color="#5d3231"/><stop offset="1" stop-color="#5c3231"/></linearGradient></defs><g class="cls-1"><g id="Camada_2" data-name="Camada 2"><g id="Object"><g class="cls-2"><path class="cls-3" d="M38.5,38.5h950v950H38.5Zm-10,960h970V28.5H28.5Z"/><path class="cls-4" d="M38.22,38.22h950v950h-950Zm-10,960h970v-970h-970Z"/><path class="cls-5" d="M37.94,37.94h950v950h-950Zm-10,960h970v-970h-970Z"/><path class="cls-6" d="M37.65,37.65h950v950h-950Zm-10,960h970v-970h-970Z"/><path class="cls-7" d="M37.37,37.37h950v950h-950Zm-10,960h970v-970h-970Z"/><path class="cls-8" d="M37.09,37.09h950v950h-950Zm-10,960h970v-970h-970Z"/><path class="cls-9" d="M36.81,36.81h950v950h-950Zm-10,960h970v-970h-970Z"/><path class="cls-10" d="M36.52,36.52h950v950h-950Zm-10,960h970v-970h-970Z"/><path class="cls-11" d="M36.24,36.24h950v950h-950Zm-10,960h970v-970h-970Z"/><path class="cls-12" d="M36,36H986V986H36ZM26,996H996V26H26Z"/><path class="cls-13" d="M35.68,35.68h950v950h-950Zm-10,960h970v-970h-970Z"/><path class="cls-14" d="M35.4,35.4h950v950H35.4Zm-10,960h970V25.4H25.4Z"/><path class="cls-15" d="M35.11,35.11h950v950h-950Zm-10,960h970v-970h-970Z"/><path class="cls-16" d="M34.83,34.83h950v950h-950Zm-10,960h970v-970h-970Z"/><path class="cls-17" d="M34.55,34.55h950v950h-950Zm-10,960h970v-970h-970Z"/><path class="cls-18" d="M34.27,34.27h950v950h-950Zm-10,960h970v-970h-970Z"/><path class="cls-19" d="M34,34H984V984H34ZM24,994H994V24H24Z"/><path class="cls-20" d="M33.7,33.7h950v950H33.7Zm-10,960h970V23.7H23.7Z"/><path class="cls-21" d="M33.42,33.42h950v950h-950Zm-10,960h970v-970h-970Z"/><path class="cls-22" d="M33.14,33.14h950v950h-950Zm-10,960h970v-970h-970Z"/><path class="cls-23" d="M32.86,32.86h950v950h-950Zm-10,960h970v-970h-970Z"/><path class="cls-24" d="M32.57,32.57h950v950h-950Zm-10,960h970v-970h-970Z"/><path class="cls-25" d="M32.29,32.29h950v950h-950Zm-10,960h970v-970h-970Z"/><path class="cls-26" d="M32,32H982V982H32ZM22,992H992V22H22Z"/><path class="cls-27" d="M31.73,31.73h950v950h-950Zm-10,960h970v-970h-970Z"/><path class="cls-28" d="M31.45,31.45h950v950h-950Zm-10,960h970v-970h-970Z"/><path class="cls-29" d="M31.16,31.16h950v950h-950Zm-10,960h970v-970h-970Z"/><path class="cls-30" d="M30.88,30.88h950v950h-950Zm-10,960h970v-970h-970Z"/><path class="cls-31" d="M30.6,30.6h950v950H30.6Zm-10,960h970V20.6H20.6Z"/><path class="cls-32" d="M30.32,30.32h950v950h-950Zm-10,960h970v-970h-970Z"/><path class="cls-33" d="M30,30H980V980H30ZM20,990H990V20H20Z"/><path class="cls-34" d="M29.75,29.75h950v950h-950Zm-10,960h970v-970h-970Z"/><path class="cls-35" d="M29.47,29.47h950v950h-950Zm-10,960h970v-970h-970Z"/><path class="cls-36" d="M29.19,29.19h950v950h-950Zm-10,960h970v-970h-970Z"/><path class="cls-37" d="M28.91,28.91h950v950h-950Zm-10,960h970v-970h-970Z"/><path class="cls-38" d="M28.62,28.62h950v950h-950Zm-10,960h970v-970h-970Z"/><path class="cls-39" d="M28.34,28.34h950v950h-950Zm-10,960h970v-970h-970Z"/><path class="cls-40" d="M28.06,28.06h950v950h-950Zm-10,960h970v-970h-970Z"/><path class="cls-41" d="M27.78,27.78h950v950h-950Zm-10,960h970v-970h-970Z"/><path class="cls-42" d="M27.49,27.49h950v950h-950Zm-10,960h970v-970h-970Z"/><path class="cls-43" d="M27.21,27.21h950v950h-950Zm-10,960h970v-970h-970Z"/><path class="cls-44" d="M26.93,26.93h950v950h-950Zm-10,960h970v-970h-970Z"/><path class="cls-45" d="M26.65,26.65h950v950h-950Zm-10,960h970v-970h-970Z"/><path class="cls-46" d="M26.37,26.37h950v950h-950Zm-10,960h970v-970h-970Z"/><path class="cls-47" d="M26.08,26.08h950v950h-950Zm-10,960h970v-970h-970Z"/><path class="cls-48" d="M25.8,25.8h950v950H25.8Zm-10,960h970V15.8H15.8Z"/><path class="cls-49" d="M25.52,25.52h950v950h-950Zm-10,960h970v-970h-970Z"/><path class="cls-50" d="M25.24,25.24h950v950h-950Zm-10,960h970v-970h-970Z"/><path class="cls-51" d="M25,25H975V975H25ZM15,985H985V15H15Z"/><path class="cls-52" d="M24.67,24.67h950v950h-950Zm-10,960h970v-970h-970Z"/><path class="cls-53" d="M24.39,24.39h950v950h-950Zm-10,960h970v-970h-970Z"/><path class="cls-54" d="M24.11,24.11h950v950h-950Zm-10,960h970v-970h-970Z"/><path class="cls-55" d="M23.83,23.83h950v950h-950Zm-10,960h970v-970h-970Z"/><path class="cls-56" d="M23.54,23.54h950v950h-950Zm-10,960h970v-970h-970Z"/><path class="cls-57" d="M23.26,23.26h950v950h-950Zm-10,960h970v-970h-970Z"/><path class="cls-58" d="M23,23H973V973H23ZM13,983H983V13H13Z"/><path class="cls-59" d="M22.7,22.7h950v950H22.7Zm-10,960h970V12.7H12.7Z"/><path class="cls-60" d="M22.42,22.42h950v950h-950Zm-10,960h970v-970h-970Z"/><path class="cls-61" d="M22.13,22.13h950v950h-950Zm-10,960h970v-970h-970Z"/><path class="cls-62" d="M21.85,21.85h950v950h-950Zm-10,960h970v-970h-970Z"/><path class="cls-63" d="M21.57,21.57h950v950h-950Zm-10,960h970v-970h-970Z"/><path class="cls-64" d="M21.29,21.29h950v950h-950Zm-10,960h970v-970h-970Z"/><path class="cls-65" d="M21,21H971V971H21ZM11,981H981V11H11Z"/><path class="cls-66" d="M20.72,20.72h950v950h-950Zm-10,960h970v-970h-970Z"/><path class="cls-67" d="M20.44,20.44h950v950h-950Zm-10,960h970v-970h-970Z"/><path class="cls-68" d="M20.16,20.16h950v950h-950Zm-10,960h970v-970h-970Z"/><path class="cls-69" d="M19.88,19.88h950v950h-950Zm-10,960h970V9.88H9.88Z"/><path class="cls-70" d="M19.59,19.59h950v950h-950Zm-10,960h970V9.59H9.59Z"/><path class="cls-71" d="M19.31,19.31h950v950h-950Zm-10,960h970V9.31H9.31Z"/><path class="cls-72" d="M19,19H969V969H19ZM9,979H979V9H9Z"/><path class="cls-73" d="M18.75,18.75h950v950h-950Zm-10,960h970V8.75H8.75Z"/><path class="cls-74" d="M18.47,18.47h950v950h-950Zm-10,960h970V8.47H8.47Z"/><path class="cls-75" d="M18.18,18.18h950v950h-950Zm-10,960h970V8.18H8.18Z"/><path class="cls-76" d="M17.9,17.9h950v950H17.9Zm-10,960h970V7.9H7.9Z"/><path class="cls-77" d="M17.62,17.62h950v950h-950Zm-10,960h970V7.62H7.62Z"/><path class="cls-78" d="M17.34,17.34h950v950h-950Zm-10,960h970V7.34H7.34Z"/><path class="cls-79" d="M17.05,17.05h950v950h-950Zm-10,960h970V7.05H7.05Z"/><path class="cls-80" d="M16.77,16.77h950v950h-950Zm-10,960h970V6.77H6.77Z"/><path class="cls-81" d="M16.49,16.49h950v950h-950Zm-10,960h970V6.49H6.49Z"/><path class="cls-82" d="M16.21,16.21h950v950h-950Zm-10,960h970V6.21H6.21Z"/><path class="cls-83" d="M15.93,15.93h950v950h-950Zm-10,960h970V5.93H5.93Z"/><path class="cls-84" d="M15.64,15.64h950v950h-950Zm-10,960h970V5.64H5.64Z"/><path class="cls-85" d="M15.36,15.36h950v950h-950Zm-10,960h970V5.36H5.36Z"/><path class="cls-86" d="M15.08,15.08h950v950h-950Zm-10,960h970V5.08H5.08Z"/><path class="cls-87" d="M14.8,14.8h950v950H14.8Zm-10,960h970V4.8H4.8Z"/><path class="cls-88" d="M14.51,14.51h950v950h-950Zm-10,960h970V4.51H4.51Z"/><path class="cls-89" d="M14.23,14.23h950v950h-950Zm-10,960h970V4.23H4.23Z"/><path class="cls-90" d="M14,14H964V964H14ZM4,974H974V4H4Z"/><path class="cls-91" d="M13.67,13.67h950v950h-950Zm-10,960h970V3.67H3.67Z"/><path class="cls-92" d="M13.39,13.39h950v950h-950Zm-10,960h970V3.39H3.39Z"/><path class="cls-93" d="M13.1,13.1h950v950H13.1Zm-10,960h970V3.1H3.1Z"/><path class="cls-94" d="M12.82,12.82h950v950h-950Zm-10,960h970V2.82H2.82Z"/><path class="cls-95" d="M12.54,12.54h950v950h-950Zm-10,960h970V2.54H2.54Z"/><path class="cls-96" d="M12.26,12.26h950v950h-950Zm-10,960h970V2.26H2.26Z"/><path class="cls-97" d="M12,12H962V962H12ZM2,972H972V2H2Z"/><path class="cls-98" d="M11.69,11.69h950v950h-950Zm-10,960h970V1.69H1.69Z"/><path class="cls-99" d="M11.41,11.41h950v950h-950Zm-10,960h970V1.41H1.41Z"/><path class="cls-100" d="M11.13,11.13h950v950h-950Zm-10,960h970V1.13H1.13Z"/><path class="cls-101" d="M10.85,10.85h950v950h-950Zm-10,960h970V.85H.85Z"/><path class="cls-102" d="M10.56,10.56h950v950h-950Zm-10,960h970V.56H.56Z"/><path class="cls-103" d="M10.28,10.28h950v950h-950Zm-10,960h970V.28H.28Z"/><path d="M10,10H960V960H10ZM0,970H970V0H0Z"/></g><path class="cls-104" d="M970,970H0V0H970ZM10,960H960V10H10Z"/></g></g></g></svg>