<svg xmlns="http://www.w3.org/2000/svg" viewBox="0 0 707.76 433.03"><defs><style>.cls-1{fill:#fff;}.cls-2{fill:#e0e0e0;}.cls-3{fill:#ebebeb;}.cls-4{opacity:0.2;}.cls-5{fill:#f5f5f5;}.cls-6{fill:#263238;}.cls-7{opacity:0.3;}.cls-8{fill:#455a64;}.cls-9{fill:#ff725e;}.cls-10{opacity:0.4;}.cls-11{fill:#fafafa;}.cls-12{fill:#65463c;}.cls-13{fill:#ffbf9d;}.cls-14{fill:#ff9a6c;}.cls-15{fill:#9f7362;}</style></defs><g id="Camada_2" data-name="Camada 2"><g id="Background_Complete" data-name="Background Complete"><rect class="cls-1" x="123.59" y="325.71" width="132.8" height="54.63" rx="11.53"/><path class="cls-2" d="M244.86,380.35a15,15,0,0,0,3.53-.62,11.64,11.64,0,0,0,3.77-2.11,11.5,11.5,0,0,0,3.37-4.78,10.79,10.79,0,0,0,.69-3.43c.06-1.23,0-2.55,0-3.91,0-2.74,0-5.71,0-8.9s0-6.6,0-10.22c0-1.81,0-3.67,0-5.58a35.57,35.57,0,0,0-.24-5.82,11.4,11.4,0,0,0-8-8.6c-2.06-.62-4.32-.38-6.6-.42h-7l-30.15,0-69.09,0a11.17,11.17,0,0,0-8,3.34,11.31,11.31,0,0,0-3.24,7.92v17.63c0,2.89,0,5.76,0,8.59v4.24a13.39,13.39,0,0,0,.42,4.07,11.28,11.28,0,0,0,4.61,6.38,11,11,0,0,0,3.61,1.56,16,16,0,0,0,3.92.32l56.43.06,38,.1,10.34.06,2.69,0,.92,0-.92,0-2.69,0-10.34.06-38,.09-56.43.07a16.38,16.38,0,0,1-4.05-.33,11.45,11.45,0,0,1-3.8-1.64,11.86,11.86,0,0,1-4.85-6.69,14.11,14.11,0,0,1-.44-4.23V363.5c0-2.83,0-5.7,0-8.59V337.28a11.85,11.85,0,0,1,11.84-11.87l69.09,0,30.15,0h10.35a12.46,12.46,0,0,1,3.34.45,11.82,11.82,0,0,1,8.3,9,15.34,15.34,0,0,1,.23,3v2.9c0,1.91,0,3.77,0,5.58q0,5.43,0,10.22t0,8.9c0,1.36,0,2.66,0,3.92a11.12,11.12,0,0,1-.74,3.5,11.77,11.77,0,0,1-3.47,4.84,11.59,11.59,0,0,1-3.85,2.08,11.44,11.44,0,0,1-2.65.49Z"/><path class="cls-2" d="M233.41,356.6H172.6a4.08,4.08,0,0,1-4.08-4.08h0a4.08,4.08,0,0,1,4.08-4.08h60.81a4.09,4.09,0,0,1,4.09,4.08h0A4.08,4.08,0,0,1,233.41,356.6Z"/><rect class="cls-2" x="142.17" y="343.57" width="18.92" height="18.92" rx="5.14"/><polygon class="cls-1" points="145.09 353.3 147 351.4 150.67 354.66 156.81 348.5 158.58 350.41 150.4 358.34 145.09 353.3"/><path class="cls-3" d="M656.24,89.92a9.08,9.08,0,1,1-10.88-6.82A9.07,9.07,0,0,1,656.24,89.92Z"/><path class="cls-3" d="M613.4,99.89l68-15.63L675.52,80a18.86,18.86,0,0,1-7.28-11L664,50.48a25.44,25.44,0,0,0-30.49-19.1h0a25.45,25.45,0,0,0-19.1,30.49l4.08,17.75a18.85,18.85,0,0,1-1.31,12.24Z"/><rect class="cls-3" x="629.16" y="23.37" width="6.85" height="14.56" rx="2.98" transform="translate(9.2 142.41) rotate(-12.94)"/><path class="cls-2" d="M681.49,84.41c0,.14-15.07,3.73-33.73,8s-33.82,7.64-33.86,7.49,15.07-3.72,33.74-8S681.46,84.27,681.49,84.41Z"/><path class="cls-2" d="M638.61,94.25a15.18,15.18,0,0,0,9.27,1.09,14.52,14.52,0,0,0,8.42-5.15Z"/><path class="cls-2" d="M659.88,48.05a5,5,0,0,0-1-2.18,1.76,1.76,0,0,0-2.18-.42h0a1.9,1.9,0,0,0-1.08,2.16c.67,2.92,2.11,9.37,2.83,13.24.59,3.19.92,6.66-.56,9.54a10.84,10.84,0,0,1-5.61,4.77A39.93,39.93,0,0,1,645,77.09,38.81,38.81,0,0,0,636,80a4.81,4.81,0,0,0-2,1.53,1.86,1.86,0,0,0,.16,2.33,2.81,2.81,0,0,0,2.23.33c7.91-1.1,15.87-2.33,23.39-5a8,8,0,0,0,4.13-2.62c1.07-1.55,1-3.6.81-5.47A130.38,130.38,0,0,0,659.88,48.05Z"/><g class="cls-4"><path class="cls-1" d="M627.07,37.31l.06,0,.08,0Z"/></g><path class="cls-2" d="M649,32.52c0,.11-1.54-.54-4.09-1.05a26.74,26.74,0,0,0-4.53-.5,29.46,29.46,0,0,0-5.55.42,30,30,0,0,0-5.36,1.53,27.16,27.16,0,0,0-4.08,2c-2.22,1.37-3.4,2.48-3.47,2.4a4.84,4.84,0,0,1,.8-.81,9.3,9.3,0,0,1,1-.86,16,16,0,0,1,1.44-1,25.3,25.3,0,0,1,4.1-2.17,26.66,26.66,0,0,1,11.11-2,24.58,24.58,0,0,1,4.59.63,15.23,15.23,0,0,1,1.71.47,9,9,0,0,1,1.27.46A5.11,5.11,0,0,1,649,32.52Z"/><path class="cls-1" d="M618.76,90.48c-.15-.06.72-2.19,1-5s0-5.06.16-5.08a10.89,10.89,0,0,1,.36,5.14A10.85,10.85,0,0,1,618.76,90.48Z"/><path class="cls-1" d="M650,98.8c0,.06-.46.4-1.37.66a7,7,0,0,1-6.83-1.87c-.66-.69-.9-1.22-.85-1.26s.42.41,1.1,1a7.93,7.93,0,0,0,3,1.64,8.09,8.09,0,0,0,3.45.14A11.07,11.07,0,0,1,650,98.8Z"/><path class="cls-1" d="M630.14,24.64a15.37,15.37,0,0,0-.63,2.46,15.72,15.72,0,0,0,.3,2.53,3,3,0,0,1-.82-2.56A3,3,0,0,1,630.14,24.64Z"/><path class="cls-2" d="M71.82,122a26.78,26.78,0,0,1,6.51-2.83l1.33-6.43,10.88-.19,1.57,6.38a26.53,26.53,0,0,1,6.59,2.6l5.5-3.61,7.83,7.56-3.41,5.62a26.93,26.93,0,0,1,2.83,6.5l6.43,1.34.19,10.88-6.38,1.56a26.59,26.59,0,0,1-2.6,6.6l3.6,5.5-7.55,7.82-5.62-3.4a26.85,26.85,0,0,1-6.5,2.82l-1.34,6.44-10.88.19-1.56-6.39a26.56,26.56,0,0,1-6.6-2.59l-5.5,3.6-7.82-7.55,3.4-5.62a26.75,26.75,0,0,1-2.82-6.51l-6.44-1.34L53.27,140l6.38-1.57a27,27,0,0,1,2.6-6.6l-3.6-5.49,7.55-7.83L71.82,122Zm5.8,14.49a11.67,11.67,0,1,0,16.5-.29A11.66,11.66,0,0,0,77.62,136.44Z"/><path class="cls-3" d="M670.82,252.58a21.19,21.19,0,0,1,5.2-2.26l1.07-5.14,8.68-.15,1.25,5.1a21.4,21.4,0,0,1,5.27,2.07l4.39-2.88,6.25,6-2.72,4.49a20.91,20.91,0,0,1,2.26,5.19l5.14,1.07.15,8.69-5.1,1.25a21.16,21.16,0,0,1-2.07,5.27l2.88,4.39-6,6.25L693,289.24a21.92,21.92,0,0,1-5.2,2.26l-1.07,5.14-8.69.15-1.25-5.1a21.55,21.55,0,0,1-5.27-2.07l-4.39,2.87-6.25-6,2.72-4.49a21.68,21.68,0,0,1-2.26-5.19l-5.14-1.07L656,267l5.1-1.25a21,21,0,0,1,2.08-5.27l-2.88-4.39,6-6.25,4.49,2.72Zm4.63,11.57a9.32,9.32,0,1,0,13.18-.23A9.33,9.33,0,0,0,675.45,264.15Z"/><path class="cls-2" d="M32.52,250.86a13.33,13.33,0,0,1,3.36-1.46l.69-3.33,5.61-.09.81,3.29a13.82,13.82,0,0,1,3.41,1.34l2.84-1.86,4,3.9-1.76,2.9A13.69,13.69,0,0,1,53,258.91l3.32.69.1,5.62-3.3.8a13.82,13.82,0,0,1-1.34,3.41l1.86,2.84-3.9,4-2.9-1.76A13.69,13.69,0,0,1,43.46,276l-.69,3.32-5.61.1-.81-3.3a13.59,13.59,0,0,1-3.41-1.34l-2.83,1.86-4-3.9,1.75-2.9a13.66,13.66,0,0,1-1.45-3.36L23,265.8l-.1-5.61,3.3-.81A14,14,0,0,1,27.58,256l-1.86-2.83,3.9-4,2.9,1.76Zm3,7.47a6,6,0,1,0,8.52-.15A6,6,0,0,0,35.51,258.33Z"/><path class="cls-5" d="M245.17,20a30.59,30.59,0,0,1,7.53-3.27l1.55-7.45L266.83,9l1.81,7.39a31,31,0,0,1,7.64,3l6.36-4.16L291.69,24l-3.94,6.5A30.59,30.59,0,0,1,291,38l7.45,1.55.22,12.58L291.3,54a31,31,0,0,1-3,7.64L292.47,68l-8.75,9-6.5-3.94a30.69,30.69,0,0,1-7.52,3.27l-1.56,7.45L255.56,84l-1.81-7.39a31,31,0,0,1-7.64-3l-6.36,4.17L230.7,69l3.94-6.5A30.69,30.69,0,0,1,231.37,55l-7.45-1.55-.22-12.59,7.39-1.81a31,31,0,0,1,3-7.64l-4.16-6.36,8.74-9,6.5,3.94Zm6.71,16.77A13.5,13.5,0,1,0,271,36.38,13.5,13.5,0,0,0,251.88,36.72Z"/><path class="cls-5" d="M589.73,336.53a30.69,30.69,0,0,1,7.52-3.27l1.55-7.45,12.59-.22L613.2,333a30.75,30.75,0,0,1,7.63,3l6.36-4.17,9.06,8.75-3.94,6.5a30.69,30.69,0,0,1,3.27,7.52l7.45,1.55.22,12.59-7.39,1.81a30.61,30.61,0,0,1-3,7.64l4.17,6.36-8.74,9.05-6.5-3.94a30.76,30.76,0,0,1-7.53,3.27l-1.55,7.45-12.58.22-1.81-7.39a31,31,0,0,1-7.64-3l-6.36,4.16-9.06-8.74,4-6.5a30.59,30.59,0,0,1-3.27-7.53L568.48,370l-.22-12.58,7.39-1.81a31,31,0,0,1,3-7.64l-4.17-6.36,8.74-9.05,6.51,3.94Zm6.71,16.76a13.5,13.5,0,1,0,19.09-.33A13.52,13.52,0,0,0,596.44,353.29Z"/></g><g id="Desk"><path class="cls-6" d="M669.36,432.77c0,.15-143.71.26-320.95.26s-321-.11-321-.26,143.68-.26,321-.26S669.36,432.63,669.36,432.77Z"/></g><g id="Office_Plan" data-name="Office Plan"><rect class="cls-1" x="87.16" y="58.13" width="307.15" height="253.52"/><path class="cls-6" d="M394.31,311.65c0-1.82-.08-100.74-.21-253.52l.21.21-307.12,0h0l.26-.26c0,91.75,0,178.36,0,253.52l-.23-.23,307.15.23-307.15.23h-.23v-.23c0-75.16,0-161.77,0-253.52v-.26h.29l307.12,0h.22v.22C394.4,210.91,394.32,309.83,394.31,311.65Z"/><path class="cls-6" d="M374.87,295.5H101v-220H374.87ZM102,294.5H373.87v-218H102Z"/><rect class="cls-6" x="287.93" y="76.89" width="1" height="218.14"/><path class="cls-6" d="M194,76.89a2.74,2.74,0,0,1,.07.62c0,.4,0,1,.1,1.76a26.38,26.38,0,0,0,1.26,6.32,21,21,0,0,0,5,8.06,26.34,26.34,0,0,0,9.87,6.1,30.14,30.14,0,0,0,6.14,1.53l-.28.25c0-6.8.07-12.76.09-17.1,0-2.09.06-3.78.08-5,0-.54,0-1,0-1.34a1.34,1.34,0,0,1,.05-.47,2.15,2.15,0,0,1,0,.47c0,.35,0,.8,0,1.34,0,1.25.05,2.94.08,5,0,4.34.05,10.3.09,17.1v.29l-.28,0a30.23,30.23,0,0,1-6.27-1.55A26.18,26.18,0,0,1,200,94a20.87,20.87,0,0,1-5-8.27,25.11,25.11,0,0,1-1.12-6.43c0-.77,0-1.37,0-1.77A3.69,3.69,0,0,1,194,76.89Z"/><path class="cls-6" d="M288.43,123.91a3.69,3.69,0,0,1-.62,0c-.4,0-1,0-1.77,0a24.52,24.52,0,0,1-6.43-1.11,21.09,21.09,0,0,1-8.28-5,26.58,26.58,0,0,1-6.26-10,30.2,30.2,0,0,1-1.54-6.27l0-.28h.29l17.11.09,5,.07,1.35,0a2.15,2.15,0,0,1,.47,0,1.74,1.74,0,0,1-.47,0l-1.35,0-5,.08-17.11.09.26-.28a30.1,30.1,0,0,0,1.52,6.14,26.31,26.31,0,0,0,6.11,9.87,21.14,21.14,0,0,0,8.06,5,26.29,26.29,0,0,0,6.32,1.26c.76.08,1.36.07,1.76.1A2.87,2.87,0,0,1,288.43,123.91Z"/><path class="cls-6" d="M289.07,245.56a2.69,2.69,0,0,1-.62,0c-.4,0-1,0-1.77,0a25,25,0,0,1-6.43-1.12,21,21,0,0,1-8.28-5,26.43,26.43,0,0,1-6.26-10,30.68,30.68,0,0,1-1.54-6.27l0-.28h.29l17.1.09,5,.08,1.35,0a1.74,1.74,0,0,1,.47.05,2.15,2.15,0,0,1-.47,0l-1.35.05-5,.07-17.1.09.25-.28a30.85,30.85,0,0,0,1.52,6.15,26.52,26.52,0,0,0,6.11,9.86,20.89,20.89,0,0,0,8.06,5,27,27,0,0,0,6.32,1.27c.76.07,1.36.06,1.76.1A2.5,2.5,0,0,1,289.07,245.56Z"/><path class="cls-6" d="M194,76.89a3.69,3.69,0,0,1,0,.62c0,.4,0,1,0,1.77a24.58,24.58,0,0,1-1.11,6.43,21,21,0,0,1-5,8.27,26.34,26.34,0,0,1-10,6.26,30.23,30.23,0,0,1-6.27,1.55l-.28,0v-.29c0-6.8.07-12.76.09-17.1,0-2.09.06-3.78.07-5,0-.54,0-1,0-1.34a2.15,2.15,0,0,1,0-.47,1.74,1.74,0,0,1,0,.47c0,.35,0,.8,0,1.34,0,1.25.05,2.94.08,5,0,4.34.05,10.3.09,17.1l-.28-.25a30.14,30.14,0,0,0,6.14-1.53,26.42,26.42,0,0,0,9.87-6.1,21.14,21.14,0,0,0,5-8.06,26.38,26.38,0,0,0,1.26-6.32c.08-.77.07-1.36.1-1.76A2.74,2.74,0,0,1,194,76.89Z"/><path class="cls-6" d="M353.14,194.82s0-.15,0-.44,0-.71,0-1.25c0-1.11,0-2.73,0-4.82,0-4.22,0-10.33-.07-18,0-15.35-.07-36.95-.12-62l.25.25H316.77l.26-.26c0,33.76-.06,64.34-.08,86.54l-.18-.18,26.55.09,7.26.05,1.9,0,.66,0-.62,0-1.87,0-7.21,0-26.67.1h-.19v-.19c0-22.2,0-52.78-.07-86.54V108h36.88v.25c-.05,25.14-.09,46.8-.12,62.19,0,7.66,0,13.75-.07,17.95,0,2.07,0,3.67,0,4.77,0,.53,0,.93,0,1.23S353.14,194.82,353.14,194.82Z"/><path class="cls-6" d="M362.19,181.6a1.23,1.23,0,0,1-.08.71,1.84,1.84,0,0,1-1.59,1.19c-1.73.05-4.2.07-7.21.1h-.21v-.21c0-3.95,0-8.81-.05-14.06v-2.05H360a3.05,3.05,0,0,1,1.1.11,2.17,2.17,0,0,1,.92.66,2.14,2.14,0,0,1,.42,1c0,.37,0,.65,0,1,0,.63,0,1.24,0,1.83q0,1.75,0,3.27c0,1.93-.06,3.52-.08,4.71,0,.51,0,.93-.05,1.28a1.18,1.18,0,0,1-.05.44,2.19,2.19,0,0,1-.05-.44c0-.35,0-.77,0-1.28,0-1.19-.05-2.78-.08-4.71,0-1,0-2.1,0-3.27,0-.59,0-1.2,0-1.83,0-.3,0-.66,0-.93a1.53,1.53,0,0,0-1-1.27,2.54,2.54,0,0,0-.94-.08h-6.66l.26-.26v1.79c0,5.25,0,10.11-.05,14.06l-.21-.21,7.2.08a1.71,1.71,0,0,0,1.49-1A4,4,0,0,0,362.19,181.6Z"/><path class="cls-6" d="M358.55,183.39a58.81,58.81,0,0,1-.27-8,58.59,58.59,0,0,1,.27-8,61.78,61.78,0,0,1,.26,8A62,62,0,0,1,358.55,183.39Z"/><path class="cls-6" d="M362.19,146.44a1.23,1.23,0,0,1-.08.71,1.82,1.82,0,0,1-1.59,1.19c-1.73,0-4.2.07-7.21.1h-.21v-.21c0-3.95,0-8.81-.05-14.06v-2H360a2.86,2.86,0,0,1,1.1.12,2.07,2.07,0,0,1,.92.65,2.14,2.14,0,0,1,.42,1c0,.37,0,.65,0,1,0,.63,0,1.24,0,1.83q0,1.75,0,3.27c0,1.94-.06,3.52-.08,4.71,0,.51,0,.93-.05,1.28a1.18,1.18,0,0,1-.05.44,2.19,2.19,0,0,1-.05-.44c0-.35,0-.77,0-1.28,0-1.19-.05-2.77-.08-4.71,0-1,0-2.1,0-3.27,0-.59,0-1.2,0-1.83,0-.3,0-.66,0-.93a1.53,1.53,0,0,0-1-1.27,2.54,2.54,0,0,0-.94-.08h-6.66l.26-.26v1.79c0,5.25,0,10.11-.05,14.06l-.21-.21,7.2.08a1.71,1.71,0,0,0,1.49-1A4,4,0,0,0,362.19,146.44Z"/><path class="cls-6" d="M358.55,148.23a58.68,58.68,0,0,1-.27-8,58.59,58.59,0,0,1,.27-8,61.78,61.78,0,0,1,.26,8A61.88,61.88,0,0,1,358.55,148.23Z"/><path class="cls-6" d="M342,99.39a1.35,1.35,0,0,1,.71.08,1.85,1.85,0,0,1,1.19,1.59c.05,1.74.07,4.21.1,7.22v.21h-.21l-14.06.05h-2.05v-.26c0-1.55,0-3.06,0-4.52,0-.73,0-1.44,0-2.14a2.84,2.84,0,0,1,.12-1.1,2,2,0,0,1,.65-.92,2,2,0,0,1,1-.42c.37,0,.66,0,1,0l1.83,0,3.27,0,4.71.08,1.28,0a2.19,2.19,0,0,1,.44,0,1.18,1.18,0,0,1-.44,0l-1.28,0-4.71.08-3.27,0-1.83,0c-.3,0-.66,0-.93,0a1.46,1.46,0,0,0-.78.33,1.55,1.55,0,0,0-.49.71,2.54,2.54,0,0,0-.08.94v2.14c0,1.46,0,3,0,4.52L328,108h1.79l14.06,0-.21.21c0-3,.06-5.4.08-7.2a1.71,1.71,0,0,0-1-1.49C342.29,99.41,342,99.43,342,99.39Z"/><path class="cls-6" d="M343.82,103a59.78,59.78,0,0,1-8,.26,59.68,59.68,0,0,1-7.95-.26,61.78,61.78,0,0,1,7.95-.26A61.88,61.88,0,0,1,343.82,103Z"/><path class="cls-6" d="M329.69,203.71a1.34,1.34,0,0,1-.71-.08,1.86,1.86,0,0,1-1.19-1.59c0-1.74-.07-4.21-.09-7.22v-.21h.22l14.06-.05h2v.26c0,1.55,0,3.06,0,4.52v2.14a3.29,3.29,0,0,1-.12,1.1,2,2,0,0,1-.66.92,2,2,0,0,1-1,.42c-.38,0-.66,0-1,0h-1.83l-3.27,0-4.71-.08-1.28,0a2.19,2.19,0,0,1-.44,0,1.18,1.18,0,0,1,.44-.05l1.28,0,4.71-.08,3.27,0,1.83,0c.31,0,.66,0,.93,0a1.43,1.43,0,0,0,.78-.33,1.54,1.54,0,0,0,.5-.7,2.86,2.86,0,0,0,.08-1c0-.7,0-1.41,0-2.14,0-1.46,0-3,0-4.52l.26.26H342L327.91,195l.21-.21c0,3-.07,5.4-.09,7.2a1.74,1.74,0,0,0,1,1.49C329.44,203.69,329.69,203.67,329.69,203.71Z"/><path class="cls-6" d="M327.91,200.06a59.68,59.68,0,0,1,7.95-.26,59.78,59.78,0,0,1,8,.26,61.88,61.88,0,0,1-8,.26A61.78,61.78,0,0,1,327.91,200.06Z"/><path class="cls-6" d="M307.75,134.1a1.22,1.22,0,0,1,.08-.71,1.84,1.84,0,0,1,1.59-1.19c1.74,0,4.2-.07,7.21-.09h.21v.22c0,4,0,8.8,0,14.06,0,.61,0,1.21,0,1.78v.26H310a3.37,3.37,0,0,1-1.11-.12,2.09,2.09,0,0,1-.92-.66,2,2,0,0,1-.41-1c0-.38,0-.66,0-1,0-.63,0-1.24,0-1.83q0-1.76,0-3.27c0-1.93.06-3.52.08-4.71,0-.51,0-.93.05-1.28a.22.22,0,1,1,.1,0c0,.35,0,.77.05,1.28,0,1.19,0,2.78.08,4.71q0,1.51,0,3.27c0,.59,0,1.2,0,1.83,0,.3,0,.66,0,.93a1.6,1.6,0,0,0,.33.78,1.56,1.56,0,0,0,.71.5,2.81,2.81,0,0,0,1,.08h6.65l-.25.26c0-.57,0-1.17,0-1.78,0-5.26,0-10.11.05-14.06l.21.21-7.2-.09a1.74,1.74,0,0,0-1.49,1A4,4,0,0,0,307.75,134.1Z"/><path class="cls-6" d="M311.4,132.32a61.78,61.78,0,0,1,.26,8,61.88,61.88,0,0,1-.26,8,59.78,59.78,0,0,1-.26-8A59.68,59.68,0,0,1,311.4,132.32Z"/><path class="cls-6" d="M307.75,169.26a1.22,1.22,0,0,1,.08-.71,1.84,1.84,0,0,1,1.59-1.19c1.74-.05,4.2-.07,7.21-.1h.21v.22c0,4,0,8.8,0,14.05,0,.62,0,1.22,0,1.79v.26H310a3.11,3.11,0,0,1-1.11-.11,2.09,2.09,0,0,1-.92-.66,2,2,0,0,1-.41-1c0-.38,0-.66,0-1,0-.63,0-1.24,0-1.83q0-1.76,0-3.27c0-1.93.06-3.52.08-4.71,0-.51,0-.93.05-1.28a.22.22,0,1,1,.1,0c0,.35,0,.77.05,1.28,0,1.19,0,2.78.08,4.71q0,1.51,0,3.27c0,.59,0,1.2,0,1.83,0,.3,0,.66,0,.93a1.56,1.56,0,0,0,1,1.28,2.81,2.81,0,0,0,1,.08h6.65l-.25.26c0-.57,0-1.17,0-1.79,0-5.25,0-10.1.05-14.05l.21.21-7.2-.09a1.72,1.72,0,0,0-1.49,1A4,4,0,0,0,307.75,169.26Z"/><path class="cls-6" d="M311.4,167.48a61.78,61.78,0,0,1,.26,8,61.88,61.88,0,0,1-.26,8,59.78,59.78,0,0,1-.26-8A59.68,59.68,0,0,1,311.4,167.48Z"/><path class="cls-6" d="M341.74,267.47s.29,0,.81-.16a3.76,3.76,0,0,0,1.91-1.21,3.54,3.54,0,0,0,.73-1.42,7.38,7.38,0,0,0,.11-1.93c0-1.42,0-3,0-4.75l.22.22-12.1,0h-3.74l.25-.26c0,1.42,0,2.79,0,4.11,0,.65,0,1.33,0,1.92a3.5,3.5,0,0,0,3.2,3.22c1,0,2,0,2.92.05l4.2.08a10.34,10.34,0,0,1,1.53.09,10.34,10.34,0,0,1-1.53.09l-4.2.08c-.91,0-1.86,0-3,0a4,4,0,0,1-3-1.75,3.94,3.94,0,0,1-.64-1.84c0-.67,0-1.29,0-2,0-1.32,0-2.69,0-4.11v-.26h4l12.1,0h.23V258c0,1.73,0,3.33,0,4.75a7.33,7.33,0,0,1-.16,2,3.8,3.8,0,0,1-.85,1.52,3.69,3.69,0,0,1-2.07,1.16,3.39,3.39,0,0,1-.62.06C341.81,267.49,341.74,267.48,341.74,267.47Z"/><path class="cls-6" d="M345.48,263.82a59.68,59.68,0,0,1-8,.26,59.78,59.78,0,0,1-8-.26,61.88,61.88,0,0,1,8-.26A61.78,61.78,0,0,1,345.48,263.82Z"/><path class="cls-6" d="M307,274.29a1.33,1.33,0,0,1,.26,0l.74,0,2.9,0,10.94-.07-.15.15c0-4.5,0-10-.05-16.29v-.2h.2l34.84-.05-.25.25c0-5.26,0-10.71,0-16.29l.26.26h-.35l-50.05-.05.2-.21c0,9.93-.06,18.07-.09,23.75,0,2.81,0,5-.05,6.54q0,1.1,0,1.71c0,.38,0,.58,0,.58s0-.2,0-.58,0-1,0-1.71c0-1.53,0-3.73-.06-6.54,0-5.68-.05-13.82-.09-23.75v-.21h.21l50.05-.05h.62v.26c0,5.58,0,11,0,16.29v.26h-.26l-34.84-.06.2-.2c0,6.27,0,11.79-.05,16.29v.15h-.15l-10.94-.07-2.9,0-.74,0A.76.76,0,0,1,307,274.29Z"/><rect class="cls-6" x="287.9" y="220.57" width="84.69" height="1"/><rect class="cls-1" x="170.17" y="72.32" width="47.16" height="5.91"/><path class="cls-6" d="M217.32,78.24s0-.15,0-.41,0-.66,0-1.14c0-1,0-2.49-.07-4.37l.12.12c-8.56.09-26.48.14-47.15.14h0l.26-.26h0v3c0,1,0,2,0,2.91l-.25-.26,33.44.11,10,.08,2.72,0,.72,0,.25,0-.22,0h-.68l-2.67,0-9.95.07-33.63.12h-.26V72.33h0c-.05.06.5-.49.27-.26h0c20.67,0,38.59.06,47.15.15h.12v.11c0,1.91-.05,3.39-.07,4.44,0,.47,0,.83,0,1.12A1.54,1.54,0,0,1,217.32,78.24Z"/><rect class="cls-1" x="284.93" y="96.85" width="5.91" height="31.74"/><path class="cls-6" d="M284.93,128.59l.42,0,1.17,0,4.33-.08-.14.14c-.08-6.6-.12-18.35-.12-31.74h0c.52.52.14.14.25.26h-5.91l.26-.26c-.05,8.94-.09,16.82-.11,22.53,0,2.82-.06,5.09-.08,6.72q0,1.14,0,1.83c0,.43,0,.65,0,.66a4.08,4.08,0,0,1,0-.59c0-.45,0-1,0-1.77,0-1.62,0-3.88-.07-6.66,0-5.76-.07-13.71-.11-22.72v-.26h6.17c.12.12-.25-.26.27.26h0c0,13.39-.05,25.14-.12,31.74v.15h-.13l-4.42-.08-1.13,0A1.59,1.59,0,0,1,284.93,128.59Z"/><rect class="cls-1" x="284.93" y="220.84" width="5.91" height="31.74"/><path class="cls-6" d="M284.93,252.58l.42,0,1.17,0,4.33-.08-.14.14c-.08-6.6-.12-18.36-.12-31.74h0c.52.52.14.14.25.26h-5.91l.26-.25c-.05,8.93-.09,16.82-.11,22.53,0,2.81-.06,5.09-.08,6.72,0,.76,0,1.36,0,1.83s0,.65,0,.66a4.08,4.08,0,0,1,0-.59c0-.46,0-1,0-1.78,0-1.61,0-3.87-.07-6.66,0-5.76-.07-13.7-.11-22.71v-.26h6.17c.12.12-.25-.26.27.27h0c0,13.38-.05,25.14-.12,31.74v.14h-.13l-4.42-.08-1.13,0A1.59,1.59,0,0,1,284.93,252.58Z"/><rect class="cls-6" x="126.35" y="136.57" width="1" height="37.25"/><rect class="cls-6" x="255.41" y="136.27" width="1" height="39.6"/><rect class="cls-6" x="128.31" y="155.43" width="126.43" height="1"/><rect class="cls-6" x="190.29" y="135.69" width="1" height="40.48"/><path class="cls-6" d="M166.36,123.68a1.19,1.19,0,0,1,.7.08,1.82,1.82,0,0,1,1.19,1.59c.05,1.74.07,4.2.1,7.21v.21h-.21l-14.06.05H152v-4.77c0-.73,0-1.45,0-2.14a3.37,3.37,0,0,1,.12-1.11,2,2,0,0,1,1.67-1.33c.38,0,.66,0,1,0h1.83l3.27,0,4.72.08,1.27,0a1.66,1.66,0,0,1,.45.05,1.66,1.66,0,0,1-.45,0l-1.27,0-4.72.08-3.27,0h-1.83c-.3,0-.66,0-.93,0a1.56,1.56,0,0,0-.77.33,1.49,1.49,0,0,0-.5.71,2.81,2.81,0,0,0-.08,1c0,.69,0,1.41,0,2.14v4.51l-.25-.25h1.78l14.06,0-.21.21c0-2.94.06-5.39.09-7.2a1.73,1.73,0,0,0-1-1.49A4.06,4.06,0,0,0,166.36,123.68Z"/><path class="cls-6" d="M178.72,150.12a2.22,2.22,0,0,1,0-.33c0-.24,0-.54,0-.92,0-.85,0-2-.05-3.52,0-3.06-.06-7.42-.1-12.79l.19.2-36.19.07.26-.26h0v9c0,2.94,0,5.78,0,8.5l-.25-.24,25.93.11,7.52.07,2,0,.53,0h.19a5.27,5.27,0,0,1-.66,0l-2,0-7.47.07-26.09.12h-.24v-.25c0-2.72,0-5.56,0-8.5v-9h0c-.06.05.5-.5.26-.27l36.19.07h.19v.19c0,5.42-.08,9.82-.1,12.91,0,1.47,0,2.64-.05,3.47,0,.37,0,.66,0,.89A1.38,1.38,0,0,1,178.72,150.12Z"/><path class="cls-6" d="M168.14,127.33a61.88,61.88,0,0,1-8,.26,61.78,61.78,0,0,1-8-.26,59.68,59.68,0,0,1,8-.26A59.78,59.78,0,0,1,168.14,127.33Z"/><path class="cls-6" d="M231.38,123.68a1.23,1.23,0,0,1,.71.08,1.82,1.82,0,0,1,1.19,1.59c.05,1.74.07,4.2.1,7.21v.21h-.21l-14.06.05h-2.05v-.26c0-1.55,0-3.06,0-4.51,0-.73,0-1.45,0-2.14a2.91,2.91,0,0,1,.12-1.11,2.07,2.07,0,0,1,.65-.92,2,2,0,0,1,1-.41c.37,0,.66,0,1,0h1.83l3.27,0,4.71.08,1.28,0a1.53,1.53,0,0,1,.44.05,1.53,1.53,0,0,1-.44,0l-1.28,0-4.71.08-3.27,0h-1.83c-.3,0-.66,0-.93,0a1.64,1.64,0,0,0-.78.33,1.55,1.55,0,0,0-.49.71,2.58,2.58,0,0,0-.08,1v2.14c0,1.45,0,3,0,4.51l-.26-.25h1.79l14.06,0-.21.21c0-2.94.06-5.39.08-7.2a1.71,1.71,0,0,0-1-1.49A3.69,3.69,0,0,0,231.38,123.68Z"/><path class="cls-6" d="M243.75,150.12a1.25,1.25,0,0,1,0-.33l0-.92c0-.85,0-2-.05-3.52,0-3.06-.06-7.42-.11-12.79l.2.2-36.19.07.26-.26h0v9c0,2.94,0,5.78,0,8.5l-.25-.24,25.93.11,7.52.07,2,0,.53,0h.19a5.27,5.27,0,0,1-.66,0l-2,0-7.47.07-26.09.12h-.25v-.25c0-2.72,0-5.56,0-8.5v-9h0c-.06.05.49-.5.26-.27l36.19.07h.19v.19c0,5.42-.08,9.82-.1,12.91,0,1.47,0,2.64-.05,3.47l0,.89C243.76,150,243.75,150.13,243.75,150.12Z"/><path class="cls-6" d="M233.17,127.33a61.88,61.88,0,0,1-8,.26,61.78,61.78,0,0,1-8-.26,59.68,59.68,0,0,1,8-.26A59.78,59.78,0,0,1,233.17,127.33Z"/><path class="cls-6" d="M219.92,189.09a1.23,1.23,0,0,1-.7-.07,1.87,1.87,0,0,1-1.2-1.6c0-1.73-.07-4.2-.09-7.21V180h.21L232.2,180h2v.26c0,1.55,0,3.06,0,4.52v2.14a3.29,3.29,0,0,1-.12,1.1,2,2,0,0,1-.66.92,2,2,0,0,1-1,.42c-.38,0-.66,0-1,0l-1.82,0-3.28,0-4.71-.08-1.27-.05a1.27,1.27,0,0,1-.45,0,2.39,2.39,0,0,1,.45-.05l1.27,0,4.71-.08,3.28,0h1.82c.31,0,.67,0,.93,0a1.51,1.51,0,0,0,.78-.33,1.56,1.56,0,0,0,.5-.71,2.77,2.77,0,0,0,.08-.94c0-.7,0-1.42,0-2.14,0-1.46,0-3,0-4.52l.26.26H232.2l-14.06-.05.21-.21c0,2.94-.07,5.39-.09,7.2a1.74,1.74,0,0,0,1,1.49A4.3,4.3,0,0,0,219.92,189.09Z"/><path class="cls-6" d="M207.56,162.65a2.4,2.4,0,0,1,0,.33l0,.93c0,.84,0,2,.05,3.51,0,3.07.06,7.42.1,12.79l-.19-.19,36.18-.07c.24-.24-.31.31-.25.26h0v-9c0-2.94,0-5.78,0-8.5l.25.25-25.93-.12-7.52-.07-2,0h-.53l-.19,0a5.08,5.08,0,0,1,.66,0l2,0,7.46-.07,26.1-.12H244v.25c0,2.72,0,5.56,0,8.5,0,1.47,0,3,0,4.47v4.57h0c.05-.06-.5.49-.27.26l-36.18-.07h-.19v-.19c0-5.42.08-9.81.1-12.9,0-1.48,0-2.64.05-3.48l0-.89A1.38,1.38,0,0,1,207.56,162.65Z"/><path class="cls-6" d="M218.14,185.45a59.68,59.68,0,0,1,8-.26,59.78,59.78,0,0,1,8,.26,61.88,61.88,0,0,1-8,.26A61.78,61.78,0,0,1,218.14,185.45Z"/><path class="cls-6" d="M154.9,189.09a1.26,1.26,0,0,1-.71-.07,1.85,1.85,0,0,1-1.19-1.6c-.05-1.73-.07-4.2-.1-7.21V180h.21l14.06-.05h2.05v.26c0,1.55,0,3.06,0,4.52,0,.72,0,1.44,0,2.14a3.29,3.29,0,0,1-.12,1.1,2,2,0,0,1-.65.92,2.08,2.08,0,0,1-1,.42c-.38,0-.66,0-1,0l-1.83,0-3.27,0-4.72-.08-1.27-.05a1.18,1.18,0,0,1-.44,0,2.19,2.19,0,0,1,.44-.05l1.27,0,4.72-.08,3.27,0h1.83c.3,0,.66,0,.93,0a1.53,1.53,0,0,0,1.27-1,2.54,2.54,0,0,0,.08-.94c0-.7,0-1.42,0-2.14v-4.52l.26.26h-1.79l-14.06-.05.21-.21c0,2.94-.06,5.39-.08,7.2a1.71,1.71,0,0,0,1,1.49A3.69,3.69,0,0,0,154.9,189.09Z"/><path class="cls-6" d="M142.53,162.65a2.4,2.4,0,0,1,0,.33c0,.24,0,.55,0,.93,0,.84,0,2,.05,3.51,0,3.07.06,7.42.1,12.79l-.19-.19,36.19-.07c.23-.24-.32.31-.26.26h0v-9c0-2.94,0-5.78,0-8.5l.25.25-25.93-.12-7.52-.07-2,0h-.53l-.19,0a5.27,5.27,0,0,1,.66,0l2,0,7.47-.07,26.09-.12H179v.25c0,2.72,0,5.56,0,8.5v9h0l-.26.26-36.19-.07h-.19v-.19c0-5.42.08-9.81.1-12.9,0-1.48,0-2.64.05-3.48,0-.36,0-.66,0-.89A1.38,1.38,0,0,1,142.53,162.65Z"/><path class="cls-6" d="M153.11,185.45a59.78,59.78,0,0,1,8-.26,59.68,59.68,0,0,1,8,.26,61.78,61.78,0,0,1-8,.26A61.88,61.88,0,0,1,153.11,185.45Z"/><rect class="cls-6" x="126.35" y="224.84" width="1" height="37.25"/><rect class="cls-6" x="255.41" y="224.54" width="1" height="39.6"/><rect class="cls-6" x="128.31" y="243.7" width="126.43" height="1"/><rect class="cls-6" x="190.29" y="223.96" width="1" height="40.48"/><path class="cls-6" d="M166.36,212a1.19,1.19,0,0,1,.7.08,1.82,1.82,0,0,1,1.19,1.59c.05,1.74.07,4.2.1,7.22v.21h-.21l-14.06,0H152v-4.77c0-.73,0-1.45,0-2.14a3.37,3.37,0,0,1,.12-1.11,2,2,0,0,1,1.67-1.33c.38,0,.66,0,1,0h1.83l3.27,0,4.72.08,1.27.05a1.66,1.66,0,0,1,.45,0,1.66,1.66,0,0,1-.45.05l-1.27.05-4.72.08-3.27,0h-1.83c-.3,0-.66,0-.93,0a1.56,1.56,0,0,0-.77.33,1.49,1.49,0,0,0-.5.71,2.81,2.81,0,0,0-.08,1c0,.69,0,1.41,0,2.14v4.52l-.25-.26h1.78l14.06.05-.21.22c0-3,.06-5.4.09-7.21a1.73,1.73,0,0,0-1-1.49A4.06,4.06,0,0,0,166.36,212Z"/><path class="cls-6" d="M178.72,238.39a2.22,2.22,0,0,1,0-.33c0-.24,0-.54,0-.92,0-.85,0-2-.05-3.52,0-3.06-.06-7.42-.1-12.78l.19.19-36.19.07.26-.26h0v9c0,2.94,0,5.79,0,8.5l-.25-.24,25.93.11,7.52.07,2,0,.53,0h.19a5.27,5.27,0,0,1-.66,0l-2,0-7.47.07-26.09.12h-.24v-.25c0-2.71,0-5.56,0-8.5v-9h0c-.06,0,.5-.5.26-.27l36.19.07h.19v.2c0,5.41-.08,9.81-.1,12.9,0,1.47,0,2.64-.05,3.47,0,.37,0,.66,0,.89A1.38,1.38,0,0,1,178.72,238.39Z"/><path class="cls-6" d="M168.14,215.6a61.88,61.88,0,0,1-8,.26,61.78,61.78,0,0,1-8-.26,59.68,59.68,0,0,1,8-.26A59.78,59.78,0,0,1,168.14,215.6Z"/><path class="cls-6" d="M231.38,212a1.23,1.23,0,0,1,.71.08,1.82,1.82,0,0,1,1.19,1.59c.05,1.74.07,4.2.1,7.22v.21h-.21l-14.06,0h-2.05v-.25c0-1.56,0-3.07,0-4.52,0-.73,0-1.45,0-2.14a2.91,2.91,0,0,1,.12-1.11,2.07,2.07,0,0,1,.65-.92,2,2,0,0,1,1-.41c.37,0,.66,0,1,0h1.83l3.27,0,4.71.08,1.28.05a1.53,1.53,0,0,1,.44,0,1.53,1.53,0,0,1-.44.05l-1.28.05-4.71.08-3.27,0h-1.83c-.3,0-.66,0-.93,0a1.64,1.64,0,0,0-.78.33,1.55,1.55,0,0,0-.49.71,2.58,2.58,0,0,0-.08,1v2.14c0,1.45,0,3,0,4.52l-.26-.26h1.79l14.06.05-.21.22c0-3,.06-5.4.08-7.21a1.71,1.71,0,0,0-1-1.49A3.69,3.69,0,0,0,231.38,212Z"/><path class="cls-6" d="M243.75,238.39a1.25,1.25,0,0,1,0-.33l0-.92c0-.85,0-2-.05-3.52,0-3.06-.06-7.42-.11-12.78l.2.19-36.19.07.26-.26h0v9c0,2.94,0,5.79,0,8.5l-.25-.24,25.93.11,7.52.07,2,0,.53,0h.19a5.27,5.27,0,0,1-.66,0l-2,0-7.47.07-26.09.12h-.25v-.25c0-2.71,0-5.56,0-8.5v-9h0c-.06,0,.49-.5.26-.27l36.19.07h.19v.2c0,5.41-.08,9.81-.1,12.9,0,1.47,0,2.64-.05,3.47l0,.89C243.76,238.3,243.75,238.4,243.75,238.39Z"/><path class="cls-6" d="M233.17,215.6a61.88,61.88,0,0,1-8,.26,61.78,61.78,0,0,1-8-.26,59.68,59.68,0,0,1,8-.26A59.78,59.78,0,0,1,233.17,215.6Z"/><path class="cls-6" d="M219.92,277.36a1.23,1.23,0,0,1-.7-.07,1.87,1.87,0,0,1-1.2-1.6c0-1.73-.07-4.2-.09-7.21v-.21h.21l14.06,0h2v.26c0,1.55,0,3.06,0,4.52v2.14a3.29,3.29,0,0,1-.12,1.1,2,2,0,0,1-.66.92,2,2,0,0,1-1,.42c-.38,0-.66,0-1,0l-1.82,0-3.28,0-4.71-.08-1.27,0a1.27,1.27,0,0,1-.45-.05,2.39,2.39,0,0,1,.45-.05l1.27,0,4.71-.08,3.28,0h1.82c.31,0,.67,0,.93,0a1.51,1.51,0,0,0,.78-.33,1.56,1.56,0,0,0,.5-.71,2.77,2.77,0,0,0,.08-.94c0-.7,0-1.42,0-2.14,0-1.46,0-3,0-4.52l.26.26H232.2l-14.06-.05.21-.21c0,2.94-.07,5.39-.09,7.2a1.74,1.74,0,0,0,1,1.49A4.3,4.3,0,0,0,219.92,277.36Z"/><path class="cls-6" d="M207.56,250.92a2.4,2.4,0,0,1,0,.33l0,.93c0,.84,0,2,.05,3.51,0,3.07.06,7.42.1,12.79l-.19-.19,36.18-.07c.24-.23-.31.31-.25.26h0v-9c0-2.94,0-5.78,0-8.5l.25.25-25.93-.12L210.3,251l-2,0h-.53a.76.76,0,0,1-.19,0,5.08,5.08,0,0,1,.66,0l2,0,7.46-.07,26.1-.12H244v.25c0,2.72,0,5.56,0,8.5,0,1.47,0,3,0,4.47v4.57h0c.05-.06-.5.49-.27.26l-36.18-.07h-.19v-.19c0-5.41.08-9.81.1-12.9,0-1.48,0-2.64.05-3.48l0-.89A1.38,1.38,0,0,1,207.56,250.92Z"/><path class="cls-6" d="M218.14,273.72a59.68,59.68,0,0,1,8-.26,59.78,59.78,0,0,1,8,.26,61.88,61.88,0,0,1-8,.26A61.78,61.78,0,0,1,218.14,273.72Z"/><path class="cls-6" d="M154.9,277.36a1.26,1.26,0,0,1-.71-.07,1.85,1.85,0,0,1-1.19-1.6c-.05-1.73-.07-4.2-.1-7.21v-.21h.21l14.06,0h2.05v.26c0,1.55,0,3.06,0,4.52,0,.72,0,1.44,0,2.14a3.29,3.29,0,0,1-.12,1.1,2,2,0,0,1-.65.92,2.08,2.08,0,0,1-1,.42c-.38,0-.66,0-1,0l-1.83,0-3.27,0-4.72-.08-1.27,0a1.18,1.18,0,0,1-.44-.05,2.19,2.19,0,0,1,.44-.05l1.27,0,4.72-.08,3.27,0h1.83c.3,0,.66,0,.93,0a1.53,1.53,0,0,0,1.27-1,2.54,2.54,0,0,0,.08-.94c0-.7,0-1.42,0-2.14v-4.52l.26.26h-1.79l-14.06-.05.21-.21c0,2.94-.06,5.39-.08,7.2a1.71,1.71,0,0,0,1,1.49A3.69,3.69,0,0,0,154.9,277.36Z"/><path class="cls-6" d="M142.53,250.92a2.4,2.4,0,0,1,0,.33c0,.24,0,.55,0,.93,0,.84,0,2,.05,3.51,0,3.07.06,7.42.1,12.79l-.19-.19,36.19-.07c.23-.23-.32.31-.26.26h0v-9c0-2.94,0-5.78,0-8.5l.25.25-25.93-.12-7.52-.07-2,0h-.53l-.19,0a5.27,5.27,0,0,1,.66,0l2,0,7.47-.07,26.09-.12H179v.25c0,2.72,0,5.56,0,8.5v9h0l-.26.26-36.19-.07h-.19v-.19c0-5.41.08-9.81.1-12.9,0-1.48,0-2.64.05-3.48,0-.36,0-.66,0-.89A1.38,1.38,0,0,1,142.53,250.92Z"/><path class="cls-6" d="M153.11,273.72a59.78,59.78,0,0,1,8-.26,59.68,59.68,0,0,1,8,.26,61.78,61.78,0,0,1-8,.26A61.88,61.88,0,0,1,153.11,273.72Z"/><g class="cls-7"><path d="M380.54,58.13V74a5,5,0,0,0,5,5h8.76V58.13Z"/></g><g class="cls-7"><path d="M86.22,58.89l.94,62.89h39.39a9.1,9.1,0,0,0,9.11-9.1V58.13Z"/></g><g class="cls-7"><path d="M87,237.79h13.4a5.73,5.73,0,0,0,5.73-5.74v-6.4H87Z"/></g></g><g id="Chronometer"><rect class="cls-6" x="521.16" y="53.93" width="4.62" height="7.21" transform="translate(77.07 336.92) rotate(-38.31)"/><path class="cls-8" d="M526.33,53.43l-7.47,5.9-4.81-6.09a18.15,18.15,0,0,1,7.46-5.9Z"/><path class="cls-6" d="M520.11,58.34a14.94,14.94,0,0,1-2.74-3A14.58,14.58,0,0,1,515.06,52a15,15,0,0,1,2.74,3A15.08,15.08,0,0,1,520.11,58.34Z"/><path class="cls-6" d="M521.54,57.22a15.8,15.8,0,0,1-2.71-3.15,21.82,21.82,0,0,1-2.33-3.43c.15-.13,1.39,1.27,2.77,3.1A15.72,15.72,0,0,1,521.54,57.22Z"/><path class="cls-6" d="M523.43,55.72a16.32,16.32,0,0,1-2.72-3.19A19.18,19.18,0,0,1,518.4,49c.14-.11,1.37,1.32,2.75,3.17A15.77,15.77,0,0,1,523.43,55.72Z"/><path class="cls-6" d="M525.16,54.32a15.16,15.16,0,0,1-2.72-3,15,15,0,0,1-2.29-3.36,14.92,14.92,0,0,1,2.72,3A15.33,15.33,0,0,1,525.16,54.32Z"/><rect class="cls-6" x="578.33" y="57.08" width="4.62" height="7.21" transform="translate(242.86 -415.48) rotate(48.68)"/><path class="cls-8" d="M584.89,63.32l-6.28-7.15L584.44,51a18.13,18.13,0,0,1,6.28,7.15Z"/><path class="cls-6" d="M579.66,57.37a15,15,0,0,1,2.84-2.9A15.38,15.38,0,0,1,585.71,52a15.34,15.34,0,0,1-2.84,2.9A15.38,15.38,0,0,1,579.66,57.37Z"/><path class="cls-6" d="M580.86,58.73a15.83,15.83,0,0,1,3-2.87,20.78,20.78,0,0,1,3.31-2.5c.13.14-1.21,1.46-3,2.93A15.52,15.52,0,0,1,580.86,58.73Z"/><path class="cls-6" d="M582.45,60.54a16.6,16.6,0,0,1,3-2.88,18.9,18.9,0,0,1,3.37-2.49c.12.13-1.24,1.44-3,2.92A15.9,15.9,0,0,1,582.45,60.54Z"/><path class="cls-6" d="M583.94,62.19a15.34,15.34,0,0,1,2.88-2.87,14.73,14.73,0,0,1,3.24-2.46,15.34,15.34,0,0,1-2.88,2.87A14.73,14.73,0,0,1,583.94,62.19Z"/><rect class="cls-6" x="550.47" y="42.76" width="5.47" height="8.53" transform="translate(2.43 -22.96) rotate(2.38)"/><path class="cls-9" d="M558.94,45.55l-11.25-.47.38-9.19a21.51,21.51,0,0,1,11.25.47Z"/><path class="cls-6" d="M559.45,36.41A12.24,12.24,0,0,1,548,36c.06-.17,2.48,1,5.69,1.08A28.26,28.26,0,0,0,559.45,36.41Z"/><path class="cls-6" d="M551.41,45.21a13.79,13.79,0,0,1-.12-4,14.44,14.44,0,0,1,.44-3.93,13.63,13.63,0,0,1,.11,4A14.61,14.61,0,0,1,551.41,45.21Z"/><path class="cls-6" d="M553.54,45.35a14.6,14.6,0,0,1-.11-4,14.47,14.47,0,0,1,.44-3.94,14.17,14.17,0,0,1,.11,4A14,14,0,0,1,553.54,45.35Z"/><path class="cls-6" d="M555.69,45.41a14,14,0,0,1-.12-4,14.34,14.34,0,0,1,.45-3.95,14.68,14.68,0,0,1,.11,4A15.08,15.08,0,0,1,555.69,45.41Z"/><path class="cls-6" d="M557.47,45.48a16.85,16.85,0,0,1-.1-4.29,17.09,17.09,0,0,1,.45-4.26,16.24,16.24,0,0,1,.1,4.29A17.09,17.09,0,0,1,557.47,45.48Z"/><path class="cls-6" d="M549.38,45.09a17.15,17.15,0,0,1-.09-4.29,16.54,16.54,0,0,1,.45-4.26,17.26,17.26,0,0,1,.1,4.28A16.31,16.31,0,0,1,549.38,45.09Z"/><circle class="cls-9" cx="550.82" cy="88.36" r="39.77" transform="translate(2.76 192.5) rotate(-19.87)"/><circle class="cls-1" cx="550.84" cy="88.05" r="33.4" transform="translate(240.45 551.55) rotate(-65.27)"/><path class="cls-6" d="M584.21,89.44s0-.19,0-.54,0-.91,0-1.59q0-.53,0-1.17c0-.43-.1-.9-.15-1.4a24.76,24.76,0,0,0-.56-3.47,31.8,31.8,0,0,0-3.33-9,33.34,33.34,0,0,0-21.76-16.52,30,30,0,0,0-4.17-.66c-.71-.06-1.43-.16-2.16-.17l-2.19,0c-.37,0-.74,0-1.11,0l-1.12.13c-.74.09-1.49.15-2.24.27a36.12,36.12,0,0,0-8.87,2.83c-.71.35-1.4.77-2.11,1.15a16.46,16.46,0,0,0-2.06,1.29,38.38,38.38,0,0,0-3.88,3,36.37,36.37,0,0,0-3.41,3.7,32.26,32.26,0,0,0-5.11,8.92,35.79,35.79,0,0,0-2.14,10.38A35.48,35.48,0,0,0,519,97.18a32.2,32.2,0,0,0,4.35,9.32,36.46,36.46,0,0,0,3.09,4,36.83,36.83,0,0,0,3.62,3.35,18.22,18.22,0,0,0,1.94,1.46c.67.44,1.33.91,2,1.32a37.37,37.37,0,0,0,8.6,3.56c.74.18,1.48.3,2.22.45l1.09.22c.37.06.74.07,1.11.12l2.19.2c.72,0,1.44,0,2.16,0a30.67,30.67,0,0,0,4.21-.31,33,33,0,0,0,14.22-5.6,33.37,33.37,0,0,0,8.84-9.06,31.88,31.88,0,0,0,4.06-8.69,25.23,25.23,0,0,0,.85-3.41c.09-.5.21-1,.27-1.38s.08-.82.12-1.17c.07-.67.13-1.2.17-1.57s.08-.54.08-.54,0,.18,0,.54-.07.91-.12,1.59q0,.53-.09,1.17c-.06.42-.16.89-.25,1.39a23.41,23.41,0,0,1-.8,3.44,31.38,31.38,0,0,1-4,8.8,33.6,33.6,0,0,1-23.24,14.94,30.12,30.12,0,0,1-4.27.33c-.73,0-1.46,0-2.2,0l-2.22-.2c-.37,0-.75-.06-1.12-.12l-1.11-.22c-.75-.15-1.5-.27-2.25-.45a35,35,0,0,1-4.43-1.5,34.24,34.24,0,0,1-4.31-2.1c-.7-.41-1.36-.89-2-1.33a18.76,18.76,0,0,1-2-1.48,39.31,39.31,0,0,1-3.69-3.4,38.91,38.91,0,0,1-3.14-4,32.49,32.49,0,0,1-4.43-9.47,33.37,33.37,0,0,1,.89-21.23,32.7,32.7,0,0,1,5.2-9.07A30.78,30.78,0,0,1,532,60.2a15.84,15.84,0,0,1,2.09-1.31c.72-.39,1.42-.81,2.15-1.16A35,35,0,0,1,540.7,56a35.37,35.37,0,0,1,4.54-1.12c.76-.12,1.52-.18,2.28-.27l1.12-.12c.38,0,.76,0,1.13,0H552c.74,0,1.46.12,2.19.18a30.68,30.68,0,0,1,4.22.68,33.56,33.56,0,0,1,21.93,16.83,31.4,31.4,0,0,1,3.27,9.09,23.45,23.45,0,0,1,.51,3.5c0,.51.11,1,.13,1.41V87.3c0,.69,0,1.22,0,1.6S584.21,89.44,584.21,89.44Z"/><path class="cls-6" d="M579.36,88.71c-3.05-.08-5.52-.32-5.52-.55s2.48-.45,5.52-.51,5.52.2,5.52.56S582.4,88.79,579.36,88.71Z"/><path class="cls-6" d="M570.65,108.58c-2.11-2.2-3.69-4.12-3.53-4.28s2.07,1.42,4.28,3.53,3.78,4,3.53,4.27S572.76,110.77,570.65,108.58Z"/><path class="cls-6" d="M550.49,116.57c0-3,.26-5.51.49-5.51s.48,2.46.57,5.51-.14,5.52-.5,5.52S550.44,119.62,550.49,116.57Z"/><path class="cls-6" d="M530.53,108.08c2.18-2.13,4.07-3.73,4.23-3.57s-1.39,2.09-3.47,4.31-4,3.83-4.24,3.58S528.35,110.22,530.53,108.08Z"/><path class="cls-6" d="M522.31,88c3.05,0,5.52.21,5.52.44s-2.46.5-5.5.62-5.52-.07-5.53-.43S519.26,88,522.31,88Z"/><path class="cls-6" d="M530.58,68c2.16,2.15,3.78,4,3.62,4.2s-2.1-1.38-4.35-3.43-3.87-3.94-3.63-4.2S528.42,65.81,530.58,68Z"/><path class="cls-6" d="M550.56,59.52c0,3-.15,5.52-.38,5.53s-.53-2.46-.68-5.5,0-5.52.37-5.53S550.54,56.47,550.56,59.52Z"/><path class="cls-6" d="M570.7,67.57c-2.13,2.18-4,3.82-4.15,3.67s1.34-2.12,3.38-4.39,3.89-3.92,4.15-3.67S572.83,65.39,570.7,67.57Z"/><path class="cls-2" d="M560.88,70.7a113.91,113.91,0,0,1-1.06,14.65,18.34,18.34,0,0,1-1.26,5.14,6.9,6.9,0,0,1-3.64,3.7A4.3,4.3,0,0,1,550.09,93Z"/><polygon class="cls-9" points="550.22 85.39 563.2 65.47 554.92 88.22 551.13 89.18 550.22 85.39"/><g class="cls-10"><polygon points="563.2 65.47 553.34 85.96 554.92 88.22 563.2 65.47"/></g><path class="cls-11" d="M555,89.34a3.91,3.91,0,1,1-3.74-4.06A3.91,3.91,0,0,1,555,89.34Z"/><path class="cls-6" d="M555,89.34s0-.34-.19-.93a3.92,3.92,0,0,0-1.35-2.08A3.74,3.74,0,0,0,550,85.7a3.66,3.66,0,0,0-.28,6.86,3.73,3.73,0,0,0,3.51-.34,3.89,3.89,0,0,0,1.51-2c.2-.57.22-.92.27-.92a2.07,2.07,0,0,1-.06,1,3.86,3.86,0,0,1-1.5,2.22,4.09,4.09,0,0,1-3.92.49,4.14,4.14,0,0,1,.32-7.81,4.07,4.07,0,0,1,3.87.81,3.86,3.86,0,0,1,1.31,2.33A2,2,0,0,1,555,89.34Z"/><path class="cls-8" d="M554,89.3a2.91,2.91,0,1,1-2.79-3A2.92,2.92,0,0,1,554,89.3Z"/></g><g id="User_Icons" data-name="User Icons"><g class="cls-7"><circle cx="230.58" cy="189.09" r="17.86" transform="translate(-6.11 370.48) rotate(-76.82)"/></g><circle class="cls-8" cx="230.58" cy="185.79" r="17.86" transform="translate(-63.84 217.46) rotate(-45)"/><path class="cls-1" d="M232.32,184.86a4.92,4.92,0,0,0,2.94-4.56,4.64,4.64,0,1,0-9.25,0,4.92,4.92,0,0,0,3,4.6c-7.12,1.08-6.8,8.81-6.8,8.81l16.84.08S239.38,185.93,232.32,184.86Z"/><g class="cls-7"><circle cx="152.35" cy="227.91" r="17.86" transform="translate(-74.52 74.02) rotate(-22.09)"/></g><circle class="cls-9" cx="152.07" cy="224.67" r="17.86" transform="translate(-114.32 173.34) rotate(-45)"/><path class="cls-1" d="M153.82,223.74a4.93,4.93,0,0,0,2.94-4.56,4.64,4.64,0,1,0-9.26,0,4.93,4.93,0,0,0,2.95,4.6c-7.12,1.08-6.79,8.81-6.79,8.81l16.83.08S160.88,224.81,153.82,223.74Z"/><g class="cls-7"><circle cx="353.75" cy="175.46" r="17.86" transform="translate(-20.46 301.53) rotate(-45)"/></g><circle class="cls-9" cx="353.14" cy="171.95" r="17.86" transform="translate(104.1 475.68) rotate(-76.61)"/><path class="cls-1" d="M354.88,171a4.93,4.93,0,0,0,2.94-4.56,4.63,4.63,0,1,0-9.25-.05,4.91,4.91,0,0,0,2.95,4.61c-7.12,1.07-6.8,8.81-6.8,8.81l16.84.08S361.94,172.09,354.88,171Z"/><g class="cls-7"><circle cx="341.67" cy="97.97" r="17.86" transform="translate(171.57 410.07) rotate(-77.41)"/></g><circle class="cls-8" cx="341.67" cy="95.73" r="17.86" transform="translate(173.77 408.31) rotate(-77.41)"/><path class="cls-1" d="M343.41,94.8a4.92,4.92,0,0,0,2.94-4.56,4.64,4.64,0,1,0-9.25,0,4.92,4.92,0,0,0,2.95,4.6c-7.12,1.08-6.8,8.81-6.8,8.81l16.84.08S350.47,95.87,343.41,94.8Z"/></g><g id="Calendar"><path class="cls-1" d="M120.48,10.18H37.88a7.78,7.78,0,0,0-7.68,7.88v84.75a7.78,7.78,0,0,0,7.68,7.88h82.6a7.78,7.78,0,0,0,7.68-7.88V18.06A7.78,7.78,0,0,0,120.48,10.18Z"/><path class="cls-9" d="M30.3,10.18h97.75a.1.1,0,0,1,.1.1V36.23a5.68,5.68,0,0,1-5.68,5.68H36.12A5.92,5.92,0,0,1,30.2,36V10.28A.1.1,0,0,1,30.3,10.18Z" transform="translate(158.35 52.09) rotate(180)"/><path class="cls-6" d="M72.69,54.9V88.85a.1.1,0,0,1-.1.11h-7.5a.11.11,0,0,1-.1-.11V61.25a.11.11,0,0,0-.11-.11H58.43a.11.11,0,0,1-.1-.11V54.9a.11.11,0,0,1,.1-.11H72.59A.1.1,0,0,1,72.69,54.9Z"/><path class="cls-6" d="M104.57,54.9v5a.06.06,0,0,1,0,0l-12.33,29a.11.11,0,0,1-.1.06H84a.11.11,0,0,1-.1-.15L95.7,61.39a.11.11,0,0,0-.09-.15H84.84a.11.11,0,0,0-.11.11v5.34a.11.11,0,0,1-.1.11H78a.11.11,0,0,1-.11-.11V54.9a.11.11,0,0,1,.11-.11h26.47A.11.11,0,0,1,104.57,54.9Z"/><path class="cls-6" d="M65.5,28.18c0,.18,6.73.32,15,.32s15-.14,15-.32-6.73-.32-15-.32S65.5,28,65.5,28.18Z"/><path class="cls-6" d="M120.58,10.18a7.06,7.06,0,0,1,3.71.93,7.78,7.78,0,0,1,3.19,3.45,7.92,7.92,0,0,1,.75,3c0,1.1,0,2.26,0,3.49,0,9.85.05,24.07.08,41.65,0,8.8,0,18.43,0,28.76v7.89c0,1.34,0,2.67,0,4.05a8.17,8.17,0,0,1-1.27,4,8,8,0,0,1-3.11,2.79,8.33,8.33,0,0,1-4.1.81H111.5l-73.72,0a7.91,7.91,0,0,1-7.53-5.79,9.05,9.05,0,0,1-.32-2.53V95.26q0-9.8,0-19.3c0-12.65,0-24.86,0-36.48q0-8.73,0-17c0-1.37,0-2.74,0-4.1a10.9,10.9,0,0,1,.16-2.05v0a8.25,8.25,0,0,1,.67-1.94,8.1,8.1,0,0,1,2.6-3A7.82,7.82,0,0,1,37.06,10c10.11-.07,19.47,0,28.05,0l40.59.09,11,0,2.87,0,1,0-1,0-2.87,0-11,.06-40.59.08c-8.56,0-18,0-28,.07a7.32,7.32,0,0,0-3.45,1.27,7.56,7.56,0,0,0-2.44,2.87,8.25,8.25,0,0,0-.63,1.83h0a10.59,10.59,0,0,0-.15,2v4.1q0,8.26,0,17c0,11.62,0,23.83,0,36.48q0,9.5,0,19.3v4.92a19,19,0,0,0,.29,4.85,7.4,7.4,0,0,0,7,5.39l73.72,0h8.39a7.8,7.8,0,0,0,3.89-.76,7.45,7.45,0,0,0,2.92-2.62,7.55,7.55,0,0,0,1.2-3.73c0-1.32,0-2.69,0-4V91.43c0-10.33,0-20,0-28.76,0-17.58.06-31.8.08-41.65,0-1.23,0-2.4,0-3.48a7.88,7.88,0,0,0-.7-2.91,7.71,7.71,0,0,0-3.1-3.42,7.19,7.19,0,0,0-2.69-.93,4.83,4.83,0,0,0-.72-.07Z"/><path class="cls-2" d="M64.67,23h0a3.23,3.23,0,0,0,3.18-3.27V3.6A3.22,3.22,0,0,0,64.67.33h0A3.23,3.23,0,0,0,61.48,3.6V19.76A3.24,3.24,0,0,0,64.67,23Z"/><path class="cls-6" d="M64.56,23a3.86,3.86,0,0,1-1.81-.77,3.08,3.08,0,0,1-1.07-2c0-.91,0-2,0-3.22,0-2.43,0-5.28.07-8.43,0-1.59,0-3.25,0-5a3,3,0,0,1,.8-2.16A2.79,2.79,0,0,1,64.77.65a2.74,2.74,0,0,1,2.09,1,3.06,3.06,0,0,1,.69,2.24c0,1.72,0,3.39,0,5,0,3.14,0,6,.07,8.43,0,.6,0,1.17,0,1.71a9,9,0,0,1,0,1.49,3.13,3.13,0,0,1-1.2,1.91,4.07,4.07,0,0,1-1.86.64,1.38,1.38,0,0,0,.53,0,3.17,3.17,0,0,0,1.47-.48A3.35,3.35,0,0,0,68,20.55,8.85,8.85,0,0,0,68.05,19c0-.54,0-1.11,0-1.71,0-2.44.05-5.29.07-8.43,0-1.59,0-3.26,0-5a3.75,3.75,0,0,0-.82-2.66A3.56,3.56,0,0,0,62.15,1a3.59,3.59,0,0,0-1,2.61c0,1.73,0,3.39,0,5,0,3.15.05,6,.07,8.43,0,1.21,0,2.27.08,3.26a3.28,3.28,0,0,0,1.26,2.14A2.85,2.85,0,0,0,64,23,1.08,1.08,0,0,0,64.56,23Z"/><path class="cls-2" d="M94.57,23h0a3.24,3.24,0,0,0,3.19-3.27V3.6A3.23,3.23,0,0,0,94.57.33h0A3.23,3.23,0,0,0,91.38,3.6V19.76A3.24,3.24,0,0,0,94.57,23Z"/><path class="cls-6" d="M94.46,23a3.86,3.86,0,0,1-1.81-.77,3,3,0,0,1-1.06-2c0-.91,0-2,0-3.22,0-2.43.05-5.28.07-8.43,0-1.59,0-3.25,0-5a2.92,2.92,0,0,1,.81-2.16,3,3,0,0,1,4.27.14,3.05,3.05,0,0,1,.68,2.24c0,1.72,0,3.39,0,5,0,3.14,0,6,.06,8.43q0,.9,0,1.71a8.89,8.89,0,0,1,0,1.49,3.09,3.09,0,0,1-1.2,1.91,4,4,0,0,1-1.86.64,1.38,1.38,0,0,0,.53,0,3.14,3.14,0,0,0,1.47-.48,3.31,3.31,0,0,0,1.4-2.05A8,8,0,0,0,98,19c0-.54,0-1.11,0-1.71,0-2.44,0-5.29.07-8.43,0-1.59,0-3.26,0-5a3.66,3.66,0,0,0-.82-2.66A3.56,3.56,0,0,0,92.05,1a3.63,3.63,0,0,0-1,2.61c0,1.73,0,3.39,0,5,0,3.15,0,6,.07,8.43,0,1.21,0,2.27.08,3.26a3.28,3.28,0,0,0,1.26,2.14,2.88,2.88,0,0,0,1.43.58A1.08,1.08,0,0,0,94.46,23Z"/><path class="cls-6" d="M88.38,43.71h.53c.34,0,.86,0,1.54,0A21.74,21.74,0,0,1,96.22,45a23.27,23.27,0,0,1,7.84,5.07,22.42,22.42,0,0,1,3.65,4.59,21.42,21.42,0,0,1,2.56,6.05,24.27,24.27,0,0,1-1.33,14.84,32.4,32.4,0,0,1-10.56,13.5,37.26,37.26,0,0,1-17.59,7.07,35.81,35.81,0,0,1-20.05-3.21,28.91,28.91,0,0,1-8.41-6.13,23.79,23.79,0,0,1-5.22-8.66,21.06,21.06,0,0,1-1-9.7,22.05,22.05,0,0,1,3.35-8.73A35.79,35.79,0,0,1,62.16,48.12a43.79,43.79,0,0,1,14.19-4.89A43.28,43.28,0,0,1,88.74,43a40.23,40.23,0,0,1,9.1,2.19c.6.23,1.18.4,1.7.64l1.45.67,1.25.57,1,.56,1.34.76c.3.18.44.28.44.28l-.47-.23-1.36-.72-1-.53-1.25-.55L99.47,46c-.52-.23-1.1-.4-1.7-.62a40,40,0,0,0-9.06-2.09,43.21,43.21,0,0,0-12.3.27,43.72,43.72,0,0,0-14,4.9,35.56,35.56,0,0,0-12.5,11.45,21.79,21.79,0,0,0-3.27,8.55,20.63,20.63,0,0,0,1,9.47,23.48,23.48,0,0,0,5.12,8.46,28.25,28.25,0,0,0,8.26,6,35.31,35.31,0,0,0,19.76,3.17,36.79,36.79,0,0,0,17.36-6.94,32,32,0,0,0,10.45-13.29,23.85,23.85,0,0,0,1.37-14.58,22.45,22.45,0,0,0-6-10.52,23.33,23.33,0,0,0-7.71-5.09,22,22,0,0,0-5.71-1.37l-1.53-.07A4.36,4.36,0,0,1,88.38,43.71Z"/></g><g id="Screens"><path class="cls-1" d="M4.93,230.83h97.52c2.62,0,4.74-1.74,4.74-3.89V181.45c0-2.15-2.12-3.89-4.74-3.89H4.93c-2.61,0-4.74,1.74-4.74,3.89v45.49C.19,229.09,2.32,230.83,4.93,230.83Z"/><path class="cls-6" d="M4.93,230.83a3.22,3.22,0,0,1-.8,0A5.2,5.2,0,0,1,1.9,230,3.75,3.75,0,0,1,.12,226.7c0-1.53,0-3.29,0-5.27,0-7.94,0-19.4-.08-33.56,0-1.77,0-3.58,0-5.44,0-.47,0-.91,0-1.42a3.57,3.57,0,0,1,.5-1.4,4.6,4.6,0,0,1,2.29-1.85,7.09,7.09,0,0,1,2.95-.4H14.9l26.59,0,61,0a5.53,5.53,0,0,1,3.86,1.5,4,4,0,0,1,1,1.85,10.44,10.44,0,0,1,.1,2.06v7.95q0,7.91,0,15.55v15c0,1.23,0,2.45,0,3.66v1.82a3.74,3.74,0,0,1-.39,1.85,4.74,4.74,0,0,1-2.89,2.27,5.93,5.93,0,0,1-1.82.25h-1.76L50.8,231l-33.56-.09-9.12,0-2.38,0-.81,0,.81,0,2.38,0,9.12-.05,33.56-.08,49.77-.06a12.19,12.19,0,0,0,3.44-.23,4.24,4.24,0,0,0,2.59-2,3.24,3.24,0,0,0,.34-1.63v-5.48q0-7.35,0-15v-23.5a11.11,11.11,0,0,0-.08-1.94,3.45,3.45,0,0,0-.92-1.6,5,5,0,0,0-3.49-1.35l-60.95,0-26.59,0H5.77a6.89,6.89,0,0,0-2.81.36,4.21,4.21,0,0,0-2.09,1.69,3,3,0,0,0-.45,1.24,12.42,12.42,0,0,0,0,1.37c0,1.86,0,3.67,0,5.44C.34,202,.32,213.49.3,221.43c0,2,0,3.74,0,5.27A3.64,3.64,0,0,0,2,229.91a5.48,5.48,0,0,0,2.17.84C4.66,230.83,4.94,230.81,4.93,230.83Z"/><path class="cls-6" d="M136.37,213.06a6.25,6.25,0,0,1-1-.84l-2.53-2.42-3.7-3.63a7,7,0,0,0-2.5-1.54,8.33,8.33,0,0,0-3.15-.4c-4.51,0-8.59,0-11.54-.07l-3.5-.08a6,6,0,0,1-1.28-.11,6.53,6.53,0,0,1,1.28-.1l3.5-.08c3,0,7-.08,11.54-.08a8.92,8.92,0,0,1,3.33.44,7.48,7.48,0,0,1,2.66,1.67l3.62,3.72,2.41,2.54A6.25,6.25,0,0,1,136.37,213.06Z"/><path class="cls-6" d="M139.32,214.6a1.91,1.91,0,1,1-1.91-1.91A1.92,1.92,0,0,1,139.32,214.6Z"/><rect class="cls-2" x="56.43" y="191.36" width="37.73" height="4.79" rx="1.44" transform="translate(150.59 387.51) rotate(180)"/><rect class="cls-2" x="56.43" y="200.82" width="37.73" height="4.79" rx="1.44" transform="translate(150.59 406.44) rotate(180)"/><path class="cls-6" d="M67.83,218.38a3.86,3.86,0,1,1-3.1-4.51A3.86,3.86,0,0,1,67.83,218.38Z"/><path class="cls-9" d="M79.16,217.48a3.87,3.87,0,1,1-3.87-3.87A3.86,3.86,0,0,1,79.16,217.48Z"/><path class="cls-8" d="M90.39,217.48a3.87,3.87,0,1,1-3.87-3.87A3.87,3.87,0,0,1,90.39,217.48Z"/><path class="cls-6" d="M15.75,215.1a.5.5,0,0,1-.45-.27.49.49,0,0,1,0-.53l1.8-2.37a5.9,5.9,0,0,0,1.18-3.62l-.1-6.11a9,9,0,0,1,7-8.94l0-1.46a1.5,1.5,0,0,1,1.48-1.52H27a1.54,1.54,0,0,1,1.07.42,1.51,1.51,0,0,1,.45,1.06l0,1.36a9,9,0,0,1,7.78,8.8l.11,6.35a5.83,5.83,0,0,0,1.49,3.8l1.64,1.83a.49.49,0,0,1,.09.53.5.5,0,0,1-.45.3l-23.43.38ZM27,191.27h-.3a.5.5,0,0,0-.5.5l0,1.88a.5.5,0,0,1-.41.5,8,8,0,0,0-6.59,8l.1,6.11A6.79,6.79,0,0,1,18,212.53l-1.18,1.56,21.3-.35-.92-1h0a6.8,6.8,0,0,1-1.74-4.45l-.11-6.36A8,8,0,0,0,28,194.05a.5.5,0,0,1-.46-.49l0-1.8A.5.5,0,0,0,27,191.27Z"/><g class="cls-4"><path class="cls-1" d="M23.31,189.34h.07Z"/></g><path class="cls-6" d="M27.22,218.75A4.19,4.19,0,0,1,24.7,218a4.59,4.59,0,0,1-1.58-3,.5.5,0,1,1,1-.15,3.69,3.69,0,0,0,1.21,2.4,3.26,3.26,0,0,0,1.92.56,3.51,3.51,0,0,0,2.23-.73,2.67,2.67,0,0,0,1-2.35.5.5,0,0,1,.43-.56.49.49,0,0,1,.56.43,3.67,3.67,0,0,1-1.31,3.26,4.62,4.62,0,0,1-2.87.95Z"/><path class="cls-6" d="M25,194.34a.51.51,0,0,1-.48-.35.5.5,0,0,1,.33-.63,8.73,8.73,0,0,1,4.17-.16.49.49,0,0,1,.38.59.49.49,0,0,1-.59.38,7.9,7.9,0,0,0-3.66.14A.4.4,0,0,1,25,194.34Z"/><path class="cls-6" d="M414.24,45.68l-.26,0-.74,0-2.86.05-10.5.08-34.65.08h-5a45.1,45.1,0,0,0-4.83.13,15.47,15.47,0,0,0-8.15,3.64,16.16,16.16,0,0,0-2.78,3.15,15.67,15.67,0,0,0-1.75,3.56,19.58,19.58,0,0,0-.86,7.1c0,4.4-.06,8-.08,10.5,0,1.21,0,2.16,0,2.85,0,.31,0,.55,0,.75a.13.13,0,1,1-.06,0c0-.2,0-.44,0-.75,0-.69,0-1.64-.05-2.85,0-2.52-.05-6.1-.08-10.5a19.53,19.53,0,0,1,.81-7.23,16.18,16.18,0,0,1,1.78-3.68,15.93,15.93,0,0,1,11.25-7,41.84,41.84,0,0,1,4.89-.15h5l34.65.08,10.5.08,2.86.05.74,0Z"/><rect class="cls-1" x="385.74" y="22.69" width="110.53" height="50.31" rx="3.96"/><path class="cls-6" d="M492.31,73s.28,0,.8-.11a4,4,0,0,0,2-1.15,3.91,3.91,0,0,0,.88-1.48,6,6,0,0,0,.18-2.08c0-1.54,0-3.3,0-5.29,0-8-.05-19.51-.08-33.74,0-.89,0-1.81,0-2.7a3.76,3.76,0,0,0-1-2.37,3.84,3.84,0,0,0-2.35-1.17c-.91,0-1.91,0-2.87,0H477.72l-26.74,0-61.27,0a3.72,3.72,0,0,0-3.17,1.79,3.63,3.63,0,0,0-.53,1.79V52.16q0,7.7,0,15.09v1.84a3.68,3.68,0,0,0,.42,1.66,3.74,3.74,0,0,0,2.65,2,12.47,12.47,0,0,0,1.75.06h5.35l50,.06,33.74.08,9.17,0,2.39,0,.81,0-.81,0-2.39,0-9.17,0-33.74.09-50,0h-5.35a12.85,12.85,0,0,1-1.84-.06,4.21,4.21,0,0,1-3.47-4.08V52.16c0-5.12,0-10.34,0-15.63v-10a4.09,4.09,0,0,1,.61-2,4.24,4.24,0,0,1,3.61-2l61.27,0,26.74,0h12.12c1,0,1.92,0,2.91,0a4.22,4.22,0,0,1,2.59,1.3,4.11,4.11,0,0,1,1.11,2.61c0,.93,0,1.82,0,2.72,0,14.23-.06,25.75-.08,33.74,0,2,0,3.75,0,5.29a6,6,0,0,1-.22,2.12,4,4,0,0,1-.92,1.51,3.89,3.89,0,0,1-2.08,1.13A2.83,2.83,0,0,1,492.31,73Z"/><path class="cls-6" d="M407.24,60.71a11.85,11.85,0,1,1,11.84-11.85A11.86,11.86,0,0,1,407.24,60.71Zm0-22.7a10.85,10.85,0,1,0,10.84,10.85A10.87,10.87,0,0,0,407.24,38Z"/><path class="cls-6" d="M413.71,50.1h-7.06a.5.5,0,0,1-.5-.5V42.2a.5.5,0,1,1,1,0v6.9h6.56a.5.5,0,0,1,.5.5A.5.5,0,0,1,413.71,50.1Z"/><rect class="cls-2" x="424.7" y="38.96" width="57.48" height="6.48" rx="1.98"/><rect class="cls-2" x="425.25" y="50.52" width="25.94" height="6.48" rx="1.98"/><path class="cls-6" d="M463.5,53.76a4.17,4.17,0,1,1-4.17-4.16A4.17,4.17,0,0,1,463.5,53.76Z"/><path class="cls-9" d="M475.2,53.76A4.17,4.17,0,1,1,471,49.6,4.17,4.17,0,0,1,475.2,53.76Z"/></g><g id="Books"><rect class="cls-9" x="161.48" y="411.22" width="154.57" height="21.44"/><rect class="cls-5" x="161.48" y="413.9" width="152.05" height="16"/><g class="cls-7"><rect x="286.01" y="411.22" width="30.03" height="21.44"/></g><path class="cls-6" d="M313.53,417.4H312l-4.43,0-16.31,0-53.81,0-53.82,0-16.31,0-4.44,0h-1.54l.39,0h1.15l4.44,0,16.31,0,53.82,0,53.81,0,16.31,0,4.43,0h1.15Z"/><path class="cls-6" d="M313.53,421.67h-.4l-1.15,0-4.43,0-16.31,0-53.81,0-53.82,0-16.31,0-4.44,0-1.15,0h1.15l4.44,0,16.31,0,53.82,0,53.81,0,16.31,0,4.43,0h1.55Z"/><path class="cls-6" d="M286.1,432.3c-.05,0-.1-4.66-.1-10.42s.05-10.42.1-10.42.1,4.66.1,10.42S286.15,432.3,286.1,432.3Z"/><rect class="cls-8" x="187.03" y="391.38" width="106.89" height="19.84"/><rect class="cls-8" x="274.14" y="391.5" width="29.09" height="19.61"/><rect class="cls-5" x="276.88" y="394.18" width="26.35" height="14.09"/><g class="cls-7"><rect x="274.14" y="391.5" width="29.09" height="19.61"/></g><path class="cls-6" d="M266.32,406.87s0-.19,0-.55,0-.89,0-1.59c0-1.41,0-3.47,0-6.16l0,.05-72.72.07h0l.1-.12v8.3l-.1-.11,51.64,0,15.45,0h4.2l-4.16,0-15.42,0-51.71.05h-.09v-8.52h.1l72.72.07h0v0c0,2.7,0,4.78,0,6.18,0,.7,0,1.23,0,1.59S266.32,406.87,266.32,406.87Z"/><path class="cls-6" d="M274.18,411.09c-.06,0-.1-4.44-.1-9.93s0-9.92.1-9.92.1,4.44.1,9.92S274.23,411.09,274.18,411.09Z"/><rect class="cls-9" x="180.45" y="368.23" width="106.89" height="15.52"/><path class="cls-6" d="M263.74,380.69a1.23,1.23,0,0,1,0-.18c0-.13,0-.29,0-.49,0-.45,0-1.07,0-1.84,0-1.58,0-3.78-.05-6.37l.09.11h-5.06s.18-.21.1-.11h0v1.23c0,.41,0,.81,0,1.21v2.32c0,1.5,0,2.88,0,4.1l-.08-.09,3.66,0,1,0,.37,0a2,2,0,0,1-.34,0l-1,0-3.71,0h-.08v-.09c0-1.22,0-2.6,0-4.1,0-.74,0-1.52,0-2.32v-2.44h0l.1-.12h5.15v.11c0,2.6,0,4.83,0,6.43,0,.76,0,1.37,0,1.81,0,.19,0,.35,0,.48A.72.72,0,0,1,263.74,380.69Z"/><rect class="cls-1" x="270.85" y="370.66" width="16.49" height="10.5"/><g class="cls-7"><rect x="268.68" y="368.23" width="18.66" height="15.52"/></g><path class="cls-6" d="M268.6,383.66c-.05,0-.1-3.42-.1-7.65s.05-7.65.1-7.65.1,3.42.1,7.65S268.66,383.66,268.6,383.66Z"/><path class="cls-6" d="M287.47,373.14c0,.07-3.75.12-8.37.12s-8.37-.05-8.37-.12,3.75-.11,8.37-.11S287.47,373.08,287.47,373.14Z"/><path class="cls-6" d="M287.47,375.91c0,.06-3.75.11-8.37.11s-8.37,0-8.37-.11,3.75-.11,8.37-.11S287.47,375.85,287.47,375.91Z"/><path class="cls-6" d="M287.47,378.71c0,.06-3.75.11-8.37.11s-8.37-.05-8.37-.11,3.75-.11,8.37-.11S287.47,378.65,287.47,378.71Z"/><rect class="cls-9" x="198.79" y="383.75" width="106.89" height="7.66"/><rect class="cls-2" x="281.79" y="384.71" width="23.9" height="5.8"/><g class="cls-7"><rect x="280.44" y="383.75" width="25.25" height="7.66"/></g><path class="cls-6" d="M280.44,391.41a31.35,31.35,0,0,1-.09-3.68,35.79,35.79,0,0,1,.1-3.69,31.46,31.46,0,0,1,.09,3.69A35.67,35.67,0,0,1,280.44,391.41Z"/><rect class="cls-2" x="206.47" y="386.71" width="64.38" height="1.83"/><path class="cls-6" d="M277.84,391.35c0,.07-17.72.12-39.56.12s-39.57-.05-39.57-.12,17.71-.11,39.57-.11S277.84,391.29,277.84,391.35Z"/><path class="cls-6" d="M280.7,391.39c0,.06-17.71.11-39.56.11s-39.57-.05-39.57-.11,17.71-.11,39.57-.11S280.7,391.33,280.7,391.39Z"/><path class="cls-6" d="M305.68,383.7c0,.06-23.3.11-52.05.11s-52.06-.05-52.06-.11,23.31-.12,52.06-.12S305.68,383.64,305.68,383.7Z"/></g><g id="Tasks"><path class="cls-2" d="M667.93,373.33,529.46,359.6a6.1,6.1,0,0,1-5.48-6.68l20-201.65a6.12,6.12,0,0,1,6.69-5.48l138.47,13.73a6.12,6.12,0,0,1,5.48,6.69l-20,201.64A6.12,6.12,0,0,1,667.93,373.33Z"/><path class="cls-6" d="M667.93,373.33l.47,0a6.78,6.78,0,0,0,1.38-.13,6.26,6.26,0,0,0,2.1-.88A6.15,6.15,0,0,0,674,370a5.44,5.44,0,0,0,.58-1.8c.1-.66.15-1.37.23-2.11.14-1.47.3-3.09.47-4.84q.51-5.25,1.18-12.08c1.79-18.18,4.39-44.49,7.59-77,1.61-16.25,3.36-34.05,5.25-53.16q1.43-14.34,2.93-29.62.77-7.64,1.53-15.49.39-3.93.78-7.9a6,6,0,0,0-4.07-6.07,8.47,8.47,0,0,0-2-.35l-2-.2-4.06-.4-8.21-.82-16.69-1.65-34.42-3.41-72.39-7.17a6,6,0,0,0-6.5,5.06c-.33,3.06-.62,6.14-.93,9.2q-.91,9.2-1.81,18.25-1.8,18.12-3.54,35.67c-2.32,23.39-4.56,45.95-6.69,67.44s-4.17,41.91-6.07,61c-.23,2.39-.47,4.76-.7,7.1-.11,1.18-.25,2.35-.34,3.51a6,6,0,0,0,.77,3.28,6,6,0,0,0,2.39,2.34,6.81,6.81,0,0,0,1.58.58c.55.1,1.12.15,1.68.2l6.72.67,25.51,2.54,77,7.68,20.92,2.1,5.45.55,1.85.2-1.86-.17-5.44-.52-20.93-2.05-77-7.59-25.51-2.51-6.72-.67c-.57-.06-1.13-.1-1.71-.21a6.17,6.17,0,0,1-4.13-3,6.17,6.17,0,0,1-.79-3.42c.09-1.17.22-2.33.33-3.51.23-2.35.47-4.72.7-7.1,1.89-19.12,3.91-39.54,6-61s4.36-44,6.68-67.44q1.74-17.53,3.53-35.67.9-9.06,1.81-18.25c.31-3.06.59-6.12.93-9.22a6.25,6.25,0,0,1,6.82-5.3l72.39,7.18,34.42,3.41,16.69,1.66,8.2.82,4.07.4,2,.2a8.75,8.75,0,0,1,2,.36,6.32,6.32,0,0,1,3.22,2.46,6.25,6.25,0,0,1,1,3.89q-.39,4-.77,7.91-.78,7.84-1.54,15.48-1.52,15.27-3,29.62c-1.9,19.11-3.67,36.91-5.28,53.16-3.25,32.5-5.87,58.8-7.68,77q-.69,6.82-1.21,12.08c-.18,1.75-.34,3.37-.49,4.84-.08.74-.13,1.44-.23,2.11A6,6,0,0,1,674,370a6.15,6.15,0,0,1-2.11,2.34,6.3,6.3,0,0,1-2.11.88,6,6,0,0,1-1.39.11Z"/><g class="cls-7"><polygon points="538.19 355.11 664.58 366.94 668.45 342.68 666.03 327.58 539.05 334.72 538.19 355.11"/></g><path class="cls-6" d="M667.93,373.33l.47,0a6.78,6.78,0,0,0,1.38-.13,6.26,6.26,0,0,0,2.1-.88A6.15,6.15,0,0,0,674,370a5.44,5.44,0,0,0,.58-1.8c.1-.66.15-1.37.23-2.11.14-1.47.3-3.09.47-4.84q.51-5.25,1.18-12.08c1.79-18.18,4.39-44.49,7.59-77,1.61-16.25,3.36-34.05,5.25-53.16q1.43-14.34,2.93-29.62.77-7.64,1.53-15.49.39-3.93.78-7.9a6,6,0,0,0-4.07-6.07,8.47,8.47,0,0,0-2-.35l-2-.2-4.06-.4-8.21-.82-16.69-1.65-34.42-3.41-72.39-7.17a6,6,0,0,0-6.5,5.06c-.33,3.06-.62,6.14-.93,9.2q-.91,9.2-1.81,18.25-1.8,18.12-3.54,35.67c-2.32,23.39-4.56,45.95-6.69,67.44s-4.17,41.91-6.07,61c-.23,2.39-.47,4.76-.7,7.1-.11,1.18-.25,2.35-.34,3.51a6,6,0,0,0,.77,3.28,6,6,0,0,0,2.39,2.34,6.81,6.81,0,0,0,1.58.58c.55.1,1.12.15,1.68.2l6.72.67,25.51,2.54,77,7.68,20.92,2.1,5.45.55,1.85.2-1.86-.17-5.44-.52-20.93-2.05-77-7.59-25.51-2.51-6.72-.67c-.57-.06-1.13-.1-1.71-.21a6.17,6.17,0,0,1-4.13-3,6.17,6.17,0,0,1-.79-3.42c.09-1.17.22-2.33.33-3.51.23-2.35.47-4.72.7-7.1,1.89-19.12,3.91-39.54,6-61s4.36-44,6.68-67.44q1.74-17.53,3.53-35.67.9-9.06,1.81-18.25c.31-3.06.59-6.12.93-9.22a6.25,6.25,0,0,1,6.82-5.3l72.39,7.18,34.42,3.41,16.69,1.66,8.2.82,4.07.4,2,.2a8.75,8.75,0,0,1,2,.36,6.32,6.32,0,0,1,3.22,2.46,6.25,6.25,0,0,1,1,3.89q-.39,4-.77,7.91-.78,7.84-1.54,15.48-1.52,15.27-3,29.62c-1.9,19.11-3.67,36.91-5.28,53.16-3.25,32.5-5.87,58.8-7.68,77q-.69,6.82-1.21,12.08c-.18,1.75-.34,3.37-.49,4.84-.08.74-.13,1.44-.23,2.11A6,6,0,0,1,674,370a6.15,6.15,0,0,1-2.11,2.34,6.3,6.3,0,0,1-2.11.88,6,6,0,0,1-1.39.11Z"/><g class="cls-7"><polygon points="538.19 355.11 664.58 366.94 668.45 342.68 666.03 327.58 539.05 334.72 538.19 355.11"/></g><rect class="cls-1" x="511.34" y="190.79" width="196.06" height="136.05" transform="translate(291.69 839.68) rotate(-84.34)"/><path class="cls-6" d="M667.39,363.08c.11-1.12,7.88-80,19.22-195.11l.11.14L551.35,154.7h0l.15-.13c-7.27,73.27-14,141-19.37,195.1l-.1-.12,135.38,13.53L532,349.77h-.11v-.11c5.36-54.15,12.06-121.84,19.32-195.11v-.13h.15l135.38,13.43.12,0V168C675.37,283.13,667.5,362,667.39,363.08Z"/><rect class="cls-9" x="585.59" y="181.02" width="68.24" height="6.3" rx="2.9" transform="translate(21.19 -60.25) rotate(5.66)"/><rect class="cls-2" x="589.61" y="205.93" width="78.32" height="5.33" rx="2.45" transform="translate(23.65 -61.02) rotate(5.66)"/><rect class="cls-2" x="588.77" y="213.47" width="40.15" height="5.33" rx="2.45" transform="translate(24.3 -59.02) rotate(5.66)"/><rect class="cls-2" x="586.52" y="237.12" width="78.32" height="5.33" rx="2.45" transform="matrix(1, 0.1, -0.1, 1, 26.71, -60.56)"/><rect class="cls-2" x="585.68" y="244.66" width="40.15" height="5.33" rx="2.45" transform="translate(27.36 -58.56) rotate(5.66)"/><rect class="cls-2" x="583.42" y="268.31" width="78.32" height="5.33" rx="2.45" transform="translate(29.77 -60.11) rotate(5.66)"/><rect class="cls-2" x="582.58" y="275.85" width="40.15" height="5.33" rx="2.45" transform="translate(30.42 -58.1) rotate(5.66)"/><rect class="cls-2" x="580.33" y="299.51" width="78.32" height="5.33" rx="2.45" transform="translate(32.84 -59.65) rotate(5.66)"/><rect class="cls-2" x="579.49" y="307.04" width="40.15" height="5.33" rx="2.45" transform="translate(33.48 -57.65) rotate(5.66)"/><rect class="cls-2" x="576.02" y="326.59" width="78.32" height="5.33" rx="2.45" transform="translate(35.49 -59.09) rotate(5.66)"/><path class="cls-6" d="M591.19,147.61h63.07a3.35,3.35,0,0,1,3.35,3.35v16.89a0,0,0,0,1,0,0H587.84a0,0,0,0,1,0,0V151A3.35,3.35,0,0,1,591.19,147.61Z" transform="translate(18.6 -60.67) rotate(5.66)"/><polygon class="cls-6" points="633.31 140.96 615.64 139.21 616.2 154.56 629.51 155.88 633.31 140.96"/><path class="cls-8" d="M654,150.66c0,.08-13.56-1.2-30.26-2.86s-30.25-3.06-30.24-3.14,13.56,1.2,30.27,2.85S654,150.58,654,150.66Z"/><path class="cls-8" d="M588.89,161.26c-.08,0,.14-2.87.49-6.38s.69-6.35.77-6.35-.13,2.87-.48,6.38S589,161.26,588.89,161.26Z"/><path class="cls-8" d="M654.66,166.26a57.06,57.06,0,0,1,.43-5.79,55.22,55.22,0,0,1,.72-5.76,57.24,57.24,0,0,1-.43,5.79C655.06,163.69,654.74,166.26,654.66,166.26Z"/><path class="cls-8" d="M651.05,168.6c0,.08-13.92-1.23-31.07-2.93s-31.05-3.14-31-3.22,13.92,1.23,31.07,2.93S651.06,168.52,651.05,168.6Z"/><g class="cls-7"><polygon points="657.86 156.86 659.89 165.67 659.48 169.84 656.24 169.52 657.86 156.86"/></g><rect class="cls-9" x="560.7" y="197.6" width="17.78" height="17.78" rx="3.6" transform="translate(23.15 -55.19) rotate(5.66)"/><polygon class="cls-1" points="563.45 206.14 565.41 204.54 568.54 207.93 574.86 202.74 576.33 204.69 567.95 211.34 563.45 206.14"/><rect class="cls-9" x="556.92" y="228.91" width="17.78" height="17.78" rx="3.6" transform="translate(26.22 -54.67) rotate(5.66)"/><polygon class="cls-1" points="559.68 237.45 561.64 235.84 564.77 239.24 571.08 234.05 572.56 235.99 564.17 242.65 559.68 237.45"/><rect class="cls-9" x="553.58" y="259.95" width="17.78" height="17.78" rx="3.6" transform="translate(29.27 -54.18) rotate(5.66)"/><polygon class="cls-1" points="556.33 268.48 558.29 266.88 561.42 270.27 567.73 265.08 569.21 267.03 560.83 273.68 556.33 268.48"/><path class="cls-6" d="M564.06,309s.23,0,.66,0a3.61,3.61,0,0,0,1.7-.67,3.47,3.47,0,0,0,1.42-2.42c.11-1.17.23-2.49.36-3.94s.28-3.07.44-4.78l.12-1.31a5.84,5.84,0,0,0,0-1.31,3.37,3.37,0,0,0-1.26-2.26,3.24,3.24,0,0,0-1.22-.6,9.22,9.22,0,0,0-1.46-.19l-3.09-.3-6.51-.64a3.36,3.36,0,0,0-2.78,1.05,3.42,3.42,0,0,0-.75,1.29,9.09,9.09,0,0,0-.22,1.53c-.21,2.1-.42,4.13-.61,6.06-.1,1-.2,1.91-.3,2.83a8.67,8.67,0,0,0-.08,1.31,3.16,3.16,0,0,0,.3,1.19,3.32,3.32,0,0,0,1.61,1.65,6.42,6.42,0,0,0,2.18.44l6.91.77,1.88.23a2.88,2.88,0,0,1,.65.12,3.31,3.31,0,0,1-.66,0l-1.89-.14-6.93-.61-1.12-.1a3.67,3.67,0,0,1-1.19-.34,3.72,3.72,0,0,1-1.83-1.82,3.86,3.86,0,0,1-.36-1.35,9,9,0,0,1,.08-1.39q.14-1.38.27-2.82c.18-1.94.38-4,.58-6.07a10,10,0,0,1,.24-1.63,4,4,0,0,1,.86-1.49,3.87,3.87,0,0,1,3.21-1.22l6.51.65,3.09.31a10.4,10.4,0,0,1,1.53.21,3.85,3.85,0,0,1,2.82,3.29,7.09,7.09,0,0,1-.06,1.4c-.05.44-.1.88-.14,1.31-.18,1.71-.35,3.31-.51,4.78s-.3,2.77-.43,3.94a3.72,3.72,0,0,1-1.59,2.55,3.46,3.46,0,0,1-1.82.6A2.15,2.15,0,0,1,564.06,309Z"/><path class="cls-6" d="M561.15,338.41s.23,0,.65-.05a3.68,3.68,0,0,0,1.71-.67,3.51,3.51,0,0,0,1.42-2.42c.1-1.17.22-2.49.35-3.94s.29-3.07.45-4.78l.12-1.31a6.49,6.49,0,0,0,0-1.31,3.34,3.34,0,0,0-1.27-2.25,3.19,3.19,0,0,0-1.22-.61,10.2,10.2,0,0,0-1.45-.19l-3.1-.3-6.51-.64a3.36,3.36,0,0,0-2.77,1.05,3.24,3.24,0,0,0-.75,1.29,8.17,8.17,0,0,0-.22,1.53c-.22,2.11-.42,4.13-.62,6.07-.1,1-.2,1.9-.29,2.82a8.79,8.79,0,0,0-.09,1.32,3.48,3.48,0,0,0,.3,1.19,3.36,3.36,0,0,0,1.62,1.64,6.42,6.42,0,0,0,2.18.44l6.91.77,1.88.23a2.88,2.88,0,0,1,.65.12,3.31,3.31,0,0,1-.66,0l-1.89-.14-6.93-.6-1.13-.11a4,4,0,0,1-1.19-.33,3.81,3.81,0,0,1-2.18-3.17,9.18,9.18,0,0,1,.07-1.4c.09-.91.18-1.86.27-2.82q.29-2.91.59-6.07a9,9,0,0,1,.23-1.63,3.9,3.9,0,0,1,4.08-2.71l6.5.65,3.1.31a12.19,12.19,0,0,1,1.53.21,3.9,3.9,0,0,1,1.39.71,3.79,3.79,0,0,1,1.42,2.58,6.4,6.4,0,0,1-.06,1.4c0,.44-.09.88-.14,1.31-.18,1.71-.35,3.31-.5,4.78s-.31,2.77-.44,3.94a3.64,3.64,0,0,1-1.59,2.55,3.58,3.58,0,0,1-1.81.61A1.87,1.87,0,0,1,561.15,338.41Z"/></g><g id="Plant"><path class="cls-8" d="M93.77,349.76c6.75-3.49,14.7-3.94,22.19-2.7,4,.67,8.23,1.87,11,4.89s3.26,8.35.11,10.95c-1.87,1.55-4.48,1.78-6.91,1.76-5.87-.07-12.38-1.11-17.07,2.42-2.67,2-4.45,5.37-7.65,6.36s-6.66-.88-8.32-3.7-1.71-6.36-.94-9.54A14.57,14.57,0,0,1,93.77,349.76Z"/><path class="cls-8" d="M78.3,336.73c4.13,5.89,12.15,3.94,15.87.34s5.29-8.81,6.73-13.79c3.27-11.36,6.56-23.29,4.13-34.86a19.43,19.43,0,0,0-4.45-9.48c-2.43-2.57-6.17-4.09-9.59-3.19-4,1.07-6.56,5-8.38,8.8a83.09,83.09,0,0,0-8.21,35.66c0,5.75.66,11.77,3.9,16.52"/><path class="cls-8" d="M68.58,355.94c4-4.78,4.79-11.75,3-17.74S65.74,327.11,61.07,323a56.6,56.6,0,0,0-18.83-11.11,20.06,20.06,0,0,0-8.46-1.44,8.9,8.9,0,0,0-7.11,4.3c-2,3.78-.08,8.36,2,12.1A143,143,0,0,0,41,345.63c3.71,4.78,8,9.49,13.6,11.65s11.51,1.9,14.51-2"/><path class="cls-6" d="M78,408.84a12.64,12.64,0,0,0,.37-2.68c.19-2,.43-4.4.71-7.31a103.61,103.61,0,0,1,1.65-10.72,81.66,81.66,0,0,1,3.9-12.66A46.45,46.45,0,0,1,91.11,364a24.14,24.14,0,0,1,8.17-6.79,22.8,22.8,0,0,1,6.89-2.14,12.54,12.54,0,0,0,2.66-.39,12.09,12.09,0,0,0-2.71,0,20.74,20.74,0,0,0-7.18,1.87,24,24,0,0,0-8.62,6.85,45.78,45.78,0,0,0-6.7,11.68,77.4,77.4,0,0,0-3.87,12.87,92.66,92.66,0,0,0-1.43,10.86c-.23,3.11-.32,5.62-.36,7.36A11.81,11.81,0,0,0,78,408.84Z"/><path class="cls-6" d="M78.52,420.05a5.34,5.34,0,0,0,.07-1.25v-3.55c0-3.09,0-7.55.15-13.07.28-11,1.23-22.89,3.06-39.62,1.74-15.73,4.07-34,6.53-45.95.52-2.71,1.06-5.14,1.56-7.27s.88-4,1.27-5.48.62-2.55.83-3.45a5.13,5.13,0,0,0,.22-1.23,5.24,5.24,0,0,0-.43,1.17l-1,3.4c-.46,1.48-.93,3.31-1.47,5.44s-1.14,4.56-1.72,7.26a404.26,404.26,0,0,0-6.86,42.63c-1.84,16.77-2.66,32-2.74,43.09-.06,5.53.05,10,.19,13.09.09,1.44.16,2.62.22,3.55A5.17,5.17,0,0,0,78.52,420.05Z"/><path class="cls-6" d="M79,396.77a20.31,20.31,0,0,0,0-3.34,89.65,89.65,0,0,0-1-9,118.24,118.24,0,0,0-2.94-13.18,108,108,0,0,0-5.51-15.6c-4.57-10.84-10.78-19.7-16.18-25.19a40.94,40.94,0,0,0-3.81-3.54c-.58-.5-1.1-1-1.63-1.38l-1.47-1a24.32,24.32,0,0,0-2.81-1.8c-.16.22,4,2.66,9.21,8.22A87.65,87.65,0,0,1,68.63,356a122.53,122.53,0,0,1,5.54,15.45c1.44,4.84,2.4,9.3,3.13,13.05s1.09,6.83,1.33,8.95A21.55,21.55,0,0,0,79,396.77Z"/><polygon class="cls-9" points="51.57 393.48 55.46 432.66 101.43 432.66 104.29 393.48 51.57 393.48"/><rect class="cls-9" x="46.01" y="385.41" width="64.92" height="14.98"/><path class="cls-6" d="M105.78,400.14c0,.17-12.23.3-27.32.3s-27.33-.13-27.33-.3,12.24-.3,27.33-.3S105.78,400,105.78,400.14Z"/></g><g id="Character"><path class="cls-12" d="M572,290.87c3.93.21,6.88-4.35,6.11-8.21s-4.15-6.73-7.79-8.23-7.6-2-11.41-2.94a43.14,43.14,0,0,1-26.89-21,73.06,73.06,0,0,1-5-12.24c-5.35-22.56-12.77-54.8-14.58-67.36-4.68-32.45-13-68.07-59.32-64.75,0,0-30.82,5.8-42.65,27.9-10.4,19.44-4.4,78.06-5.78,120.29l10.11,6.09,1.56.09a40.28,40.28,0,0,0,5.58,12.11c9.23,13.17,21.79,23.74,35.41,32.29,27.52,17.27,60.47,26.69,92.8,23.45,6.83-.68,13.75-2,19.72-5.36s10.91-9.16,11.81-16S578.56,292.7,572,290.87Z"/><path class="cls-13" d="M446.93,118.24l2.9-2.77,31.34,12.63a8.76,8.76,0,0,1,8.27,8.48l-.28,102.12c0,6.93-1.35,12.92-5.53,18.44l-4.4,5.82c-10,13.25-30.69,12.16-38.63-2.44a11,11,0,0,1-1.11-2.65,19.76,19.76,0,0,1-.47-2.28c-.93-8.22-1-15.34-1-15.34-.56-9-.75-12.72-.75-12.64s-19.19-2.2-24.38-26.85c-2.59-12.25-2.1-29.11-1.37-45.71C412.54,132.09,428.47,118.22,446.93,118.24Z"/><path class="cls-6" d="M448.49,171.86a3.19,3.19,0,0,0,3.24,3.06,3.05,3.05,0,0,0,3.14-3,3.19,3.19,0,0,0-3.23-3.06A3,3,0,0,0,448.49,171.86Z"/><path class="cls-6" d="M417.89,171.86a3.18,3.18,0,0,0,3.23,3.06,3,3,0,0,0,3.14-3,3.18,3.18,0,0,0-3.23-3.06A3,3,0,0,0,417.89,171.86Z"/><path class="cls-6" d="M414.82,161.62c.41.39,2.74-1.51,6.16-1.68s6,1.43,6.38,1c.18-.2-.27-.93-1.4-1.67a8.74,8.74,0,0,0-5.13-1.3,8.42,8.42,0,0,0-4.89,1.85C414.93,160.67,414.61,161.44,414.82,161.62Z"/><path class="cls-6" d="M449.6,162c.46.35,2.58-1.78,6-2.3s6.14.8,6.44.33c.16-.21-.35-.89-1.56-1.51a8.73,8.73,0,0,0-5.24-.78,8.4,8.4,0,0,0-4.67,2.35C449.63,161,449.38,161.82,449.6,162Z"/><path class="cls-6" d="M437.63,186.93c0-.2-2.15-.46-5.62-.73-.88,0-1.72-.18-1.9-.77a4.55,4.55,0,0,1,.46-2.62q1.08-3.24,2.25-6.8c3.12-9.67,5.33-17.6,4.94-17.72s-3.23,7.61-6.35,17.28l-2.15,6.83a5.1,5.1,0,0,0-.28,3.46,2.21,2.21,0,0,0,1.51,1.21,5.85,5.85,0,0,0,1.49.13C435.47,187.21,437.62,187.12,437.63,186.93Z"/><path class="cls-14" d="M437.29,227.61a63.3,63.3,0,0,0,32.83-10.54s-7.51,17.62-32.48,16.54Z"/><path class="cls-14" d="M439.49,195.12a6.18,6.18,0,0,1,5.42-2.58,5.64,5.64,0,0,1,4,1.9,3.57,3.57,0,0,1,.48,4.07c-.86,1.35-2.78,1.74-4.44,1.36a13,13,0,0,1-4.51-2.39,3.81,3.81,0,0,1-1-1,1.14,1.14,0,0,1-.06-1.27"/><path class="cls-6" d="M447.84,188.79c-.56,0-.38,3.72-3.44,6.52s-7,2.59-7,3.11c0,.24.92.68,2.59.64a9.22,9.22,0,0,0,5.89-2.39,8.07,8.07,0,0,0,2.64-5.45C448.55,189.66,448.09,188.76,447.84,188.79Z"/><path class="cls-12" d="M446.32,148.61c.48.87,3.8-.09,7.85-.22s7.44.46,7.84-.45c.18-.43-.51-1.21-1.95-1.9a13.64,13.64,0,0,0-11.95.5C446.74,147.35,446.11,148.19,446.32,148.61Z"/><path class="cls-12" d="M415.31,146.89c.64.75,3-.18,5.8-.36s5.27.26,5.78-.58c.23-.41-.19-1.17-1.28-1.86a8.1,8.1,0,0,0-4.78-1,8,8,0,0,0-4.55,1.8C415.31,145.7,415,146.52,415.31,146.89Z"/><path class="cls-12" d="M488.81,180.16s-17.56,5.46-27.49-37.87c-3.4-14.82-17.14-26.82-17.14-26.82l5.57-1.67S484.38,123.55,485,124s8.73,17.91,8.73,17.91Z"/><path class="cls-13" d="M484.48,178.55c-.09-1.85,1.83-6.32,3.65-6.7,4.84-1,13.65-1,14.35,11.33,1,16.93-16.23,14.4-16.29,13.92S484.79,184.93,484.48,178.55Z"/><path class="cls-14" d="M491,190.39c.07-.06.3.19.82.39a2.91,2.91,0,0,0,2.2-.08c1.76-.75,3.1-3.68,3-6.74a9.74,9.74,0,0,0-1.07-4.17,3.39,3.39,0,0,0-2.34-2.14,1.5,1.5,0,0,0-1.7.91c-.2.48-.07.81-.16.85s-.38-.26-.28-1a1.87,1.87,0,0,1,.6-1.1,2.22,2.22,0,0,1,1.61-.52,4.14,4.14,0,0,1,3.23,2.45,10,10,0,0,1,1.29,4.66c.09,3.42-1.48,6.71-3.89,7.55a3.16,3.16,0,0,1-2.72-.29C491.05,190.8,490.94,190.43,491,190.39Z"/><path class="cls-15" d="M503.12,242.53a41.79,41.79,0,0,1-.38-5.92,93.14,93.14,0,0,1,1.64-16.08c.61-3.36,1.27-7,2-11a106.56,106.56,0,0,0,1.52-12.69,52.18,52.18,0,0,0-1-14,35.1,35.1,0,0,0-2.38-7,33.87,33.87,0,0,0-4-6.51,78.47,78.47,0,0,0-10.66-10.74c-3.71-3.21-7.27-6.36-10.42-9.6a131.73,131.73,0,0,1-15.23-18.52,128.28,128.28,0,0,1-8.25-13.91c-.86-1.7-1.51-3-1.92-4-.2-.44-.35-.79-.47-1l-.15-.36a1.79,1.79,0,0,1,.19.34l.52,1c.43.9,1.1,2.22,2,3.91a137.73,137.73,0,0,0,8.36,13.8,133.34,133.34,0,0,0,15.26,18.41c3.16,3.22,6.7,6.35,10.42,9.56A78.76,78.76,0,0,1,500.83,169a34.28,34.28,0,0,1,4.06,6.6,35.66,35.66,0,0,1,2.41,7.13,51.89,51.89,0,0,1,1,14.13,106.2,106.2,0,0,1-1.57,12.73l-2,11a94.27,94.27,0,0,0-1.78,16c0,1.91,0,3.39.1,4.39,0,.49.06.86.08,1.14S503.12,242.53,503.12,242.53Z"/><path class="cls-15" d="M508.57,244.12a41.72,41.72,0,0,1-.38-5.91,93.14,93.14,0,0,1,1.64-16.09c.61-3.36,1.27-7,2-11a104.35,104.35,0,0,0,1.51-12.69,51.76,51.76,0,0,0-1-14,35.1,35.1,0,0,0-2.38-7,33.87,33.87,0,0,0-4-6.51,79.62,79.62,0,0,0-10.66-10.74c-3.71-3.21-7.27-6.36-10.42-9.6A131.73,131.73,0,0,1,469.6,132a128.33,128.33,0,0,1-8.25-13.9c-.87-1.7-1.51-3-1.92-4l-.47-1a2,2,0,0,1-.15-.36,2.38,2.38,0,0,1,.19.34l.52,1c.43.91,1.1,2.23,2,3.91a137.66,137.66,0,0,0,8.36,13.81,133.9,133.9,0,0,0,15.26,18.4c3.16,3.22,6.7,6.35,10.42,9.56a78.29,78.29,0,0,1,10.73,10.8,33.91,33.91,0,0,1,4.06,6.59,36.31,36.31,0,0,1,2.41,7.13,51.88,51.88,0,0,1,1,14.13,104.68,104.68,0,0,1-1.56,12.74l-2,11a95.52,95.52,0,0,0-1.79,16c0,1.9.05,3.38.11,4.38,0,.49.06.87.08,1.14S508.57,244.12,508.57,244.12Z"/><path class="cls-13" d="M253.78,262.84c-4.47-4.56-9.66-9.47-9.66-9.47l-4.38-4.6a7.08,7.08,0,0,0-.47,1.18,4.78,4.78,0,0,1-1.09,2.12c-1.12,1-3,.71-4.3,0a9.29,9.29,0,0,1-4.71-7.87,9.17,9.17,0,0,1,4.27-7.68,6.71,6.71,0,0,1,1.18-2.34c3.66-4.71,12.3-4.1,12.3-4.1l-1.3-1.82s-5.92-3.64-15.68,2.56a7.12,7.12,0,0,1-4.92,1.08,3.59,3.59,0,0,1-2.65-1.58c-1.45-2.41-.11-4.05,5.92-8s13.18-5.77,17.74-4.1a48.77,48.77,0,0,1,6.23,2.61s-10.83-17.14-11.47-18.25c-1.85-3.22-2-6.74.06-8.17,1.31-.92,3.63-1.12,5.91,2.56,2,3.19,26.32,33.28,26.32,33.28l10,13.93L289.44,257l-21.59,11.9-1.8-.18A19.89,19.89,0,0,1,253.78,262.84Z"/><path class="cls-13" d="M279.5,244.69c-1.51,1.6-4.18,1.41-6.15.4s-3.55-2.63-5.44-3.77c-5.66-3.41-13.35-2-18.84-5.67-.76-.51-1.55-1.38-1.21-2.23s1.34-.94,2.19-1l21.85-.94"/><path class="cls-14" d="M271.9,231.5a8.6,8.6,0,0,0-2.37-.14c-1.53,0-3.73,0-6.46.08l-9.56.28-2.76.1c-.87.09-2.06-.16-3.15.87a1.83,1.83,0,0,0-.21,2.05,3.74,3.74,0,0,0,1.2,1.32,14.71,14.71,0,0,0,2.86,1.5c4.06,1.54,8.11,1.6,11.53,2.45a16.54,16.54,0,0,1,4.62,1.73c1.33.77,2.47,1.74,3.61,2.53,2.23,1.69,4.75,2.18,6.29,1.74s2.05-1.32,2-1.32a6.53,6.53,0,0,1-2.1.85,7.55,7.55,0,0,1-5.67-2c-1.07-.8-2.18-1.82-3.6-2.71a17.36,17.36,0,0,0-4.88-1.95c-3.55-.93-7.6-1.05-11.35-2.5a13.44,13.44,0,0,1-2.59-1.33c-.75-.52-1.15-1.26-.78-1.58s1.34-.46,2.28-.49l2.76-.14,9.55-.54c2.71-.18,4.91-.34,6.43-.48A9.21,9.21,0,0,0,271.9,231.5Z"/><path class="cls-14" d="M247.21,230a9.15,9.15,0,0,0-3.19-2.62,7,7,0,0,0-4.35-.34,17.68,17.68,0,0,0-5.09,2.17,27.58,27.58,0,0,1-5.14,2.55,9.27,9.27,0,0,1-4.75.41,3.59,3.59,0,0,1-2.55-2,2,2,0,0,1-.26-1.14c.07,0,.17.39.54,1a3.39,3.39,0,0,0,2.39,1.54,9,9,0,0,0,4.39-.55,31.31,31.31,0,0,0,5-2.54,17.37,17.37,0,0,1,5.34-2.2,7.34,7.34,0,0,1,4.74.55,6.49,6.49,0,0,1,2.44,2.08C247.13,229.57,247.25,230,247.21,230Z"/><path class="cls-14" d="M240.09,201.28a22.46,22.46,0,0,1,2.18,3.4l5,8.3,5.15,8.22a21.53,21.53,0,0,1,2.05,3.47,18.54,18.54,0,0,1-2.52-3.16c-1.46-2-3.37-4.88-5.37-8.12s-3.69-6.23-4.84-8.44A18.49,18.49,0,0,1,240.09,201.28Z"/><path class="cls-14" d="M245.72,236.25a4.55,4.55,0,0,1-1.24.22,3.76,3.76,0,0,0-2.74,1.5,2,2,0,0,0,0,2,10.49,10.49,0,0,0,1.54,2.13,4.49,4.49,0,0,1,1.27,2.94,3.82,3.82,0,0,1-1.79,3,4.36,4.36,0,0,1-3.43.48,5.48,5.48,0,0,1-2.76-1.62,17.64,17.64,0,0,1-2.67-4.44A10.28,10.28,0,0,1,233,239a2.39,2.39,0,0,1,.18-1.27,10.06,10.06,0,0,1,.13,1.24,12.39,12.39,0,0,0,1.09,3.17,18.94,18.94,0,0,0,2.7,4.18c1.16,1.25,3.5,2,5.2,1a3.09,3.09,0,0,0,1.44-2.33,3.87,3.87,0,0,0-1.06-2.46,10.53,10.53,0,0,1-1.57-2.32,2.57,2.57,0,0,1,.13-2.54,3.9,3.9,0,0,1,3.18-1.49A3.24,3.24,0,0,1,245.72,236.25Z"/><path class="cls-14" d="M239.29,247.77s.35.28.51,1a3.44,3.44,0,0,1-.91,3,4.69,4.69,0,0,1-4.5,1.14,7.77,7.77,0,0,1-4.51-3.5,9.24,9.24,0,0,1-1.37-5.5,8.65,8.65,0,0,1,1.55-4.34,8.22,8.22,0,0,1,2.2-2.18c.62-.4,1-.54,1-.5a14.79,14.79,0,0,0-2.74,3,8.49,8.49,0,0,0-1.29,4.08,8.79,8.79,0,0,0,1.32,5,7.21,7.21,0,0,0,4,3.21,4.21,4.21,0,0,0,3.92-.83,3.32,3.32,0,0,0,1-2.55C239.44,248.15,239.23,247.8,239.29,247.77Z"/><path class="cls-14" d="M258.33,252c0-.06.5-.57,1.67-1a7.74,7.74,0,0,1,4.94,0l-.48.52a22.76,22.76,0,0,1-1-2.52c-1.75-5.05-1.09-9.43-.9-9.36s0,4.25,1.66,9.1c.3.88.64,1.71,1,2.46l.38.83-.85-.31a8,8,0,0,0-4.55-.23C259,251.77,258.39,252.12,258.33,252Z"/><path class="cls-14" d="M239.81,222.92c.22,0,.32,1.62-.8,3.19s-2.68,2-2.74,1.85,1.13-.93,2.08-2.31S239.58,222.89,239.81,222.92Z"/><path class="cls-9" d="M399.08,321.64S336.36,352.12,321.14,351c-14.84-1.11-42.1-47.41-49-60.3-5.8-10.86-10-20.26-10-20.26l24.5-20,4,3.6,38.78,46.06c4.49,0,43.64-25.43,43.64-25.43s22.38-20.22,30.89-21.5,3.35,17.91,3.35,17.91Z"/><path class="cls-9" d="M533.56,261.87l-37-17.64.94-.61-8.16-13.78-35,25.85-17.12-20.76-8.05,10.53h0L404,253.17l-6,22.76-8.54,20.24c-8,19-7.32,40.09-1.38,59.88l0,.13c5.69,18.7,14.37,21.89,11.22,42.35-.72,4.67-4.1,34.24-4.1,34.24H531.78l-14.32-43.2Z"/><path class="cls-6" d="M394.1,279.17a2.88,2.88,0,0,1,.12.65l.27,1.9c.21,1.72.51,4.11.88,7v.08A217,217,0,0,0,389,313.6c-.89,4.78-1.52,9.38-1.89,13.57a97.09,97.09,0,0,0-.35,11.18,74.82,74.82,0,0,0,.63,7.51c.12.84.22,1.52.3,2a3.82,3.82,0,0,1,.07.72,3.29,3.29,0,0,1-.17-.7c-.1-.51-.24-1.18-.4-2a64.37,64.37,0,0,1-.8-7.53,91.49,91.49,0,0,1,.24-11.23c.35-4.21,1-8.83,1.86-13.62A193.56,193.56,0,0,1,395,288.74v.07c-.3-2.95-.54-5.35-.72-7.06-.07-.79-.12-1.43-.17-1.91A3.08,3.08,0,0,1,394.1,279.17Z"/><path class="cls-6" d="M446.15,431.76a2.78,2.78,0,0,1-.07-.42c0-.3-.09-.7-.16-1.22-.13-1.11-.32-2.7-.56-4.73-.12-1-.25-2.18-.39-3.42s-.21-2.62-.33-4.09-.25-3-.38-4.69-.19-3.42-.3-5.27-.19-3.78-.29-5.79-.11-4.12-.16-6.3c-.16-4.34-.08-9-.11-13.88.11-9.78.49-20.53,1.16-31.8,1.39-22.53,3.48-42.87,5-57.58.76-7.33,1.38-13.28,1.82-17.42.22-2,.39-3.62.51-4.73q.09-.78.15-1.23a1.75,1.75,0,0,1,.07-.42,2.77,2.77,0,0,1,0,.43q0,.45-.09,1.23c-.1,1.11-.24,2.71-.42,4.74-.4,4.15-1,10.1-1.65,17.44-1.4,14.72-3.43,35.05-4.82,57.58-.67,11.25-1.06,22-1.2,31.76,0,4.89-.08,9.53.06,13.88,0,2.17.09,4.26.13,6.28s.17,3.95.26,5.8.13,3.6.26,5.26.23,3.23.34,4.69.2,2.83.29,4.08.24,2.39.34,3.43c.2,2,.36,3.62.46,4.73l.11,1.24A2.66,2.66,0,0,1,446.15,431.76Z"/><path class="cls-6" d="M453.83,256.76s-.32.38-.89,1.09-1.35,1.78-2.27,3.16c-1.83,2.77-4.2,6.79-6.72,11.52l-.21.39-.23-.37c-1-1.58-2-3.28-2.94-5.05-3.24-6-5.9-11.48-8-15.39-1-2-1.89-3.53-2.49-4.62l-.7-1.24a1.72,1.72,0,0,1-.21-.46,2,2,0,0,1,.3.4l.78,1.2c.65,1.06,1.58,2.6,2.65,4.54,2.16,3.88,4.88,9.38,8.11,15.32,1,1.76,2,3.46,2.91,5l-.44,0a120.93,120.93,0,0,1,6.9-11.47,30.58,30.58,0,0,1,2.41-3.09,8.83,8.83,0,0,1,.74-.75C453.72,256.83,453.82,256.75,453.83,256.76Z"/><path class="cls-6" d="M497.54,243.62a2.77,2.77,0,0,1-.45.49l-1.35,1.33c-1.2,1.15-2.95,2.78-5.15,4.76-4.4,4-10.56,9.34-17.53,15.08-2.1,1.72-4.16,3.39-6.14,4.94s-3.88,3-5.75,4.23l-.23.16-.11-.26a47.86,47.86,0,0,1-1.94-7c-.47-2.1-.93-3.92-1.42-5.39a20.63,20.63,0,0,0-1.38-3.3,11.87,11.87,0,0,1-.63-1.12s.08.08.21.25a8.4,8.4,0,0,1,.54.79,17.59,17.59,0,0,1,1.52,3.3,51.54,51.54,0,0,1,1.53,5.38,50.39,50.39,0,0,0,2,6.89l-.34-.11c1.83-1.21,3.72-2.69,5.69-4.24s4-3.22,6.12-4.95c7-5.73,13.16-11.06,17.62-14.94l5.25-4.63L497,244A3,3,0,0,1,497.54,243.62Z"/><path class="cls-6" d="M531.9,264a12.41,12.41,0,0,1-1.32,1c-.43.29-1,.66-1.54,1.13s-1.27,1-1.95,1.6a30.16,30.16,0,0,0-2.23,2.1c-.8.76-1.55,1.66-2.37,2.59a41.27,41.27,0,0,0-7.65,14c-.34,1.19-.69,2.31-.9,3.39a30.35,30.35,0,0,0-.55,3c-.18.92-.21,1.77-.29,2.51a18.19,18.19,0,0,0-.12,1.91,10.64,10.64,0,0,1-.1,1.63,9.29,9.29,0,0,1-.1-1.64,16,16,0,0,1,0-1.92c.05-.75.06-1.6.21-2.54a27.93,27.93,0,0,1,.5-3.05c.19-1.1.53-2.23.86-3.44a43.32,43.32,0,0,1,3.15-7.5,42.52,42.52,0,0,1,4.6-6.7c.83-.93,1.6-1.84,2.42-2.59a27.68,27.68,0,0,1,2.3-2.07,24,24,0,0,1,2-1.55,15.32,15.32,0,0,1,1.6-1.07A9,9,0,0,1,531.9,264Z"/><path class="cls-9" d="M567.32,343.68S559.25,308.42,556.2,295c-5.77-25.36-22.64-33.13-22.64-33.13l-20.31,55.2,12.57,57.64-55.78-8-9.44-2.37-6.8,32.37,17.68,7.19s63,23.71,81.58,21.46,22.33-23.23,22.41-31.88C575.6,378.63,567.32,343.68,567.32,343.68Z"/><path class="cls-2" d="M424,348.88l-23.47-47.42a9.48,9.48,0,0,0-8.51-5.27H333a2.87,2.87,0,0,0-2.55,4.23l39.92,73.91a6.43,6.43,0,0,0,5.66,3.36h61.17Z"/><path class="cls-6" d="M419.53,348a1.88,1.88,0,0,1-.15-.26L419,347c-.38-.73-.9-1.75-1.56-3.05-1.36-2.69-3.29-6.53-5.66-11.26l-8.33-16.72-4.9-9.89c-.43-.85-.85-1.74-1.29-2.58a8.44,8.44,0,0,0-1.79-2.21,8.32,8.32,0,0,0-5.31-2.07l-41.57-.09L336,299l-3.43-.05-.89,0a1.16,1.16,0,0,1-.3,0l.3,0,.89,0,3.43-.05,12.6-.08,41.58-.07a8.83,8.83,0,0,1,7.54,4.55c.46.89.86,1.74,1.29,2.6,1.69,3.44,3.33,6.75,4.88,9.9,3.09,6.31,5.88,12,8.23,16.78s4.19,8.62,5.51,11.33l1.47,3.1c.15.33.28.6.37.81A1.27,1.27,0,0,1,419.53,348Z"/><path class="cls-1" d="M367.65,312.25a2.89,2.89,0,0,0,1.18,3.75,2.44,2.44,0,0,0,3.84-2.83c-.38-.95-2.1-2.47-3.34-2.13C369.33,311,368,311.48,367.65,312.25Z"/><path class="cls-13" d="M455.93,363s-6-8.61-8.41-11.31-17.1-12.11-17.1-12.11-7.07-9.49-8.15-9.49-4.52.61-3.6,5a67.55,67.55,0,0,0,3.88,12.73l-33.31-1.09c-2,0-4.82.54-5.6,2.44-.95,2.33,1.34,3.93,2.81,4.66,2,1,7.95,2.64,12.14,3.72-.06.12-2.76,5.27,1,7.91s4,3.17,4,3.17.18,5.33,1.81,7.48,19.26,11.16,19.26,11.16,11.27,3.3,17,3,11.57,2.93,12.21,3.11,6.2-26.28,6.2-26.28Z"/><path class="cls-14" d="M419.53,348c0,.31,4,.47,8.8,1s8.84.77,8.86.43-3.86-1-8.75-1.52S419.52,347.7,419.53,348Z"/><path class="cls-14" d="M423.71,361.78c.1-.33-5.61-1.88-12.78-2.7-3.58-.45-6.83-.77-9.16-1s-3.79-.45-3.82-.29,1.37.61,3.7,1.05,5.56.9,9.13,1.35C417.94,361,423.64,362,423.71,361.78Z"/><path class="cls-14" d="M423.71,371.94c0-.33-4.56-.47-10.07-1.42s-9.86-2.3-10-2,4.15,2.13,9.78,3.08S423.73,372.22,423.71,371.94Z"/><path class="cls-14" d="M421.82,383.32c.3.05.76-1.17,1-2.73s.22-2.85-.08-2.9-.76,1.17-1,2.72S421.52,383.27,421.82,383.32Z"/><path class="cls-14" d="M424.63,369.69c.31,0,.47-1,1-2.1s1.21-1.83,1-2.09-1.37.24-2,1.61S424.33,369.74,424.63,369.69Z"/><path class="cls-14" d="M428.2,356.05c.31,0,.63-.62,1-1.36s.7-1.38.49-1.61-1,.18-1.48,1.12S427.9,356,428.2,356.05Z"/><path class="cls-6" d="M525.82,420.89l-.36-.07-1.05-.23c-.92-.21-2.3-.52-4.06-1-3.53-.94-8.63-2.49-15-4.56-12.8-4.15-30.74-10.42-51.6-18.12l-.2-.07,0-.21,6.79-32.37,0-.26.26.06,5.95,1.5,3.5.88h0L525.67,374l-.25.26c-3.49-16.31-6.4-29.87-8.44-39.39-1-4.73-1.78-8.45-2.32-11l-.6-2.9c-.13-.66-.18-1-.18-1s.1.33.25,1,.37,1.63.66,2.89c.57,2.55,1.4,6.27,2.45,11l8.62,39.35.07.31-.32,0L470,366.94h0l-3.5-.88-5.94-1.5.32-.2c-2.4,11.4-4.71,22.34-6.82,32.37l-.15-.28c20.84,7.72,38.76,14.06,51.52,18.28,6.38,2.11,11.47,3.71,15,4.69,1.75.52,3.11.85,4,1.09l1,.27Z"/><path class="cls-6" d="M540.9,385.3c-.08,0-.61-.91-1.68-2.3a23.48,23.48,0,0,0-10.88-7.91c-1.64-.58-2.72-.8-2.7-.88s.28,0,.77.06a13.82,13.82,0,0,1,2.05.47,21,21,0,0,1,11.06,8,13.79,13.79,0,0,1,1.08,1.8C540.83,385,540.93,385.28,540.9,385.3Z"/></g></g></svg>