<svg xmlns="http://www.w3.org/2000/svg" viewBox="0 0 683.27 441.58"><defs><style>.cls-1{fill:#f5f5f5;}.cls-2{fill:#e0e0e0;}.cls-3{fill:#ebebeb;}.cls-4{fill:#fafafa;}.cls-5{fill:#fff;}.cls-6{fill:#263238;}.cls-7{fill:#ff725e;}.cls-8{fill:#455a64;}.cls-9{opacity:0.4;}.cls-10{fill:none;}.cls-11{fill:#65463c;}.cls-12{fill:#ffbf9d;}.cls-13{fill:#ff9a6c;}.cls-14{opacity:0.3;}</style></defs><g id="Camada_2" data-name="Camada 2"><g id="Background_Complete" data-name="Background Complete"><rect class="cls-1" x="378.68" y="379.37" width="30.2" height="35.9" transform="translate(787.56 794.64) rotate(180)"/><rect class="cls-2" x="407.84" y="377.03" width="136.47" height="40.5" transform="translate(952.15 794.56) rotate(180)"/><path class="cls-2" d="M377.77,380.43H411.5V377H377.77a1.71,1.71,0,0,0-1.71,1.7h0A1.71,1.71,0,0,0,377.77,380.43Z"/><path class="cls-2" d="M377.77,417.53H411.5v-3.41H377.77a1.71,1.71,0,0,0-1.71,1.7h0A1.71,1.71,0,0,0,377.77,417.53Z"/><rect class="cls-1" x="418.57" y="377.03" width="16.12" height="40.5"/><rect class="cls-3" x="515.21" y="377.48" width="16.12" height="40.5"/><path class="cls-2" d="M378.68,385.31c0,.1,6.54.18,14.6.18s14.6-.08,14.6-.18-6.54-.18-14.6-.18S378.68,385.21,378.68,385.31Z"/><path class="cls-2" d="M378.68,390.69c0,.1,6.54.18,14.6.18s14.6-.08,14.6-.18-6.54-.18-14.6-.18S378.68,390.59,378.68,390.69Z"/><path class="cls-2" d="M378.68,397.32c0,.1,6.54.18,14.6.18s14.6-.08,14.6-.18-6.54-.18-14.6-.18S378.68,397.22,378.68,397.32Z"/><path class="cls-2" d="M378.68,404c0,.1,6.54.18,14.6.18s14.6-.08,14.6-.18-6.54-.18-14.6-.18S378.68,403.85,378.68,404Z"/><path class="cls-2" d="M378.68,410.58c0,.1,6.54.18,14.6.18s14.6-.08,14.6-.18-6.54-.18-14.6-.18S378.68,410.48,378.68,410.58Z"/><rect class="cls-3" x="443.36" y="393.67" width="61.4" height="7.29" transform="translate(948.12 794.64) rotate(180)"/><rect class="cls-4" x="369.77" y="418.32" width="30.66" height="21.87" transform="translate(770.21 858.52) rotate(180)"/><rect class="cls-3" x="400.09" y="417.53" width="130.49" height="23.46" transform="translate(930.67 858.52) rotate(180)"/><path class="cls-3" d="M401,419.11h-33a.79.79,0,0,1-.79-.79h0a.79.79,0,0,1,.79-.79h33Z"/><path class="cls-3" d="M367.29,439.4h33.33a.42.42,0,0,1,.42.42v.75a.42.42,0,0,1-.42.42H367.29a0,0,0,0,1,0,0V439.4A0,0,0,0,1,367.29,439.4Z" transform="translate(768.33 880.39) rotate(180)"/><path class="cls-2" d="M369.77,422.48c0,.1,6.79.18,15.16.18s15.16-.08,15.16-.18-6.78-.18-15.16-.18S369.77,422.38,369.77,422.48Z"/><path class="cls-2" d="M369.77,426.62c0,.09,6.79.17,15.16.17s15.16-.08,15.16-.17-6.78-.18-15.16-.18S369.77,426.52,369.77,426.62Z"/><path class="cls-2" d="M369.77,430.75c0,.1,6.79.18,15.16.18s15.16-.08,15.16-.18-6.78-.18-15.16-.18S369.77,430.65,369.77,430.75Z"/><path class="cls-2" d="M369.77,434.89c0,.1,6.79.18,15.16.18s15.16-.08,15.16-.18-6.78-.18-15.16-.18S369.77,434.79,369.77,434.89Z"/><rect class="cls-2" x="7.71" y="16.97" width="153.28" height="222.17"/><rect class="cls-1" x="0.03" y="16.97" width="153.28" height="222.17"/><rect class="cls-5" x="19.07" y="41.04" width="115.19" height="174.05"/><path class="cls-2" d="M134.26,215.08s0-.29,0-.85,0-1.39,0-2.46c0-2.19,0-5.39-.05-9.55,0-8.34-.06-20.5-.1-35.85,0-30.69-.11-74.15-.19-125.33l.38.38-115.17,0h0l.42-.41c0,65.65-.06,126.19-.09,174l-.33-.33,83.85.18,23.16.08,6.08,0,2.1,0s-.67,0-2,0l-6,0-23.09.08-84.05.18h-.33v-.34c0-47.85,0-108.39-.09-174v-.42h.44l115.17,0h.39V41c-.08,51.28-.15,94.82-.19,125.58-.05,15.32-.08,27.44-.1,35.76,0,4.13,0,7.3-.05,9.47,0,1.06,0,1.86,0,2.43S134.26,215.08,134.26,215.08Z"/><path class="cls-2" d="M153.74,17a26.33,26.33,0,0,1-2.73,4c-1.78,2.38-4.31,5.62-7.2,9.12s-5.58,6.61-7.57,8.81a26.32,26.32,0,0,1-3.37,3.44,28.78,28.78,0,0,1,2.92-3.82c2.06-2.49,4.58-5.56,7.38-9l7.37-9A29,29,0,0,1,153.74,17Z"/><path class="cls-5" d="M134.85,214.52a142.72,142.72,0,0,0,20.09,25.13"/><path class="cls-2" d="M154.94,239.65a23,23,0,0,1-3.5-3.19,110.37,110.37,0,0,1-7.58-8.54,109.07,109.07,0,0,1-6.67-9.28,22.93,22.93,0,0,1-2.34-4.12,31.4,31.4,0,0,1,2.83,3.79c1.69,2.37,4.06,5.62,6.83,9.09s5.42,6.49,7.36,8.66A30.74,30.74,0,0,1,154.94,239.65Z"/><path class="cls-5" d="M0,239,20.08,214.2"/><path class="cls-2" d="M20.08,214.2c.18.15-4.17,5.81-9.71,12.65S.18,239.12,0,239s4.17-5.81,9.71-12.65S19.9,214.06,20.08,214.2Z"/><path class="cls-2" d="M0,17c.18-.14,4.54,5.08,9.74,11.65s9.27,12,9.09,12.17-4.54-5.07-9.74-11.65S-.15,17.12,0,17Z"/><rect class="cls-2" x="59.8" y="76.38" width="38.57" height="109.51"/><rect class="cls-3" x="297.32" y="390.53" width="48.65" height="12.87"/><path class="cls-2" d="M325.4,417a1,1,0,0,1,0-.23c0-.17,0-.39,0-.66,0-.61,0-1.45,0-2.53,0-2.23-.05-5.42-.09-9.45l.16.15-48.65.1c.1-.11-.25.25.24-.25h0v6.52q0,3.22,0,6.33l-.24-.24,34.67.11,10.24.07,2.76,0,.73,0h.26l-.23,0h-.69l-2.72,0-10.18.07-34.84.11h-.24v-6.58c0-1.07,0-2.16,0-3.25V404.1h0l.26-.25,48.65.1h.15v.15c0,4.07-.07,7.29-.09,9.54,0,1.06,0,1.9,0,2.49,0,.26,0,.47,0,.64A1.23,1.23,0,0,1,325.4,417Z"/><rect class="cls-3" x="25" y="286.94" width="48.65" height="12.87"/><path class="cls-2" d="M53.08,313.36a1,1,0,0,1,0-.23c0-.17,0-.39,0-.66,0-.61,0-1.45,0-2.53,0-2.22,0-5.42-.08-9.45l.15.15-48.65.1c.11-.11-.25.25.24-.25h0v12.86l-.25-.24,34.68.11,10.23.07,2.77,0,.72,0h.26s-.07,0-.23,0l-.69,0-2.72,0-10.18.07-34.84.11H4.18V300.5h0c.49-.49.14-.13.25-.24l48.65.09h.15v.15c0,4.07-.07,7.29-.09,9.54,0,1.07,0,1.9,0,2.5,0,.26,0,.46,0,.63A1.23,1.23,0,0,1,53.08,313.36Z"/><path class="cls-2" d="M676.49,284a1,1,0,0,1,0-.23v-.66c0-.61,0-1.45,0-2.54,0-2.22,0-5.41-.08-9.44l.15.15-48.65.1c.11-.11-.25.25.24-.25h0V284l-.24-.24,34.67.11,10.23.07,2.77,0,.72,0h.26l-.23,0h-.69l-2.71,0-10.18.07-34.84.11h-.25V271.17h0l.25-.25,48.65.1h.15v.15c0,4.07-.06,7.29-.08,9.53,0,1.07,0,1.91,0,2.5l0,.64A1.23,1.23,0,0,1,676.49,284Z"/><path class="cls-2" d="M683.09,271.15a.77.77,0,0,1,0-.25c0-.18,0-.4,0-.68,0-.63,0-1.49,0-2.58,0-2.25,0-5.44-.09-9.36l.18.18-29.23.07c-.23.22.3-.31.24-.25h0v6.61c0,2.15,0,4.24,0,6.24l-.24-.24,20.91.12,6.1.06,1.64,0,.59,0a3.43,3.43,0,0,1-.53,0l-1.6,0-6,.06-21.07.12h-.23v-.24c0-2,0-4.09,0-6.24V258.3h0c-.06.05.47-.47.25-.25l29.23.07h.18v.18c0,4-.07,7.19-.09,9.47,0,1.07,0,1.92,0,2.54S683.1,271.16,683.09,271.15Z"/><path class="cls-2" d="M670.16,78.35a1.35,1.35,0,0,1,0-.24c0-.17,0-.39,0-.66,0-.6,0-1.45,0-2.53,0-2.22-.05-5.42-.08-9.44l.15.15-48.65.09.24-.24h0V78.35l-.24-.25,34.67.11,10.23.07,2.77,0,.72,0,.26,0h-.23l-.69,0-2.72,0-10.17.07-34.84.11h-.25V65.5h0l.25-.25,48.65.09h.15v.16c0,4.06-.06,7.29-.08,9.53,0,1.07,0,1.9,0,2.5l0,.63A1.66,1.66,0,0,1,670.16,78.35Z"/><path class="cls-2" d="M676.75,65.48s0-.09,0-.25,0-.41,0-.68c0-.64,0-1.5-.05-2.58,0-2.26,0-5.45-.09-9.37l.17.18-29.23.07c-.22.22.3-.3.25-.24h0v6.6q0,3.24,0,6.24l-.24-.23,20.91.11,6.1.07,1.64,0a4.55,4.55,0,0,1,.58,0l-.53,0-1.59,0-6,.07-21.07.11h-.23v-.24q0-3,0-6.24v-6.6h0l.25-.25,29.23.07h.18v.17c0,4-.07,7.19-.09,9.48,0,1.07,0,1.91-.05,2.54A5,5,0,0,1,676.75,65.48Z"/><path class="cls-2" d="M220.6,26a1,1,0,0,1,0-.23v-.66c0-.6,0-1.45,0-2.53,0-2.22-.05-5.42-.08-9.45l.15.15-48.65.1c.11-.11-.25.25.24-.25h0V26L172,25.8l34.67.11,10.23.07,2.77,0,.72,0h.26s-.07,0-.23,0l-.69,0-2.71,0-10.18.07L172,26.29h-.25V13.18h0l.25-.24L220.6,13h.15v.15c0,4.07-.06,7.29-.08,9.54,0,1.07,0,1.9,0,2.5l0,.63A1.23,1.23,0,0,1,220.6,26Z"/><path class="cls-2" d="M227.2,13.17a.68.68,0,0,1,0-.24c0-.19,0-.41,0-.68,0-.64,0-1.5,0-2.58,0-2.26-.05-5.45-.09-9.37l.18.18L198,.55c-.23.22.3-.3.24-.25h0V6.93c0,2.16,0,4.24,0,6.24l-.24-.23,20.92.11,6.09.07,1.64,0,.59,0a3.43,3.43,0,0,1-.53,0l-1.6,0-6,.07L198,13.41h-.23v-.24c0-2,0-4.08,0-6.24V.31h0L198,.05,227.2.12h.18V.3c0,4-.07,7.19-.09,9.47,0,1.07,0,1.92-.05,2.55A8.46,8.46,0,0,1,227.2,13.17Z"/></g><g id="Desk"><path class="cls-6" d="M676.69,441.32c0,.14-147,.26-328.38.26s-328.42-.12-328.42-.26,147-.26,328.42-.26S676.69,441.18,676.69,441.32Z"/></g><g id="Book"><rect class="cls-7" x="481.03" y="410.07" width="149.95" height="12.84"/><rect class="cls-5" x="619.73" y="410.07" width="2.55" height="12.84"/><rect class="cls-5" x="614.35" y="410.07" width="2.55" height="12.84"/><rect class="cls-5" x="494.92" y="410.07" width="2.55" height="12.84"/><rect class="cls-5" x="489.54" y="410.07" width="2.55" height="12.84"/><path class="cls-5" d="M600.53,420a4.38,4.38,0,0,0,.49-.07,2.43,2.43,0,0,0,1.79-1.62,3,3,0,0,0,.08-1.28,2.34,2.34,0,0,0-.66-1.32,2.4,2.4,0,0,0-1.51-.7L580,415l-68.49,0a2.32,2.32,0,0,0-2,1.12,2.47,2.47,0,0,0-.33,1.12,2.56,2.56,0,0,0,.19,1.17,2.32,2.32,0,0,0,1.78,1.38,9.71,9.71,0,0,0,1.21,0h29l30.79,0,20.76,0,5.64,0H600l.5,0h-2l-5.64,0-20.76,0-30.79,0h-29c-.41,0-.81,0-1.24,0a2.57,2.57,0,0,1-2-1.51,2.88,2.88,0,0,1-.2-1.26,2.48,2.48,0,0,1,.36-1.24,2.57,2.57,0,0,1,2.18-1.23l68.49,0,20.76,0A2.47,2.47,0,0,1,603,417a3,3,0,0,1-.1,1.31,2.51,2.51,0,0,1-.56.93,2.47,2.47,0,0,1-1.27.7l-.38,0Z"/><rect class="cls-8" x="488.36" y="422.76" width="139.23" height="18.38"/><rect class="cls-3" x="488.36" y="425.03" width="139.23" height="13.04"/><path class="cls-6" d="M626.38,425.39c0,.06-30.68.11-68.52.11s-68.52-.05-68.52-.11,30.67-.11,68.52-.11S626.38,425.33,626.38,425.39Z"/><path class="cls-6" d="M626.38,429.28c0,.07-30.68.12-68.52.12s-68.52,0-68.52-.12,30.67-.11,68.52-.11S626.38,429.22,626.38,429.28Z"/><path class="cls-6" d="M626.38,433.18c0,.06-30.68.11-68.52.11s-68.52-.05-68.52-.11,30.67-.11,68.52-.11S626.38,433.12,626.38,433.18Z"/><path class="cls-6" d="M626.38,437.07c0,.06-30.68.11-68.52.11s-68.52-.05-68.52-.11S520,437,557.86,437,626.38,437,626.38,437.07Z"/><rect class="cls-4" x="494.98" y="372.34" width="19.09" height="36.16" transform="translate(1009.04 780.85) rotate(180)"/><rect class="cls-8" x="514.06" y="371.07" width="102.41" height="39.21" transform="translate(1130.54 781.35) rotate(180)"/><path class="cls-8" d="M493.49,410.28h23v-2.54h-23a1.27,1.27,0,0,0-1.28,1.27h0A1.27,1.27,0,0,0,493.49,410.28Z"/><path class="cls-8" d="M492.21,371.07h23.2a1.1,1.1,0,0,1,1.1,1.1v.34a1.1,1.1,0,0,1-1.1,1.1h-23.2a0,0,0,0,1,0,0v-2.54A0,0,0,0,1,492.21,371.07Z" transform="translate(1008.73 744.68) rotate(180)"/><path class="cls-2" d="M495,377.19c0,.06,4.27.11,9.54.11s9.54-.05,9.54-.11-4.27-.11-9.54-.11S495,377.13,495,377.19Z"/><path class="cls-2" d="M495,381.83c0,.06,4.27.11,9.54.11s9.54-.05,9.54-.11-4.27-.11-9.54-.11S495,381.77,495,381.83Z"/><path class="cls-2" d="M495,386.47c0,.06,4.27.1,9.54.1s9.54,0,9.54-.1-4.27-.11-9.54-.11S495,386.41,495,386.47Z"/><path class="cls-2" d="M495,391.1c0,.06,4.27.11,9.54.11s9.54,0,9.54-.11-4.27-.11-9.54-.11S495,391,495,391.1Z"/><path class="cls-2" d="M495,395.74c0,.06,4.27.11,9.54.11s9.54-.05,9.54-.11-4.27-.11-9.54-.11S495,395.68,495,395.74Z"/><path class="cls-2" d="M495,400.38c0,.06,4.27.11,9.54.11s9.54-.05,9.54-.11-4.27-.11-9.54-.11S495,400.32,495,400.38Z"/><path class="cls-2" d="M495,405c0,.06,4.27.11,9.54.11s9.54-.05,9.54-.11-4.27-.11-9.54-.11S495,405,495,405Z"/><rect class="cls-5" x="528.8" y="387.35" width="74.94" height="6.62"/></g><g id="Plant"><polygon class="cls-7" points="9.93 390.58 17.65 441.32 62.51 441.32 72.92 391.31 9.93 390.58"/><path class="cls-4" d="M66.65,423.1c0,.15-11.5.26-25.67.26s-25.68-.11-25.68-.26,11.5-.26,25.68-.26S66.65,423,66.65,423.1Z"/><path class="cls-4" d="M66.82,420.6c0,.15-11.57.27-25.84.27s-25.85-.12-25.85-.27,11.57-.26,25.85-.26S66.82,420.46,66.82,420.6Z"/><path class="cls-4" d="M66.73,417.79c0,.14-11.57.26-25.84.26S15,417.93,15,417.79s11.57-.27,25.85-.27S66.73,417.64,66.73,417.79Z"/><path class="cls-4" d="M22.8,438.43a82.49,82.49,0,0,1-2.23-12.87A41,41,0,0,1,22,432,40.05,40.05,0,0,1,22.8,438.43Z"/><path class="cls-4" d="M25.85,437.89a51,51,0,0,1-.55-6.24A49.08,49.08,0,0,1,25,425.4a30.41,30.41,0,0,1,.81,6.22A29.23,29.23,0,0,1,25.85,437.89Z"/><path class="cls-4" d="M31.42,437.89a30.91,30.91,0,0,1-1.17-6.4,31.29,31.29,0,0,1-.34-6.48,56.64,56.64,0,0,1,.86,6.42A57.08,57.08,0,0,1,31.42,437.89Z"/><path class="cls-4" d="M35.32,438.15a51.83,51.83,0,0,1-.42-13,55.3,55.3,0,0,1,.33,6.5A55.75,55.75,0,0,1,35.32,438.15Z"/><path class="cls-4" d="M42.23,437.89a38.06,38.06,0,0,1-.47-6.17,36.83,36.83,0,0,1,.05-6.18,70.83,70.83,0,0,1,.42,12.35Z"/><path class="cls-4" d="M47.28,438.15a38,38,0,0,1-.21-6.37,40,40,0,0,1,.31-6.37,38.61,38.61,0,0,1,.22,6.37A37.92,37.92,0,0,1,47.28,438.15Z"/><path class="cls-4" d="M52,437.48A86.81,86.81,0,0,1,53.3,424.2a40.92,40.92,0,0,1-.38,6.66A42.22,42.22,0,0,1,52,437.48Z"/><path class="cls-4" d="M58.12,436.81a34.76,34.76,0,0,1,2.42-11.13,52.3,52.3,0,0,1-1.15,5.58A52.74,52.74,0,0,1,58.12,436.81Z"/><path class="cls-8" d="M53.8,290.46a1.49,1.49,0,0,1-.06.25l-.21.72c-.21.66-.49,1.58-.85,2.74s-.84,2.63-1.32,4.34-1.08,3.62-1.62,5.78-1.18,4.51-1.74,7.07-1.15,5.29-1.73,8.17c-1.08,5.78-2.06,12.18-2.75,18.93s-1,13.23-1.05,19.11c0,2.94,0,5.74.08,8.36s.19,5.05.32,7.27.3,4.22.44,6,.29,3.28.43,4.51.23,2.16.3,2.86c0,.3.05.54.06.74a1.29,1.29,0,0,1,0,.26,1,1,0,0,1-.06-.25c0-.2-.07-.44-.12-.74-.09-.69-.22-1.64-.39-2.84s-.37-2.75-.52-4.51-.4-3.77-.52-6-.32-4.66-.39-7.28-.11-5.42-.13-8.37c.07-5.9.36-12.38,1-19.16s1.7-13.18,2.8-19c.6-2.89,1.14-5.64,1.78-8.18s1.22-4.92,1.82-7.07,1.18-4.07,1.69-5.77,1-3.14,1.4-4.32.72-2.05,1-2.71c.11-.28.19-.51.26-.7A.88.88,0,0,1,53.8,290.46Z"/><path class="cls-8" d="M45.7,321.88a16.64,16.64,0,0,1,7-8.81c1.12-.69,2.52-1.25,3.69-.68,1.57.76,1.69,3,1.23,4.63a12.28,12.28,0,0,1-5.08,6.92,10.34,10.34,0,0,1-7.62,1.93"/><path class="cls-8" d="M43,343.09c1.15-4.38,4.65-10.6,8.28-13.31a5.28,5.28,0,0,1,1.88-1,2.2,2.2,0,0,1,2,.44,3.09,3.09,0,0,1,.45,2.91,17.65,17.65,0,0,1-13.09,13.17"/><path class="cls-8" d="M42.22,361.77a25.74,25.74,0,0,1,8.36-10.51,4,4,0,0,1,2.91-1c1.59.29,2.31,2.23,2.17,3.83-.29,3.3-2.82,5.95-5.42,8a33.46,33.46,0,0,1-7.73,4"/><path class="cls-8" d="M42.65,375.19a24.67,24.67,0,0,1,7.1-8.09,5.24,5.24,0,0,1,2.14-1,2.19,2.19,0,0,1,2.09.8c.71,1.05,0,2.46-.73,3.47a20.3,20.3,0,0,1-10.14,7.44"/><path class="cls-8" d="M42.29,369.74a78.86,78.86,0,0,0-10.16-10.35c-.58-.49-1.31-1-2-.77a1.52,1.52,0,0,0-.94,1.37,3.87,3.87,0,0,0,.39,1.69,19.69,19.69,0,0,0,13.09,11"/><path class="cls-8" d="M42.62,352.27q-4-4.87-8-9.73A9.46,9.46,0,0,0,32,340.08a3.25,3.25,0,0,0-3.4,0,3.22,3.22,0,0,0-1.1,3.21,8.52,8.52,0,0,0,1.56,3.2,23.8,23.8,0,0,0,5.82,6.18c2.34,1.61,4.48,2.66,7.29,2.25"/><path class="cls-8" d="M43.73,332.6a27.89,27.89,0,0,0-8-12.06,4.59,4.59,0,0,0-2.09-1.22c-1.6-.31-3.14,1-3.66,2.57a6.55,6.55,0,0,0,.73,5.29,13.86,13.86,0,0,0,3.75,4,32,32,0,0,0,8.88,4.8"/><path class="cls-8" d="M46.92,315.06c-.77-5.64-3.71-10.33-7.12-14.9-.71-1-1.71-2-2.9-1.8a2.28,2.28,0,0,0-1.67,1.43,5.35,5.35,0,0,0-.31,2.25,17.4,17.4,0,0,0,11.31,15.57"/><path class="cls-8" d="M49.15,306.11a46.34,46.34,0,0,1-.29-8.73,15.6,15.6,0,0,1,2.9-8.12,6.61,6.61,0,0,1,2.9-2.31,3.64,3.64,0,0,1,3.55.47,3.85,3.85,0,0,1,1.22,3.13,9.59,9.59,0,0,1-.9,3.34c-2.12,5.12-5.67,10.79-9.38,12.22"/><path class="cls-6" d="M14.37,312.83a3.68,3.68,0,0,1,0,.72c0,.52,0,1.2,0,2.05s0,2,.05,3.24,0,2.69.15,4.28c.14,3.17.45,6.95.93,11.12s1.23,8.73,2.21,13.47,2.19,9.21,3.39,13.23,2.47,7.6,3.62,10.56c.54,1.49,1.11,2.81,1.58,4s.89,2.18,1.25,3l.81,1.88a3.68,3.68,0,0,1,.24.68,5.56,5.56,0,0,1-.34-.63l-.89-1.85c-.39-.8-.85-1.79-1.34-2.95s-1.09-2.48-1.66-4c-1.19-2.95-2.47-6.53-3.73-10.54s-2.44-8.51-3.45-13.27-1.68-9.34-2.17-13.53-.73-8-.82-11.15c-.08-1.59-.06-3-.08-4.3s0-2.35,0-3.24.06-1.53.08-2.05A3.42,3.42,0,0,1,14.37,312.83Z"/><path class="cls-6" d="M15.62,336a11.88,11.88,0,0,1,2.85-7.5,2.87,2.87,0,0,1,2.37-1.26c1.23.18,1.79,1.65,1.83,2.89a8.77,8.77,0,0,1-2,5.81,7.41,7.41,0,0,1-4.77,2.95"/><path class="cls-6" d="M18.33,351c-.15-3.23.89-8.22,2.77-10.85a3.83,3.83,0,0,1,1.07-1.09,1.59,1.59,0,0,1,1.46-.14,2.23,2.23,0,0,1,.94,1.89,12.6,12.6,0,0,1-6.08,11.78"/><path class="cls-6" d="M21.84,363.87a18.34,18.34,0,0,1,3.43-8.95A2.84,2.84,0,0,1,27,353.59c1.14-.15,2,1,2.29,2.14.52,2.31-.63,4.66-2,6.61A23.83,23.83,0,0,1,23,366.71"/><path class="cls-6" d="M25,372.92a17.63,17.63,0,0,1,3.09-7,3.69,3.69,0,0,1,1.25-1.11,1.56,1.56,0,0,1,1.6.1c.71.55.55,1.66.25,2.52a14.52,14.52,0,0,1-5.31,7.24"/><path class="cls-6" d="M23.6,369.29a56.4,56.4,0,0,0-9.14-4.87,1.65,1.65,0,0,0-1.55-.08,1.07,1.07,0,0,0-.34,1.13,2.71,2.71,0,0,0,.63,1.07,14.05,14.05,0,0,0,11.28,4.68"/><path class="cls-6" d="M20.06,357.32l-7.53-4.91a6.86,6.86,0,0,0-2.29-1.11,2.33,2.33,0,0,0-2.33.7,2.31,2.31,0,0,0,0,2.43,6,6,0,0,0,1.75,1.84,16.92,16.92,0,0,0,5.29,3c1.94.6,3.62.85,5.45,0"/><path class="cls-6" d="M16.59,343.69a20,20,0,0,0-8.07-6.48,3.35,3.35,0,0,0-1.69-.38,2.51,2.51,0,0,0-1.94,2.54,4.71,4.71,0,0,0,1.64,3.44,9.83,9.83,0,0,0,3.41,1.89A23,23,0,0,0,17,346.06"/><path class="cls-6" d="M15,331.07c-1.74-3.68-4.75-6.24-8-8.62a2.43,2.43,0,0,0-2.36-.6,1.64,1.64,0,0,0-.83,1.33,3.83,3.83,0,0,0,.27,1.6A12.45,12.45,0,0,0,15.06,333"/><path class="cls-6" d="M14.58,324.49a32.91,32.91,0,0,1-2.08-5.88,11.21,11.21,0,0,1,.22-6.16,4.76,4.76,0,0,1,1.48-2.19,2.61,2.61,0,0,1,2.52-.45,2.78,2.78,0,0,1,1.51,1.87,6.83,6.83,0,0,1,.1,2.47c-.34,3.94-1.54,8.57-3.75,10.34"/><path class="cls-8" d="M71.08,312.34a3.71,3.71,0,0,1,.07.71c0,.53,0,1.21.07,2.05s.06,2,0,3.25,0,2.7-.08,4.29c-.09,3.19-.36,7-.81,11.16s-1.19,8.77-2.18,13.53-2.21,9.23-3.44,13.26-2.54,7.6-3.74,10.55c-.56,1.49-1.16,2.8-1.65,4s-1,2.15-1.34,2.95l-.9,1.85a2.6,2.6,0,0,1-.34.62,3.48,3.48,0,0,1,.25-.67c.2-.48.47-1.1.8-1.88s.79-1.81,1.26-3,1-2.49,1.58-4c1.14-3,2.38-6.54,3.61-10.56s2.39-8.49,3.4-13.23,1.69-9.31,2.2-13.47.79-7.95.93-11.12c.11-1.59.12-3,.16-4.29s0-2.35,0-3.24,0-1.52,0-2A5.07,5.07,0,0,1,71.08,312.34Z"/><path class="cls-8" d="M69.83,335.48A11.86,11.86,0,0,0,67,328a2.85,2.85,0,0,0-2.36-1.26c-1.23.18-1.79,1.65-1.84,2.89a8.83,8.83,0,0,0,2,5.81,7.38,7.38,0,0,0,4.77,2.94"/><path class="cls-8" d="M67.12,350.51c.16-3.23-.88-8.23-2.77-10.85a3.71,3.71,0,0,0-1.07-1.09,1.58,1.58,0,0,0-1.46-.14,2.21,2.21,0,0,0-.93,1.88A12.61,12.61,0,0,0,67,352.1"/><path class="cls-8" d="M63.61,363.38a18.32,18.32,0,0,0-3.42-8.95,2.83,2.83,0,0,0-1.76-1.33c-1.14-.15-2,1-2.3,2.14-.52,2.31.63,4.65,2,6.61a24.16,24.16,0,0,0,4.41,4.37"/><path class="cls-8" d="M60.44,372.43a17.65,17.65,0,0,0-3.1-7,3.69,3.69,0,0,0-1.25-1.11,1.56,1.56,0,0,0-1.59.09c-.71.56-.55,1.67-.25,2.52a14.42,14.42,0,0,0,5.3,7.25"/><path class="cls-8" d="M61.85,368.79A57.23,57.23,0,0,1,71,363.93a1.6,1.6,0,0,1,1.54-.08,1.07,1.07,0,0,1,.34,1.13,2.78,2.78,0,0,1-.63,1.07A14.05,14.05,0,0,1,61,370.73"/><path class="cls-8" d="M65.39,356.83l7.53-4.91a6.85,6.85,0,0,1,2.29-1.11,2.33,2.33,0,0,1,2.33.7,2.29,2.29,0,0,1,0,2.42,6,6,0,0,1-1.75,1.85,16.71,16.71,0,0,1-5.29,3c-1.94.6-3.62.85-5.44,0"/><path class="cls-8" d="M68.87,343.2a19.84,19.84,0,0,1,8.06-6.48,3.27,3.27,0,0,1,1.69-.38,2.5,2.5,0,0,1,1.94,2.54,4.71,4.71,0,0,1-1.63,3.44,10,10,0,0,1-3.41,1.89,22.84,22.84,0,0,1-7.08,1.35"/><path class="cls-8" d="M70.47,330.57c1.74-3.67,4.75-6.24,8-8.61a2.48,2.48,0,0,1,2.37-.61,1.68,1.68,0,0,1,.83,1.34,3.87,3.87,0,0,1-.28,1.6,12.44,12.44,0,0,1-11,8.17"/><path class="cls-8" d="M70.88,324A33.67,33.67,0,0,0,73,318.12a11.12,11.12,0,0,0-.22-6.16,4.84,4.84,0,0,0-1.48-2.2,2.62,2.62,0,0,0-2.52-.44,2.74,2.74,0,0,0-1.5,1.87,7.06,7.06,0,0,0-.11,2.47c.35,3.94,1.54,8.56,3.76,10.34"/><path class="cls-7" d="M4.78,380.53V390a3.75,3.75,0,0,0,3.74,3.74h65A3.74,3.74,0,0,0,77.21,390v-9.5Z"/><g class="cls-9"><polygon points="10.41 393.77 10.95 396.79 70.89 401.06 72.41 393.77 10.41 393.77"/></g></g><g id="Slate_Board" data-name="Slate Board"><rect class="cls-5" x="222.28" y="16.97" width="416.03" height="315.61"/><path class="cls-2" d="M644.87,339.15h-426V13.05h426Zm-419.43-6.57H638.31v-313H225.44Z"/><path class="cls-10" d="M644.87,339.15h-426V13.05h426Zm-419.43-6.57H638.31v-313H225.44Z"/><path class="cls-6" d="M225.44,332.58c0-1.77-.08-123.68-.21-313V19.4h.21l412.83,0h.3v.26c0,112.59,0,219.19,0,313v.24h-.23l-412.87-.24,412.87-.23-.24.23c0-93.77,0-200.37,0-313l.26.26h0l-412.83-.05.22-.21C225.53,208.9,225.44,330.81,225.44,332.58Z"/><path class="cls-6" d="M644.87,339.15c0-1.78-.08-129-.21-326.1l.21.21-426,.05h0l.26-.26c0,117.4,0,228.51,0,326.1l-.23-.24,426,.24-426,.23h-.24v-.23c0-97.59,0-208.7,0-326.1v-.26h.3l426,.05h.22v.21C645,210.15,644.87,337.37,644.87,339.15Z"/><path class="cls-6" d="M531,274.18a33.83,33.83,0,0,0-8.6,29.66c.25,1.25,2.16.72,1.91-.53a31.74,31.74,0,0,1,8.09-27.73c.88-.92-.52-2.33-1.4-1.4Z"/><path class="cls-6" d="M538.26,287.06a2,2,0,0,1-1-.59,9.21,9.21,0,0,1-1.09.44,2.69,2.69,0,0,1-.8.15,3.16,3.16,0,0,1-2.43-.86,4.14,4.14,0,0,1,.39-5.38,4,4,0,0,1,2.86-1.15,3.83,3.83,0,0,1,1.48.36c.68.29,1,.62,1,1a.6.6,0,0,1-.16.42,4.43,4.43,0,0,0-.1.66,8.89,8.89,0,0,0,0,.95,6.56,6.56,0,0,0,.18,1.83l.31.69a3.52,3.52,0,0,1,.27.65.74.74,0,0,1-.28.59A.91.91,0,0,1,538.26,287.06Zm-1.66-4.54a4.57,4.57,0,0,1,0-.49c0-.19,0-.39.09-.62a1.12,1.12,0,0,0-.24-.1l-.18,0a2.17,2.17,0,0,0-1.6.71,2.34,2.34,0,0,0-.69,1.66,2.31,2.31,0,0,0,.33,1.36,1.09,1.09,0,0,0,1,.45,2.26,2.26,0,0,0,.79-.13,2.67,2.67,0,0,0,.71-.41A19.84,19.84,0,0,1,536.6,282.52Z"/><path class="cls-6" d="M559.39,281.59a.82.82,0,0,1-.92-.81c-.07-.46-.13-.93-.19-1.39a10,10,0,0,1-.1-1.39c0-.12,0-.32,0-.6s0-.49,0-.6,0-.11,0-.24,0-.23,0-.31c0-.38-.09-.56-.27-.56a1.51,1.51,0,0,0-1.13.74,5.56,5.56,0,0,0-.87,1.88,5.51,5.51,0,0,1-.05.6,4.26,4.26,0,0,0,0,.61,5.22,5.22,0,0,1,0,.58c0,.26-.05.46-.05.58a.87.87,0,0,1-.26.66,1,1,0,0,1-1.34,0,.89.89,0,0,1-.26-.65,5.22,5.22,0,0,0,0-.58,5.22,5.22,0,0,1,0-.58q0-.66.09-1.83c.07-.78.1-1.39.1-1.83,0-.13,0-.34,0-.61s0-.47,0-.61a.83.83,0,0,1,.27-.63,1,1,0,0,1,.67-.25c.59,0,.9.35.94,1.06v.07a2.93,2.93,0,0,1,2.07-1,1.77,1.77,0,0,1,1.76,1.06,5.56,5.56,0,0,1,.32,2.14V278a7.7,7.7,0,0,0,.14,1.35,7.79,7.79,0,0,1,.14,1.35.83.83,0,0,1-.27.63A.94.94,0,0,1,559.39,281.59Z"/><path class="cls-6" d="M591.74,281.59a.82.82,0,0,1-.92-.81c-.06-.46-.13-.93-.19-1.39a10,10,0,0,1-.1-1.39c0-.12,0-.32,0-.6s0-.49,0-.6,0-.11,0-.24,0-.23,0-.31c0-.38-.09-.56-.27-.56a1.51,1.51,0,0,0-1.13.74,5.55,5.55,0,0,0-.86,1.88q0,.22-.06.6c0,.21,0,.41,0,.61a5.22,5.22,0,0,1,0,.58c0,.26-.05.46-.05.58a.87.87,0,0,1-.26.66,1,1,0,0,1-1.34,0,.89.89,0,0,1-.26-.65,5.22,5.22,0,0,0,0-.58,5.22,5.22,0,0,1,0-.58q0-.66.09-1.83c.07-.78.1-1.39.1-1.83,0-.13,0-.34,0-.61s0-.47,0-.61a.83.83,0,0,1,.27-.63,1,1,0,0,1,.67-.25c.59,0,.91.35,1,1.06v.07a2.93,2.93,0,0,1,2.07-1,1.77,1.77,0,0,1,1.76,1.06,5.37,5.37,0,0,1,.32,2.14V278a7.7,7.7,0,0,0,.14,1.35,8,8,0,0,1,.15,1.35.83.83,0,0,1-.27.63A1,1,0,0,1,591.74,281.59Z"/><path class="cls-6" d="M591.74,301a.82.82,0,0,1-.92-.81c-.06-.46-.13-.93-.19-1.4a9.78,9.78,0,0,1-.1-1.39c0-.11,0-.31,0-.6s0-.48,0-.6,0-.11,0-.23,0-.24,0-.32c0-.37-.09-.56-.27-.56a1.51,1.51,0,0,0-1.13.74,5.74,5.74,0,0,0-.86,1.88c0,.16,0,.36-.06.61s0,.41,0,.61a5.37,5.37,0,0,1,0,.58c0,.26-.05.45-.05.58a.85.85,0,0,1-.26.65,1,1,0,0,1-1.34,0,.87.87,0,0,1-.26-.64,5.22,5.22,0,0,0,0-.58,5.22,5.22,0,0,1,0-.58q0-.66.09-1.83c.07-.78.1-1.39.1-1.83,0-.14,0-.34,0-.61s0-.48,0-.61a.8.8,0,0,1,.27-.63,1,1,0,0,1,.67-.25c.59,0,.91.35,1,1.05v.08a2.93,2.93,0,0,1,2.07-1,1.76,1.76,0,0,1,1.76,1.06,5.35,5.35,0,0,1,.32,2.13v.92a7.7,7.7,0,0,0,.14,1.35,7.86,7.86,0,0,1,.15,1.35.8.8,0,0,1-.27.62A.93.93,0,0,1,591.74,301Z"/><path class="cls-6" d="M536.47,306.4a4.86,4.86,0,0,1-1.79-.33.82.82,0,0,1-.61.25.88.88,0,0,1-.62-.24.83.83,0,0,1-.26-.61c0-.11,0-.27,0-.49s0-.39,0-.5v-7.62a1.64,1.64,0,0,1,.22-.86.82.82,0,0,1,.76-.48q.72,0,.72.78c0,.06,0,.15,0,.28a1.69,1.69,0,0,0,0,.28v2.58a5.13,5.13,0,0,1,1-.42,3.16,3.16,0,0,1,.88-.14,3.21,3.21,0,0,1,2.56,1.15,4,4,0,0,1,.91,2.62,3.65,3.65,0,0,1-1.06,2.64A3.57,3.57,0,0,1,536.47,306.4Zm.25-5.79a2,2,0,0,0-.81.2,6.5,6.5,0,0,0-1,.6c0,.43,0,1.38,0,2.86a4,4,0,0,0,1.58.4,1.86,1.86,0,0,0,1.4-.57,2,2,0,0,0,.55-1.45,2.26,2.26,0,0,0-.45-1.45A1.5,1.5,0,0,0,536.72,300.61Z"/><path class="cls-6" d="M529.17,292.06h14.64a1,1,0,0,0,0-2H529.17a1,1,0,0,0,0,2Z"/><path class="cls-6" d="M581.21,287.06a2,2,0,0,1-1-.59,10,10,0,0,1-1.09.44,2.69,2.69,0,0,1-.8.15,3.16,3.16,0,0,1-2.43-.86,3.7,3.7,0,0,1-.81-2.6,3.75,3.75,0,0,1,1.19-2.78,4,4,0,0,1,2.87-1.15,3.83,3.83,0,0,1,1.48.36c.68.29,1,.62,1,1a.65.65,0,0,1-.16.42,4.43,4.43,0,0,0-.1.66,8.89,8.89,0,0,0,0,.95,6.56,6.56,0,0,0,.18,1.83s.12.27.31.69a3.09,3.09,0,0,1,.26.65.74.74,0,0,1-.27.59A.91.91,0,0,1,581.21,287.06Zm-1.67-4.54a4.57,4.57,0,0,1,0-.49c0-.19,0-.39.09-.62a1.07,1.07,0,0,0-.23-.1l-.18,0a2.16,2.16,0,0,0-1.6.71,2.34,2.34,0,0,0-.69,1.66,2.39,2.39,0,0,0,.32,1.36,1.12,1.12,0,0,0,1,.45,2.3,2.3,0,0,0,.79-.13,2.67,2.67,0,0,0,.71-.41A20.34,20.34,0,0,1,579.54,282.52Z"/><path class="cls-6" d="M579.41,306.4a4.94,4.94,0,0,1-1.79-.33.79.79,0,0,1-.6.25.88.88,0,0,1-.62-.24.8.8,0,0,1-.26-.61c0-.11,0-.27,0-.49s0-.39,0-.5v-7.62a1.74,1.74,0,0,1,.21-.86.85.85,0,0,1,.77-.48q.72,0,.72.78c0,.06,0,.15,0,.28a2.05,2.05,0,0,0,0,.28v2.58a5.2,5.2,0,0,1,1-.42,3.1,3.1,0,0,1,.88-.14,3.22,3.22,0,0,1,2.56,1.15,4,4,0,0,1,.91,2.62,3.65,3.65,0,0,1-1.06,2.64A3.58,3.58,0,0,1,579.41,306.4Zm.26-5.79a2,2,0,0,0-.81.2,6.54,6.54,0,0,0-1,.6v2.86a4.06,4.06,0,0,0,1.58.4,1.88,1.88,0,0,0,1.41-.57,2,2,0,0,0,.55-1.45,2.26,2.26,0,0,0-.45-1.45A1.5,1.5,0,0,0,579.67,300.61Z"/><path class="cls-6" d="M572.12,292.06h14.64a1,1,0,0,0,0-2H572.12a1,1,0,0,0,0,2Z"/><path class="cls-6" d="M545.65,306.24a34.92,34.92,0,0,0,3-29.89c-.43-1.19-2.35-.68-1.91.53a33,33,0,0,1-2.79,28.36c-.67,1.09,1,2.08,1.71,1Z"/><path class="cls-6" d="M557.63,290.6h6.81a1,1,0,0,0,1-1,1,1,0,0,0-1-1h-6.81a1,1,0,0,0,0,2Z"/><path class="cls-6" d="M557.63,294.37h6.81a1,1,0,0,0,0-2h-6.81a1,1,0,0,0,0,2Z"/><path class="cls-6" d="M538.26,287.06a2,2,0,0,1-1-.59,9.21,9.21,0,0,1-1.09.44,2.69,2.69,0,0,1-.8.15,3.16,3.16,0,0,1-2.43-.86,4.14,4.14,0,0,1,.39-5.38,4,4,0,0,1,2.86-1.15,3.83,3.83,0,0,1,1.48.36c.68.29,1,.62,1,1a.6.6,0,0,1-.16.42,4.43,4.43,0,0,0-.1.66,8.89,8.89,0,0,0,0,.95,6.56,6.56,0,0,0,.18,1.83l.31.69a3.52,3.52,0,0,1,.27.65.74.74,0,0,1-.28.59A.91.91,0,0,1,538.26,287.06Zm-1.66-4.54a4.57,4.57,0,0,1,0-.49c0-.19,0-.39.09-.62a1.12,1.12,0,0,0-.24-.1l-.18,0a2.17,2.17,0,0,0-1.6.71,2.34,2.34,0,0,0-.69,1.66,2.31,2.31,0,0,0,.33,1.36,1.09,1.09,0,0,0,1,.45,2.26,2.26,0,0,0,.79-.13,2.67,2.67,0,0,0,.71-.41A19.84,19.84,0,0,1,536.6,282.52Z"/><path class="cls-6" d="M447.8,56.74V121a1.15,1.15,0,0,0,1.14,1.14H569c5.51,0,11.05.19,16.56,0h.24a1.14,1.14,0,0,0,0-2.28H454.48a44.63,44.63,0,0,0-5.3,0,1.92,1.92,0,0,1-.24,0l1.14,1.14V56.74a1.14,1.14,0,0,0-2.28,0Z"/><path class="cls-6" d="M446.47,61.05l3-4.19c.15-.21.3-.41.44-.62h-2l3.28,4.38a1.17,1.17,0,0,0,1.56.41,1.15,1.15,0,0,0,.41-1.56l-3.28-4.38a1.16,1.16,0,0,0-2,0l-3,4.2c-.15.2-.3.4-.44.61a1.14,1.14,0,0,0,.41,1.56,1.17,1.17,0,0,0,1.56-.41Z"/><path class="cls-6" d="M582.85,118.59l4.2,3,.61.44v-2l-4.38,3.27a1.17,1.17,0,0,0-.41,1.56,1.14,1.14,0,0,0,1.56.41l4.38-3.27a1.16,1.16,0,0,0,0-2l-4.19-3-.61-.44a1.16,1.16,0,0,0-1.57.41,1.17,1.17,0,0,0,.41,1.56Z"/><path class="cls-6" d="M453.88,115.05c4.9-11.63,7.93-24.29,15.61-34.55,6.37-8.51,16.45-14.79,27.39-12.33a17.64,17.64,0,0,1,11.95,9c2.73,5.06,3.92,10.84,7.45,15.47a14.68,14.68,0,0,0,6.06,4.89,14.08,14.08,0,0,0,8.54.46c6.2-1.41,11.13-5.73,17.12-7.66a14.47,14.47,0,0,1,9.76.14,19.44,19.44,0,0,1,7.47,5.33c4.67,5.19,6.66,12.21,8.57,18.77A1.15,1.15,0,0,0,576,114c-1.79-6.1-3.64-12.42-7.43-17.63-3.3-4.53-8.17-8.23-13.85-9-6.52-.84-12.12,2.86-17.63,5.75-3,1.55-6.23,3-9.63,3a10.61,10.61,0,0,1-7.84-3.13c-4.31-4.22-5.62-10.38-8.14-15.65a20.19,20.19,0,0,0-11.58-10.76,25.06,25.06,0,0,0-15.37-.2,31.72,31.72,0,0,0-13.89,9.11c-10,10.85-13.38,25.61-19,38.88-.57,1.35,1.63,1.94,2.2.6Z"/><path class="cls-6" d="M536.13,75.35a2.34,2.34,0,0,1-1.16-.71,12.36,12.36,0,0,1-1.3.53,3.3,3.3,0,0,1-1,.18,3.76,3.76,0,0,1-2.89-1,4.35,4.35,0,0,1-1-3.09,4.44,4.44,0,0,1,1.43-3.31,4.77,4.77,0,0,1,3.41-1.37,4.46,4.46,0,0,1,1.76.43c.81.34,1.21.74,1.21,1.19a.75.75,0,0,1-.18.5,5.81,5.81,0,0,0-.13.8c0,.32,0,.69,0,1.12a7.52,7.52,0,0,0,.22,2.18s.14.33.37.83a4.42,4.42,0,0,1,.31.78.85.85,0,0,1-.33.69A1.08,1.08,0,0,1,536.13,75.35Zm-2-5.41c0-.17,0-.36,0-.58s.06-.47.11-.75a1.77,1.77,0,0,0-.28-.11.68.68,0,0,0-.21,0,2.56,2.56,0,0,0-1.91.86,3.05,3.05,0,0,0-.43,3.58,1.32,1.32,0,0,0,1.15.55,2.7,2.7,0,0,0,.94-.17,2.94,2.94,0,0,0,.84-.48A25.19,25.19,0,0,1,534.15,69.94Z"/><path class="cls-6" d="M543.36,67.59a4,4,0,0,1-.47,0l-.45-.05h-1.76a6,6,0,0,0-.69.06,6,6,0,0,1-.69.06l-.2,0-.19,0a.73.73,0,0,1-.73-.44,2.25,2.25,0,0,1-.12-.85,3.32,3.32,0,0,1,.5-1.87,4.41,4.41,0,0,1,1.24-1.17l1.61-1.06a1.94,1.94,0,0,0,1-1.56c0-.15-.13-.3-.38-.45a1.43,1.43,0,0,0-.74-.22,2.16,2.16,0,0,0-1.34.56,2.24,2.24,0,0,1-1,.57.94.94,0,0,1-.55-.16.6.6,0,0,1-.3-.53.82.82,0,0,1,.3-.63,6.65,6.65,0,0,1,1.26-.93,3.27,3.27,0,0,1,1.61-.43,3.31,3.31,0,0,1,1.87.55,1.85,1.85,0,0,1,.95,1.62,3.08,3.08,0,0,1-.46,1.73,4.14,4.14,0,0,1-1.16,1.11l-1.5.94a2.34,2.34,0,0,0-1.22,1.7l1-.1q1.27-.06,1.83-.06a2.5,2.5,0,0,1,1,.22c.41.18.62.42.62.7a.82.82,0,0,1-.22.55A.76.76,0,0,1,543.36,67.59Z"/><path class="cls-6" d="M551.93,75.25a5.64,5.64,0,0,1-2.13-.4,1,1,0,0,1-.72.3,1,1,0,0,1-.74-.29.92.92,0,0,1-.31-.72c0-.13,0-.32,0-.59s0-.46,0-.59V63.89a2,2,0,0,1,.25-1,1,1,0,0,1,.92-.57c.57,0,.85.31.85.93a3.1,3.1,0,0,1,0,.34c0,.15,0,.26,0,.33V67a5.76,5.76,0,0,1,1.13-.5,3.67,3.67,0,0,1,1.05-.16,3.82,3.82,0,0,1,3,1.37,4.65,4.65,0,0,1,1.08,3.11,4.34,4.34,0,0,1-1.26,3.15A4.23,4.23,0,0,1,551.93,75.25Zm.3-6.9a2.49,2.49,0,0,0-1,.24,7.23,7.23,0,0,0-1.22.72c0,.51,0,1.64,0,3.41a5,5,0,0,0,1.88.47,2.19,2.19,0,0,0,1.67-.69,2.37,2.37,0,0,0,.66-1.72,2.66,2.66,0,0,0-.54-1.72A1.78,1.78,0,0,0,552.23,68.35Z"/><path class="cls-6" d="M569.76,75.42a4.45,4.45,0,0,1-3-1,3.44,3.44,0,0,1-1.26-2.78,6,6,0,0,1,1.13-3.3,3.62,3.62,0,0,1,3-1.93,5.27,5.27,0,0,1,2,.44c.9.37,1.35.8,1.35,1.28a1,1,0,0,1-.27.69.94.94,0,0,1-.74.33,1.44,1.44,0,0,1-.83-.37,2.36,2.36,0,0,0-1.46-.37c-.41,0-.85.4-1.33,1.21a4.14,4.14,0,0,0-.69,2,1.58,1.58,0,0,0,.61,1.32,2.39,2.39,0,0,0,1.52.46,3,3,0,0,0,1.31-.41,3.06,3.06,0,0,1,1-.41,1,1,0,0,1,.74.31,1,1,0,0,1,.31.71c0,.42-.46.84-1.36,1.25A5.18,5.18,0,0,1,569.76,75.42Z"/><path class="cls-6" d="M562,67.34a4,4,0,0,1-.47,0,4,4,0,0,0-.45-.05h-1.76a6,6,0,0,0-.69.06,6,6,0,0,1-.69.06l-.19,0-.2,0a.73.73,0,0,1-.73-.44,2.25,2.25,0,0,1-.12-.85,3.32,3.32,0,0,1,.5-1.87A4.39,4.39,0,0,1,558.48,63l1.61-1.06a2,2,0,0,0,.95-1.57c0-.15-.13-.3-.38-.45a1.43,1.43,0,0,0-.74-.22,2.16,2.16,0,0,0-1.34.56,2.22,2.22,0,0,1-1,.57,1,1,0,0,1-.56-.16.6.6,0,0,1-.3-.53.82.82,0,0,1,.3-.63,6.65,6.65,0,0,1,1.26-.93,3.35,3.35,0,0,1,3.48.12,1.85,1.85,0,0,1,1,1.62,3.14,3.14,0,0,1-.46,1.74,4.26,4.26,0,0,1-1.16,1.1l-1.5.94a2.37,2.37,0,0,0-1.22,1.7l1-.1q1.27-.06,1.83-.06a2.5,2.5,0,0,1,1,.22c.41.18.62.42.62.7a.77.77,0,0,1-.22.55A.76.76,0,0,1,562,67.34Z"/><path class="cls-6" d="M580.55,67.84a4,4,0,0,1-.47,0,4,4,0,0,0-.45-.05h-1.76a6,6,0,0,0-.69.06,6,6,0,0,1-.69.06l-.19,0-.2,0a.73.73,0,0,1-.73-.44,2.25,2.25,0,0,1-.12-.85,3.32,3.32,0,0,1,.5-1.87A4.55,4.55,0,0,1,577,63.47c.54-.35,1.08-.7,1.61-1.06a1.94,1.94,0,0,0,.95-1.56c0-.15-.13-.3-.38-.45a1.43,1.43,0,0,0-.74-.22,2.16,2.16,0,0,0-1.34.56,2.22,2.22,0,0,1-1,.57,1,1,0,0,1-.56-.16.6.6,0,0,1-.3-.53.82.82,0,0,1,.3-.63,6.65,6.65,0,0,1,1.26-.93,3.35,3.35,0,0,1,3.48.12,1.85,1.85,0,0,1,1,1.62,3.08,3.08,0,0,1-.46,1.73,4.14,4.14,0,0,1-1.16,1.11l-1.5.94a2.37,2.37,0,0,0-1.22,1.7l1-.1q1.27-.06,1.83-.06a2.5,2.5,0,0,1,1,.22c.41.18.62.42.62.7a.77.77,0,0,1-.22.55A.76.76,0,0,1,580.55,67.84Z"/><path class="cls-6" d="M558.9,71.11H563A.57.57,0,1,0,563,70H558.9a.57.57,0,0,0,0,1.14Z"/><path class="cls-6" d="M558.9,73.33H563a.57.57,0,1,0,0-1.14H558.9a.58.58,0,0,0-.57.57.58.58,0,0,0,.57.57Z"/><path class="cls-6" d="M543.11,69.67v4a.57.57,0,0,0,1.14,0v-4a.57.57,0,1,0-1.14,0Z"/><path class="cls-6" d="M541.47,72.09h4.43a.57.57,0,0,0,0-1.14h-4.43a.57.57,0,0,0,0,1.14Z"/><path class="cls-6" d="M355.47,123.29H287V75.34h68.51Zm-67.63-.89h66.75V76.22H287.84Z"/><path class="cls-6" d="M355.47,123.66H287a.37.37,0,0,1-.38-.37V75.34A.38.38,0,0,1,287,75h68.51a.38.38,0,0,1,.38.38v48A.37.37,0,0,1,355.47,123.66Zm-68.14-.75H355.1V75.71H287.33Zm67.26-.13H287.84a.38.38,0,0,1-.37-.38V76.22a.37.37,0,0,1,.37-.37h66.75a.37.37,0,0,1,.37.37V122.4A.38.38,0,0,1,354.59,122.78ZM288.22,122h66V76.6h-66Z"/><path class="cls-6" d="M355,123.29a.39.39,0,0,1-.21-.06.41.41,0,0,1-.23-.38V75.78a.48.48,0,0,1,.2-.38L384,57.14a.44.44,0,0,1,.67.37v47.07a.45.45,0,0,1-.2.37l-29.19,18.27A.39.39,0,0,1,355,123.29ZM355.47,76v46l28.3-17.72v-46Z"/><path class="cls-6" d="M355,123.66a.76.76,0,0,1-.39-.1.8.8,0,0,1-.43-.71V75.78a.8.8,0,0,1,.39-.69l29.18-18.27a.8.8,0,0,1,.83,0,.81.81,0,0,1,.42.71v47.07a.82.82,0,0,1-.39.69l-29.18,18.27A.82.82,0,0,1,355,123.66Zm29.14-66.2h0L355,75.72l0,47.13.07.06h0l29.18-18.26,0-47.13h0Zm-28.7,65a.39.39,0,0,1-.18,0,.39.39,0,0,1-.19-.33V76a.37.37,0,0,1,.17-.31L383.57,58a.39.39,0,0,1,.38,0,.39.39,0,0,1,.19.33v46a.37.37,0,0,1-.17.32l-28.3,17.72A.46.46,0,0,1,355.47,122.42Zm.38-46.19v45.14l27.54-17.24V59Z"/><path class="cls-6" d="M287.64,123.22l-.47-.75,4.5-2.82.47.75Zm6-3.75-.47-.75,4.5-2.82.47.75Zm6-3.76-.47-.75,4.5-2.82.47.75Zm6-3.75-.47-.75,4.5-2.82.47.75Zm6-3.76-.47-.75,4.5-2.82.47.75Zm5.39-4.58h-.88V98.31H317Zm0-7.08h-.88v-5.3H317Zm0-7.07h-.88V84.16H317Zm0-7.08h-.88V77.08H317Zm0-7.08h-.88V70H317Zm0-7.08h-.88v-5.3H317Zm0-7.07h-.88V57.51H317Z"/><path class="cls-6" d="M287.64,123.6a.38.38,0,0,1-.32-.18l-.47-.75a.39.39,0,0,1-.05-.28.37.37,0,0,1,.17-.24l4.5-2.81a.36.36,0,0,1,.51.12l.47.75a.34.34,0,0,1,.05.28.33.33,0,0,1-.17.23l-4.5,2.82A.35.35,0,0,1,287.64,123.6Zm0-1,.07.11,3.87-2.41-.07-.12Zm5.95-2.75h-.08a.35.35,0,0,1-.23-.16l-.47-.76a.34.34,0,0,1-.05-.28.33.33,0,0,1,.17-.23l4.5-2.82a.37.37,0,0,1,.51.12l.47.75a.4.4,0,0,1,.05.28.35.35,0,0,1-.17.24l-4.5,2.81A.36.36,0,0,1,293.63,119.84Zm.05-1,.07.11,3.87-2.42-.07-.11Zm5.95-2.76a.37.37,0,0,1-.31-.17l-.47-.75a.35.35,0,0,1-.05-.28.4.4,0,0,1,.16-.24l4.5-2.81a.38.38,0,0,1,.52.11l.47.75a.42.42,0,0,1,.05.29.36.36,0,0,1-.17.23l-4.5,2.82A.35.35,0,0,1,299.63,116.08Zm.05-1,.07.11,3.87-2.42-.08-.11Zm5.95-2.75a.38.38,0,0,1-.32-.18l-.47-.75a.34.34,0,0,1,0-.28.35.35,0,0,1,.16-.23l4.5-2.82a.37.37,0,0,1,.52.12l.47.75a.39.39,0,0,1,.05.28.46.46,0,0,1-.17.24l-4.5,2.81A.36.36,0,0,1,305.63,112.33Zm.05-1,.07.12,3.86-2.42-.07-.11Zm5.95-2.74a.4.4,0,0,1-.32-.18l-.47-.75a.35.35,0,0,1,0-.28.4.4,0,0,1,.16-.24l4.5-2.81a.37.37,0,0,1,.52.12l.47.75a.39.39,0,0,1,.05.28.4.4,0,0,1-.17.23l-4.5,2.82A.36.36,0,0,1,311.63,108.58Zm.05-1,.07.11,3.86-2.41-.07-.12ZM317,104h-.88a.38.38,0,0,1-.38-.38V98.31a.38.38,0,0,1,.38-.37H317a.38.38,0,0,1,.38.37v5.31A.38.38,0,0,1,317,104Zm-.51-.75h.14V98.69h-.14Zm.51-6.33h-.88a.38.38,0,0,1-.38-.38v-5.3a.38.38,0,0,1,.38-.38H317a.38.38,0,0,1,.38.38v5.3A.38.38,0,0,1,317,96.92Zm-.51-.75h.14V91.61h-.14Zm.51-6.33h-.88a.38.38,0,0,1-.38-.37V84.16a.38.38,0,0,1,.38-.38H317a.38.38,0,0,1,.38.38v5.31A.38.38,0,0,1,317,89.84Zm-.51-.75h.14V84.53h-.14Zm.51-6.33h-.88a.37.37,0,0,1-.38-.37V77.08a.37.37,0,0,1,.38-.37H317a.37.37,0,0,1,.38.37v5.31A.37.37,0,0,1,317,82.76Zm-.51-.75h.14V77.46h-.14Zm.51-6.32h-.88a.38.38,0,0,1-.38-.38V70a.38.38,0,0,1,.38-.37H317a.38.38,0,0,1,.38.37v5.31A.38.38,0,0,1,317,75.69Zm-.51-.75h.14V70.38h-.14Zm.51-6.33h-.88a.38.38,0,0,1-.38-.38v-5.3a.38.38,0,0,1,.38-.38H317a.38.38,0,0,1,.38.38v5.3A.38.38,0,0,1,317,68.61Zm-.51-.75h.14V63.3h-.14Zm.51-6.33h-.88a.38.38,0,0,1-.38-.37V57.51a.38.38,0,0,1,.38-.37H317a.38.38,0,0,1,.38.37v3.65A.38.38,0,0,1,317,61.53Zm-.51-.75h.14V57.89h-.14Z"/><path class="cls-6" d="M287.4,123.29a.44.44,0,0,1-.44-.44V75.78a.47.47,0,0,1,.21-.38l29.18-18.26a.39.39,0,0,1,.23-.07h67.63a.44.44,0,0,1,.44.44.44.44,0,0,1-.44.44h-67.5L287.84,76v46.83A.44.44,0,0,1,287.4,123.29Z"/><path class="cls-6" d="M287.4,123.66a.82.82,0,0,1-.82-.81V75.78a.82.82,0,0,1,.39-.69l29.18-18.27a.82.82,0,0,1,.43-.12h67.63a.82.82,0,0,1,.82.81.82.82,0,0,1-.82.82H316.82l-28.6,17.9v46.62A.82.82,0,0,1,287.4,123.66Zm29.18-66.21L287.37,75.72l0,47.13c0,.07.14.07.14,0V76a.37.37,0,0,1,.17-.31l28.87-18.07a.36.36,0,0,1,.2-.06h67.5a.07.07,0,0,0,.07-.07.07.07,0,0,0-.07-.06Z"/><path class="cls-6" d="M384.21,105h-3.93v-.88h3.93Zm-5.7,0H373.2v-.88h5.31Zm-7.08,0h-5.31v-.88h5.31Zm-7.08,0h-5.3v-.88h5.3Zm-7.07,0H352v-.88h5.31Zm-7.08,0h-5.31v-.88h5.31Zm-7.08,0h-5.31v-.88h5.31ZM336,105h-5.3v-.88H336ZM329,105h-5.31v-.88H329Zm-7.08,0h-5.31v-.88h5.31Z"/><path class="cls-6" d="M384.21,105.4h-3.93a.38.38,0,0,1-.38-.38v-.88a.38.38,0,0,1,.38-.38h3.93a.38.38,0,0,1,.38.38V105A.38.38,0,0,1,384.21,105.4Zm-3.56-.75h3.19v-.14h-3.19Zm-2.14.75H373.2a.37.37,0,0,1-.37-.38v-.88a.37.37,0,0,1,.37-.38h5.31a.37.37,0,0,1,.37.38V105A.37.37,0,0,1,378.51,105.4Zm-4.93-.75h4.55v-.14h-4.55Zm-2.15.75h-5.31a.38.38,0,0,1-.37-.38v-.88a.38.38,0,0,1,.37-.38h5.31a.38.38,0,0,1,.38.38V105A.38.38,0,0,1,371.43,105.4Zm-4.93-.75h4.56v-.14H366.5Zm-2.15.75h-5.3a.38.38,0,0,1-.38-.38v-.88a.38.38,0,0,1,.38-.38h5.3a.38.38,0,0,1,.38.38V105A.38.38,0,0,1,364.35,105.4Zm-4.93-.75H364v-.14h-4.56Zm-2.14.75H352a.38.38,0,0,1-.38-.38v-.88a.38.38,0,0,1,.38-.38h5.31a.38.38,0,0,1,.37.38V105A.38.38,0,0,1,357.28,105.4Zm-4.94-.75h4.56v-.14h-4.56Zm-2.14.75h-5.31a.37.37,0,0,1-.37-.38v-.88a.37.37,0,0,1,.37-.38h5.31a.37.37,0,0,1,.37.38V105A.37.37,0,0,1,350.2,105.4Zm-4.93-.75h4.55v-.14h-4.55Zm-2.15.75h-5.31a.38.38,0,0,1-.37-.38v-.88a.38.38,0,0,1,.37-.38h5.31a.38.38,0,0,1,.38.38V105A.38.38,0,0,1,343.12,105.4Zm-4.93-.75h4.56v-.14h-4.56Zm-2.14.75h-5.31a.38.38,0,0,1-.38-.38v-.88a.38.38,0,0,1,.38-.38h5.31a.38.38,0,0,1,.37.38V105A.38.38,0,0,1,336.05,105.4Zm-4.94-.75h4.56v-.14h-4.56Zm-2.14.75h-5.31a.38.38,0,0,1-.38-.38v-.88a.38.38,0,0,1,.38-.38H329a.38.38,0,0,1,.37.38V105A.38.38,0,0,1,329,105.4Zm-4.94-.75h4.56v-.14H324Zm-2.14.75h-5.31a.38.38,0,0,1-.37-.38v-.88a.38.38,0,0,1,.37-.38h5.31a.38.38,0,0,1,.38.38V105A.38.38,0,0,1,321.89,105.4Zm-4.93-.75h4.56v-.14H317Z"/><path class="cls-6" d="M279.59,145.23a4.82,4.82,0,0,1-3-.85,2,2,0,0,1-.93-1.63A1.13,1.13,0,0,1,276,142a1.09,1.09,0,0,1,1.78.38c.28.62.93.93,1.93.93a5.82,5.82,0,0,0,2.51-.57c.83-.38,1.25-.81,1.25-1.27a1.19,1.19,0,0,0-.78-1.24,7.77,7.77,0,0,0-2.23-.26,5.94,5.94,0,0,1-2.33-.49,1.91,1.91,0,0,1-1.37-1.78,3.55,3.55,0,0,1,1.57-2.69,5.33,5.33,0,0,1,3.39-1.22,6.18,6.18,0,0,1,1.82.34c.89.28,1.34.6,1.34,1a1,1,0,0,1-1,1,5.57,5.57,0,0,1-1.06-.15,5.57,5.57,0,0,0-1.06-.15,4,4,0,0,0-1.84.46q-.9.47-.9,1a.56.56,0,0,0,.27.47,2.09,2.09,0,0,0,.83.25l1.91.11a4.61,4.61,0,0,1,2.64.94,3.08,3.08,0,0,1,1.06,2.49,3.18,3.18,0,0,1-2.21,2.94A9.33,9.33,0,0,1,279.59,145.23Z"/><path class="cls-6" d="M306.18,144.78a4.32,4.32,0,0,1-.58-.06,4.21,4.21,0,0,0-.57-.06h-2.2a7.29,7.29,0,0,0-.87.07,7,7,0,0,1-.87.07l-.24,0-.24,0a.89.89,0,0,1-.91-.55,2.58,2.58,0,0,1-.16-1.06,4.14,4.14,0,0,1,.63-2.35,5.5,5.5,0,0,1,1.55-1.46l2-1.33a2.45,2.45,0,0,0,1.19-2c0-.19-.16-.38-.47-.57a1.81,1.81,0,0,0-.93-.28,2.76,2.76,0,0,0-1.68.71,2.86,2.86,0,0,1-1.22.71,1.25,1.25,0,0,1-.7-.19.77.77,0,0,1-.38-.67,1,1,0,0,1,.38-.79,8.4,8.4,0,0,1,1.58-1.17,4.14,4.14,0,0,1,2-.54,4.18,4.18,0,0,1,2.35.69,2.36,2.36,0,0,1,1.19,2,3.89,3.89,0,0,1-.59,2.17,4.85,4.85,0,0,1-1.45,1.39l-1.87,1.18a3,3,0,0,0-1.54,2.12l1.22-.12c1.07,0,1.83-.08,2.29-.08a3.08,3.08,0,0,1,1.28.28c.52.23.78.52.78.88a1,1,0,0,1-1,1Z"/><path class="cls-6" d="M315.25,145.18a2.15,2.15,0,0,1-1.1-.67,9.59,9.59,0,0,1-1.22.5,2.75,2.75,0,0,1-.89.17,3.5,3.5,0,0,1-2.71-1,4.07,4.07,0,0,1-.91-2.9,4.15,4.15,0,0,1,1.34-3.09,4.43,4.43,0,0,1,3.2-1.29,4.28,4.28,0,0,1,1.65.4c.75.32,1.13.7,1.13,1.12a.71.71,0,0,1-.17.47,5.37,5.37,0,0,0-.12.75c0,.3,0,.65,0,1.05a7,7,0,0,0,.21,2,8.11,8.11,0,0,0,.34.78,3.31,3.31,0,0,1,.29.73.82.82,0,0,1-.3.65A1.06,1.06,0,0,1,315.25,145.18Zm-1.87-5.07c0-.16,0-.34,0-.55a6.75,6.75,0,0,1,.1-.69,1.4,1.4,0,0,0-.27-.11.51.51,0,0,0-.2,0,2.4,2.4,0,0,0-1.78.8,2.89,2.89,0,0,0-.41,3.37,1.23,1.23,0,0,0,1.08.5,2.54,2.54,0,0,0,.88-.15,2.73,2.73,0,0,0,.79-.45A24.07,24.07,0,0,1,313.38,140.11Z"/><path class="cls-6" d="M320.88,145.08a5.58,5.58,0,0,1-2-.36.92.92,0,0,1-.67.27,1,1,0,0,1-.7-.27.88.88,0,0,1-.29-.67c0-.12,0-.31,0-.55s0-.44,0-.56v-8.5a1.94,1.94,0,0,1,.24-1,.94.94,0,0,1,.85-.53q.81,0,.81.87a2.39,2.39,0,0,1,0,.31,2.67,2.67,0,0,0,0,.32v2.87a5.66,5.66,0,0,1,1.07-.46,3.49,3.49,0,0,1,1-.15A3.56,3.56,0,0,1,324,138a4.39,4.39,0,0,1,1,2.91,4,4,0,0,1-1.18,3A4,4,0,0,1,320.88,145.08Zm.28-6.46a2.26,2.26,0,0,0-.9.22,7.1,7.1,0,0,0-1.15.68v3.19a4.56,4.56,0,0,0,1.77.44,2.08,2.08,0,0,0,1.57-.64,2.25,2.25,0,0,0,.61-1.62,2.48,2.48,0,0,0-.5-1.61A1.69,1.69,0,0,0,321.16,138.62Z"/><path class="cls-6" d="M333.07,140.88l-.27,0a1.58,1.58,0,0,0-.28,0h-1.21v.66c0,.34,0,.56,0,.65a.81.81,0,0,1-.27.62,1,1,0,0,1-.68.25,1,1,0,0,1-.69-.26.8.8,0,0,1-.27-.63c0,.07,0-.37,0-1.29l-1,0a2.21,2.21,0,0,1-.95-.2.77.77,0,0,1-.52-.7.74.74,0,0,1,.48-.77,3.51,3.51,0,0,1,1-.1l1,0c0-.05,0-.15,0-.3v-.36c0-1,.33-1.51,1-1.51a1,1,0,0,1,.69.25.75.75,0,0,1,.29.62,2.93,2.93,0,0,1,0,.37,3.46,3.46,0,0,0,0,.38v.52H332l.46,0q1.53,0,1.53.93a.92.92,0,0,1-.26.64A1,1,0,0,1,333.07,140.88Z"/><path class="cls-6" d="M342.63,144.78a4.43,4.43,0,0,1-.59-.06,4.26,4.26,0,0,0-.56-.06h-2.21a7,7,0,0,0-.86.07,7.27,7.27,0,0,1-.88.07l-.24,0-.24,0a.89.89,0,0,1-.91-.55,2.8,2.8,0,0,1-.15-1.06,4.14,4.14,0,0,1,.62-2.35,5.42,5.42,0,0,1,1.56-1.46l2-1.33a2.43,2.43,0,0,0,1.19-2c0-.19-.16-.38-.47-.57a1.81,1.81,0,0,0-.93-.28,2.76,2.76,0,0,0-1.68.71,2.8,2.8,0,0,1-1.22.71,1.25,1.25,0,0,1-.7-.19.77.77,0,0,1-.38-.67,1,1,0,0,1,.38-.79,8.74,8.74,0,0,1,1.58-1.17,4.2,4.2,0,0,1,4.37.15,2.36,2.36,0,0,1,1.19,2,3.89,3.89,0,0,1-.58,2.17,5.11,5.11,0,0,1-1.45,1.39l-1.88,1.18a2.93,2.93,0,0,0-1.53,2.12l1.21-.12c1.07,0,1.83-.08,2.29-.08a3.08,3.08,0,0,1,1.28.28c.52.23.78.52.78.88a1,1,0,0,1-.28.69A.92.92,0,0,1,342.63,144.78Z"/><path class="cls-6" d="M348.78,145.08a5.54,5.54,0,0,1-2-.36.94.94,0,0,1-.68.27,1,1,0,0,1-.69-.27.88.88,0,0,1-.29-.67c0-.12,0-.31,0-.55s0-.44,0-.56v-8.5a1.94,1.94,0,0,1,.24-1,1,1,0,0,1,.86-.53c.54,0,.8.29.8.87,0,.07,0,.17,0,.31a2.67,2.67,0,0,0,0,.32v2.87a5.66,5.66,0,0,1,1.07-.46,3.49,3.49,0,0,1,1-.15,3.53,3.53,0,0,1,2.85,1.28,4.34,4.34,0,0,1,1,2.91,4,4,0,0,1-1.18,3A4,4,0,0,1,348.78,145.08Zm.28-6.46a2.26,2.26,0,0,0-.9.22,7.1,7.1,0,0,0-1.15.68v3.19a4.52,4.52,0,0,0,1.77.44,2.1,2.1,0,0,0,1.57-.64,2.25,2.25,0,0,0,.61-1.62,2.54,2.54,0,0,0-.5-1.61A1.7,1.7,0,0,0,349.06,138.62Z"/><path class="cls-6" d="M357.79,145.24a4.13,4.13,0,0,1-2.77-.94,3.23,3.23,0,0,1-1.18-2.61,5.55,5.55,0,0,1,1.06-3.09,3.38,3.38,0,0,1,2.79-1.81,5,5,0,0,1,1.82.42c.85.34,1.27.74,1.27,1.19a.93.93,0,0,1-.25.65.88.88,0,0,1-.7.31,1.32,1.32,0,0,1-.78-.35,2.21,2.21,0,0,0-1.36-.35c-.39,0-.8.38-1.26,1.14a3.88,3.88,0,0,0-.64,1.89,1.49,1.49,0,0,0,.57,1.24,2.28,2.28,0,0,0,1.43.43A2.77,2.77,0,0,0,359,143a3.07,3.07,0,0,1,.92-.38,1,1,0,0,1,.7.29,1,1,0,0,1,.29.67c0,.39-.43.78-1.28,1.17A4.71,4.71,0,0,1,357.79,145.24Z"/><path class="cls-6" d="M368.86,140.88l-.26,0a1.63,1.63,0,0,0-.28,0h-1.21v.66c0,.34,0,.56,0,.65a.79.79,0,0,1-.28.62,1,1,0,0,1-.68.25,1,1,0,0,1-.68-.26.81.81,0,0,1-.28-.63c0,.07,0-.37,0-1.29l-1,0a2.18,2.18,0,0,1-.95-.2.76.76,0,0,1-.52-.7.74.74,0,0,1,.48-.77,3.51,3.51,0,0,1,1-.1l1,0c0-.05,0-.15,0-.3s0-.27,0-.36c0-1,.34-1.51,1-1.51a1,1,0,0,1,.69.25.78.78,0,0,1,.29.62c0,.08,0,.2,0,.37a3.46,3.46,0,0,0,0,.38v.52h.71l.47,0q1.53,0,1.53.93a.92.92,0,0,1-.26.64A1,1,0,0,1,368.86,140.88Z"/><path class="cls-6" d="M378.42,144.78a4.32,4.32,0,0,1-.58-.06,4.21,4.21,0,0,0-.57-.06h-2.2a7.29,7.29,0,0,0-.87.07,7,7,0,0,1-.87.07l-.24,0-.24,0a.92.92,0,0,1-.92-.55,3.06,3.06,0,0,1-.14-1.06,4.14,4.14,0,0,1,.62-2.35,5.5,5.5,0,0,1,1.55-1.46l2-1.33a2.45,2.45,0,0,0,1.19-2c0-.19-.16-.38-.47-.57a1.81,1.81,0,0,0-.93-.28,2.76,2.76,0,0,0-1.68.71,2.86,2.86,0,0,1-1.22.71,1.25,1.25,0,0,1-.7-.19.77.77,0,0,1-.38-.67,1,1,0,0,1,.38-.79,8.4,8.4,0,0,1,1.58-1.17,4.14,4.14,0,0,1,2-.54,4.18,4.18,0,0,1,2.35.69,2.36,2.36,0,0,1,1.19,2,3.89,3.89,0,0,1-.59,2.17,5,5,0,0,1-1.45,1.39l-1.87,1.18a2.9,2.9,0,0,0-1.53,2.12l1.21-.12c1.07,0,1.83-.08,2.29-.08a3.08,3.08,0,0,1,1.28.28c.52.23.78.52.78.88a1,1,0,0,1-1,1Z"/><path class="cls-6" d="M387.49,145.18a2.15,2.15,0,0,1-1.1-.67,9.59,9.59,0,0,1-1.22.5,2.75,2.75,0,0,1-.89.17,3.5,3.5,0,0,1-2.71-1,4.07,4.07,0,0,1-.91-2.9,4.15,4.15,0,0,1,1.34-3.09,4.45,4.45,0,0,1,3.2-1.29,4.28,4.28,0,0,1,1.65.4c.75.32,1.13.7,1.13,1.12a.67.67,0,0,1-.17.47,5.37,5.37,0,0,0-.12.75c0,.3,0,.65,0,1.05a7.45,7.45,0,0,0,.2,2l.35.78a3.31,3.31,0,0,1,.29.73.82.82,0,0,1-.3.65A1.06,1.06,0,0,1,387.49,145.18Zm-1.87-5.07c0-.16,0-.34,0-.55s.06-.44.1-.69a1.4,1.4,0,0,0-.27-.11.51.51,0,0,0-.2,0,2.4,2.4,0,0,0-1.78.8,2.89,2.89,0,0,0-.41,3.37,1.23,1.23,0,0,0,1.08.5,2.64,2.64,0,0,0,.89-.15,2.81,2.81,0,0,0,.78-.45A24.07,24.07,0,0,1,385.62,140.11Z"/><path class="cls-6" d="M393,145.24a4.13,4.13,0,0,1-2.77-.94,3.23,3.23,0,0,1-1.18-2.61,5.55,5.55,0,0,1,1.06-3.09,3.38,3.38,0,0,1,2.79-1.81,5,5,0,0,1,1.82.42c.85.34,1.27.74,1.27,1.19a.93.93,0,0,1-.25.65.88.88,0,0,1-.7.31,1.32,1.32,0,0,1-.78-.35,2.23,2.23,0,0,0-1.36-.35c-.39,0-.8.38-1.26,1.14a3.88,3.88,0,0,0-.64,1.89,1.49,1.49,0,0,0,.57,1.24,2.28,2.28,0,0,0,1.43.43,2.77,2.77,0,0,0,1.23-.39,3.07,3.07,0,0,1,.92-.38,1,1,0,0,1,.7.29,1,1,0,0,1,.29.67c0,.39-.43.78-1.28,1.17A4.71,4.71,0,0,1,393,145.24Z"/><path class="cls-6" d="M288.65,139.76h5.19a.54.54,0,0,0,0-1.07h-5.19a.54.54,0,0,0,0,1.07Z"/><path class="cls-6" d="M288.65,142.63h5.19a.54.54,0,0,0,0-1.07h-5.19a.54.54,0,0,0,0,1.07Z"/><path class="cls-6" d="M324.38,47.44a.88.88,0,0,1-.3.62,1,1,0,0,1-.67.24,1.1,1.1,0,0,1-1.08-.78c-.54-1.35-1.36-3.37-2.48-6.05a1,1,0,0,1-.1-.43.88.88,0,0,1,.33-.69,1.09,1.09,0,0,1,.75-.28,1,1,0,0,1,.92.59c.28.61.84,2,1.67,4.25.26-.56.63-1.42,1.09-2.58.14-.38.36-.92.66-1.61a1,1,0,0,1,.93-.6,1.11,1.11,0,0,1,.74.27.88.88,0,0,1,.33.69,21,21,0,0,1-1.22,3C325.29,45.53,324.77,46.66,324.38,47.44Z"/><path class="cls-6" d="M345.6,48.41c-.24,0-.6-.22-1.1-.67a8.31,8.31,0,0,1-1.22.5,2.8,2.8,0,0,1-.89.17,3.54,3.54,0,0,1-2.72-1,4.1,4.1,0,0,1-.9-2.89,4.15,4.15,0,0,1,1.33-3.1,4.46,4.46,0,0,1,3.2-1.29,4.28,4.28,0,0,1,1.66.4c.75.32,1.13.7,1.13,1.12a.71.71,0,0,1-.17.47,5.37,5.37,0,0,0-.12.75c0,.3,0,.65,0,1.05a7.58,7.58,0,0,0,.2,2s.13.3.35.77a4.35,4.35,0,0,1,.29.73.82.82,0,0,1-.3.65A1,1,0,0,1,345.6,48.41Zm-1.87-5.07a3.84,3.84,0,0,1,0-.55,6.75,6.75,0,0,1,.1-.69,1.4,1.4,0,0,0-.27-.11l-.2,0a2.4,2.4,0,0,0-1.79.8,2.9,2.9,0,0,0-.4,3.36,1.23,1.23,0,0,0,1.08.51,2.37,2.37,0,0,0,.88-.16A2.73,2.73,0,0,0,344,46,23.7,23.7,0,0,1,343.73,43.34Z"/><path class="cls-6" d="M351.23,48.32a5.59,5.59,0,0,1-2-.37,1,1,0,0,1-.68.28,1,1,0,0,1-.69-.27.91.91,0,0,1-.29-.68c0-.12,0-.3,0-.55s0-.43,0-.55V37.67a1.9,1.9,0,0,1,.24-1,.94.94,0,0,1,.86-.54c.54,0,.8.29.8.87a2.21,2.21,0,0,1,0,.32,2.39,2.39,0,0,0,0,.31v2.87a5.66,5.66,0,0,1,1.07-.46,3.49,3.49,0,0,1,1-.15,3.59,3.59,0,0,1,2.86,1.28,4.39,4.39,0,0,1,1,2.92,4.06,4.06,0,0,1-1.18,2.95A4,4,0,0,1,351.23,48.32Zm.28-6.47a2.3,2.3,0,0,0-.9.23,7,7,0,0,0-1.15.67v3.19a4.59,4.59,0,0,0,1.77.45,2.09,2.09,0,0,0,1.57-.65,2.21,2.21,0,0,0,.61-1.61,2.57,2.57,0,0,0-.5-1.62A1.7,1.7,0,0,0,351.51,41.85Z"/><path class="cls-6" d="M360.24,48.47a4.13,4.13,0,0,1-2.77-.94,3.23,3.23,0,0,1-1.18-2.61,5.55,5.55,0,0,1,1.06-3.08A3.37,3.37,0,0,1,360.14,40a5,5,0,0,1,1.83.42c.84.34,1.26.74,1.26,1.19a1,1,0,0,1-.25.66.89.89,0,0,1-.7.3,1.37,1.37,0,0,1-.78-.35,2.22,2.22,0,0,0-1.36-.34c-.38,0-.8.37-1.25,1.13a3.9,3.9,0,0,0-.65,1.89,1.49,1.49,0,0,0,.57,1.24,2.22,2.22,0,0,0,1.43.43,2.87,2.87,0,0,0,1.23-.38,3,3,0,0,1,.92-.39,1,1,0,0,1,.7.3.91.91,0,0,1,.29.66c0,.39-.43.78-1.28,1.18A4.84,4.84,0,0,1,360.24,48.47Z"/><path class="cls-6" d="M331,43h5.19a.54.54,0,0,0,0-1.07H331A.54.54,0,0,0,331,43Z"/><path class="cls-6" d="M331,45.86h5.19a.54.54,0,0,0,0-1.07H331a.54.54,0,0,0,0,1.07Z"/><path class="cls-6" d="M305.39,199.16l-1.07.93-1.11,1,2.22,2.71a1,1,0,0,1,.24.59.86.86,0,0,1-.31.66,1,1,0,0,1-.69.29,1,1,0,0,1-.73-.35c-.44-.48-1.16-1.33-2.16-2.57-.39.4-1,1-1.82,1.72q-.39.33-.6.54a.95.95,0,0,1-1.41,0,.88.88,0,0,1-.3-.66,1.47,1.47,0,0,1,.59-1l1-.82,1.38-1.36-.82-1.14a6.12,6.12,0,0,0-.94-1,.88.88,0,0,1-.09-1.38.91.91,0,0,1,.68-.3c.35,0,.82.35,1.43,1l1.16,1.5,1.24-1.05a7.11,7.11,0,0,0,1.11-1.14.93.93,0,0,1,.79-.44,1,1,0,0,1,.7.28.86.86,0,0,1,.31.65A2,2,0,0,1,305.39,199.16Z"/><path class="cls-6" d="M355.6,193.23a5.26,5.26,0,0,1-1.94-.35.88.88,0,0,1-.65.27,1,1,0,0,1-.67-.26.87.87,0,0,1-.28-.66c0-.11,0-.29,0-.53s0-.42,0-.54v-8.23a1.87,1.87,0,0,1,.23-.92.91.91,0,0,1,.83-.52q.78,0,.78.84a2.27,2.27,0,0,1,0,.3c0,.14,0,.24,0,.3v2.79a5.29,5.29,0,0,1,1-.45,3.29,3.29,0,0,1,.95-.15,3.43,3.43,0,0,1,2.76,1.24,4.21,4.21,0,0,1,1,2.82,4,4,0,0,1-1.14,2.86A3.86,3.86,0,0,1,355.6,193.23Zm.27-6.25a2.14,2.14,0,0,0-.87.22,6.17,6.17,0,0,0-1.11.65q0,.69,0,3.09a4.55,4.55,0,0,0,1.71.43,2,2,0,0,0,1.51-.62,2.18,2.18,0,0,0,.6-1.57,2.41,2.41,0,0,0-.49-1.56A1.63,1.63,0,0,0,355.87,187Z"/><path class="cls-6" d="M406.76,193.23a5.2,5.2,0,0,1-1.93-.35.89.89,0,0,1-.65.27,1,1,0,0,1-.68-.26.91.91,0,0,1-.28-.66c0-.11,0-.29,0-.53s0-.42,0-.54v-8.23a1.77,1.77,0,0,1,.23-.92.9.9,0,0,1,.83-.52c.52,0,.77.28.77.84a1.91,1.91,0,0,1,0,.3,2.44,2.44,0,0,0,0,.3v2.79a5.36,5.36,0,0,1,1-.45,3.19,3.19,0,0,1,1-.15,3.46,3.46,0,0,1,2.76,1.24,4.26,4.26,0,0,1,1,2.82,4,4,0,0,1-1.14,2.86A3.89,3.89,0,0,1,406.76,193.23ZM407,187a2.07,2.07,0,0,0-.87.22,6.57,6.57,0,0,0-1.12.65v3.09a4.64,4.64,0,0,0,1.71.43,2,2,0,0,0,1.52-.62,2.17,2.17,0,0,0,.59-1.57,2.46,2.46,0,0,0-.48-1.56A1.63,1.63,0,0,0,407,187Z"/><path class="cls-6" d="M448,189.93h-2.9c-1.56,0-2.33-.32-2.33-1a1.47,1.47,0,0,1,.4-.9l.68-.76q1.17-1.66,3.57-5a1.74,1.74,0,0,1,1.47-.75,1.22,1.22,0,0,1,.74.22.83.83,0,0,1,.37.73V188a3.41,3.41,0,0,1,1.27.2.8.8,0,0,1,.36.77.82.82,0,0,1-.56.83,2.74,2.74,0,0,1-1.07.12c0,.7,0,1.45,0,2.27a.89.89,0,0,1-.95.92c-.74,0-1.09-.49-1.05-1.45Zm0-5.18c-.47.74-1.2,1.83-2.17,3.26H448Z"/><path class="cls-6" d="M458.83,193.33c-.23,0-.58-.22-1.06-.65a7.72,7.72,0,0,1-1.18.48,2.94,2.94,0,0,1-.86.17,3.41,3.41,0,0,1-2.63-.94,4.47,4.47,0,0,1,.42-5.8,4.13,4.13,0,0,1,4.69-.86c.73.32,1.1.68,1.1,1.09a.68.68,0,0,1-.17.45,4.19,4.19,0,0,0-.11.73c0,.29,0,.63,0,1a7.13,7.13,0,0,0,.19,2l.34.75a3.73,3.73,0,0,1,.28.7.82.82,0,0,1-.29.64A1.08,1.08,0,0,1,458.83,193.33Zm-1.8-4.9q0-.24,0-.54c0-.2.05-.42.1-.67a1.49,1.49,0,0,0-.26-.1.54.54,0,0,0-.19,0,2.31,2.31,0,0,0-1.73.78,2.79,2.79,0,0,0-.39,3.25,1.18,1.18,0,0,0,1,.49,2.47,2.47,0,0,0,.86-.15,2.5,2.5,0,0,0,.75-.44A23.46,23.46,0,0,1,457,188.43Z"/><path class="cls-6" d="M464.17,193.39a4,4,0,0,1-2.68-.91,3.14,3.14,0,0,1-1.14-2.53,5.4,5.4,0,0,1,1-3,3.26,3.26,0,0,1,2.7-1.76,4.7,4.7,0,0,1,1.77.41c.81.33,1.22.71,1.22,1.15a.92.92,0,0,1-.24.63.87.87,0,0,1-.68.3,1.29,1.29,0,0,1-.75-.34,2.17,2.17,0,0,0-1.32-.34c-.37,0-.78.37-1.21,1.1a3.76,3.76,0,0,0-.63,1.83,1.44,1.44,0,0,0,.56,1.2,2.14,2.14,0,0,0,1.38.41,2.66,2.66,0,0,0,1.19-.37,3.08,3.08,0,0,1,.89-.37.9.9,0,0,1,.67.29.86.86,0,0,1,.28.64q0,.57-1.23,1.14A4.74,4.74,0,0,1,464.17,193.39Z"/><path class="cls-6" d="M397.2,219.37a4,4,0,0,1-.56-.06,4.16,4.16,0,0,0-.55-.06H394c-.18,0-.46,0-.83.07a6.88,6.88,0,0,1-.85.07l-.23,0-.23,0a.87.87,0,0,1-.89-.53,2.87,2.87,0,0,1-.14-1,4.06,4.06,0,0,1,.6-2.27,5.42,5.42,0,0,1,1.5-1.41l2-1.29A2.35,2.35,0,0,0,396,210.9c0-.19-.16-.37-.46-.55a1.76,1.76,0,0,0-.89-.27,2.73,2.73,0,0,0-1.64.68,2.63,2.63,0,0,1-1.18.69,1.17,1.17,0,0,1-.67-.19.73.73,0,0,1-.36-.65,1,1,0,0,1,.36-.76,8.77,8.77,0,0,1,1.53-1.13,4.08,4.08,0,0,1,4.22.14,2.3,2.3,0,0,1,1.16,2,3.75,3.75,0,0,1-.57,2.1,4.89,4.89,0,0,1-1.4,1.34c-.61.39-1.21.77-1.82,1.14a2.84,2.84,0,0,0-1.48,2.06c.27,0,.66-.07,1.18-.12,1-.05,1.77-.08,2.21-.08a3,3,0,0,1,1.24.27c.5.22.75.51.75.86a1,1,0,0,1-1,1Z"/><path class="cls-6" d="M406,219.76c-.23,0-.58-.22-1.07-.65a8.49,8.49,0,0,1-1.17.49,3.23,3.23,0,0,1-.87.16,3.4,3.4,0,0,1-2.62-.94,3.94,3.94,0,0,1-.88-2.8,4,4,0,0,1,1.3-3,4.29,4.29,0,0,1,3.09-1.24,4.17,4.17,0,0,1,1.6.39c.73.31,1.09.67,1.09,1.08a.67.67,0,0,1-.16.45,4.19,4.19,0,0,0-.11.73c0,.29,0,.63,0,1a7.13,7.13,0,0,0,.19,2l.34.75a4.77,4.77,0,0,1,.28.7.8.8,0,0,1-.3.64A1,1,0,0,1,406,219.76Zm-1.81-4.9c0-.16,0-.34,0-.54s.05-.42.1-.67a1.49,1.49,0,0,0-.26-.1.54.54,0,0,0-.2,0,2.3,2.3,0,0,0-1.72.78,2.47,2.47,0,0,0-.74,1.79,2.54,2.54,0,0,0,.34,1.46,1.2,1.2,0,0,0,1,.49,2.41,2.41,0,0,0,.85-.15,2.55,2.55,0,0,0,.76-.44A24.07,24.07,0,0,1,404.16,214.86Z"/><path class="cls-6" d="M313.09,209h-2.88c-.92,0-1.37-.29-1.37-.87s.51-1,1.53-1h.32v-6.44a2.2,2.2,0,0,1-.82.43,1,1,0,0,1-.71-.29.91.91,0,0,1-.3-.67,1.18,1.18,0,0,1,.48-.83l.82-.59.89-.71a1.8,1.8,0,0,1,1.05-.39q.66,0,.66.78c0,.58,0,1.39-.08,2.43s-.07,2.54-.07,4.48v1.76h.48a1,1,0,0,1,.71.27.88.88,0,0,1,.29.67.9.9,0,0,1-.29.67A1,1,0,0,1,313.09,209Z"/><path class="cls-6" d="M418.12,187.94a3.07,3.07,0,0,1-.56-.07,4.16,4.16,0,0,0-.55-.06h-2.14c-.18,0-.46,0-.83.06a6.62,6.62,0,0,1-.84.07l-.24,0a1.11,1.11,0,0,0-.23,0,.87.87,0,0,1-.88-.54,2.63,2.63,0,0,1-.15-1,4.06,4.06,0,0,1,.6-2.27,5.34,5.34,0,0,1,1.51-1.41l1.95-1.28a2.38,2.38,0,0,0,1.15-1.9c0-.18-.15-.37-.46-.55a1.76,1.76,0,0,0-.89-.27,2.64,2.64,0,0,0-1.63.69,2.79,2.79,0,0,1-1.18.68,1.18,1.18,0,0,1-.68-.19.72.72,0,0,1-.36-.64,1,1,0,0,1,.36-.77,9.77,9.77,0,0,1,1.53-1.13,4.06,4.06,0,0,1,4.22.15,2.27,2.27,0,0,1,1.16,2,3.75,3.75,0,0,1-.57,2.1,4.76,4.76,0,0,1-1.4,1.34c-.61.39-1.21.77-1.82,1.14a2.84,2.84,0,0,0-1.48,2.06l1.18-.12c1,0,1.77-.08,2.21-.08a3,3,0,0,1,1.24.27c.5.23.75.51.75.86a.93.93,0,0,1-.27.66A.92.92,0,0,1,418.12,187.94Z"/><path class="cls-6" d="M317.77,199.65H326a1,1,0,0,0,0-1.93h-8.25a1,1,0,0,0,0,1.93Z"/><path class="cls-6" d="M339.78,188.41H348a1,1,0,0,0,0-1.92h-8.25a1,1,0,0,0,0,1.92Z"/><path class="cls-6" d="M337.17,201.5H484.93a1,1,0,0,0,0-1.92H337.17a1,1,0,0,0,0,1.92Z"/><path class="cls-6" d="M424.83,188.41h8.25a1,1,0,0,0,0-1.92h-8.25a1,1,0,0,0,0,1.92Z"/><path class="cls-6" d="M368.22,188.41h8.25a1,1,0,0,0,0-1.92h-8.25a1,1,0,0,0,0,1.92Z"/><path class="cls-6" d="M373.31,191.57v-8.25a1,1,0,0,0-1.93,0v8.25a1,1,0,0,0,1.93,0Z"/><path class="cls-6" d="M318,204.46h8.38a1,1,0,0,0,0-1.92H318a1,1,0,0,0,0,1.92Z"/><path class="cls-6" d="M384.91,181.88,391,193.41a1,1,0,0,0,1.75-.23l6.69-20.33c.31-.95.63-1.91.94-2.87l-.92.71h68.91c3.17,0,6.38.14,9.55,0H478a1,1,0,0,0,0-1.93H409.12c-3.17,0-6.38-.14-9.55,0a.65.65,0,0,1-.14,0,1,1,0,0,0-.93.71l-6.69,20.33c-.31,1-.63,1.92-.94,2.87l1.76-.23-6.06-11.53c-.58-1.1-2.24-.13-1.66,1Z"/><path class="cls-6" d="M305.39,270.63l-1.07.93-1.11,1,2.22,2.7a1,1,0,0,1,.24.59.85.85,0,0,1-.31.66,1,1,0,0,1-.69.29,1,1,0,0,1-.73-.35c-.44-.48-1.16-1.33-2.16-2.57-.39.4-1,1-1.82,1.72q-.39.33-.6.54a1,1,0,0,1-.72.34,1,1,0,0,1-.69-.29.85.85,0,0,1-.3-.66,1.47,1.47,0,0,1,.59-1l1-.82,1.38-1.36-.82-1.14a6.12,6.12,0,0,0-.94-1,.93.93,0,0,1-.38-.71,1,1,0,0,1,.29-.67.9.9,0,0,1,.68-.29c.35,0,.82.34,1.43,1l1.16,1.5,1.24-1a7.54,7.54,0,0,0,1.11-1.15.93.93,0,0,1,.79-.44,1,1,0,0,1,.7.28.86.86,0,0,1,.31.65C306.15,269.74,305.89,270.14,305.39,270.63Z"/><path class="cls-6" d="M355.6,264.7a5.26,5.26,0,0,1-1.94-.35.88.88,0,0,1-.65.27,1,1,0,0,1-.67-.26.87.87,0,0,1-.28-.66c0-.11,0-.29,0-.53s0-.42,0-.54v-8.22a1.89,1.89,0,0,1,.23-.93.91.91,0,0,1,.83-.52q.78,0,.78.84a2.13,2.13,0,0,1,0,.3c0,.14,0,.24,0,.31v2.78a5.29,5.29,0,0,1,1-.45,3.29,3.29,0,0,1,.95-.15,3.46,3.46,0,0,1,2.76,1.24,4.21,4.21,0,0,1,1,2.82,3.94,3.94,0,0,1-1.14,2.86A3.86,3.86,0,0,1,355.6,264.7Zm.27-6.25a2.14,2.14,0,0,0-.87.22,6.17,6.17,0,0,0-1.11.65q0,.69,0,3.09a4.36,4.36,0,0,0,1.71.43,2,2,0,0,0,1.51-.62,2.18,2.18,0,0,0,.6-1.57,2.41,2.41,0,0,0-.49-1.56A1.63,1.63,0,0,0,355.87,258.45Z"/><path class="cls-6" d="M406.76,264.7a5.2,5.2,0,0,1-1.93-.35.89.89,0,0,1-.65.27,1,1,0,0,1-.68-.26.91.91,0,0,1-.28-.66c0-.11,0-.29,0-.53s0-.42,0-.54v-8.22a1.78,1.78,0,0,1,.23-.93.9.9,0,0,1,.83-.52c.52,0,.77.28.77.84a1.85,1.85,0,0,1,0,.3,2.39,2.39,0,0,0,0,.31v2.78a5.36,5.36,0,0,1,1-.45,3.19,3.19,0,0,1,1-.15,3.49,3.49,0,0,1,2.76,1.24,4.26,4.26,0,0,1,1,2.82,3.94,3.94,0,0,1-1.14,2.86A3.89,3.89,0,0,1,406.76,264.7Zm.28-6.25a2.07,2.07,0,0,0-.87.22,6.57,6.57,0,0,0-1.12.65v3.09a4.45,4.45,0,0,0,1.71.43,2,2,0,0,0,1.52-.62,2.17,2.17,0,0,0,.59-1.57,2.46,2.46,0,0,0-.48-1.56A1.63,1.63,0,0,0,407,258.45Z"/><path class="cls-6" d="M448,261.4h-2.9c-1.56,0-2.33-.32-2.33-.95a1.47,1.47,0,0,1,.4-.9l.68-.76q1.17-1.67,3.57-5a1.74,1.74,0,0,1,1.47-.75,1.22,1.22,0,0,1,.74.22.83.83,0,0,1,.37.73v5.46a3.41,3.41,0,0,1,1.27.2.8.8,0,0,1,.36.77.82.82,0,0,1-.56.83,2.74,2.74,0,0,1-1.07.12c0,.7,0,1.45,0,2.27a.89.89,0,0,1-.95.92c-.74,0-1.09-.49-1.05-1.45Zm0-5.18c-.47.74-1.2,1.83-2.17,3.26H448Z"/><path class="cls-6" d="M458.83,264.8c-.23,0-.58-.22-1.06-.65a9.11,9.11,0,0,1-1.18.49,3.24,3.24,0,0,1-.86.16,3.41,3.41,0,0,1-2.63-.94,4.47,4.47,0,0,1,.42-5.8,4.13,4.13,0,0,1,4.69-.86c.73.32,1.1.68,1.1,1.09a.68.68,0,0,1-.17.45,4.19,4.19,0,0,0-.11.73c0,.29,0,.63,0,1a7.13,7.13,0,0,0,.19,2l.34.75a3.73,3.73,0,0,1,.28.7.82.82,0,0,1-.29.64A1.08,1.08,0,0,1,458.83,264.8Zm-1.8-4.9q0-.24,0-.54c0-.2.05-.42.1-.67l-.26-.11-.19,0a2.31,2.31,0,0,0-1.73.78,2.79,2.79,0,0,0-.39,3.25,1.18,1.18,0,0,0,1,.49,2.47,2.47,0,0,0,.86-.15,2.5,2.5,0,0,0,.75-.44A23.46,23.46,0,0,1,457,259.9Z"/><path class="cls-6" d="M464.17,264.86a4,4,0,0,1-2.68-.91,3.14,3.14,0,0,1-1.14-2.53,5.4,5.4,0,0,1,1-3,3.26,3.26,0,0,1,2.7-1.76,4.86,4.86,0,0,1,1.77.4c.81.34,1.22.72,1.22,1.16a.92.92,0,0,1-.24.63.87.87,0,0,1-.68.3,1.29,1.29,0,0,1-.75-.34,2.17,2.17,0,0,0-1.32-.34c-.37,0-.78.37-1.21,1.1a3.76,3.76,0,0,0-.63,1.83,1.44,1.44,0,0,0,.56,1.2,2.14,2.14,0,0,0,1.38.41,2.66,2.66,0,0,0,1.19-.37,3.08,3.08,0,0,1,.89-.37.9.9,0,0,1,.67.29.87.87,0,0,1,.28.64q0,.57-1.23,1.14A4.74,4.74,0,0,1,464.17,264.86Z"/><path class="cls-6" d="M397.2,290.84a4,4,0,0,1-.56-.06,4.16,4.16,0,0,0-.55-.06H394c-.18,0-.46,0-.83.07a6.88,6.88,0,0,1-.85.07l-.23,0-.23,0a.87.87,0,0,1-.89-.53,2.87,2.87,0,0,1-.14-1,4.06,4.06,0,0,1,.6-2.27,5.42,5.42,0,0,1,1.5-1.41l2-1.29a2.35,2.35,0,0,0,1.15-1.89c0-.19-.16-.37-.46-.55a1.76,1.76,0,0,0-.89-.27,2.73,2.73,0,0,0-1.64.68,2.63,2.63,0,0,1-1.18.69,1.17,1.17,0,0,1-.67-.19.73.73,0,0,1-.36-.65,1,1,0,0,1,.36-.76,8.77,8.77,0,0,1,1.53-1.13,4.08,4.08,0,0,1,4.22.14,2.3,2.3,0,0,1,1.16,2,3.75,3.75,0,0,1-.57,2.1,4.89,4.89,0,0,1-1.4,1.34c-.61.39-1.21.77-1.82,1.14a2.84,2.84,0,0,0-1.48,2.06c.27,0,.66-.07,1.18-.12,1-.05,1.77-.08,2.21-.08a3,3,0,0,1,1.24.27c.5.22.75.51.75.86a1,1,0,0,1-1,1Z"/><path class="cls-6" d="M406,291.23c-.23,0-.58-.22-1.07-.65a8.49,8.49,0,0,1-1.17.49,3.23,3.23,0,0,1-.87.16,3.4,3.4,0,0,1-2.62-.94,3.94,3.94,0,0,1-.88-2.8,4,4,0,0,1,1.3-3,4.29,4.29,0,0,1,3.09-1.24,4.17,4.17,0,0,1,1.6.39c.73.31,1.09.67,1.09,1.08a.67.67,0,0,1-.16.45,4.19,4.19,0,0,0-.11.73c0,.29,0,.63,0,1a7.13,7.13,0,0,0,.19,2l.34.75a4.77,4.77,0,0,1,.28.7.8.8,0,0,1-.3.64A1,1,0,0,1,406,291.23Zm-1.81-4.9c0-.16,0-.34,0-.54s.05-.42.1-.67a1.49,1.49,0,0,0-.26-.1.54.54,0,0,0-.2,0,2.3,2.3,0,0,0-1.72.78,2.47,2.47,0,0,0-.74,1.79,2.54,2.54,0,0,0,.34,1.46,1.2,1.2,0,0,0,1,.49,2.41,2.41,0,0,0,.85-.15,2.55,2.55,0,0,0,.76-.44A24.07,24.07,0,0,1,404.16,286.33Z"/><path class="cls-6" d="M314.44,280.48a4,4,0,0,1-.56-.06,4,4,0,0,0-.55-.06H311.2c-.19,0-.47,0-.84.07a6.62,6.62,0,0,1-.84.07l-.23,0-.24,0a.86.86,0,0,1-.88-.53,2.63,2.63,0,0,1-.15-1,4.06,4.06,0,0,1,.6-2.27,5.48,5.48,0,0,1,1.51-1.41l1.95-1.29a2.34,2.34,0,0,0,1.15-1.89c0-.19-.15-.37-.46-.55a1.73,1.73,0,0,0-.89-.27,2.7,2.7,0,0,0-1.63.68,2.74,2.74,0,0,1-1.18.69,1.2,1.2,0,0,1-.68-.19.73.73,0,0,1-.36-.65,1,1,0,0,1,.36-.76,9.16,9.16,0,0,1,1.53-1.13,4.11,4.11,0,0,1,2-.52,4,4,0,0,1,2.26.66,2.3,2.3,0,0,1,1.16,2,3.75,3.75,0,0,1-.57,2.1,4.76,4.76,0,0,1-1.4,1.34c-.6.39-1.21.77-1.82,1.14a2.86,2.86,0,0,0-1.48,2.06c.27,0,.66-.07,1.18-.12,1-.05,1.77-.08,2.22-.08a3,3,0,0,1,1.23.27c.5.22.76.51.76.86a.93.93,0,0,1-.27.66A.94.94,0,0,1,314.44,280.48Z"/><path class="cls-6" d="M418.12,259.41a3.07,3.07,0,0,1-.56-.07,4.16,4.16,0,0,0-.55-.06h-2.14c-.18,0-.46,0-.83.06a6.62,6.62,0,0,1-.84.07l-.24,0-.23,0a.87.87,0,0,1-.88-.53,2.72,2.72,0,0,1-.15-1,4.06,4.06,0,0,1,.6-2.27,5.34,5.34,0,0,1,1.51-1.41l1.95-1.28a2.38,2.38,0,0,0,1.15-1.9c0-.18-.15-.37-.46-.55a1.76,1.76,0,0,0-.89-.27,2.64,2.64,0,0,0-1.63.69,2.79,2.79,0,0,1-1.18.68,1.18,1.18,0,0,1-.68-.19.72.72,0,0,1-.36-.64,1,1,0,0,1,.36-.77,9.77,9.77,0,0,1,1.53-1.13,4.12,4.12,0,0,1,4.22.15,2.27,2.27,0,0,1,1.16,2,3.72,3.72,0,0,1-.57,2.1,4.76,4.76,0,0,1-1.4,1.34c-.61.39-1.21.77-1.82,1.14a2.85,2.85,0,0,0-1.48,2.06l1.18-.12c1-.05,1.77-.08,2.21-.08a3,3,0,0,1,1.24.27c.5.23.75.51.75.86a.93.93,0,0,1-.27.66A.92.92,0,0,1,418.12,259.41Z"/><path class="cls-6" d="M317.77,271.12H326a1,1,0,0,0,0-1.92h-8.25a1,1,0,0,0,0,1.92Z"/><path class="cls-6" d="M339.78,259.88H348a1,1,0,0,0,0-1.92h-8.25a1,1,0,0,0,0,1.92Z"/><path class="cls-6" d="M337.17,273H484.93a1,1,0,0,0,0-1.92H337.17a1,1,0,0,0,0,1.92Z"/><path class="cls-6" d="M424.83,259.88h8.25a1,1,0,0,0,0-1.92h-8.25a1,1,0,0,0,0,1.92Z"/><path class="cls-6" d="M368.22,259.88h8.25a1,1,0,0,0,0-1.92h-8.25a1,1,0,0,0,0,1.92Z"/><path class="cls-6" d="M373.31,263v-8.25a1,1,0,0,0-1.93,0V263a1,1,0,0,0,1.93,0Z"/><path class="cls-6" d="M318,275.93h8.38a1,1,0,0,0,0-1.92H318a1,1,0,0,0,0,1.92Z"/><path class="cls-6" d="M384.91,253.35,391,264.89a1,1,0,0,0,1.75-.23l6.69-20.33c.31-1,.63-1.92.94-2.88l-.92.71h68.91c3.17,0,6.38.14,9.55,0H478a1,1,0,0,0,0-1.92H409.12c-3.17,0-6.38-.14-9.55,0h-.14a1,1,0,0,0-.93.7l-6.69,20.33c-.31,1-.63,1.92-.94,2.87l1.76-.23-6.06-11.53c-.58-1.09-2.24-.12-1.66,1Z"/><path class="cls-6" d="M556.68,240.23a37,37,0,0,1-31.48-17.46,29.66,29.66,0,0,1,9.55-40.84,23.82,23.82,0,0,1,32.77,7.66,19.13,19.13,0,0,1-6.15,26.31A15.38,15.38,0,0,1,540.22,211a12.36,12.36,0,0,1,4-17,10,10,0,0,1,13.71,3.2,8,8,0,0,1-2.59,11.06.34.34,0,0,1-.48-.11.35.35,0,0,1,.11-.48,7.34,7.34,0,0,0,2.36-10.1,9.27,9.27,0,0,0-12.74-3,11.65,11.65,0,0,0-3.75,16.05A14.68,14.68,0,0,0,561,215.31,18.44,18.44,0,0,0,566.93,190a23.14,23.14,0,0,0-31.81-7.44,29,29,0,0,0-9.32,39.88,36.32,36.32,0,0,0,50,11.68,45.42,45.42,0,0,0,14.63-62.57.36.36,0,0,1,.12-.49.35.35,0,0,1,.48.12,46.15,46.15,0,0,1-14.86,63.54A36.75,36.75,0,0,1,556.68,240.23Z"/><path class="cls-6" d="M556.68,240.73a37.29,37.29,0,0,1-31.9-17.7,30.14,30.14,0,0,1,9.71-41.52A24.32,24.32,0,0,1,568,189.33a19.64,19.64,0,0,1-6.32,27,15.87,15.87,0,0,1-21.83-5.11,12.84,12.84,0,0,1,4.14-17.7,10.46,10.46,0,0,1,14.39,3.37,8.54,8.54,0,0,1-2.74,11.75.86.86,0,0,1-.63.11.83.83,0,0,1-.54-.39.85.85,0,0,1-.11-.64.86.86,0,0,1,.38-.53,6.84,6.84,0,0,0,2.2-9.41,8.76,8.76,0,0,0-12-2.81,11.13,11.13,0,0,0-3.59,15.35,14.16,14.16,0,0,0,19.49,4.56,17.93,17.93,0,0,0,5.76-24.66A22.62,22.62,0,0,0,535.39,183a28.46,28.46,0,0,0-9.17,39.19,35.84,35.84,0,0,0,49.28,11.52A45,45,0,0,0,590,171.77a.8.8,0,0,1-.1-.64.85.85,0,0,1,1-.64.91.91,0,0,1,.54.38,46.65,46.65,0,0,1-15,64.23A37.38,37.38,0,0,1,556.68,240.73Zm-1.63-32.94Z"/><path class="cls-6" d="M551,254.68a.35.35,0,0,1-.35-.35V145a.35.35,0,0,1,.35-.35.35.35,0,0,1,.35.35V254.33A.35.35,0,0,1,551,254.68Z"/><path class="cls-6" d="M551,255.18a.86.86,0,0,1-.85-.85V145a.85.85,0,0,1,1.7,0V254.33A.86.86,0,0,1,551,255.18Z"/><path class="cls-6" d="M607.62,202H507.42a.35.35,0,1,1,0-.7h100.2a.35.35,0,1,1,0,.7Z"/><path class="cls-6" d="M607.62,202.46H507.42a.85.85,0,0,1,0-1.7h100.2a.85.85,0,0,1,0,1.7Z"/><path class="cls-6" d="M605.13,203.41a.38.38,0,0,1-.31-.18.37.37,0,0,1,.13-.48l1.83-1.05-2-.71a.35.35,0,0,1-.21-.45.35.35,0,0,1,.45-.21l2.71,1a.34.34,0,0,1,.06.63l-2.49,1.43A.34.34,0,0,1,605.13,203.41Z"/><path class="cls-6" d="M605.13,203.91a.86.86,0,0,1-.74-.43.87.87,0,0,1-.08-.65.82.82,0,0,1,.4-.51l.88-.51-1-.35a.86.86,0,0,1-.48-.44.81.81,0,0,1,0-.65.84.84,0,0,1,1.08-.51l2.72,1a.85.85,0,0,1,.56.72.83.83,0,0,1-.42.81l-2.49,1.43A.76.76,0,0,1,605.13,203.91Zm-.08-1Z"/><path class="cls-6" d="M552.68,149.46a.35.35,0,0,1-.33-.22l-1.29-3.35-1.46,3.36a.35.35,0,0,1-.46.18A.34.34,0,0,1,549,149l1.79-4.14a.39.39,0,0,1,.33-.21.35.35,0,0,1,.32.22L553,149a.36.36,0,0,1-.2.46Z"/><path class="cls-6" d="M552.68,150a.85.85,0,0,1-.79-.54l-.86-2.21-1,2.24a.85.85,0,0,1-1.56-.68l1.79-4.14a.9.9,0,0,1,.77-.51.88.88,0,0,1,.81.54l1.6,4.14a.89.89,0,0,1,0,.66.87.87,0,0,1-.48.44A.8.8,0,0,1,552.68,150Z"/><path class="cls-6" d="M542.39,147.22l-2.13,4.41c-.53,1.08-.93,2-1.21,2.68-.08.26-.22.64-.41,1.14a.79.79,0,0,1-.79.58.9.9,0,0,1-.62-.23.7.7,0,0,1-.26-.57,14,14,0,0,1,1.31-3.41c-.46-.9-1.18-2.21-2.16-4l-.31-.47a1.06,1.06,0,0,1-.16-.52.8.8,0,0,1,.26-.59.88.88,0,0,1,.62-.25.74.74,0,0,1,.63.3,23.26,23.26,0,0,1,2.05,3.52q.66-1.47.81-1.77c.29-.61.58-1.15.86-1.62a.81.81,0,0,1,.73-.45.91.91,0,0,1,.62.24.74.74,0,0,1,.27.57A.93.93,0,0,1,542.39,147.22Z"/><path class="cls-6" d="M611.27,187l-.91.8-.94.87,1.89,2.31a.84.84,0,0,1,.2.5.76.76,0,0,1-.26.57.84.84,0,0,1-.59.24.8.8,0,0,1-.62-.3c-.37-.4-1-1.13-1.84-2.18-.34.33-.85.82-1.56,1.46a5,5,0,0,0-.5.46.83.83,0,0,1-1.21.05.77.77,0,0,1-.25-.57,1.26,1.26,0,0,1,.5-.82l.82-.7c.25-.25.64-.64,1.18-1.16l-.7-1a5.21,5.21,0,0,0-.81-.89.75.75,0,0,1-.07-1.17.76.76,0,0,1,.58-.25c.29,0,.7.29,1.21.88l1,1.28,1.06-.89a6.22,6.22,0,0,0,.94-1,.8.8,0,0,1,.68-.38.92.92,0,0,1,.6.23.76.76,0,0,1,.26.56C611.92,186.24,611.7,186.58,611.27,187Z"/></g><g id="Speech_Bubble" data-name="Speech Bubble"><path class="cls-5" d="M52.26,53.59a49,49,0,0,0-39,60.8c7.05,26.67,35.7,42.52,62,34.3a48.71,48.71,0,0,0,22-14.23,6.88,6.88,0,0,0,.58-.73l0-.06a56.89,56.89,0,0,0,10.71-39,43.63,43.63,0,0,0-3.33-13A49.13,49.13,0,0,0,52.26,53.59Z"/><path class="cls-6" d="M52.26,53.59a4.46,4.46,0,0,1,.78-.16l2.3-.36a48.86,48.86,0,0,1,9-.27,50.43,50.43,0,0,1,13.85,3.06,49.81,49.81,0,0,1,16,9.8,51.15,51.15,0,0,1,7.22,8.26,48.33,48.33,0,0,1,5.48,10.56,52.19,52.19,0,0,1,1.57,26A58.56,58.56,0,0,1,104.07,124a55.31,55.31,0,0,1-3.47,6.47c-.63,1.07-1.33,2.09-2,3.12a23,23,0,0,1-2.48,2.89,48.73,48.73,0,0,1-27.25,14.22,46.5,46.5,0,0,1-15.79,0,52.87,52.87,0,0,1-7.55-1.8l-3.59-1.35c-1.2-.42-2.3-1.09-3.44-1.61a48.73,48.73,0,0,1-12.1-8.54L25,136.14l-1.2-1.35c-.78-.92-1.63-1.77-2.34-2.72a49.18,49.18,0,0,1-3.89-5.86A48.23,48.23,0,0,1,11.22,101,44.5,44.5,0,0,1,11.69,95c.24-2,.78-3.86,1.15-5.73.6-1.81,1.12-3.62,1.78-5.32S16,80.55,16.88,79A49.84,49.84,0,0,1,28.61,64.39a50.84,50.84,0,0,1,6.31-4.46,41.92,41.92,0,0,1,5.76-3,16.62,16.62,0,0,1,2.56-1l2.29-.77a24.46,24.46,0,0,1,3.67-1l2.28-.47a3.55,3.55,0,0,1,.78-.13,4.4,4.4,0,0,1-.76.23l-2.25.58a26.6,26.6,0,0,0-3.62,1.05l-2.26.82a16.59,16.59,0,0,0-2.53,1,42.49,42.49,0,0,0-5.66,3A51.23,51.23,0,0,0,29,64.83,49.85,49.85,0,0,0,17.54,79.38c-.86,1.5-1.44,3.18-2.19,4.81s-1.15,3.46-1.73,5.25c-.35,1.85-.88,3.7-1.1,5.64a44.79,44.79,0,0,0-.44,6,48.56,48.56,0,0,0,10.2,30.43c.7.93,1.53,1.77,2.29,2.66l1.18,1.32,1.3,1.21A47.61,47.61,0,0,0,38.92,145c1.13.51,2.2,1.16,3.38,1.57l3.51,1.33a52.61,52.61,0,0,0,7.39,1.75,45.34,45.34,0,0,0,15.46,0,47.75,47.75,0,0,0,26.68-13.9A20.46,20.46,0,0,0,97.72,133c.7-1,1.39-2,2-3.06a55,55,0,0,0,3.42-6.36,57.57,57.57,0,0,0,4.3-13.27A51.39,51.39,0,0,0,106,84.77a47.52,47.52,0,0,0-5.33-10.39,50.46,50.46,0,0,0-7-8.17,49.42,49.42,0,0,0-15.7-9.8A51,51,0,0,0,64.27,53.2a54.18,54.18,0,0,0-8.9.08l-2.31.26A4.36,4.36,0,0,1,52.26,53.59Z"/><path class="cls-6" d="M107.54,140.23c0,.07-.75,0-2,.34a8.33,8.33,0,0,0-4.53,3,8.09,8.09,0,0,0,11,11.66,8,8,0,0,0,2.91-3.67,8.18,8.18,0,0,0-.94-7.71,8.43,8.43,0,0,0-4.39-3.16c-1.26-.37-2-.36-2-.43s.19,0,.54,0a6.23,6.23,0,0,1,1.54.21,8.3,8.3,0,0,1,4.7,3.13,8.61,8.61,0,0,1-2,12.2,8.81,8.81,0,0,1-5.19,1.59,8.72,8.72,0,0,1-5.11-1.82,8.5,8.5,0,0,1-2.92-4.12,8.6,8.6,0,0,1,1.49-8.15,8.3,8.3,0,0,1,4.84-2.92,6.05,6.05,0,0,1,1.54-.15Q107.54,140.19,107.54,140.23Z"/><path class="cls-2" d="M50.74,81.92a23,23,0,0,1,5.58-2.42L57.46,74l9.33-.16,1.34,5.47a23,23,0,0,1,5.66,2.23l4.71-3.09,6.71,6.48-2.92,4.81a23.3,23.3,0,0,1,2.42,5.58l5.52,1.15.16,9.32-5.47,1.34a22.84,22.84,0,0,1-2.23,5.66l3.09,4.71-6.48,6.71-4.81-2.92a22.74,22.74,0,0,1-5.58,2.42l-1.15,5.52-9.32.17L57.1,123.9a22.81,22.81,0,0,1-5.66-2.22l-4.71,3.09L40,118.29l2.92-4.82a22.58,22.58,0,0,1-2.42-5.58L35,106.75l-.17-9.33,5.48-1.34a23,23,0,0,1,2.22-5.66l-3.08-4.71L45.92,79l4.82,2.92Zm5,12.42a10,10,0,1,0,14.15-.24A10,10,0,0,0,55.71,94.34Z"/><path class="cls-10" d="M50.74,81.92a23,23,0,0,1,5.58-2.42L57.46,74l9.33-.16,1.34,5.47a23,23,0,0,1,5.66,2.23l4.71-3.09,6.71,6.48-2.92,4.81a23.3,23.3,0,0,1,2.42,5.58l5.52,1.15.16,9.32-5.47,1.34a22.84,22.84,0,0,1-2.23,5.66l3.09,4.71-6.48,6.71-4.81-2.92a22.74,22.74,0,0,1-5.58,2.42l-1.15,5.52-9.32.17L57.1,123.9a22.81,22.81,0,0,1-5.66-2.22l-4.71,3.09L40,118.29l2.92-4.82a22.58,22.58,0,0,1-2.42-5.58L35,106.75l-.17-9.33,5.48-1.34a23,23,0,0,1,2.22-5.66l-3.08-4.71L45.92,79l4.82,2.92Zm5,12.42a10,10,0,1,0,14.15-.24A10,10,0,0,0,55.71,94.34Z"/><path class="cls-6" d="M55.71,94.34a7.7,7.7,0,0,1,1.87-1.62,10.11,10.11,0,0,1,10.94,0,10.28,10.28,0,0,1,3.58,4A9.75,9.75,0,0,1,73,99.6a9.56,9.56,0,0,1,0,3.07,10.18,10.18,0,0,1-8.42,8.72,10.12,10.12,0,0,1-5.9-.75,10.15,10.15,0,0,1-4.16-3.44,10.09,10.09,0,0,1-.43-10.93,7.92,7.92,0,0,1,1.56-1.93,24.35,24.35,0,0,0-1.38,2,10,10,0,0,0-1.12,6.41A9.76,9.76,0,0,0,54.93,107a9.87,9.87,0,0,0,4,3.25,9.31,9.31,0,0,0,2.7.75,9,9,0,0,0,2.92-.06,9.71,9.71,0,0,0,8-8.29,9.51,9.51,0,0,0,0-2.92A9.37,9.37,0,0,0,71.67,97a9.76,9.76,0,0,0-7.62-5.46,10,10,0,0,0-6.36,1.34A23.44,23.44,0,0,0,55.71,94.34Z"/><path class="cls-6" d="M50.74,81.92a1.53,1.53,0,0,1-.31-.16l-.92-.54-3.63-2.15H46c-1.65,1.73-3.81,4-6.44,6.74l0-.16,3.1,4.7.05.08,0,.08a22.94,22.94,0,0,0-2.2,5.62l0,.1-.1,0L34.88,97.6l.14-.18q.09,4.41.18,9.32l-.16-.19,5.52,1.13.13,0,0,.13a23.17,23.17,0,0,0,2.41,5.51l.07.12-.07.12-2.91,4.82,0-.29,6.72,6.47-.31,0,4.71-3.09.13-.08.13.07a22.86,22.86,0,0,0,5.6,2.2l.14,0,0,.15c.42,1.72.88,3.59,1.35,5.48l-.26-.2,9.33-.17-.25.21c.36-1.74.75-3.62,1.15-5.52l0-.15.15,0a22.67,22.67,0,0,0,5.51-2.39h0l.14-.08.13.08L79.44,124l-.32,0,6.47-6.71,0,.33q-1.55-2.38-3.08-4.72l-.09-.13.08-.13a22.49,22.49,0,0,0,2.2-5.6l0-.14.15,0,5.47-1.34-.19.25Q90.07,101,90,96.45l.19.23-5.52-1.15-.14,0,0-.14a22.74,22.74,0,0,0-2.4-5.52L82,89.72l.07-.11L85,84.8l0,.26-6.7-6.49.25,0-4.72,3.08-.1.06-.09-.06a22.8,22.8,0,0,0-5.61-2.22l-.1,0,0-.1-1.32-5.47.15.11-9.32.13.11-.09L56.4,79.52v0h0a22.81,22.81,0,0,0-4.26,1.65l-1,.52a2.28,2.28,0,0,1-.33.17l.31-.21c.22-.13.54-.32,1-.56a22.1,22.1,0,0,1,4.25-1.73l-.06.06c.31-1.5.67-3.31,1.12-5.52l0-.09h.09l9.32-.2h.13l0,.12c.42,1.69.86,3.48,1.36,5.47l-.13-.12a22.85,22.85,0,0,1,5.71,2.23h-.2l4.71-3.1.13-.08.12.11,6.72,6.46.12.12-.09.15c-.94,1.57-1.91,3.17-2.91,4.82v-.23a22.76,22.76,0,0,1,2.45,5.63l-.17-.17,5.52,1.14.18,0v.2q.07,4.55.17,9.32v.2l-.19,0L85,107.36l.18-.18a22.7,22.7,0,0,1-2.25,5.72v-.27L86,117.34l.11.17-.14.15-6.48,6.71-.14.15-.18-.11-4.82-2.92h.27A23.33,23.33,0,0,1,69,123.94l.18-.19c-.39,1.89-.78,3.77-1.15,5.52l0,.2h-.2l-9.33.16h-.2l-.05-.2L56.85,124l.19.19a23.14,23.14,0,0,1-5.72-2.26h.25L46.86,125l-.16.1-.14-.13-6.7-6.49-.14-.12.1-.16,2.93-4.82v.24A22.94,22.94,0,0,1,40.31,108l.16.16L35,107l-.16,0v-.16c0-3.27-.1-6.39-.14-9.32v-.15l.14,0,5.48-1.33-.13.13a23.39,23.39,0,0,1,2.26-5.69v.16c-1.11-1.7-2.14-3.3-3.07-4.73l-.06-.09.07-.07L45.86,79l0,0,.06,0,3.55,2.21.91.57Z"/></g><g id="Character"><path class="cls-11" d="M267.85,277.69,257,216.14c-5.55-48.1-6.5-106.74-14.16-121.81C228.7,66.5,188.59,67.09,188.59,67.09c-53.26.57-59.37,42-61.66,79.54-.38,6.36-2.13,17.75-4.47,31-5.62,27.54-13.19,56-31.27,75.86a48.35,48.35,0,0,0-12,28c-.86,10.22,5.5,21.93,15.72,22.79a23.51,23.51,0,0,0,6.74,36.51c8.93,4.63,19.68,3.11,29.54,1.14s20-4.5,27.29-11.33,10.48-16.95,12.73-26.7a229.06,229.06,0,0,0,5.31-35.72Z"/><path class="cls-12" d="M196.87,81.48,193.3,78.6,158.69,96a10,10,0,0,0-8.64,10.45l15.09,119.4c.6,7.91-2.4,11.85,2.89,17.77l36.32,39.32c12.71,14.19,8.91-19,16.61-36.47.54-1.21-2.57-5.33-2.44-6.18a26.34,26.34,0,0,0,.32-2.65c.29-9.47-.32-17.61-.32-17.61-.21-10.36-.35-14.6-.34-14.51s21.72-4.33,25.32-33c1.8-14.24-.34-33.45-2.74-52.34C237.46,94.07,218,79.72,196.87,81.48Z"/><path class="cls-6" d="M200.22,143.87a3.66,3.66,0,0,1-3.41,3.8,3.49,3.49,0,0,1-3.87-3.17,3.66,3.66,0,0,1,3.4-3.8A3.51,3.51,0,0,1,200.22,143.87Z"/><path class="cls-6" d="M235.38,141.78a3.66,3.66,0,0,1-3.41,3.8,3.5,3.5,0,0,1-3.87-3.18,3.67,3.67,0,0,1,3.4-3.8A3.51,3.51,0,0,1,235.38,141.78Z"/><path class="cls-6" d="M237.64,128c-.44.49-3.27-1.47-7.21-1.34s-6.75,2.2-7.19,1.73c-.21-.2.22-1.08,1.45-2a10,10,0,0,1,5.74-2,9.64,9.64,0,0,1,5.75,1.66C237.42,126.94,237.85,127.79,237.64,128Z"/><path class="cls-6" d="M197.94,131.69c-.49.44-3.11-1.8-7-2.07s-6.94,1.49-7.33,1c-.2-.22.32-1,1.64-1.87a10,10,0,0,1,5.91-1.38,9.67,9.67,0,0,1,5.55,2.24C197.82,130.6,198.17,131.49,197.94,131.69Z"/><path class="cls-6" d="M214,159.06c0-.22,2.41-.72,6.35-1.35,1-.14,1.95-.37,2.1-1.06s-.25-1.8-.77-3l-3.22-7.55c-4.47-10.75-7.74-19.6-7.31-19.78s4.42,8.4,8.89,19.15l3.09,7.6c.42,1.13,1.11,2.4.65,3.92a2.52,2.52,0,0,1-1.61,1.52,6.86,6.86,0,0,1-1.69.3C216.46,159.19,214,159.29,214,159.06Z"/><path class="cls-13" d="M218.18,205.5a72.57,72.57,0,0,1-38.49-8.95s10.23,19.42,38.66,15.83Z"/><path class="cls-13" d="M212.61,168.59a7.12,7.12,0,0,0-6.44-2.43,6.49,6.49,0,0,0-4.39,2.54,4.12,4.12,0,0,0-.16,4.7c1.11,1.46,3.34,1.73,5.2,1.14a15,15,0,0,0,4.93-3.16,4.55,4.55,0,0,0,1.08-1.2,1.31,1.31,0,0,0-.05-1.46"/><path class="cls-6" d="M202.48,162.16c.64-.06.78,4.2,4.54,7.12s8.27,2.29,8.33,2.89c.06.26-1,.86-2.91,1A10.59,10.59,0,0,1,205.5,171a9.23,9.23,0,0,1-3.53-6C201.75,163.21,202.19,162.14,202.48,162.16Z"/><path class="cls-11" d="M200.43,116.11c-.47,1-4.35.26-9,.5s-8.46,1.22-9,.22c-.24-.47.48-1.43,2.05-2.36a15.7,15.7,0,0,1,13.7-.55C199.84,114.72,200.63,115.62,200.43,116.11Z"/><path class="cls-11" d="M235.69,111.23c-.66.91-3.4.08-6.66.14s-6,.79-6.66-.12c-.3-.45.11-1.36,1.29-2.24a9.62,9.62,0,0,1,10.73,0C235.57,109.88,236,110.78,235.69,111.23Z"/><path class="cls-11" d="M154.87,156.15s20.57,4.59,27.84-45.84c2.48-17.25,17-32.24,17-32.24l-6.52-1.39S154.6,91.08,154,91.63s-8.29,21.28-8.29,21.28Z"/><path class="cls-12" d="M159.66,153.9c-.08-2.12-2.69-7-4.79-7.3-5.63-.7-15.7.08-15.34,14.29.5,19.43,19.91,14.92,19.93,14.37S159.91,161.23,159.66,153.9Z"/><path class="cls-13" d="M153.33,168.05c-.09-.06-.33.24-.9.52a3.37,3.37,0,0,1-2.52.12c-2.08-.7-3.89-3.92-4.07-7.42a11.11,11.11,0,0,1,.82-4.87,3.9,3.9,0,0,1,2.48-2.66,1.71,1.71,0,0,1,2,.87c.28.54.16.93.27,1s.41-.33.23-1.13a2.13,2.13,0,0,0-.8-1.2,2.55,2.55,0,0,0-1.88-.45c-1.5.15-2.81,1.56-3.46,3.11a11.44,11.44,0,0,0-1,5.44c.22,3.91,2.32,7.53,5.15,8.27a3.61,3.61,0,0,0,3.08-.6C153.31,168.52,153.4,168.08,153.33,168.05Z"/><path class="cls-11" d="M167.69,145.56a25.51,25.51,0,0,0,2.85-.82,17.58,17.58,0,0,0,6.56-4.56,24,24,0,0,0,3.24-4.51,32.25,32.25,0,0,0,2.46-5.89c1.37-4.31,2.06-9.25,3-14.41s2-10,3.29-14.4a81.16,81.16,0,0,1,4.14-11.35,60,60,0,0,1,3.87-7.16c.51-.81,1-1.41,1.25-1.83a3.57,3.57,0,0,1,.47-.61,5,5,0,0,1-.39.67c-.25.44-.68,1-1.16,1.88a65.91,65.91,0,0,0-3.7,7.2,84.9,84.9,0,0,0-4,11.33c-1.24,4.35-2.3,9.22-3.24,14.37s-1.65,10.1-3.06,14.46a31.61,31.61,0,0,1-2.54,5.95,23.83,23.83,0,0,1-3.35,4.55,17.25,17.25,0,0,1-6.75,4.5A10.51,10.51,0,0,1,167.69,145.56Z"/><path class="cls-7" d="M117,305l38.13,92.57-12,43.72H294.39s-10-45.67-10.59-55.93,0-68.87-4.89-89S260,233.2,260,233.2l-41.18-6.54c-18.88,10.14-33.71,8.44-54-3.31l-37.33,18.34Z"/><g class="cls-14"><path d="M284.86,392.1,168.8,403.6c8.37-.17,14.8,6.91,22,11.1,13.41,7.75,30.11,5.58,45.41,3.18l38-6c3.2-.5,6.61-1.1,9-3.32C287.5,404.59,286.34,397.72,284.86,392.1Z"/></g><path class="cls-12" d="M196.22,382.56,176.79,363.8a9,9,0,0,0-7.08-2.48c-5.55.52-15,1.5-16.88,2.25-2.78,1.08-5.4,2.63-6.18,4a82.9,82.9,0,0,0-3.55,11,26.6,26.6,0,0,0,.31,3.95,2.75,2.75,0,0,0,4,2.1,4.52,4.52,0,0,0,1.84-1.73c1.23-2.31,1.08-3.24,1.08-3.24s-.62,8.34,6.18,8.49c0,0-3.13,7.11,5.61,10,0,0-.32,4.63,7,5.25a88.73,88.73,0,0,0,14,0s13.37,9.6,22.79,10.22,30.51-3.5,30.51-3.5l2.54-38.84Z"/><path class="cls-13" d="M169.89,370.66a19.82,19.82,0,0,1-3.11,1.3c-1.95.73-4.67,1.71-7.75,2.53-1.53.43-3.07.67-4.35,1a4.66,4.66,0,0,0-2.64,2.17,21.8,21.8,0,0,1-1.41,2c-.38.46-.65.65-.67.63a5.88,5.88,0,0,1,.51-.75c.33-.47.72-1.21,1.26-2.11a7.05,7.05,0,0,1,1.05-1.39,4.25,4.25,0,0,1,1.76-1c1.36-.4,2.82-.64,4.35-1.08,3.06-.81,5.79-1.72,7.77-2.36A22.16,22.16,0,0,1,169.89,370.66Z"/><path class="cls-13" d="M172.39,382.57a10.07,10.07,0,0,1-2.16,1c-1.36.55-3.27,1.25-5.39,2s-4.07,1.3-5.49,1.68a10.24,10.24,0,0,1-2.33.5,11.4,11.4,0,0,1,2.22-.85l5.43-1.82,5.43-1.82A11.18,11.18,0,0,1,172.39,382.57Z"/><path class="cls-13" d="M177.2,393.64c0,.16-3.39.51-7.43,1.61s-7.17,2.49-7.23,2.35a8.1,8.1,0,0,1,2-1.06A36.75,36.75,0,0,1,175,393.73,8.65,8.65,0,0,1,177.2,393.64Z"/><path class="cls-12" d="M222.21,412.6l86-14.94s-10.13-42.07-25.25-42.07c-2.21,0-77.05,28-77.05,28Z"/><path class="cls-7" d="M259,233.13s12.5,2.67,21.4,20.86c8.8,18,42.83,97.17,44.16,110.46s-9.45,31.17-18.84,33.64l-29-42.5.89-6.2-24.26-80.91Z"/><path class="cls-13" d="M207.12,393.77a16,16,0,0,1-2-1.85l-4.71-4.63c-1.83-1.82-3.46-3.49-4.61-4.74a12.09,12.09,0,0,1-1.75-2.11,17,17,0,0,1,2,1.85l4.71,4.63c1.83,1.82,3.46,3.49,4.61,4.74A13.21,13.21,0,0,1,207.12,393.77Z"/><path class="cls-6" d="M265.32,263.24a1,1,0,0,1,.17.18l.47.56c.4.5,1,1.2,1.74,2.19a57,57,0,0,1,5.38,8.78,72,72,0,0,1,5.32,14.31,95.07,95.07,0,0,1,2.79,18.48c.65,13.29-1,25.27-2.23,33.84-.65,4.3-1.24,7.76-1.65,10.16l-.5,2.75c-.06.28-.1.52-.14.71a1,1,0,0,1-.07.24.94.94,0,0,1,0-.25l.09-.72c.09-.67.23-1.6.4-2.77.35-2.44.86-5.91,1.48-10.17,1.16-8.58,2.72-20.54,2.08-33.76a95.76,95.76,0,0,0-2.74-18.39,73.72,73.72,0,0,0-5.18-14.27,62,62,0,0,0-5.21-8.82c-.67-1-1.29-1.72-1.66-2.25l-.43-.58C265.36,263.32,265.31,263.25,265.32,263.24Z"/><path class="cls-6" d="M308.85,352.39a6,6,0,0,1-1.18-.31l-3.19-1a54.23,54.23,0,0,0-10.67-2.35A24.55,24.55,0,0,0,283.07,350a29.37,29.37,0,0,0-4.05,2,4.65,4.65,0,0,1,1-.77,15.62,15.62,0,0,1,3-1.58,23.62,23.62,0,0,1,10.92-1.41,47.72,47.72,0,0,1,10.74,2.52c1.33.46,2.4.86,3.13,1.15A4.72,4.72,0,0,1,308.85,352.39Z"/><path class="cls-6" d="M305.34,333.55a5,5,0,0,1-1.18.45c-.77.25-1.88.64-3.23,1.16a55.93,55.93,0,0,0-10,5.16,54.89,54.89,0,0,0-8.72,7.15c-1,1-1.81,1.89-2.35,2.5a5.84,5.84,0,0,1-.88.91,7.51,7.51,0,0,1,.73-1c.49-.65,1.25-1.55,2.24-2.62a47.7,47.7,0,0,1,18.88-12.4c1.37-.48,2.5-.82,3.29-1A6.35,6.35,0,0,1,305.34,333.55Z"/><g class="cls-14"><path d="M275.71,282a107,107,0,0,1,5.56,56.38l15.57-5.81a48.8,48.8,0,0,1-16.18,14.19c4.2-1.22,8.5-2.44,12.86-2.16s8.87,2.39,10.83,6.29c-5.09-.93-10.27-1.86-15.41-1.26s-10.32,3-13.09,7.35a180.55,180.55,0,0,0,4.38-50.66"/></g><path class="cls-11" d="M174.73,238.58C167.46,223.13,159.34,207,160.59,190c-8.06,2.6-13.16,12.1-10.87,20.26l-5.86,15.63a88.5,88.5,0,0,0,40.77,61.87C188.74,271.19,182,254,174.73,238.58Z"/><path class="cls-7" d="M129.25,240.56s-28.87,16.84-21.39,47.84c8.42,34.93,86.17,87.1,86.17,87.1-3.65-21.59-.81-42.24,11-61.59l-40.25-37.29"/><path class="cls-6" d="M164.79,276.62s.26.21.74.64l2.12,1.93,8.1,7.44,29.43,27.14.12.11-.09.14a84.89,84.89,0,0,0-10.79,27.5,94,94,0,0,0-.14,33.94l.1.59-.5-.34c-8.19-5.59-16.49-11.69-24.82-18.17-16.27-12.74-31.17-25.75-43.07-39.18-1.51-1.65-2.89-3.39-4.3-5.05s-2.72-3.39-3.92-5.14a77.33,77.33,0,0,1-6.54-10.49,41.35,41.35,0,0,1-4.72-21.46,39.94,39.94,0,0,1,5.14-17.44,49.32,49.32,0,0,1,8.4-10.93,53,53,0,0,1,6.65-5.64c.81-.58,1.45-1,1.88-1.27s.67-.38.67-.38l-.64.43c-.42.28-1.05.71-1.85,1.3a56.25,56.25,0,0,0-6.57,5.7,49.56,49.56,0,0,0-8.28,10.93,39.68,39.68,0,0,0-5,17.32,41,41,0,0,0,4.74,21.25,76.66,76.66,0,0,0,6.52,10.41c1.2,1.74,2.59,3.39,3.92,5.11s2.78,3.38,4.29,5c11.89,13.38,26.78,26.37,43,39.09,8.32,6.47,16.61,12.58,24.79,18.16l-.4.26a94.5,94.5,0,0,1,.19-34.12,85.11,85.11,0,0,1,10.91-27.62l0,.25-29.3-27.27-8-7.51-2.08-2C165,276.86,164.79,276.62,164.79,276.62Z"/><path class="cls-12" d="M194,374.35s18.19,14.85,36.82,6c3-1.42,6.73-5.13,9-11.32,11.86-32.51,13.25-118.34,13.25-118.34l-32.51-2.2L205,313.91C193.87,329.94,190.35,350.18,194,374.35Z"/><path class="cls-13" d="M244.17,353.68a2.82,2.82,0,0,1-.07.62c-.06.41-.14,1-.29,1.76-.27,1.53-.72,3.73-1.46,6.4a47.13,47.13,0,0,1-3.47,9.11,22.33,22.33,0,0,1-7.82,8.95,22.69,22.69,0,0,1-11.52,3A32.87,32.87,0,0,1,209.9,382a34.41,34.41,0,0,1-6.11-2.43c-.7-.33-1.2-.67-1.56-.86a2.32,2.32,0,0,1-.52-.35s.78.37,2.17,1a38.56,38.56,0,0,0,6.12,2.26,33.31,33.31,0,0,0,9.53,1.3,22.49,22.49,0,0,0,11.26-2.92,21.92,21.92,0,0,0,7.66-8.73,49,49,0,0,0,3.55-9c.78-2.65,1.28-4.83,1.61-6.34.16-.71.29-1.28.39-1.74A2.59,2.59,0,0,1,244.17,353.68Z"/><path class="cls-6" d="M204,314.39a31.28,31.28,0,0,0-5.19,1.41,29.15,29.15,0,0,0-10.47,7.44,63.91,63.91,0,0,0-7.52,10.58l-2,3.41a7.83,7.83,0,0,1-.79,1.23,8,8,0,0,1,.61-1.32c.42-.84,1.05-2,1.86-3.5A56.43,56.43,0,0,1,188,322.89a27.9,27.9,0,0,1,10.72-7.43,19,19,0,0,1,3.86-1,9.71,9.71,0,0,1,1.08-.1C203.87,314.37,204,314.37,204,314.39Z"/><path class="cls-12" d="M221.77,240c-.72-2.4-4.77-24.55-6.42-29.71C213,203,194.14,190,194.14,190s3-6.82,11-3.27c9.52,4.19,14.23,11.26,16.63,9.82s17.35-16.66,21.42-16.18,5,4.66,3.54,6.34a37.62,37.62,0,0,0-3.06,4.45s8.63-2.59,7,6.86c0,0,9.83-6.14,8.87,6.81,0,0,6.47-2.64,7.91,1.92s-2.83,9.83-5,13.43-9.17,24.46-9.17,24.46l-.81,12.76L218.8,256Z"/><path class="cls-13" d="M252.9,258.62s0-.31,0-.92,0-1.52,0-2.69c0-2.39.12-5.88.21-10.37v0c1.76-5.23,4-12,7.07-19.92a29.55,29.55,0,0,1,2.88-6,41.25,41.25,0,0,0,3.47-6.07,10.75,10.75,0,0,0,.89-3.49,5.44,5.44,0,0,0-.83-3.46,3.41,3.41,0,0,0-.61-.65,4.11,4.11,0,0,0-.8-.43,5.12,5.12,0,0,0-1.83-.33,11.11,11.11,0,0,0-3.8.74l-.34.13,0-.35a18.23,18.23,0,0,0-.07-3.69,5.84,5.84,0,0,0-1.4-3.34,3.79,3.79,0,0,0-3.42-.91,10.19,10.19,0,0,0-3.62,1.35l-.44.25.07-.5c.05-.49.11-1,.17-1.47s0-1,0-1.48a4.83,4.83,0,0,0-1.06-2.69,4.12,4.12,0,0,0-2.66-1.21,8.79,8.79,0,0,0-3.1.28l-.6.16.31-.53c.6-1,1.22-2,1.9-3,.34-.48.7-1,1.08-1.42a2.67,2.67,0,0,0,.65-1.46,4,4,0,0,0-1-3.12,4.47,4.47,0,0,0-3-1.45,4.07,4.07,0,0,0-1.64.42,15.34,15.34,0,0,0-1.59.86c-1,.64-2,1.35-3,2.1-2,1.5-3.88,3.12-5.78,4.78l-4.42,4c-1.48,1.31-2.88,2.65-4.45,3.85a1.79,1.79,0,0,1-1.57.36,4.13,4.13,0,0,1-1.37-.7,27,27,0,0,1-2.21-1.88c-1.41-1.28-2.83-2.53-4.33-3.64a36.11,36.11,0,0,0-4.67-3,16.34,16.34,0,0,0-5-1.86,8.25,8.25,0,0,0-5.08.67,8.45,8.45,0,0,0-3.54,3.54l-.08-.3a125.21,125.21,0,0,1,14.37,11.42,37.12,37.12,0,0,1,5.59,6.38,9.55,9.55,0,0,1,1,1.81,9.4,9.4,0,0,1,.38,1l.27,1c.33,1.28.62,2.54.9,3.78,2.19,9.92,3.66,18.41,5.13,24.83V240c-1,5.16-1.74,9.15-2.26,11.87l-.6,3.07c-.14.69-.23,1-.23,1s0-.36.16-1.05.31-1.74.54-3.08l2.14-11.9V240c-1.53-6.45-3-14.91-5.26-24.81-.63-2.45-1-5.14-2.5-7.37a36.31,36.31,0,0,0-5.53-6.27A125.33,125.33,0,0,0,194,190.2l-.18-.12.09-.18a8.77,8.77,0,0,1,3.76-3.77,8.65,8.65,0,0,1,5.38-.73,16.49,16.49,0,0,1,5.19,1.91,36.5,36.5,0,0,1,4.75,3c1.52,1.13,2.95,2.38,4.37,3.67.71.64,1.41,1.29,2.16,1.84s1.64,1,2.34.34c1.5-1.16,2.93-2.52,4.4-3.82l4.43-3.95c1.9-1.66,3.82-3.29,5.8-4.8,1-.76,2-1.48,3.07-2.13a14.55,14.55,0,0,1,1.65-.89,4.54,4.54,0,0,1,1.88-.47,5,5,0,0,1,3.37,1.63,4.54,4.54,0,0,1,1.12,3.52,3.15,3.15,0,0,1-.77,1.73c-.37.45-.72.91-1,1.39-.67,1-1.3,1.93-1.88,2.91l-.29-.37a9.41,9.41,0,0,1,3.29-.29,4.64,4.64,0,0,1,3,1.38,5.32,5.32,0,0,1,1.18,3c0,.52,0,1,0,1.56l-.18,1.51-.37-.25a11,11,0,0,1,3.81-1.41,5.39,5.39,0,0,1,2,0,3.81,3.81,0,0,1,1.79,1,6.32,6.32,0,0,1,1.52,3.61,19.15,19.15,0,0,1,.07,3.78l-.32-.23a11.2,11.2,0,0,1,4-.76,5.23,5.23,0,0,1,2,.36,4.36,4.36,0,0,1,.9.49,3.83,3.83,0,0,1,.71.74,5.92,5.92,0,0,1,.9,3.75,11.05,11.05,0,0,1-.94,3.62,41.35,41.35,0,0,1-3.52,6.13,29,29,0,0,0-2.87,5.87c-3.08,7.87-5.38,14.65-7.18,19.86v0c-.14,4.5-.25,8-.32,10.37,0,1.17-.08,2.07-.1,2.69S252.9,258.62,252.9,258.62Z"/><path class="cls-13" d="M243.64,191.4a48.75,48.75,0,0,1-4.17,3.9,49.2,49.2,0,0,1-4.27,3.78,23.41,23.41,0,0,1,3.92-4.17A23.72,23.72,0,0,1,243.64,191.4Z"/><path class="cls-13" d="M251.33,197.5a10.55,10.55,0,0,1-2.12,3.84,10.39,10.39,0,0,1-3.19,3c-.1-.12,1.32-1.44,2.78-3.33S251.19,197.43,251.33,197.5Z"/><path class="cls-13" d="M259.37,204.36a12.33,12.33,0,0,1-1.81,2.95,11.3,11.3,0,0,1-2.23,2.64,11.58,11.58,0,0,1,1.81-2.95A11.3,11.3,0,0,1,259.37,204.36Z"/></g></g></svg>