<svg xmlns="http://www.w3.org/2000/svg" viewBox="0 0 275.63 201.86"><defs><style>.cls-1,.cls-4{fill:#ebebeb;}.cls-1{fill-rule:evenodd;}.cls-2{fill:#e0e0e0;}.cls-3{fill:#f5f5f5;}.cls-5{fill:#263238;}.cls-6{fill:#ff725e;}.cls-7{fill:#fff;}.cls-8{fill:#455a64;}.cls-9{opacity:0.3;}.cls-10{opacity:0.2;}.cls-11{opacity:0.7;}.cls-12{fill:#6f4439;}.cls-13,.cls-16{fill:#ffbf9d;}.cls-14{fill:#ff9a6c;}.cls-15{fill:#ae7461;}.cls-16{stroke:#ff9a6c;stroke-miterlimit:10;stroke-width:0.25px;}</style></defs><g id="Camada_2" data-name="Camada 2"><g id="Background_Complete" data-name="Background Complete"><path class="cls-1" d="M274.05,168.12H274c.18-.36,3.3-6.79.5-8.39s-7.26,1.23-7.26,1.23,3.19-12.37-4.3-14.71-13.4,12.08-13.4,12.08-3.33-4.69-5,2.93c0,0-9-3.49-10.13,7.22,0,0-2.95-2.12-2.72.83l.05.46,42.43.81S276.12,168.13,274.05,168.12Z"/><path class="cls-1" d="M1.58,73.09h.08c-.18-.36-3.3-6.79-.5-8.39s7.26,1.23,7.26,1.23-3.19-12.38,4.3-14.71,13.4,12.08,13.4,12.08,3.33-4.69,5,2.93c0,0,9-3.49,10.13,7.22,0,0,2.95-2.12,2.72.83l0,.46-42.43.81S-.49,73.1,1.58,73.09Z"/><path class="cls-2" d="M246.21,58.74l3.12,1.81a.6.6,0,0,1-.05,1.05L246,63.28a.56.56,0,0,0-.25.23l-1.89,3.16a.6.6,0,0,1-1.05,0l-1.61-3.23a.57.57,0,0,0-.22-.24l-3.13-1.82a.6.6,0,0,1,0-1l3.27-1.68a.56.56,0,0,0,.25-.23l1.89-3.16a.6.6,0,0,1,1.05,0L246,58.49A.56.56,0,0,0,246.21,58.74Z"/><path class="cls-2" d="M263.61,85.41l2.27,1.31a.43.43,0,0,1,0,.76l-2.37,1.22a.42.42,0,0,0-.18.17l-1.37,2.3a.45.45,0,0,1-.77,0L260,88.8a.46.46,0,0,0-.17-.17l-2.26-1.32a.43.43,0,0,1,0-.76L260,85.33a.58.58,0,0,0,.18-.17l1.37-2.29a.43.43,0,0,1,.76,0l1.17,2.34A.4.4,0,0,0,263.61,85.41Z"/><path class="cls-2" d="M51.7,101.33,54,102.65a.43.43,0,0,1,0,.76l-2.38,1.22a.58.58,0,0,0-.18.17L50,107.09a.43.43,0,0,1-.76,0l-1.17-2.35a.46.46,0,0,0-.16-.18l-2.27-1.31a.43.43,0,0,1,0-.76l2.37-1.22a.42.42,0,0,0,.18-.17L49.6,98.8a.44.44,0,0,1,.77,0l1.16,2.35A.46.46,0,0,0,51.7,101.33Z"/><path class="cls-2" d="M48.19,39.15l1.47.8a.28.28,0,0,1,0,.49l-1.5.82a.2.2,0,0,0-.11.11l-.84,1.49a.27.27,0,0,1-.48,0l-.79-1.48a.29.29,0,0,0-.11-.11l-1.47-.8a.27.27,0,0,1,0-.48l1.5-.82a.57.57,0,0,0,.11-.11l.83-1.49a.28.28,0,0,1,.49,0L48.09,39A.22.22,0,0,0,48.19,39.15Z"/><path class="cls-3" d="M58.37,33.16a37.72,37.72,0,1,0,42-32.88A37.72,37.72,0,0,0,58.37,33.16Z"/><circle class="cls-2" cx="95.44" cy="50.55" r="8.21" transform="translate(-11.89 38.48) rotate(-21.49)"/><path class="cls-4" d="M86.39,49.53a8,8,0,0,0,6.86,9.09c4.49.54,8.33-3,8.88-7.48a7.66,7.66,0,0,0-6.9-8.74A7.93,7.93,0,0,0,86.39,49.53Z"/><path class="cls-2" d="M88.23.78A37.76,37.76,0,0,0,68.36,23.12a4.61,4.61,0,0,1,1.25,3.48c-.22,1.58-2,2-2.61,2.15-.09.54-.19,1.09-.26,1.64a38.1,38.1,0,0,0-.08,8.33c.12.09,3.22,2.41,3.4,4.58a7.17,7.17,0,0,1-1.39,4.35c.23.64.46,1.27.73,1.9a38,38,0,0,0,9.39,13.28,5.71,5.71,0,0,1,4.6,0c2.19,1.11,1.47,4.3,1.47,4.3l-.27.08a37.58,37.58,0,0,0,27.18,4.73A37.72,37.72,0,1,1,88.23.78Z"/><path class="cls-2" d="M68.08,30.67a.91.91,0,1,0,1.8.22.91.91,0,1,0-1.8-.22Z"/><path class="cls-2" d="M109.62,54.53a12.39,12.39,0,0,1,2.3-4.69c.66-.93,1.59-1.91,2.71-1.76l1,.16a3.65,3.65,0,0,1,4,1,4.48,4.48,0,0,1,.88,3.8,8.67,8.67,0,0,1-1.8,3.58,16.18,16.18,0,0,1-3.25,3.15,4.28,4.28,0,0,1-2.29,1,3.2,3.2,0,0,1-2.42-1.21A5.84,5.84,0,0,1,109.62,54.53Z"/><path class="cls-4" d="M108.73,54.42A12.66,12.66,0,0,1,111,49.73,4.28,4.28,0,0,1,113.74,48l1.48-.24a4.19,4.19,0,0,1,3.45,1.36,4.52,4.52,0,0,1,.88,3.8,8.67,8.67,0,0,1-1.8,3.58,16.44,16.44,0,0,1-3.25,3.15,3.61,3.61,0,0,1-2.16.84,2.81,2.81,0,0,1-2.16-1.31A5.56,5.56,0,0,1,108.73,54.42Z"/><path class="cls-2" d="M98.19,67.87a11.43,11.43,0,0,1-4-.51c-.83-.23-1.76-.62-1.87-1.36l-.08-.64a2.11,2.11,0,0,1,0-2.71,3.93,3.93,0,0,1,2.72-1.33,7.6,7.6,0,0,1,3.08.41,12.52,12.52,0,0,1,3,1.42,2.75,2.75,0,0,1,1.21,1.25,2,2,0,0,1-.44,1.78A5.22,5.22,0,0,1,98.19,67.87Z"/><path class="cls-4" d="M97.39,68.06a11.6,11.6,0,0,1-4-.5,3,3,0,0,1-1.88-1.37L91,65.3a2.46,2.46,0,0,1,.35-2.46,4,4,0,0,1,2.73-1.33,7.82,7.82,0,0,1,3.08.41,13.29,13.29,0,0,1,3,1.42,2.28,2.28,0,0,1,1.06,1.2c.21.58-.15,1.1-.57,1.63A4.82,4.82,0,0,1,97.39,68.06Z"/><path class="cls-2" d="M78.3,14.24a12.67,12.67,0,0,1,4.29-3c1-.48,2.31-.89,3.22-.21l.77.6a3.63,3.63,0,0,1,3,2.77,4.47,4.47,0,0,1-1.08,3.75,8.56,8.56,0,0,1-3.3,2.25,16.61,16.61,0,0,1-4.38,1.18,4.18,4.18,0,0,1-2.48-.25,3.2,3.2,0,0,1-1.53-2.24A5.85,5.85,0,0,1,78.3,14.24Z"/><path class="cls-4" d="M76.89,14.64a12.67,12.67,0,0,1,4.29-3,4.25,4.25,0,0,1,3.23-.21l1.41.5a4.21,4.21,0,0,1,2.36,2.87,4.51,4.51,0,0,1-1.09,3.75,8.49,8.49,0,0,1-3.3,2.25A16.27,16.27,0,0,1,79.42,22a3.64,3.64,0,0,1-2.3-.32,2.84,2.84,0,0,1-1.25-2.19A5.56,5.56,0,0,1,76.89,14.64Z"/><path class="cls-2" d="M114.06,41.61a1.85,1.85,0,0,1,.71-1,2.47,2.47,0,0,1,1.7-.2,1.81,1.81,0,0,1,1.2,1,2.63,2.63,0,0,1,.42,2,2.11,2.11,0,0,1-1.26,1.53,2.16,2.16,0,0,1-2.38-.7A2.73,2.73,0,0,1,114.06,41.61Z"/><path class="cls-4" d="M113.67,41.63a1.72,1.72,0,0,1,.66-.94,2.31,2.31,0,0,1,1.56-.19,1.66,1.66,0,0,1,1.1.88,2.35,2.35,0,0,1,.39,1.8,1.94,1.94,0,0,1-1.15,1.41,2,2,0,0,1-2.19-.65A2.51,2.51,0,0,1,113.67,41.63Z"/><path class="cls-2" d="M117.52,19a1.59,1.59,0,0,1,.57-.82,2.09,2.09,0,0,1,1.38-.16,1.48,1.48,0,0,1,1,.76,2.12,2.12,0,0,1,.34,1.58,1.63,1.63,0,0,1-2.93.66A2.2,2.2,0,0,1,117.52,19Z"/><path class="cls-4" d="M117.21,19a1.44,1.44,0,0,1,.53-.75,1.87,1.87,0,0,1,1.26-.15,1.35,1.35,0,0,1,.88.7,1.93,1.93,0,0,1,.32,1.45,1.5,1.5,0,0,1-2.69.62A2,2,0,0,1,117.21,19Z"/><path class="cls-2" d="M97.46,7.6a1.91,1.91,0,0,1,.75-1.07A2.61,2.61,0,0,1,100,6.31a1.94,1.94,0,0,1,1.26,1,2.77,2.77,0,0,1,.45,2.07A2.22,2.22,0,0,1,100.38,11a2.25,2.25,0,0,1-2.5-.74A2.85,2.85,0,0,1,97.46,7.6Z"/><path class="cls-4" d="M97.05,7.62a1.89,1.89,0,0,1,.69-1,2.39,2.39,0,0,1,1.65-.19,1.73,1.73,0,0,1,1.16.92,2.48,2.48,0,0,1,.41,1.9,2,2,0,0,1-3.52.8A2.65,2.65,0,0,1,97.05,7.62Z"/><path class="cls-2" d="M104.84,8.92a1,1,0,0,1,.37-.54,1.32,1.32,0,0,1,.9-.11,1,1,0,0,1,.63.5,1.37,1.37,0,0,1,.23,1,1.07,1.07,0,0,1-1.92.43A1.44,1.44,0,0,1,104.84,8.92Z"/><path class="cls-4" d="M104.64,8.93a.92.92,0,0,1,.34-.5,1.24,1.24,0,0,1,.83-.09.87.87,0,0,1,.58.46,1.27,1.27,0,0,1,.2.95,1,1,0,0,1-.61.74,1.06,1.06,0,0,1-1.15-.34A1.33,1.33,0,0,1,104.64,8.93Z"/><path class="cls-3" d="M177,104.39l-2.14.58-6.41-5.26-1.14-4.27s-3.36.68-1.47,6.17,1.08,4.17,1.08,4.17-7,1.91-7.43,2.67c-.31.56,1.36,7.59,2.3,11.39a4.26,4.26,0,0,0,4,3.35,4,4,0,0,0,.78-.1c1.75-.47,10.32-4.29,10.32-4.29l3.69-1Z"/><polygon class="cls-3" points="182.84 101.58 185.44 116.56 181.78 117.55 177.94 103.21 182.84 101.58"/></g><g id="Table_1" data-name="Table 1"><path class="cls-2" d="M81.62,201.6H251.38"/><path class="cls-5" d="M251.38,201.6c0,.15-38,.26-84.88.26s-84.88-.11-84.88-.26,38-.26,84.88-.26S251.38,201.46,251.38,201.6Z"/></g><g id="Rocket"><path class="cls-6" d="M187.81,24.56a1.9,1.9,0,0,0-3-.09,13.13,13.13,0,0,0-3.16,8.29V78.82h8.45s.53-40,.53-46.06A13.82,13.82,0,0,0,187.81,24.56Z"/><path class="cls-5" d="M187.81,24.56a10.61,10.61,0,0,1,.63.89,14.15,14.15,0,0,1,1.42,2.8,13,13,0,0,1,.82,4.91c0,2,0,4.18-.06,6.64-.11,9.87-.26,23.59-.42,39v.09h-8.63v-.09c0-16.29,0-30.93,0-41.5,0-1.32,0-2.57,0-3.76,0-.6,0-1.18,0-1.74a12.55,12.55,0,0,1,2.46-6.48c.21-.3.43-.57.63-.83a2.14,2.14,0,0,1,.72-.57,1.89,1.89,0,0,1,1.41-.07,1.74,1.74,0,0,1,.74.46,1.72,1.72,0,0,1,.2.23s-.07-.08-.21-.22a1.71,1.71,0,0,0-.74-.44,1.87,1.87,0,0,0-1.38.09c-.53.22-.88.81-1.32,1.39A13.5,13.5,0,0,0,182,30.23a11.62,11.62,0,0,0-.24,1.6c0,.56,0,1.13,0,1.73v3.76c0,10.57,0,25.21,0,41.5l-.09-.09h8.45l-.09.09c.19-15.43.36-29.15.48-39,0-2.46.06-4.69.09-6.64a13.32,13.32,0,0,0-.79-4.88,14.23,14.23,0,0,0-1.39-2.81c-.19-.31-.34-.53-.45-.68Z"/><path class="cls-5" d="M190.51,59.9c0,.05-1.92.09-4.29.09s-4.29,0-4.29-.09,1.92-.09,4.29-.09S190.51,59.85,190.51,59.9Z"/><path class="cls-5" d="M190.51,65.24c0,.05-1.92.09-4.29.09s-4.29,0-4.29-.09,1.92-.08,4.29-.08S190.51,65.2,190.51,65.24Z"/><path class="cls-5" d="M190.51,33.17s-1.92.08-4.29.08-4.29,0-4.29-.08,1.92-.09,4.29-.09S190.51,33.12,190.51,33.17Z"/><path class="cls-5" d="M190.51,38.51c0,.05-1.92.09-4.29.09s-4.29,0-4.29-.09,1.92-.09,4.29-.09S190.51,38.46,190.51,38.51Z"/><path class="cls-5" d="M190.51,43.86s-1.92.09-4.29.09-4.29,0-4.29-.09,1.92-.09,4.29-.09S190.51,43.81,190.51,43.86Z"/><path class="cls-5" d="M190.51,49.2s-1.92.09-4.29.09-4.29,0-4.29-.09,1.92-.08,4.29-.08S190.51,49.16,190.51,49.2Z"/><path class="cls-5" d="M190.51,54.55c0,.05-1.92.09-4.29.09s-4.29,0-4.29-.09,1.92-.09,4.29-.09S190.51,54.5,190.51,54.55Z"/><path class="cls-6" d="M218.82,24.75a1.91,1.91,0,0,0-3-.09,13.16,13.16,0,0,0-3.16,8.3V79h8.45s.53-40,.53-46.05A13.85,13.85,0,0,0,218.82,24.75Z"/><path class="cls-5" d="M218.82,24.75a10.61,10.61,0,0,1,.63.89,14.29,14.29,0,0,1,1.42,2.81,13,13,0,0,1,.82,4.91c0,2,0,4.17-.06,6.64-.11,9.87-.26,23.59-.42,39v.08h-8.63V79c0-16.29,0-30.92,0-41.49,0-1.32,0-2.58,0-3.77,0-.59,0-1.17,0-1.73a13.25,13.25,0,0,1,.24-1.61,13.62,13.62,0,0,1,2.22-4.87c.21-.3.43-.58.63-.83a2,2,0,0,1,.72-.57,2,2,0,0,1,1.41-.08,1.74,1.74,0,0,1,.74.46c.14.15.2.23.2.23s-.07-.08-.21-.21a1.81,1.81,0,0,0-.74-.45,2,2,0,0,0-1.38.09c-.53.23-.88.82-1.32,1.4A13.42,13.42,0,0,0,213,30.43a11.4,11.4,0,0,0-.24,1.6c0,.55,0,1.13,0,1.72v3.77c0,10.57,0,25.2,0,41.49l-.09-.08h8.45L221,79c.19-15.42.36-29.14.48-39,0-2.47.06-4.69.09-6.64a13.41,13.41,0,0,0-.79-4.89,14.83,14.83,0,0,0-1.39-2.81c-.19-.3-.34-.53-.45-.68Z"/><path class="cls-5" d="M221.51,33.36s-1.92.09-4.29.09-4.3,0-4.3-.09,1.93-.09,4.3-.09S221.51,33.31,221.51,33.36Z"/><path class="cls-5" d="M221.51,38.71s-1.92.09-4.29.09-4.3,0-4.3-.09,1.93-.09,4.3-.09S221.51,38.66,221.51,38.71Z"/><path class="cls-5" d="M221.51,44.05c0,.05-1.92.09-4.29.09s-4.3,0-4.3-.09,1.93-.08,4.3-.08S221.51,44,221.51,44.05Z"/><path class="cls-5" d="M221.51,49.4c0,.05-1.92.09-4.29.09s-4.3,0-4.3-.09,1.93-.09,4.3-.09S221.51,49.35,221.51,49.4Z"/><path class="cls-5" d="M221.51,54.75s-1.92.09-4.29.09-4.3,0-4.3-.09,1.93-.09,4.3-.09S221.51,54.7,221.51,54.75Z"/><path class="cls-5" d="M221.51,60.09s-1.92.09-4.29.09-4.3,0-4.3-.09,1.93-.08,4.3-.08S221.51,60.05,221.51,60.09Z"/><path class="cls-5" d="M221.51,65.44s-1.92.09-4.29.09-4.3,0-4.3-.09,1.93-.09,4.3-.09S221.51,65.39,221.51,65.44Z"/><path class="cls-2" d="M204.84,9.26a5,5,0,0,0-6.22.35,22.22,22.22,0,0,0-8,16.35V85.45H211.7S213,34.46,213,26C213,20.79,209.53,12.79,204.84,9.26Z"/><path class="cls-5" d="M204.84,9.26l.31.24a11.21,11.21,0,0,1,.88.76,18.84,18.84,0,0,1,2.85,3.44,28.08,28.08,0,0,1,1.61,2.81A26.62,26.62,0,0,1,212,20.09a21.34,21.34,0,0,1,1,4.35c0,.19.05.39.06.59s0,.41,0,.61c0,.41,0,.82,0,1.24,0,.84,0,1.69,0,2.58-.22,14.08-.7,33.73-1.26,56v.09H190.55v-.09c0-11.9,0-23.17,0-33.36,0-5.1,0-9.94,0-14.45V31.12c0-1.05,0-2.07,0-3.07s0-2,0-2.94a20.32,20.32,0,0,1,1-5.34,23,23,0,0,1,2-4.41,22.57,22.57,0,0,1,5-5.86,5.53,5.53,0,0,1,2.57-1.12,4.93,4.93,0,0,1,2.05.12,4.69,4.69,0,0,1,1.16.51c.24.16.35.25.35.25L204.48,9a5.47,5.47,0,0,0-1.16-.49,5.05,5.05,0,0,0-2-.1,5.4,5.4,0,0,0-2.54,1.12,22.84,22.84,0,0,0-7,10.25,20.66,20.66,0,0,0-1,5.32V85.45l-.09-.09H211.7l-.09.09c.57-22.26,1.07-41.91,1.31-56,0-.88,0-1.73,0-2.57,0-.42,0-.83,0-1.24,0-.2,0-.4,0-.6s-.05-.4-.06-.59a22,22,0,0,0-1-4.33,26,26,0,0,0-1.46-3.57,26.49,26.49,0,0,0-1.6-2.82A19.42,19.42,0,0,0,206,10.28a11.47,11.47,0,0,0-.87-.76Z"/><path class="cls-7" d="M200.61,10s-8.11,6.51-8.18,15.24V48.54h3.48l-.22-20.26s-.44-3.85,1.65-10.62A40.93,40.93,0,0,1,200.61,10Z"/><path class="cls-5" d="M212.61,28.28s-4.83.08-10.79.08-10.79,0-10.79-.08,4.83-.09,10.79-.09S212.61,28.23,212.61,28.28Z"/><path class="cls-5" d="M212.61,36.37c0,.05-4.83.09-10.79.09s-10.79,0-10.79-.09,4.83-.09,10.79-.09S212.61,36.32,212.61,36.37Z"/><path class="cls-5" d="M212.61,44.47s-4.83.08-10.79.08-10.79,0-10.79-.08,4.83-.09,10.79-.09S212.61,44.42,212.61,44.47Z"/><path class="cls-5" d="M212.61,52.56s-4.83.09-10.79.09-10.79,0-10.79-.09,4.83-.09,10.79-.09S212.61,52.51,212.61,52.56Z"/><rect class="cls-8" x="182.52" y="84.86" width="5.53" height="3.59"/><path class="cls-8" d="M180.94,90.41h0a2.14,2.14,0,0,1,.77-1.68l.81-.78L188,88l.49.43a2.29,2.29,0,0,1,.88,1.57v.08Z"/><rect class="cls-8" x="180.37" y="90.1" width="9.71" height="0.98" rx="0.47"/><polygon class="cls-3" points="175.67 84.14 175.67 73.75 189.72 59.96 195.71 41.21 195.71 86.93 175.67 84.14"/><polygon class="cls-6" points="175.67 80.71 195.71 83.37 195.71 86.93 175.67 84.14 175.67 80.71"/><path class="cls-5" d="M175.67,84.14l.36,0,1.05.13,4,.54,14.63,2-.08.07c0-10,0-23.18,0-37.63V41.21l.17,0L189.8,60v0h0c-5.63,5.51-10.44,10.22-14.07,13.76v0c0,3.28,0,5.87,0,7.65,0,.88,0,1.57,0,2V84a1.23,1.23,0,0,1,0,.18V84c0-.12,0-.29,0-.52,0-.46,0-1.14,0-2,0-1.78,0-4.38,0-7.67v0l0,0,14-13.8,0,0c1.82-5.7,3.83-12,6-18.76l.17-.53V49.3c0,14.45,0,27.65,0,37.63V87h-.08L181,84.92l-4-.57-1-.15Z"/><rect class="cls-8" x="214.63" y="84.86" width="5.53" height="3.59"/><path class="cls-8" d="M213.05,90.41h0a2.14,2.14,0,0,1,.77-1.68l.81-.78,5.52.07.49.43a2.33,2.33,0,0,1,.88,1.57v.08Z"/><rect class="cls-8" x="212.48" y="90.1" width="9.71" height="0.98" rx="0.47"/><circle class="cls-4" cx="215.17" cy="79.61" r="0.47"/><path class="cls-3" d="M208.27,35.73c0-2.86-1.61-5.38-3.2-7.85a7.39,7.39,0,0,0-1.85-2.05,2.13,2.13,0,0,0-2.49,0,7.31,7.31,0,0,0-1.82,2c-1.59,2.47-3.17,5-3.2,7.85,0,3.35,0,51.2,0,51.2h12.56S208.3,39.08,208.27,35.73Z"/><path class="cls-6" d="M205.5,28.4a8.54,8.54,0,0,0-2.1-2.47,2.34,2.34,0,0,0-2.85,0,8.77,8.77,0,0,0-2.07,2.46A23.62,23.62,0,0,0,196,33.69l12,0A22.8,22.8,0,0,0,205.5,28.4Z"/><path class="cls-5" d="M208,33.65c0,.05-2.69.1-6,.11s-6,0-6-.07,2.68-.09,6-.11S208,33.6,208,33.65Z"/><path class="cls-5" d="M197.63,32.61a.23.23,0,0,1-.23.23.23.23,0,0,1,0-.46A.23.23,0,0,1,197.63,32.61Z"/><path class="cls-5" d="M199.79,32.61a.23.23,0,1,1-.22-.23A.22.22,0,0,1,199.79,32.61Z"/><path class="cls-5" d="M202,32.61a.23.23,0,1,1-.23-.23A.23.23,0,0,1,202,32.61Z"/><path class="cls-5" d="M204.13,32.61a.23.23,0,0,1-.23.23.23.23,0,0,1,0-.46A.23.23,0,0,1,204.13,32.61Z"/><path class="cls-5" d="M206.29,32.61a.23.23,0,1,1-.22-.23A.22.22,0,0,1,206.29,32.61Z"/><path class="cls-5" d="M208.27,35.73v1c0,.65,0,1.61,0,2.85,0,2.5,0,6.12,0,10.67,0,9.11,0,21.9,0,36.69V87H195.62v-6.5c0-9.69,0-18.92,0-27.31,0-4.2,0-8.19,0-11.92V35.88a10.61,10.61,0,0,1,1.29-4.79c.36-.71.76-1.38,1.15-2s.79-1.27,1.22-1.85a6.5,6.5,0,0,1,1.48-1.48,2.19,2.19,0,0,1,1.92-.23,2.56,2.56,0,0,1,.81.48,6.35,6.35,0,0,1,.65.62,9.65,9.65,0,0,1,1,1.36c.58.9,1.1,1.75,1.52,2.53a12.41,12.41,0,0,1,1.44,3.81c0,.23.07.44.09.62a3.89,3.89,0,0,1,0,.44c0,.24,0,.36,0,.36l0-.36a4.2,4.2,0,0,0,0-.44c0-.18,0-.38-.09-.61a12.74,12.74,0,0,0-1.47-3.79c-.42-.78-.95-1.61-1.54-2.52a8.72,8.72,0,0,0-1-1.34,7.41,7.41,0,0,0-.64-.61,2.68,2.68,0,0,0-.78-.46,2.09,2.09,0,0,0-1.83.23,6.28,6.28,0,0,0-1.45,1.46c-.43.57-.8,1.2-1.21,1.84s-.78,1.31-1.14,2a10.41,10.41,0,0,0-1.26,4.74v5.4c0,3.73,0,7.72,0,11.92,0,8.39,0,17.62,0,27.31v6.41l-.09-.09h12.56l-.09.08c0-14.79,0-27.58,0-36.69,0-4.55,0-8.17,0-10.67,0-1.24,0-2.2,0-2.85,0-.32,0-.57,0-.74S208.27,35.73,208.27,35.73Z"/><path class="cls-8" d="M201.83,38.6a3.23,3.23,0,0,0-3.24,3.23h6.47A3.23,3.23,0,0,0,201.83,38.6Z"/><path class="cls-2" d="M195.21,90.35h0A3,3,0,0,1,196.43,88l1.4-1h8.9l1.23,1a3,3,0,0,1,1.16,2.32v.13Z"/><path class="cls-5" d="M195.21,90.35l.28,0h.79l2.94,0,9.9,0-.09.09a2.92,2.92,0,0,0-.54-1.78,3.82,3.82,0,0,0-.87-.83l-.94-.74,0,0-8.9,0h0l-1.52,1.12a3.07,3.07,0,0,0-.86,1.09,3.56,3.56,0,0,0-.28,1.16,2.46,2.46,0,0,1,0-.31,3.08,3.08,0,0,1,.22-.88,3.17,3.17,0,0,1,.86-1.14l1.51-1.14h0l8.9,0h0l0,0,.94.74a4.12,4.12,0,0,1,.9.87,3,3,0,0,1,.57,1.88v.09h-.08l-9.9,0-2.94,0h-.79Z"/><rect class="cls-6" x="194.28" y="90.35" width="15.94" height="1.6" rx="0.78"/><path class="cls-4" d="M202.1,87.85H194v-8a3.92,3.92,0,0,1,3.91-3.92h.24a3.93,3.93,0,0,1,3.92,3.92Z"/><path class="cls-5" d="M202.1,87.85s0,0,0-.1v-.29c0-.26,0-.62,0-1.07,0-.94,0-2.28,0-3.92,0-.82,0-1.72,0-2.69a3.86,3.86,0,0,0-2.6-3.55,4.19,4.19,0,0,0-1.7-.2,3.84,3.84,0,0,0-3,1.75,3.71,3.71,0,0,0-.52,1.27,6.05,6.05,0,0,0-.09,1.35v2.66c0,1.72,0,3.32,0,4.79l-.07-.08,5.83,0,1.64,0h0l-1.62,0-5.88,0H194v-.07c0-1.47,0-3.07,0-4.79V80.4A6.58,6.58,0,0,1,194,79a3.71,3.71,0,0,1,.55-1.32,4,4,0,0,1,3.13-1.83,4.33,4.33,0,0,1,1.76.21,4.17,4.17,0,0,1,1.46.88,4,4,0,0,1,1.23,2.83V82.5c0,1.65,0,3,0,3.93,0,.45,0,.8,0,1.06s0,.2,0,.27Z"/><polygon class="cls-3" points="228.32 84.14 228.32 73.75 214.27 59.96 208.28 41.21 208.28 86.93 228.32 84.14"/><polygon class="cls-6" points="208.27 86.93 208.28 83.82 228.32 81.28 228.32 84.14 208.27 86.93"/><path class="cls-5" d="M228.32,84.14l-.35.06-1,.15-4,.57L208.29,87h-.07v-.08c0-10,0-23.18,0-37.63V40.65l.17.53c2.14,6.73,4.16,13.06,6,18.76l0,0,14,13.8v0c0,3.29,0,5.89,0,7.67,0,.89,0,1.57,0,2V84c0,.12,0,.17,0,.17V84c0-.12,0-.3,0-.52,0-.47,0-1.16,0-2,0-1.78,0-4.37,0-7.65l0,0c-3.63-3.54-8.45-8.25-14.07-13.76h0v0c-1.82-5.7-3.85-12-6-18.75l.17,0V49.3c0,14.45,0,27.65,0,37.63l-.08-.07,14.63-2,4-.54,1.05-.13Z"/><g class="cls-9"><path d="M211.22,86.45V79.14s-.23-2.56-2.1-3.21v-30l-.84-4.72V87Z"/></g><path class="cls-4" d="M210.22,87.85h-8.07v-8a3.92,3.92,0,0,1,3.92-3.92h.23a3.92,3.92,0,0,1,3.92,3.92Z"/><path class="cls-5" d="M210.22,87.85a.58.58,0,0,0,0-.1v-.29c0-.26,0-.62,0-1.07,0-.94,0-2.28,0-3.92,0-.82,0-1.72,0-2.69a3.76,3.76,0,0,0-1.2-2.71,3.83,3.83,0,0,0-1.4-.84,4.19,4.19,0,0,0-1.7-.2,3.82,3.82,0,0,0-3,1.75,3.94,3.94,0,0,0-.53,1.27,6.71,6.71,0,0,0-.08,1.35c0,.91,0,1.8,0,2.66,0,1.72,0,3.32,0,4.79l-.07-.08,5.84,0,1.64,0h0l-1.63,0-5.88,0h-.07v-.07c0-1.47,0-3.07,0-4.79,0-.86,0-1.75,0-2.66a6.58,6.58,0,0,1,.09-1.39,4.11,4.11,0,0,1,.55-1.32,4,4,0,0,1,3.13-1.83,4.4,4.4,0,0,1,1.77.21,4,4,0,0,1,1.45.88,4,4,0,0,1,1.24,2.83c0,1,0,1.89,0,2.72,0,1.65,0,3,0,3.93,0,.45,0,.8,0,1.06v.27A.62.62,0,0,0,210.22,87.85Z"/><path class="cls-5" d="M208.15,51.54c0,.05-2.76.09-6.16.09s-6.16,0-6.16-.09,2.76-.09,6.16-.09S208.15,51.49,208.15,51.54Z"/><path class="cls-5" d="M208.15,64.81s-2.76.09-6.16.09-6.16,0-6.16-.09,2.76-.09,6.16-.09S208.15,64.76,208.15,64.81Z"/><g class="cls-9"><path class="cls-7" d="M202.25,38.62l-2.68,3.21h1.84l2.15-2.73A4.13,4.13,0,0,0,202.25,38.62Z"/></g></g><g id="Hot-air_balloon" data-name="Hot-air balloon"><path class="cls-6" d="M89.12,131.49A22.24,22.24,0,1,0,59.75,158h0c.63.24,1.28.45,1.93.63,3.34,1.25,9.91,4.41,11.94,10.6L78.45,168A12.78,12.78,0,0,1,80,158.13c1.29-2,2.69-4,3.88-5.69a22.21,22.21,0,0,0,2.89-3.86h0A22.17,22.17,0,0,0,89.12,131.49Z"/><path class="cls-5" d="M89.87,138c0,.08-9.1,2.58-20.36,5.59S49.1,149,49.08,148.91s9.09-2.58,20.36-5.6S89.85,137.92,89.87,138Z"/><path class="cls-5" d="M75,177.74a1.75,1.75,0,0,1-.21-.28l-.55-.84c-.48-.72-1.15-1.79-2-3.12-1.62-2.66-3.74-6.4-5.86-10.65s-3.83-8.19-5-11.07c-.58-1.45-1-2.62-1.32-3.44l-.34-.94a1.48,1.48,0,0,1-.09-.34,2.85,2.85,0,0,1,.15.31c.1.24.22.55.38.93.35.84.83,2,1.41,3.4,1.2,2.86,2.94,6.78,5.06,11s4.21,8,5.77,10.67l1.87,3.16.51.87A1.6,1.6,0,0,1,75,177.74Z"/><path class="cls-5" d="M79.6,141.17a2.49,2.49,0,0,1,.05.35l.08,1c.07.86.15,2.11.22,3.65.16,3.08.26,7.35.33,12.06s.15,9,.25,12.05c0,1.52.1,2.75.13,3.65,0,.41,0,.74,0,1a2,2,0,0,1,0,.35,1.41,1.41,0,0,1-.05-.35c0-.26,0-.58-.08-1-.08-.86-.15-2.11-.23-3.65-.15-3.08-.25-7.35-.32-12.06s-.15-9-.25-12.05c0-1.52-.1-2.76-.13-3.65,0-.41,0-.74,0-1A1.18,1.18,0,0,1,79.6,141.17Z"/><g class="cls-10"><path d="M46.16,143c.09.33.18.65.29,1,.78-2.79,0-6.06-.15-8.95-.16-1.2-.3-2.9-.3-2.9A22,22,0,0,0,46.16,143Z"/></g><g class="cls-10"><path d="M83.94,124.13a22.18,22.18,0,0,0,5.39,8.24c-.06-.29-.13-.59-.21-.88a22.1,22.1,0,0,0-5.85-10.06A9.11,9.11,0,0,0,83.94,124.13Z"/></g><g class="cls-10"><path d="M51.32,122.14a20.64,20.64,0,0,0-5.21,9.51c.43,1.11.8,2.67,1.34,3.73A34.34,34.34,0,0,0,52.74,143,25.34,25.34,0,0,0,51.32,122.14Z"/></g><g class="cls-10"><path d="M52.68,120.79a30.13,30.13,0,0,0,10.15,20.63c1.82-4.48,1.85-9.5,1.15-14.29-.56-3.8-1.57-7.52-2.45-11.26A22,22,0,0,0,52.68,120.79Z"/></g><g class="cls-10"><path d="M73.68,137c.35-.05.24-.9.37-1.22a15.41,15.41,0,0,0,.84-6,40.11,40.11,0,0,0-3-14.34,22.26,22.26,0,0,0-9.92.33A42.84,42.84,0,0,0,72.5,136C72.73,136.27,73.34,137,73.68,137Z"/></g><g class="cls-10"><path d="M84.36,132.27a25.42,25.42,0,0,0-.31-4.91,32.7,32.7,0,0,0-1.65-6.75,22.45,22.45,0,0,0-8.65-4.75,17.63,17.63,0,0,0,2.06,10A45.09,45.09,0,0,0,83,135.4C83.85,134.77,84.19,133.29,84.36,132.27Z"/></g><g class="cls-9"><path d="M86.37,144.31A3,3,0,0,0,85.19,143a2.7,2.7,0,0,0-2.91.75,7.86,7.86,0,0,0-2.09,3.7,23.42,23.42,0,0,0-.62,4.25,11.73,11.73,0,0,0-2.89-5.56,2.75,2.75,0,0,0-1.83-1,2.65,2.65,0,0,0-2,1.47,9.16,9.16,0,0,0-1.26,6.32,12.68,12.68,0,0,0-3.8-4.52,3.22,3.22,0,0,0-3.08-.77,2.34,2.34,0,0,0-1.22,1.58,5.38,5.38,0,0,0-.06,2,36.1,36.1,0,0,0,2.32,8.22c-1.63-3.48-3.38-7.1-6.47-9.38a3.21,3.21,0,0,0-2.94-.76,2.83,2.83,0,0,0-1.48,1.86,8.72,8.72,0,0,0-.13,4.19,22.88,22.88,0,0,0,5,2.71h0c.63.24,1.28.45,1.93.63,3.34,1.25,9.91,4.41,11.94,10.6L78.45,168A12.78,12.78,0,0,1,80,158.13c1.29-2,2.69-4,3.88-5.69a22.21,22.21,0,0,0,2.89-3.86h0c.28-.47.53-1,.78-1.45A15.06,15.06,0,0,0,86.37,144.31Z"/></g><path class="cls-5" d="M51.32,122.14a1.23,1.23,0,0,1,.15.24l.38.7.27.52c.09.19.18.41.28.63.18.46.43,1,.61,1.58l.3.93c.1.32.18.67.27,1a23.31,23.31,0,0,1,.47,2.3,30,30,0,0,1,.24,5.37,32,32,0,0,1-.79,5.32c-.21.8-.4,1.56-.64,2.25s-.46,1.34-.69,1.93-.47,1.09-.67,1.54-.4.83-.57,1.14l-.38.7a1.55,1.55,0,0,1-.16.24,1.81,1.81,0,0,1,.1-.26l.34-.73c.16-.31.34-.7.52-1.15s.43-1,.63-1.56.45-1.22.65-1.92.41-1.45.61-2.25a32.73,32.73,0,0,0,.76-5.27,30.3,30.3,0,0,0-.22-5.31c-.14-.81-.24-1.58-.43-2.29-.09-.35-.16-.7-.25-1s-.2-.63-.29-.93a16.36,16.36,0,0,0-.56-1.57c-.09-.23-.17-.45-.25-.64l-.25-.53-.33-.73A1.16,1.16,0,0,1,51.32,122.14Z"/><path class="cls-5" d="M58.52,146.62a3.6,3.6,0,0,1-.73-.31,8.09,8.09,0,0,1-.82-.42c-.31-.18-.68-.37-1.06-.63a22.31,22.31,0,0,1-2.57-1.9,24.35,24.35,0,0,1-2.74-2.8,24.61,24.61,0,0,1-2.22-3.23A23.43,23.43,0,0,1,47,134.44c-.17-.42-.29-.82-.4-1.16a8.8,8.8,0,0,1-.26-.89,4.22,4.22,0,0,1-.16-.78,4.78,4.78,0,0,1,.27.75q.1.36.3.87c.13.33.26.72.44,1.13a24.74,24.74,0,0,0,1.41,2.84,27,27,0,0,0,2.21,3.18,26.57,26.57,0,0,0,2.69,2.78A24,24,0,0,0,56,145.09c.37.27.73.47,1,.66s.57.34.8.46A4.1,4.1,0,0,1,58.52,146.62Z"/><path class="cls-5" d="M61.35,115.81a1.17,1.17,0,0,1,.12.3l.29.87c.25.77.59,1.88,1,3.27s.77,3.06,1.12,4.94a49.44,49.44,0,0,1,.76,6.15,22.14,22.14,0,0,1-.44,6.19,21.42,21.42,0,0,1-3.47,7.69c-.24.32-.44.57-.57.73s-.21.25-.22.24.25-.37.69-1a23.72,23.72,0,0,0,1.68-2.95,22.72,22.72,0,0,0,1.63-4.74,22.38,22.38,0,0,0,.41-6.12,49.54,49.54,0,0,0-.74-6.12c-.32-1.86-.7-3.53-1-4.93s-.66-2.51-.88-3.28c-.09-.37-.17-.66-.24-.9A1.21,1.21,0,0,1,61.35,115.81Z"/><path class="cls-5" d="M68.56,143.88a1.2,1.2,0,0,1-.31,0c-.19,0-.49-.06-.86-.16a11.08,11.08,0,0,1-3-1.24,17.29,17.29,0,0,1-3.75-3A31.6,31.6,0,0,1,57,134.81a25.22,25.22,0,0,1-3.88-9.9,22.28,22.28,0,0,1-.3-3.23c0-.38,0-.68,0-.88a1.3,1.3,0,0,1,0-.31s0,.43.08,1.19a26.37,26.37,0,0,0,.39,3.19,25.94,25.94,0,0,0,3.92,9.78,32.49,32.49,0,0,0,3.59,4.6,18.29,18.29,0,0,0,3.66,3A13.64,13.64,0,0,0,68.56,143.88Z"/><path class="cls-5" d="M80.06,140.66l-.31-.08c-.21-.07-.52-.14-.9-.29a16.56,16.56,0,0,1-3.09-1.53,21.21,21.21,0,0,1-4-3.24,30.83,30.83,0,0,1-3.79-5,51.25,51.25,0,0,1-4.87-10.25c-.47-1.38-.8-2.51-1-3.3-.11-.39-.17-.7-.21-.91a1.31,1.31,0,0,1-.06-.32,1.19,1.19,0,0,1,.11.31l.27.89c.23.78.58,1.9,1.07,3.26a54.85,54.85,0,0,0,4.93,10.16,30.92,30.92,0,0,0,3.73,5,22,22,0,0,0,3.87,3.26,18.56,18.56,0,0,0,3,1.59C79.64,140.49,80.07,140.63,80.06,140.66Z"/><path class="cls-5" d="M71.9,115.41l.16.26a8.32,8.32,0,0,1,.39.79,20.67,20.67,0,0,1,1.1,3A39.39,39.39,0,0,1,75,130a20.38,20.38,0,0,1-.83,5.81,16.24,16.24,0,0,1-2,4.34,13.93,13.93,0,0,1-2.08,2.47c-.27.27-.51.45-.66.58s-.24.19-.25.18.3-.3.83-.84a15.41,15.41,0,0,0,2-2.5,17.06,17.06,0,0,0,1.95-4.3,21.12,21.12,0,0,0,.79-5.74,41.72,41.72,0,0,0-1.39-10.46,25.05,25.05,0,0,0-1-3C72.07,115.8,71.87,115.43,71.9,115.41Z"/><path class="cls-5" d="M87.2,138.71a.92.92,0,0,1-.25-.12c-.16-.08-.4-.22-.69-.4a19.22,19.22,0,0,1-2.36-1.74,22.7,22.7,0,0,1-3-3.12,52.83,52.83,0,0,1-3.21-4.25,23.92,23.92,0,0,1-3.72-8.89,16.64,16.64,0,0,1-.27-2.93c0-.34,0-.61,0-.79a1.07,1.07,0,0,1,0-.28s0,.38.05,1.07a17.8,17.8,0,0,0,.35,2.89,25,25,0,0,0,3.76,8.77c1,1.56,2.14,3,3.17,4.24a24.09,24.09,0,0,0,3,3.14,25.76,25.76,0,0,0,2.29,1.8C86.89,138.49,87.21,138.69,87.2,138.71Z"/><path class="cls-5" d="M82.43,120.72a3.58,3.58,0,0,1,.3.76c.18.5.41,1.22.66,2.13a24.56,24.56,0,0,1,.93,7.3,14.6,14.6,0,0,1-.71,4,15.73,15.73,0,0,1-1.35,3A18.41,18.41,0,0,1,81,139.81a3.36,3.36,0,0,1-.53.62,4.72,4.72,0,0,1,.43-.69,21.12,21.12,0,0,0,1.16-1.89,16.59,16.59,0,0,0,1.28-3A15.44,15.44,0,0,0,84,130.9a26.36,26.36,0,0,0-.84-7.23c-.22-.92-.42-1.65-.56-2.16A3.86,3.86,0,0,1,82.43,120.72Z"/><path class="cls-5" d="M72.08,178.56l-.09-.1-.25-.3L70.81,177l-3.4-4.4L56.31,158c-2.29-3-4.46-5.89-6.4-8.47l.21-.16a17.32,17.32,0,0,0,2.18,2.38,5.71,5.71,0,0,0,2.54,1.32,3.76,3.76,0,0,0,2.48-.26,3.47,3.47,0,0,0,1.47-1.55,7.11,7.11,0,0,0,.61-3c0-.34,0-.62,0-.83a1.29,1.29,0,0,1,0-.29,1.11,1.11,0,0,1,0,.29c0,.19,0,.47,0,.83a7,7,0,0,1-.56,3.1A3.55,3.55,0,0,1,57.4,153a3.89,3.89,0,0,1-2.61.3,5.83,5.83,0,0,1-2.65-1.35,17.64,17.64,0,0,1-2.23-2.39l.21-.16,6.42,8.44,11,14.64,3.32,4.45.89,1.22.22.32C72.06,178.52,72.09,178.56,72.08,178.56Z"/><path class="cls-5" d="M69.28,144.4a1.54,1.54,0,0,1,0,.56,7.24,7.24,0,0,1-.24,1.51,5.2,5.2,0,0,1-1,2,3.83,3.83,0,0,1-2.4,1.42,4.51,4.51,0,0,1-2.74-.55,7.1,7.1,0,0,1-1.8-1.39c-.45-.46-.78-.86-1-1.14a2.54,2.54,0,0,1-.32-.45s.56.57,1.47,1.45a8.36,8.36,0,0,0,1.78,1.3,4.37,4.37,0,0,0,2.58.49,3.69,3.69,0,0,0,2.24-1.3,5.36,5.36,0,0,0,1-1.92A18.48,18.48,0,0,0,69.28,144.4Z"/><path class="cls-5" d="M79.5,141.51a3.19,3.19,0,0,1-.26.5c-.17.31-.41.77-.69,1.35a15.67,15.67,0,0,1-1.08,2,5.64,5.64,0,0,1-2.07,1.91,3.37,3.37,0,0,1-1.45.33,3.54,3.54,0,0,1-1.35-.28A5,5,0,0,1,70.75,146a8.67,8.67,0,0,1-.9-1.25,1.71,1.71,0,0,1-.26-.5s.45.67,1.31,1.61a5.18,5.18,0,0,0,1.8,1.25,3.13,3.13,0,0,0,2.57-.08,5.3,5.3,0,0,0,2-1.79,20.27,20.27,0,0,0,1.12-1.94,15,15,0,0,1,.78-1.32C79.35,141.65,79.48,141.5,79.5,141.51Z"/><path class="cls-5" d="M87.23,138.78a1.33,1.33,0,0,1-.06.46,11.22,11.22,0,0,1-.29,1.24,7.4,7.4,0,0,1-.74,1.76,4.46,4.46,0,0,1-1.7,1.63,2.94,2.94,0,0,1-2.34.21,4,4,0,0,1-1.58-1.1,8.44,8.44,0,0,1-.77-1c-.17-.25-.25-.4-.23-.41s.41.53,1.15,1.28a3.91,3.91,0,0,0,1.51,1,2.74,2.74,0,0,0,2.13-.22,4.32,4.32,0,0,0,1.6-1.51,8.5,8.5,0,0,0,.78-1.68A13.91,13.91,0,0,1,87.23,138.78Z"/><path class="cls-5" d="M78.82,175.16c-.08,0-2.24-7.07-4.83-15.85s-4.64-15.9-4.56-15.93,2.24,7.07,4.83,15.85S78.89,175.14,78.82,175.16Z"/><path class="cls-8" d="M70.12,143.32a1.18,1.18,0,0,1-.83,1.44,1.18,1.18,0,1,1,.83-1.44Z"/><path class="cls-8" d="M60.38,145.92a1.18,1.18,0,1,1-1.44-.83A1.17,1.17,0,0,1,60.38,145.92Z"/><path class="cls-8" d="M51.11,148.4a1.18,1.18,0,1,1-1.44-.83A1.18,1.18,0,0,1,51.11,148.4Z"/><path class="cls-8" d="M80.91,140.43a1.18,1.18,0,1,1-1.44-.83A1.17,1.17,0,0,1,80.91,140.43Z"/><path class="cls-8" d="M88.39,138.43A1.18,1.18,0,1,1,87,137.6,1.17,1.17,0,0,1,88.39,138.43Z"/><rect class="cls-6" x="69.69" y="174.94" width="16.4" height="2.53" rx="1.22" transform="translate(-42.89 26.12) rotate(-14.98)"/><polygon class="cls-6" points="71.42 178.44 74.49 185.13 85.32 182.23 84.62 174.91 71.42 178.44"/><path class="cls-6" d="M85.41,183.06l-10.75,2.88a.41.41,0,0,1-.5-.28v0a.4.4,0,0,1,.28-.49l10.75-2.88a.4.4,0,0,1,.49.29v0A.39.39,0,0,1,85.41,183.06Z"/><path class="cls-5" d="M84.2,175.94c0,.08-2.77.89-6.24,1.82s-6.29,1.61-6.31,1.54,2.77-.89,6.24-1.82S84.18,175.86,84.2,175.94Z"/><path class="cls-5" d="M85,182.41A51,51,0,0,1,79.74,184a50.22,50.22,0,0,1-5.31,1.27,51,51,0,0,1,5.23-1.55A50.87,50.87,0,0,1,85,182.41Z"/><path class="cls-5" d="M83.6,174c-.08,0,.67-7.91,1.68-17.64s1.9-17.62,2-17.62-.67,7.91-1.68,17.65S83.68,174,83.6,174Z"/><path class="cls-5" d="M89.12,131.49s0,.1.08.3.13.49.22.87a23.07,23.07,0,0,1,.48,3.45,22.18,22.18,0,0,1-.4,5.55,22.48,22.48,0,0,1-2.65,7l-.09-.13h0l.22,0-.13.17,0,0h0a22.64,22.64,0,0,1-2.9,3.88h0l-2.19,3.23-1.15,1.69c-.19.29-.4.58-.58.88s-.36.6-.51.92a12.67,12.67,0,0,0-1,8.73l0,.13-.12,0-4.77,1.29-.12,0,0-.12A14.39,14.39,0,0,0,69,162.94a25.48,25.48,0,0,0-7.34-4.13h0l-1.94-.63h0l-.27-.07.21-.18h0l0,.24A22.46,22.46,0,0,1,49,149.62a21.21,21.21,0,0,1-1.9-3.5,19.69,19.69,0,0,1-1.22-3.74c-.12-.64-.3-1.27-.38-1.91s-.14-1.29-.21-1.92,0-1.29,0-1.92.09-1.27.14-1.9a23.1,23.1,0,0,1,2-7.11,21.91,21.91,0,0,1,4-5.83,23.87,23.87,0,0,1,2.54-2.3l1.38-1a4.68,4.68,0,0,1,.71-.44l.72-.41.71-.4c.24-.12.5-.22.74-.33.5-.22,1-.44,1.48-.64a24.5,24.5,0,0,1,3-.87,22.37,22.37,0,0,1,5.92-.52l1.42.13c.23,0,.46,0,.69.07l.68.13,1.33.26,1.28.37a22.22,22.22,0,0,1,8.2,4.54,22.46,22.46,0,0,1,4.51,5.49l.67,1.2c.2.39.34.77.49,1.11l.42,1c.12.29.18.57.27.81l.34,1.12c.08.25.11.38.11.38s-.05-.12-.14-.37-.21-.63-.37-1.11a7.9,7.9,0,0,0-.28-.81l-.42-.94c-.16-.34-.31-.72-.51-1.1l-.68-1.2a22.52,22.52,0,0,0-4.51-5.41,21.9,21.9,0,0,0-8.16-4.47l-1.26-.37-1.33-.25-.67-.12c-.23,0-.46,0-.69-.07l-1.4-.13a22.35,22.35,0,0,0-5.86.54,25.69,25.69,0,0,0-3,.86c-.49.2-1,.42-1.46.64-.24.11-.5.2-.73.33l-.71.4-.71.4a5.06,5.06,0,0,0-.7.43l-1.36,1A23.38,23.38,0,0,0,51.68,122a21.51,21.51,0,0,0-4,5.76,22.52,22.52,0,0,0-2,7c0,.63-.14,1.25-.14,1.88s0,1.25,0,1.89l.21,1.9c.07.63.25,1.25.37,1.88A19,19,0,0,0,47.37,146a20.3,20.3,0,0,0,1.87,3.46,22.16,22.16,0,0,0,10.56,8.43L60,158l-.19.15h0l0-.25.06,0h0l1.92.63h0a25.65,25.65,0,0,1,7.41,4.19,14.69,14.69,0,0,1,4.61,6.5l-.16-.09,4.78-1.27-.09.16a13,13,0,0,1,1-8.92c.16-.32.35-.62.53-.93s.39-.59.58-.88c.4-.57.78-1.14,1.16-1.7.76-1.11,1.5-2.18,2.2-3.22h0a22.26,22.26,0,0,0,2.89-3.83h0v0l.08.15h0l-.19,0,.1-.16a22.43,22.43,0,0,0,2.67-6.89,22.1,22.1,0,0,0,.44-5.51,24.45,24.45,0,0,0-.43-3.45c-.08-.38-.15-.67-.19-.88S89.12,131.49,89.12,131.49Z"/></g><g id="Pencil"><polygon class="cls-6" points="248.46 101.31 232.64 114.98 194.93 192.52 210.08 199.46 247.35 122.53 248.46 101.31"/><g class="cls-11"><path class="cls-7" d="M247.35,122.53a1.23,1.23,0,0,1-1.54-1.21,3.73,3.73,0,0,1-6.59-2.52,4.34,4.34,0,0,1-6.46-3.92l15.7-13.57Z"/></g><path class="cls-5" d="M242.1,106.81s.31,4,5.9,3.19l.46-8.69Z"/><path class="cls-5" d="M246.6,110.24a5.06,5.06,0,0,1-3.25-1,3.78,3.78,0,0,1-1.38-2.44v-.06L248.6,101l-.48,9.09-.1,0A10.26,10.26,0,0,1,246.6,110.24Zm-4.37-3.38a3.58,3.58,0,0,0,1.28,2.2,5.58,5.58,0,0,0,4.37.83l.44-8.29Z"/><g class="cls-9"><path d="M239.22,118.8l-36.59,76.44-7.45-3.19L232.64,115l.12-.11a4.26,4.26,0,0,0,.37,1.88,4.51,4.51,0,0,0,1.61,1.9,4.3,4.3,0,0,0,2.94.66A4.38,4.38,0,0,0,239.22,118.8Z"/></g><g class="cls-9"><path d="M245.81,121.32l-37.58,77.25,2,.85,37.15-76.89a1.33,1.33,0,0,1-1.53-.9A1.55,1.55,0,0,1,245.81,121.32Z"/></g><path class="cls-7" d="M239,114.2a.32.32,0,0,0-.08.22.45.45,0,0,0,.42.43,1.76,1.76,0,0,0,1-.3,1.12,1.12,0,0,0,.42-.49.68.68,0,0,0-.06-.69,1,1,0,0,0-.7-.34,3.42,3.42,0,0,0-.89.06,4.92,4.92,0,0,0-1.82.75,1.28,1.28,0,0,0-.55.85,1.07,1.07,0,0,0,.47.92,2.89,2.89,0,0,0,2.25.24,4.15,4.15,0,0,0,3.09-3,1.06,1.06,0,0,0-.26-.91,1.78,1.78,0,0,0-.8-.5,5.62,5.62,0,0,0-1.7-.31,6.22,6.22,0,0,0-2.46.41c-.28.11-.49.21-.63.28a1.71,1.71,0,0,1-.22.11,4.2,4.2,0,0,1,.83-.43,6.08,6.08,0,0,1,4.22-.16,2.17,2.17,0,0,1,.84.53,1.16,1.16,0,0,1,.28,1,4.29,4.29,0,0,1-4.38,3.21,2.14,2.14,0,0,1-1.13-.37,1.2,1.2,0,0,1-.51-1,1.31,1.31,0,0,1,.6-.92,4.71,4.71,0,0,1,1.86-.76,2.88,2.88,0,0,1,.92-.06,1,1,0,0,1,.76.38.77.77,0,0,1,.06.76,1.13,1.13,0,0,1-.46.52,1.8,1.8,0,0,1-1.05.3.48.48,0,0,1-.43-.48A.29.29,0,0,1,239,114.2Z"/><path class="cls-7" d="M247.63,113.75s-.24,0-.66,0a4.51,4.51,0,0,0-1.72.5,11.48,11.48,0,0,0-2.19,1.52,9.94,9.94,0,0,1-2.76,1.78,5.68,5.68,0,0,1-3.27.19,5.48,5.48,0,0,1-3.5-2.67,3.33,3.33,0,0,1-.28-.6s0,.05.08.15.13.25.24.43a5.68,5.68,0,0,0,1.15,1.38,5.45,5.45,0,0,0,2.34,1.2,5.62,5.62,0,0,0,3.2-.19,10,10,0,0,0,2.74-1.76,11.36,11.36,0,0,1,2.22-1.51,4.45,4.45,0,0,1,1.75-.46A2.64,2.64,0,0,1,247.63,113.75Z"/><path class="cls-7" d="M247.62,118.59a1.7,1.7,0,0,0-1.11-.51,9.76,9.76,0,0,0-3,.5,16.7,16.7,0,0,0-2.83,1.11l-.82.43a1.77,1.77,0,0,1-.3.16s.09-.07.28-.19a8.18,8.18,0,0,1,.8-.47,14.81,14.81,0,0,1,2.84-1.15,13.27,13.27,0,0,1,1.65-.38,4.81,4.81,0,0,1,1.38-.09,1.73,1.73,0,0,1,.87.34A1,1,0,0,1,247.62,118.59Z"/><path class="cls-7" d="M241,122.11a2.74,2.74,0,0,1,.53-.44,3.66,3.66,0,0,1,1.51-.71,1.93,1.93,0,0,1,1.61.37,1.27,1.27,0,0,1,.32.39c.06.11.08.17.07.17a2.09,2.09,0,0,0-.45-.5,1.89,1.89,0,0,0-1.53-.31,4,4,0,0,0-1.49.66A4.92,4.92,0,0,1,241,122.11Z"/><path class="cls-7" d="M248,110.87l-.08.06-.23.17a1.17,1.17,0,0,1-.42.19,1.23,1.23,0,0,1-.6,0c-.44-.09-.93-.3-1.48-.48a10.79,10.79,0,0,0-1.84-.43,22.13,22.13,0,0,0-3.44-.17l-1,0h-.39l.39,0,1-.06a18.74,18.74,0,0,1,3.46.14,10,10,0,0,1,1.86.43c.56.19,1,.41,1.47.51a1.11,1.11,0,0,0,1-.13A1.61,1.61,0,0,1,248,110.87Z"/></g><g id="Cloud"><path class="cls-4" d="M83.22,200.32a26,26,0,0,1,24.58-14c2-11.59,16.87-18.77,27.18-13.14a18.31,18.31,0,0,1,31.86-.92c13.26-8.63,33.7-2.18,39.61,12.49a22,22,0,0,1,20-2c6.46,2.59,12,10.17,12,18.58-53.87.16-101.32-1.17-155.19-1"/></g><g id="Character_3" data-name="Character 3"><path class="cls-5" d="M139.26,201.6c2.51-7.29,5.68-.39,5.68-.39l3.85-43.78L117.94,159s-1-4-8.61,42.65"/><path class="cls-5" d="M166.08,157.43l-33.45.94,9.06,43.23H181C182.37,178.75,166.08,157.43,166.08,157.43Z"/><path class="cls-5" d="M116.37,98.5a3,3,0,0,0-.09.68c0,.5-.08,1.15-.14,1.95-.13,1.7-.22,4.16-.28,7.2-.11,6.08.17,14.48.78,23.73s1.13,17.63,1.25,23.7c.06,3,.09,5.49.06,7.19,0,.8,0,1.45,0,2a3,3,0,0,0,0,.68,3.28,3.28,0,0,0,.07-.68c0-.5.06-1.15.1-2,.09-1.69.12-4.16.1-7.2,0-6.08-.49-14.47-1.09-23.72s-1-17.63-.94-23.7c0-3,0-5.49.11-7.19,0-.8,0-1.45,0-2A3.67,3.67,0,0,0,116.37,98.5Z"/><path class="cls-12" d="M199.08,103.71c1.85.11,3.24-2.22,2.88-4.19a6.1,6.1,0,0,0-3.66-4.21,36.85,36.85,0,0,0-5.37-1.5A20.63,20.63,0,0,1,180.29,83.1,38.76,38.76,0,0,1,178,76.86c-2.52-11.52-6-28-6.86-34.4C168.9,25.89,165,7.7,143.22,9.4c0,0-14.48,3-20,14.25-4.89,9.92-2.07,39.85-2.71,61.41l4.75,3.11.73,0a21.29,21.29,0,0,0,2.62,6.18,59.13,59.13,0,0,0,16.65,16.49c12.93,8.82,28.41,13.63,43.61,12a22.08,22.08,0,0,0,9.27-2.73,11.58,11.58,0,0,0,5.55-8.16C204.07,108.5,202.19,104.65,199.08,103.71Z"/><path class="cls-13" d="M140.16,15.08l1.36-1.3,14.77,6a4.13,4.13,0,0,1,3.9,4l-.13,48.13a13.55,13.55,0,0,1-2.61,8.69l-2.07,2.74c-4.73,6.24-14.46,5.73-18.21-1.15a5.22,5.22,0,0,1-.52-1.25,8.51,8.51,0,0,1-.22-1.07c-.44-3.87-.47-7.23-.47-7.23-.26-4.25-.35-6-.35-6s-9-1-11.49-12.65c-1.21-5.77-1-13.72-.64-21.54C124,21.61,131.46,15.07,140.16,15.08Z"/><path class="cls-5" d="M140.89,40.35a1.52,1.52,0,0,0,1.53,1.45,1.45,1.45,0,0,0,1.48-1.44,1.51,1.51,0,0,0-1.53-1.44A1.44,1.44,0,0,0,140.89,40.35Z"/><path class="cls-5" d="M126.47,40.35A1.51,1.51,0,0,0,128,41.8a1.44,1.44,0,0,0,1.48-1.44A1.5,1.5,0,0,0,128,38.92,1.44,1.44,0,0,0,126.47,40.35Z"/><path class="cls-5" d="M125,35.52c.2.19,1.29-.71,2.91-.79s2.84.68,3,.47-.12-.44-.66-.79a4.2,4.2,0,0,0-2.41-.61,4,4,0,0,0-2.31.87C125.08,35.08,124.93,35.44,125,35.52Z"/><path class="cls-5" d="M141.42,35.69c.21.17,1.21-.84,2.81-1.08s2.89.37,3,.15-.16-.42-.73-.71a4.22,4.22,0,0,0-2.47-.37,3.94,3.94,0,0,0-2.2,1.11C141.43,35.24,141.31,35.62,141.42,35.69Z"/><path class="cls-5" d="M135.77,47.45a11.17,11.17,0,0,0-2.65-.34c-.41,0-.8-.09-.89-.36a2.1,2.1,0,0,1,.22-1.24c.33-1,.69-2.08,1.06-3.2C135,37.75,136,34,135.84,34s-1.53,3.59-3,8.15l-1,3.22A2.42,2.42,0,0,0,131.7,47a1,1,0,0,0,.71.57,2.58,2.58,0,0,0,.7.06A10.41,10.41,0,0,0,135.77,47.45Z"/><path class="cls-14" d="M135.61,66.62a29.78,29.78,0,0,0,15.47-5s-3.53,8.3-15.3,7.79Z"/><path class="cls-14" d="M136.65,51.31a2.9,2.9,0,0,1,2.56-1.21,2.65,2.65,0,0,1,1.88.89,1.69,1.69,0,0,1,.22,1.92,2,2,0,0,1-2.09.64,6,6,0,0,1-2.12-1.13,1.92,1.92,0,0,1-.49-.45.55.55,0,0,1,0-.6"/><path class="cls-5" d="M140.58,48.33c-.26,0-.18,1.75-1.62,3.07s-3.31,1.22-3.31,1.47.43.32,1.22.3A4.34,4.34,0,0,0,139.64,52a3.76,3.76,0,0,0,1.25-2.57C140.92,48.74,140.7,48.31,140.58,48.33Z"/><path class="cls-12" d="M139.87,29.39c.22.41,1.79,0,3.7-.1s3.5.22,3.69-.21c.09-.2-.24-.57-.92-.9a6.08,6.08,0,0,0-2.84-.53,6.17,6.17,0,0,0-2.79.77C140.06,28.8,139.77,29.2,139.87,29.39Z"/><path class="cls-12" d="M125.25,28.58c.31.36,1.4-.08,2.74-.17s2.48.13,2.72-.27c.11-.19-.09-.55-.6-.87a4,4,0,0,0-4.4.35C125.26,28,125.12,28.41,125.25,28.58Z"/><path class="cls-12" d="M159.89,44.26s-8.27,2.58-13-17.84c-1.6-7-8.07-12.64-8.07-12.64l2.63-.79s16.31,4.6,16.59,4.8,4.11,8.44,4.11,8.44Z"/><path class="cls-13" d="M157.85,43.5c0-.87.87-3,1.72-3.15,2.28-.48,6.43-.5,6.76,5.34.46,8-7.65,6.78-7.67,6.56S158,46.51,157.85,43.5Z"/><path class="cls-14" d="M160.92,49.08s.15.09.39.19a1.4,1.4,0,0,0,1,0c.82-.36,1.46-1.73,1.41-3.18a4.54,4.54,0,0,0-.5-2,1.59,1.59,0,0,0-1.1-1,.71.71,0,0,0-.8.43c-.1.23,0,.38-.08.4s-.18-.13-.13-.46a.93.93,0,0,1,.28-.52,1.07,1.07,0,0,1,.76-.24,1.94,1.94,0,0,1,1.52,1.15,4.59,4.59,0,0,1,.61,2.2c0,1.61-.7,3.16-1.83,3.56a1.49,1.49,0,0,1-1.28-.14C161,49.28,160.9,49.1,160.92,49.08Z"/><path class="cls-15" d="M166.63,73.65a19.85,19.85,0,0,1-.17-2.78,43.25,43.25,0,0,1,.77-7.58c.28-1.59.6-3.32.93-5.18a50.48,50.48,0,0,0,.72-6,24.49,24.49,0,0,0-.49-6.6,16.14,16.14,0,0,0-1.12-3.31,15.29,15.29,0,0,0-1.89-3.07,37,37,0,0,0-5-5.06c-1.75-1.51-3.43-3-4.91-4.52a62.67,62.67,0,0,1-7.18-8.73,60.24,60.24,0,0,1-3.89-6.56c-.4-.8-.71-1.43-.9-1.86l-.22-.49c0-.11-.08-.17-.07-.17l.09.16.24.48c.2.43.52,1,.94,1.84a62.47,62.47,0,0,0,3.94,6.51,63.47,63.47,0,0,0,7.19,8.67c1.49,1.52,3.16,3,4.91,4.51A36.91,36.91,0,0,1,165.56,39a16.08,16.08,0,0,1,1.91,3.1,16.82,16.82,0,0,1,1.13,3.36,24.56,24.56,0,0,1,.48,6.66,50.45,50.45,0,0,1-.74,6c-.34,1.86-.66,3.59-1,5.17a45.61,45.61,0,0,0-.84,7.56c0,.89,0,1.59.05,2.06l0,.54Q166.65,73.65,166.63,73.65Z"/><path class="cls-15" d="M169.2,74.4a19.85,19.85,0,0,1-.17-2.78A42.3,42.3,0,0,1,169.8,64q.42-2.39.93-5.18a48.53,48.53,0,0,0,.71-6,24.08,24.08,0,0,0-.48-6.6A16.77,16.77,0,0,0,169.84,43,16.58,16.58,0,0,0,168,39.9a37.54,37.54,0,0,0-5-5.06c-1.75-1.51-3.43-3-4.92-4.52a62.66,62.66,0,0,1-7.17-8.73A58.64,58.64,0,0,1,147,15c-.41-.8-.71-1.43-.9-1.86l-.23-.49c0-.11-.07-.17-.06-.17l.08.16.25.48c.2.43.52,1,.94,1.85A63.59,63.59,0,0,0,151,21.5a62.75,62.75,0,0,0,7.19,8.67c1.49,1.52,3.16,3,4.91,4.51a36.3,36.3,0,0,1,5.05,5.09,15.65,15.65,0,0,1,1.92,3.1,17.48,17.48,0,0,1,1.13,3.36,24.56,24.56,0,0,1,.48,6.66,50.45,50.45,0,0,1-.74,6c-.35,1.86-.67,3.59-1,5.17a45.61,45.61,0,0,0-.84,7.56c0,.89,0,1.59,0,2.06l0,.54Z"/><path class="cls-8" d="M132.26,77.6l-3,5L119.41,86s-9.24,17.16-8.8,26.53,2.86,14.34,2.86,14.34L113,139.64S110.16,151,112,154.83a14,14,0,0,0,5.09,5.77l42.2.53s6.54-.35,8.31-5.41-4.23-39.66-4.23-39.66l9.21-23.73-14.9-8.12L154.92,77l-17.83,4.54Z"/><path class="cls-8" d="M95.39,104.81l3.89,14.38,7.51-25.78a11.81,11.81,0,0,1,6.9-6.82l15.58-4-17.19,54.93-1.5,3.87a10.31,10.31,0,0,1-5.26,5.25c-6.27,2.84-14.18-.3-15.83-7l-8.66-30.88Z"/><path class="cls-5" d="M112,154.83s-.06-.08-.16-.25a3,3,0,0,1-.33-.83,11,11,0,0,1-.31-3.32A57.61,57.61,0,0,1,113,138.77v.06c0-3.18-.08-6.69-.12-10.4l0,.1c-.41-.94-.89-1.91-1.23-3s-.61-2-.89-3-.43-2-.53-2.93a30,30,0,0,1-.25-5.63,30.92,30.92,0,0,1,1.91-9.32A28.93,28.93,0,0,1,114.78,99c.41-.64.79-1.09,1-1.41a3.21,3.21,0,0,1,.38-.47,2.2,2.2,0,0,1-.31.52c-.21.34-.57.81-1,1.45a31,31,0,0,0-4.55,15,30.14,30.14,0,0,0,.27,5.56c.1,1,.34,1.91.53,2.89s.51,1.94.88,2.9.81,2,1.21,2.9l0,0v.05c0,3.71,0,7.21.08,10.39v.05a62.1,62.1,0,0,0-2,11.56,12.19,12.19,0,0,0,.2,3.29,3.65,3.65,0,0,0,.27.83A.92.92,0,0,1,112,154.83Z"/><path class="cls-5" d="M153.59,124.44a3.21,3.21,0,0,1-.78.51,6.89,6.89,0,0,1-1,.51c-.39.17-.82.4-1.33.57a19.08,19.08,0,0,1-3.64,1,22.3,22.3,0,0,1-4.62.21,21.68,21.68,0,0,1-4.53-.86,18.81,18.81,0,0,1-3.47-1.48,13,13,0,0,1-1.24-.75,7.52,7.52,0,0,1-.88-.64,3.81,3.81,0,0,1-.7-.61c.06-.08,1.08.76,3,1.72a20.37,20.37,0,0,0,3.43,1.37,23.36,23.36,0,0,0,4.45.8,22.91,22.91,0,0,0,4.52-.16,20.08,20.08,0,0,0,3.6-.86C152.41,125.05,153.55,124.36,153.59,124.44Z"/><path class="cls-8" d="M189.69,98.42c-3.2-5.56-9.06-11.11-9.06-11.11l-9.43,32.91,24.52,20-17.08,17.9,5.13,12.07s2.2-1.47,5.47-3.83c.77-.55,3.64.34,4.51-.31,9.71-7.15,22.92-20.84,23.77-27.47C219,127.27,194.93,107.53,189.69,98.42Z"/><path class="cls-5" d="M209.63,139.84c0,.06-.72-.5-2-1.09a10.78,10.78,0,0,0-10.24.41c-1.18.69-1.8,1.3-1.86,1.24s.12-.2.4-.47a8,8,0,0,1,1.3-1,10.21,10.21,0,0,1,10.55-.42,8.5,8.5,0,0,1,1.38.93C209.5,139.65,209.64,139.82,209.63,139.84Z"/><path class="cls-6" d="M207.88,121.7a44.62,44.62,0,1,0-70,27.83c-1,5.19-2.1,11.05-2.1,11.05l38.42,7.28s1.41-6.16,2.55-11.68A44.64,44.64,0,0,0,207.88,121.7Z"/><path class="cls-7" d="M151.2,163.26c2.48-14.33,5.93-28.49,8.13-42.88.45-2.92.86-5.85,1.06-8.8.28-4,0-8.62-3.57-11.22s-7.46-.73-9.66,2.56a19.57,19.57,0,0,0-3,11,20.36,20.36,0,0,0,11.49,18.24,20.62,20.62,0,0,0,21.36-2.1c5.72-4.46,9.72-12.82,7.64-20.1-.89-3.11-3.18-6.26-6.71-6.32s-6,3.15-7.31,6.13a70,70,0,0,0-3.3,10.51c-1.08,4.08-2,8.18-3,12.3-1.9,8.46-3.59,17-5.49,25.44-.42,1.86-.85,3.73-1.3,5.59-.32,1.33,1.74,1.9,2.06.57,3.59-14.86,6.11-30,10.13-44.73a49.39,49.39,0,0,1,3.15-9.54c1.27-2.48,3.9-5.44,6.91-3.56,2.69,1.67,3.31,5.48,3.15,8.37a18.88,18.88,0,0,1-3.55,9.77,18.31,18.31,0,0,1-32.56-6.2,19,19,0,0,1,.26-10.24c.91-2.91,3.3-7.84,7.13-6.63,4.13,1.3,4.25,6.47,4,10-.17,2.59-.51,5.18-.9,7.75-2,13.27-5,26.36-7.51,39.54-.25,1.34-.49,2.67-.72,4s1.82,1.92,2.06.56Z"/><g id="_2gGvdE.tif" data-name="2gGvdE.tif"><path class="cls-2" d="M142.25,184.9a12,12,0,0,1,2.08,2.7,2.63,2.63,0,0,0,1.86,1.36l7.73,1.45a2.61,2.61,0,0,0,2.38-.73,4.93,4.93,0,0,1,3-1.56Z"/></g><path class="cls-2" d="M137.94,161.79c0,.15-.52,12.57-.7,17.32a5.77,5.77,0,0,0,2.37,5,5.25,5.25,0,0,0,2.11.89l16.91,3.2s4.42.83,6.09-2.49c1.75-3.49,6.48-17.63,6.48-17.63Z"/><rect class="cls-2" x="150.62" y="164.82" width="1.8" height="31.69" rx="0.85" transform="translate(-53.69 296.79) rotate(-79.52)"/><path class="cls-5" d="M166.1,184.28a1.08,1.08,0,0,0,.62-.16.88.88,0,0,0,.35-.67.79.79,0,0,0-.48-.83c-1.59-.33-4-.72-6.89-1.25l-22.78-4.17a.71.71,0,0,0-.65.2.9.9,0,0,0-.17.3,1.12,1.12,0,0,0,0,.36.7.7,0,0,0,.37.55,4.66,4.66,0,0,0,.77.17l3.19.6,6,1.12,10.23,1.93,6.9,1.32,1.87.38.48.1.17.05-.17,0-.49-.08-1.88-.32-6.91-1.23-10.25-1.86-6.05-1.11-3.2-.59-.4-.08a1.26,1.26,0,0,1-.44-.12,1,1,0,0,1-.53-.78,1.47,1.47,0,0,1,0-.47,1.18,1.18,0,0,1,.24-.42,1,1,0,0,1,.91-.29l22.77,4.25c2.91.57,5.26,1,6.9,1.35a.91.91,0,0,1,.52,1,.94.94,0,0,1-.41.7A.78.78,0,0,1,166.1,184.28Z"/><rect class="cls-2" x="151.34" y="160.38" width="1.8" height="32.96" rx="0.85" transform="translate(-49.36 294.39) rotate(-79.52)"/><path class="cls-5" d="M167.44,180.59a1,1,0,0,0,.64-.18.89.89,0,0,0,.34-.7.8.8,0,0,0-.57-.81l-7.18-1.29L137,173.28a.71.71,0,0,0-.66.22.65.65,0,0,0-.16.32.71.71,0,0,0,0,.38.68.68,0,0,0,.44.52c.22.07.55.11.82.17l3.32.62,6.28,1.17,10.63,2,7.16,1.38,2,.38.5.11.17.05-.17,0-.51-.08-2-.33-7.18-1.28L147,176.94l-6.28-1.15-3.33-.62a7.79,7.79,0,0,1-.86-.18,1,1,0,0,1-.63-.74,1.33,1.33,0,0,1,0-.49,1.13,1.13,0,0,1,.23-.45,1,1,0,0,1,.93-.32l23.65,4.42c3,.57,5.47,1,7.17,1.38a.91.91,0,0,1,.63.93,1,1,0,0,1-.4.74A.75.75,0,0,1,167.44,180.59Z"/><path class="cls-2" d="M168.56,176.86,137,171a.85.85,0,0,1-.69-1l0-.09a.84.84,0,0,1,1-.68l31.53,5.83a.85.85,0,0,1,.69,1l0,.09A.86.86,0,0,1,168.56,176.86Z"/><path class="cls-5" d="M168.56,176.86a.93.93,0,0,0,.65-.19.91.91,0,0,0,.33-.72.82.82,0,0,0-.64-.8l-7.34-1.31-24.23-4.44a.71.71,0,0,0-.67.24.68.68,0,0,0-.16.33.82.82,0,0,0,0,.38.72.72,0,0,0,.49.51l.85.17,3.4.63,6.43,1.2,10.88,2,7.33,1.4,2,.4.51.11c.12,0,.18,0,.18.05l-.18,0-.52-.08-2-.35-7.35-1.31-10.89-2-6.43-1.18-3.41-.63-.88-.17a1,1,0,0,1-.68-.72,1.05,1.05,0,0,1,0-.5.93.93,0,0,1,.22-.47,1,1,0,0,1,.94-.34l24.21,4.53,7.34,1.4a.9.9,0,0,1,.69.91,1,1,0,0,1-.38.77A.76.76,0,0,1,168.56,176.86Z"/><rect class="cls-2" x="152.77" y="151.72" width="1.8" height="35.07" rx="0.85" transform="translate(-40.71 289.57) rotate(-79.52)"/><path class="cls-5" d="M169.91,173.17a.89.89,0,0,0,.67-.2.9.9,0,0,0,.31-.76.8.8,0,0,0-.73-.76l-7.62-1.37-25.13-4.6a.7.7,0,0,0-.69.26.85.85,0,0,0-.13.74.69.69,0,0,0,.55.48l.9.17,3.52.65,6.67,1.25,11.29,2.12,7.61,1.45,2.07.41.53.11.18,0s-.06,0-.18,0l-.54-.08-2.08-.36-7.62-1.36-11.3-2.06-6.68-1.23-3.53-.65-.9-.16a1,1,0,0,1-.77-.68,1,1,0,0,1,0-.52,1.18,1.18,0,0,1,.21-.49,1,1,0,0,1,1-.37l25.12,4.69,7.6,1.45a.92.92,0,0,1,.8.87,1,1,0,0,1-.36.82.87.87,0,0,1-.52.18A.46.46,0,0,1,169.91,173.17Z"/><path class="cls-6" d="M135.64,150.55c-.06.32-.76,7.85-1.11,11.71a4.62,4.62,0,0,0,1.42,3.8l1.52,1.44,32.7,6.17,1.91-.78a4.66,4.66,0,0,0,2.73-3.06l2.94-11.56Z"/><g class="cls-9"><path d="M137.72,179a43.5,43.5,0,0,0,9.61,2.6c2.79.51,5.51,1.11,8.56,1.61,2.23.38,4.29.65,6.52,1a6.15,6.15,0,0,0,2.68-.07Z"/></g><g class="cls-9"><path d="M137.28,174.91a49.36,49.36,0,0,0,10.36,2.74c3,.56,6,1.19,9.23,1.75,2.4.4,4.63.71,7,1.06a7.3,7.3,0,0,0,2.88,0Z"/></g><g class="cls-9"><path d="M138,171.14a50.61,50.61,0,0,0,10.36,2.74c3,.55,6,1.19,9.23,1.74,2.4.4,4.63.71,7,1.06a7.11,7.11,0,0,0,2.88,0Z"/></g><g class="cls-9"><path d="M138.7,167.36a50.7,50.7,0,0,0,10.37,2.74c3,.56,6,1.19,9.22,1.74,2.41.41,4.63.71,7,1.07a7.08,7.08,0,0,0,2.88,0Z"/></g><g class="cls-9"><path d="M135.64,150.55c-.06.32-.76,7.85-1.11,11.71a4.62,4.62,0,0,0,1.42,3.8l1.52,1.44,32.7,6.17,1.91-.78a4.66,4.66,0,0,0,2.73-3.06l2.94-11.56Z"/></g><path class="cls-5" d="M173.71,171.25c0,.08-8.77-1.51-19.56-3.54s-19.53-3.75-19.51-3.83,8.77,1.51,19.56,3.54S173.73,171.17,173.71,171.25Z"/><path class="cls-5" d="M177.75,158.27c0,.09-9.53-1.59-21.26-3.76s-21.22-4-21.21-4.08,9.53,1.6,21.26,3.76S177.77,158.19,177.75,158.27Z"/><g class="cls-9"><path class="cls-7" d="M162.15,74.48c-1.11-1.83-4-3.67-10.85-.84A47.2,47.2,0,0,0,124,102.21a14.42,14.42,0,0,0-1,5.9,6.14,6.14,0,0,0,3,4.93c2.9,1.46,6.5-.53,8.23-3.27s2.2-6.06,3.22-9.14a26.29,26.29,0,0,1,17-16.58c2.65-.81,5.68-1.34,7.37-3.55A5.45,5.45,0,0,0,162.15,74.48Z"/></g><g class="cls-9"><path class="cls-7" d="M182,143.87c1.22,1.18,3.77,2,8.53-1.51a37.58,37.58,0,0,0,15.37-27.45,11.31,11.31,0,0,0-.43-4.74,4.85,4.85,0,0,0-3.31-3.19c-2.52-.55-4.91,1.69-5.69,4.15s-.49,5.11-.66,7.68A21,21,0,0,1,186.05,135c-1.89,1.15-4.12,2.16-5,4.2A4.36,4.36,0,0,0,182,143.87Z"/></g><path class="cls-16" d="M177.88,159.67s-5.06-2.28-6.68-2.5-6.91-.06-9-1a1.36,1.36,0,0,0,.22,2.32,15.31,15.31,0,0,0,5.8,2.15c1.37.11,1.16,1.12.3,1.65s-7.22,3-7.22,3-7.63,1.76-8.09,2.66a1.37,1.37,0,0,0,.94,1.94c.49.06,7.16-.87,7.16-.87l3.3-1.1s-10.11,4.13-10.53,5.14a1.19,1.19,0,0,0,.84,1.71c.61.21,5.05-1.66,5.05-1.66l6.16-2.09-10.81,5.68s-.95.67-.55,1.48,1.86.71,1.86.71L168.32,174s-6.34,3-6.43,3.58c-.13.78.29,1.21.86,1.13a67.87,67.87,0,0,0,7-2.63l10.78-5.25,2.82-1.17L179,159Z"/><path class="cls-13" d="M86.22,84.93s1.29-3.82,2.78-3.82a5.22,5.22,0,0,1,3.9,2,1.3,1.3,0,0,1-.67,2.07,6.67,6.67,0,0,1-2.17-.81l-.9,3.36,1.51,3,1.51-.37.91-1.19-.68-1.88c-.25-.48,0-1.62.54-1.79s1.55.58,2.13,1.52c1.15,1.88,2.28,5.22.61,7.44a63.07,63.07,0,0,1-5,5.47l1.66,5.73-9.66,2.66-1.43-7.16-4.6-10.43s-4.52-3-5.09-4.43a51.07,51.07,0,0,1-1.35-5.14,1.14,1.14,0,0,1,1.86.09A18.77,18.77,0,0,1,74,85.05l3.74,2.31L74,75.59s1.6-1.61,3,1.23,3.42,8.75,3.79,8.67,1.51-.34,1-1.85S79.15,73,79.15,73s2.39-.87,3.31,2.15c.75,2.47,2.19,7.93,2.37,8.51S86.22,84.93,86.22,84.93Z"/><path class="cls-14" d="M86.08,96.88c.08,0,.13-.41.33-1a6.4,6.4,0,0,1,1.27-2.19,6.26,6.26,0,0,1,2-1.51c.59-.28,1-.38,1-.45a2,2,0,0,0-1.11.15,5.44,5.44,0,0,0-3.49,3.91A1.9,1.9,0,0,0,86.08,96.88Z"/></g></g></svg>